<svg width="19" height="18" viewBox="0 0 19 18" fill="none" xmlns="http://www.w3.org/2000/svg">
<path d="M2.09998 5.2477H5.02975L5.70027 4.49888C6.25043 3.81414 7.0642 3.57504 7.80232 3.88127L9.22175 4.49888M2.09998 11.9625H5.09863L6.58274 12.9179C7.99822 13.8292 8.70597 14.2849 9.4772 14.2294C9.51357 14.2268 9.5498 14.2232 9.58602 14.219C10.3534 14.1273 10.9549 13.5465 12.1579 12.3848L13.3449 11.2385" stroke="#B70404" stroke-width="1.125" stroke-linejoin="round"/>
<path d="M17.086 5.41918H14.8545C13.9935 4.8997 13.0085 3.55792 11.1339 3.75766C10.7166 3.80212 9.90453 3.86716 9.05163 4.71338L7.70375 6.1231C7.43839 6.4403 7.0669 7.25458 7.70375 7.97415C8.34063 8.6937 9.18693 8.16097 9.53051 7.80465L10.3788 7.1138L14.4344 11.9556C14.4486 11.9726 14.4697 11.9824 14.4918 11.9824H17.1029" stroke="#B70404" stroke-width="1.125"/>
</svg>
