<svg width="19" height="18" viewBox="0 0 19 18" fill="none" xmlns="http://www.w3.org/2000/svg">
<path d="M7.90002 5.25L7.51314 6.29554C7.00583 7.6665 6.75217 8.352 6.25211 8.8521C5.75205 9.35213 5.06655 9.60577 3.69556 10.1131L2.65002 10.5L3.69556 10.8869C5.06655 11.3942 5.75205 11.6479 6.25211 12.1479C6.75217 12.648 7.00583 13.3335 7.51314 14.7044L7.90002 15.75L8.28687 14.7044C8.79425 13.3335 9.0479 12.648 9.54792 12.1479C10.048 11.6479 10.7335 11.3942 12.1044 10.8869L13.15 10.5L12.1044 10.1131C10.7335 9.60577 10.048 9.35213 9.54792 8.8521C9.0479 8.352 8.79425 7.6665 8.28687 6.29554L7.90002 5.25Z" stroke="#B70404" stroke-width="1.125" stroke-linejoin="round"/>
<path d="M13.9 2.25L13.7342 2.69809C13.5168 3.28565 13.4081 3.57944 13.1937 3.79375C12.9795 4.00806 12.6857 4.11677 12.0981 4.33419L11.65 4.5L12.0981 4.66581C12.6857 4.88323 12.9795 4.99194 13.1937 5.20625C13.4081 5.42056 13.5168 5.71435 13.7342 6.30191L13.9 6.75L14.0658 6.30191C14.2833 5.71435 14.3919 5.42056 14.6063 5.20624C14.8206 4.99194 15.1143 4.88323 15.7019 4.66581L16.15 4.5L15.7019 4.33419C15.1143 4.11677 14.8206 4.00806 14.6063 3.79375C14.3919 3.57944 14.2833 3.28565 14.0658 2.69809L13.9 2.25Z" stroke="#B70404" stroke-width="1.125" stroke-linejoin="round"/>
</svg>
