<svg width="473" height="125" viewBox="0 0 473 125" fill="none" xmlns="http://www.w3.org/2000/svg">
<g filter="url(#filter0_d_599_446)">
<rect x="23" y="18" width="427.148" height="79.7344" rx="9.49219" fill="#FF9083" fill-opacity="0.5" shape-rendering="crispEdges"/>
<rect x="34.3906" y="29.3906" width="56.9531" height="56.9531" rx="7.59375" fill="#B70404"/>
<path d="M46.261 62.0029H43.5984V54.6845H46.0901V55.795H46.2183C46.6169 54.9835 47.457 54.5421 48.4679 54.5421C49.6639 54.5421 50.3901 55.0404 50.7603 55.795H50.8884C51.3868 54.9692 52.2126 54.5421 53.2805 54.5421C55.1741 54.5421 55.8861 55.8093 55.8861 57.3185V62.0029H53.2093V57.8738C53.2093 57.0907 53.0384 56.8344 52.1699 56.8344C51.3298 56.8344 51.0735 57.048 51.0735 57.8311V62.0029H48.3967V57.8738C48.3967 57.0907 48.2259 56.8344 47.3573 56.8344C46.5173 56.8344 46.261 57.048 46.261 57.8311V62.0029ZM59.3452 62.0029H56.6826V54.6845H59.1743V55.795H59.3025C59.7011 54.9692 60.6124 54.5421 61.6945 54.5421C63.5882 54.5421 64.3001 55.8093 64.3001 57.3185V62.0029H61.6233V57.8738C61.6233 57.0907 61.4382 56.8344 60.4985 56.8344C59.6157 56.8344 59.3452 57.048 59.3452 57.8311V62.0029ZM70.3565 62.0029H66.9393L64.2055 54.6845H67.1956L68.5909 59.3404H68.776L70.1714 54.6845H73.1045L70.3565 62.0029ZM75.9194 62.0029H73.2569V54.6845H75.7486V55.795H75.8767C76.2896 55.0831 76.9873 54.5421 77.9555 54.5421C79.3651 54.5421 79.8634 55.4533 79.8634 56.8914V58.2155H77.1866V57.4894C77.1866 56.9483 77.087 56.7917 76.5886 56.7917C76.1472 56.7917 75.9194 56.8487 75.9194 57.3755V62.0029ZM82.1332 62.0029H78.9438V59.0556H82.1332V62.0029Z" fill="#F9F0DE"/>
<path d="M108.692 38.2202H110.678L113.998 47.3638L117.31 38.2202H119.304L114.791 50.3672H113.197L108.692 38.2202ZM107.691 38.2202H109.635L109.985 46.6213V50.3672H107.691V38.2202ZM118.353 38.2202H120.305V50.3672H118.011V46.6213L118.353 38.2202ZM127.788 48.4484V44.2853C127.788 43.9794 127.735 43.7152 127.63 43.4928C127.524 43.2703 127.363 43.0979 127.146 42.9755C126.929 42.8532 126.654 42.792 126.32 42.792C126.025 42.792 125.767 42.842 125.544 42.9421C125.327 43.0423 125.16 43.1841 125.043 43.3676C124.927 43.5456 124.868 43.7514 124.868 43.985H122.657C122.657 43.6123 122.746 43.2592 122.924 42.9255C123.102 42.5862 123.355 42.2859 123.684 42.0244C124.017 41.7575 124.415 41.5489 124.877 41.3987C125.344 41.2486 125.867 41.1735 126.445 41.1735C127.129 41.1735 127.738 41.2903 128.272 41.5239C128.812 41.7519 129.234 42.0967 129.54 42.5584C129.852 43.02 130.007 43.6012 130.007 44.302V48.2398C130.007 48.6903 130.035 49.0768 130.091 49.3994C130.152 49.7165 130.241 49.9918 130.358 50.2254V50.3672H128.114C128.008 50.1392 127.927 49.8499 127.872 49.4995C127.816 49.1436 127.788 48.7932 127.788 48.4484ZM128.097 44.8693L128.114 46.1791H126.72C126.376 46.1791 126.072 46.2153 125.811 46.2876C125.55 46.3543 125.335 46.4544 125.169 46.5879C125.002 46.7158 124.877 46.8716 124.793 47.0551C124.71 47.2331 124.668 47.4361 124.668 47.6641C124.668 47.8866 124.718 48.0868 124.818 48.2648C124.924 48.4428 125.074 48.5846 125.269 48.6903C125.469 48.7904 125.703 48.8405 125.97 48.8405C126.359 48.8405 126.698 48.7626 126.987 48.6069C127.277 48.4456 127.502 48.2509 127.663 48.0229C127.824 47.7948 127.911 47.5779 127.922 47.3721L128.556 48.3232C128.478 48.5513 128.361 48.7932 128.205 49.049C128.05 49.3049 127.849 49.544 127.605 49.7665C127.36 49.989 127.065 50.1725 126.72 50.3171C126.376 50.4617 125.975 50.534 125.519 50.534C124.935 50.534 124.412 50.4172 123.951 50.1836C123.489 49.9501 123.125 49.6302 122.858 49.2242C122.591 48.8182 122.457 48.3566 122.457 47.8393C122.457 47.361 122.546 46.9383 122.724 46.5712C122.902 46.2042 123.166 45.8955 123.517 45.6452C123.867 45.3894 124.301 45.1975 124.818 45.0695C125.341 44.9361 125.939 44.8693 126.612 44.8693H128.097ZM134.495 43.2675V50.3672H132.293V41.3403H134.362L134.495 43.2675ZM134.145 45.5284H133.494C133.5 44.8721 133.589 44.277 133.761 43.743C133.934 43.2091 134.176 42.7503 134.487 42.3665C134.804 41.9827 135.18 41.688 135.613 41.4822C136.047 41.2764 136.531 41.1735 137.065 41.1735C137.499 41.1735 137.891 41.2347 138.241 41.357C138.592 41.4794 138.892 41.674 139.142 41.941C139.398 42.208 139.593 42.5584 139.726 42.9922C139.865 43.4205 139.935 43.9488 139.935 44.5773V50.3672H137.716V44.5606C137.716 44.1491 137.655 43.8237 137.532 43.5845C137.415 43.3454 137.243 43.1757 137.015 43.0756C136.792 42.9755 136.517 42.9255 136.189 42.9255C135.85 42.9255 135.552 42.995 135.296 43.134C135.046 43.2675 134.835 43.4538 134.662 43.693C134.495 43.9322 134.368 44.2075 134.279 44.5189C134.19 44.8304 134.145 45.1669 134.145 45.5284ZM146.275 50.534C145.591 50.534 144.976 50.4228 144.431 50.2003C143.886 49.9779 143.422 49.6692 143.038 49.2743C142.66 48.8738 142.368 48.4094 142.162 47.8811C141.962 47.3471 141.862 46.7742 141.862 46.1624V45.8287C141.862 45.1335 141.962 44.5022 142.162 43.9349C142.362 43.3621 142.646 42.8698 143.013 42.4583C143.38 42.0467 143.82 41.7297 144.331 41.5072C144.843 41.2847 145.407 41.1735 146.025 41.1735C146.664 41.1735 147.229 41.2819 147.718 41.4989C148.208 41.7102 148.617 42.0105 148.945 42.3999C149.273 42.7892 149.52 43.2564 149.687 43.8014C149.854 44.3409 149.938 44.9388 149.938 45.5951V46.5212H142.863V45.0028H147.768V44.8359C147.757 44.4856 147.691 44.1657 147.568 43.8765C147.446 43.5818 147.257 43.3482 147.001 43.1757C146.745 42.9978 146.414 42.9088 146.008 42.9088C145.68 42.9088 145.394 42.9811 145.149 43.1257C144.91 43.2647 144.709 43.465 144.548 43.7264C144.392 43.9822 144.276 44.2881 144.198 44.6441C144.12 45 144.081 45.3949 144.081 45.8287V46.1624C144.081 46.5406 144.131 46.891 144.231 47.2136C144.337 47.5362 144.49 47.8171 144.69 48.0562C144.896 48.2898 145.14 48.4734 145.424 48.6069C145.713 48.7348 146.041 48.7988 146.409 48.7988C146.87 48.7988 147.287 48.7098 147.66 48.5318C148.038 48.3482 148.366 48.0785 148.644 47.7225L149.754 48.8738C149.565 49.1519 149.309 49.4189 148.986 49.6747C148.669 49.9306 148.286 50.1392 147.835 50.3004C147.385 50.4562 146.865 50.534 146.275 50.534ZM157.129 48.2231V41.3403H159.348V50.3672H157.262L157.129 48.2231ZM157.412 46.3543L158.096 46.3376C158.096 46.9439 158.03 47.5028 157.896 48.0145C157.763 48.5262 157.554 48.9712 157.27 49.3494C156.992 49.722 156.639 50.014 156.211 50.2254C155.783 50.4311 155.277 50.534 154.693 50.534C154.248 50.534 153.842 50.4729 153.475 50.3505C153.107 50.2226 152.79 50.0251 152.523 49.7582C152.262 49.4856 152.059 49.138 151.914 48.7153C151.77 48.2871 151.698 47.7726 151.698 47.1719V41.3403H153.9V47.1886C153.9 47.4889 153.933 47.7392 154 47.9394C154.072 48.1397 154.17 48.3037 154.292 48.4317C154.42 48.554 154.567 48.643 154.734 48.6986C154.907 48.7487 155.09 48.7737 155.285 48.7737C155.819 48.7737 156.239 48.668 156.545 48.4567C156.856 48.2398 157.079 47.9506 157.212 47.5891C157.346 47.222 157.412 46.8104 157.412 46.3543ZM164.637 48.6986L166.739 41.3403H169.042L165.947 50.3672H164.545L164.637 48.6986ZM163.102 41.3403L165.229 48.7153L165.304 50.3672H163.894L160.791 41.3403H163.102ZM174.481 50.534C173.797 50.534 173.182 50.4228 172.637 50.2003C172.092 49.9779 171.628 49.6692 171.244 49.2743C170.866 48.8738 170.574 48.4094 170.368 47.8811C170.168 47.3471 170.068 46.7742 170.068 46.1624V45.8287C170.068 45.1335 170.168 44.5022 170.368 43.9349C170.568 43.3621 170.852 42.8698 171.219 42.4583C171.586 42.0467 172.025 41.7297 172.537 41.5072C173.049 41.2847 173.613 41.1735 174.231 41.1735C174.87 41.1735 175.435 41.2819 175.924 41.4989C176.414 41.7102 176.822 42.0105 177.151 42.3999C177.479 42.7892 177.726 43.2564 177.893 43.8014C178.06 44.3409 178.143 44.9388 178.143 45.5951V46.5212H171.069V45.0028H175.974V44.8359C175.963 44.4856 175.896 44.1657 175.774 43.8765C175.652 43.5818 175.463 43.3482 175.207 43.1757C174.951 42.9978 174.62 42.9088 174.214 42.9088C173.886 42.9088 173.599 42.9811 173.355 43.1257C173.115 43.2647 172.915 43.465 172.754 43.7264C172.598 43.9822 172.481 44.2881 172.404 44.6441C172.326 45 172.287 45.3949 172.287 45.8287V46.1624C172.287 46.5406 172.337 46.891 172.437 47.2136C172.543 47.5362 172.696 47.8171 172.896 48.0562C173.102 48.2898 173.346 48.4734 173.63 48.6069C173.919 48.7348 174.247 48.7988 174.614 48.7988C175.076 48.7988 175.493 48.7098 175.866 48.5318C176.244 48.3482 176.572 48.0785 176.85 47.7225L177.96 48.8738C177.771 49.1519 177.515 49.4189 177.192 49.6747C176.875 49.9306 176.491 50.1392 176.041 50.3004C175.59 50.4562 175.07 50.534 174.481 50.534ZM182.164 43.1841V50.3672H179.962V41.3403H182.047L182.164 43.1841ZM184.909 41.2819L184.876 43.3343C184.753 43.312 184.614 43.2953 184.458 43.2842C184.308 43.2731 184.166 43.2675 184.033 43.2675C183.694 43.2675 183.396 43.3148 183.14 43.4093C182.884 43.4983 182.67 43.629 182.498 43.8014C182.331 43.9739 182.203 44.1852 182.114 44.4355C182.025 44.6802 181.975 44.9583 181.964 45.2698L181.488 45.2114C181.488 44.6385 181.547 44.1073 181.664 43.6179C181.78 43.1285 181.95 42.7002 182.173 42.3331C182.395 41.966 182.673 41.6824 183.007 41.4822C183.346 41.2764 183.735 41.1735 184.175 41.1735C184.297 41.1735 184.428 41.1846 184.567 41.2069C184.712 41.2235 184.826 41.2486 184.909 41.2819ZM196.021 38.2202V50.3672H193.735V38.2202H196.021ZM199.792 38.2202V40.0305H190.006V38.2202H199.792ZM204.764 50.534C204.08 50.534 203.465 50.4228 202.92 50.2003C202.375 49.9779 201.91 49.6692 201.527 49.2743C201.149 48.8738 200.857 48.4094 200.651 47.8811C200.451 47.3471 200.35 46.7742 200.35 46.1624V45.8287C200.35 45.1335 200.451 44.5022 200.651 43.9349C200.851 43.3621 201.135 42.8698 201.502 42.4583C201.869 42.0467 202.308 41.7297 202.82 41.5072C203.332 41.2847 203.896 41.1735 204.513 41.1735C205.153 41.1735 205.718 41.2819 206.207 41.4989C206.696 41.7102 207.105 42.0105 207.433 42.3999C207.762 42.7892 208.009 43.2564 208.176 43.8014C208.343 44.3409 208.426 44.9388 208.426 45.5951V46.5212H201.352V45.0028H206.257V44.8359C206.246 44.4856 206.179 44.1657 206.057 43.8765C205.934 43.5818 205.745 43.3482 205.49 43.1757C205.234 42.9978 204.903 42.9088 204.497 42.9088C204.169 42.9088 203.882 42.9811 203.637 43.1257C203.398 43.2647 203.198 43.465 203.037 43.7264C202.881 43.9822 202.764 44.2881 202.686 44.6441C202.609 45 202.57 45.3949 202.57 45.8287V46.1624C202.57 46.5406 202.62 46.891 202.72 47.2136C202.825 47.5362 202.978 47.8171 203.179 48.0562C203.384 48.2898 203.629 48.4734 203.913 48.6069C204.202 48.7348 204.53 48.7988 204.897 48.7988C205.359 48.7988 205.776 48.7098 206.149 48.5318C206.527 48.3482 206.855 48.0785 207.133 47.7225L208.243 48.8738C208.054 49.1519 207.798 49.4189 207.475 49.6747C207.158 49.9306 206.774 50.1392 206.324 50.3004C205.873 50.4562 205.353 50.534 204.764 50.534ZM215.217 48.4484V44.2853C215.217 43.9794 215.164 43.7152 215.058 43.4928C214.953 43.2703 214.791 43.0979 214.574 42.9755C214.358 42.8532 214.082 42.792 213.749 42.792C213.454 42.792 213.195 42.842 212.973 42.9421C212.756 43.0423 212.589 43.1841 212.472 43.3676C212.355 43.5456 212.297 43.7514 212.297 43.985H210.086C210.086 43.6123 210.175 43.2592 210.353 42.9255C210.531 42.5862 210.784 42.2859 211.112 42.0244C211.446 41.7575 211.844 41.5489 212.305 41.3987C212.772 41.2486 213.295 41.1735 213.874 41.1735C214.558 41.1735 215.167 41.2903 215.701 41.5239C216.24 41.7519 216.663 42.0967 216.969 42.5584C217.28 43.02 217.436 43.6012 217.436 44.302V48.2398C217.436 48.6903 217.464 49.0768 217.519 49.3994C217.581 49.7165 217.67 49.9918 217.786 50.2254V50.3672H215.542C215.437 50.1392 215.356 49.8499 215.3 49.4995C215.245 49.1436 215.217 48.7932 215.217 48.4484ZM215.526 44.8693L215.542 46.1791H214.149C213.804 46.1791 213.501 46.2153 213.24 46.2876C212.978 46.3543 212.764 46.4544 212.597 46.5879C212.43 46.7158 212.305 46.8716 212.222 47.0551C212.138 47.2331 212.097 47.4361 212.097 47.6641C212.097 47.8866 212.147 48.0868 212.247 48.2648C212.352 48.4428 212.503 48.5846 212.697 48.6903C212.898 48.7904 213.131 48.8405 213.398 48.8405C213.787 48.8405 214.127 48.7626 214.416 48.6069C214.705 48.4456 214.93 48.2509 215.092 48.0229C215.253 47.7948 215.339 47.5779 215.35 47.3721L215.984 48.3232C215.906 48.5513 215.79 48.7932 215.634 49.049C215.478 49.3049 215.278 49.544 215.033 49.7665C214.789 49.989 214.494 50.1725 214.149 50.3171C213.804 50.4617 213.404 50.534 212.948 50.534C212.364 50.534 211.841 50.4172 211.379 50.1836C210.918 49.9501 210.553 49.6302 210.286 49.2242C210.019 48.8182 209.886 48.3566 209.886 47.8393C209.886 47.361 209.975 46.9383 210.153 46.5712C210.331 46.2042 210.595 45.8955 210.945 45.6452C211.296 45.3894 211.73 45.1975 212.247 45.0695C212.77 44.9361 213.368 44.8693 214.041 44.8693H215.526ZM221.957 43.1924V50.3672H219.755V41.3403H221.832L221.957 43.1924ZM221.632 45.5284H220.956C220.956 44.8999 221.031 44.3215 221.182 43.7931C221.337 43.2647 221.565 42.8059 221.866 42.4166C222.166 42.0217 222.536 41.7158 222.975 41.4989C223.42 41.2819 223.935 41.1735 224.519 41.1735C224.925 41.1735 225.297 41.2347 225.637 41.357C225.976 41.4738 226.268 41.6601 226.513 41.916C226.763 42.1663 226.955 42.4944 227.088 42.9004C227.222 43.3009 227.288 43.782 227.288 44.3437V50.3672H225.086V44.569C225.086 44.1463 225.025 43.8154 224.902 43.5762C224.786 43.337 224.616 43.1702 224.394 43.0756C224.171 42.9755 223.904 42.9255 223.593 42.9255C223.248 42.9255 222.95 42.995 222.7 43.134C222.455 43.2675 222.252 43.4538 222.091 43.693C221.935 43.9322 221.818 44.2075 221.741 44.5189C221.668 44.8304 221.632 45.1669 221.632 45.5284ZM227.122 45.1196L226.212 45.2865C226.218 44.7192 226.296 44.188 226.446 43.693C226.596 43.1924 226.816 42.7558 227.105 42.3832C227.4 42.005 227.764 41.7102 228.198 41.4989C228.637 41.2819 229.143 41.1735 229.716 41.1735C230.161 41.1735 230.562 41.2374 230.918 41.3654C231.279 41.4877 231.588 41.6852 231.844 41.9577C232.099 42.2247 232.294 42.5723 232.428 43.0005C232.567 43.4288 232.636 43.9516 232.636 44.569V50.3672H230.417V44.5606C230.417 44.1213 230.356 43.7848 230.233 43.5512C230.117 43.3176 229.947 43.1563 229.725 43.0673C229.502 42.9727 229.241 42.9255 228.94 42.9255C228.634 42.9255 228.367 42.9839 228.139 43.1007C227.917 43.2119 227.728 43.3676 227.572 43.5679C227.422 43.7681 227.308 44.0017 227.23 44.2686C227.158 44.53 227.122 44.8137 227.122 45.1196Z" fill="white"/>
<path d="M114.938 71.2121V72.3764H109.094V71.2121H114.938ZM109.317 66.5698V77.3672H107.885V66.5698H109.317ZM116.184 66.5698V77.3672H114.76V66.5698H116.184ZM122.153 77.5155C121.594 77.5155 121.088 77.4216 120.633 77.2337C120.183 77.0409 119.795 76.7715 119.468 76.4254C119.147 76.0793 118.9 75.669 118.727 75.1944C118.554 74.7198 118.467 74.2007 118.467 73.6371V73.3256C118.467 72.673 118.564 72.0921 118.756 71.5829C118.949 71.0687 119.211 70.6337 119.543 70.2777C119.874 69.9218 120.25 69.6523 120.67 69.4694C121.09 69.2865 121.525 69.195 121.975 69.195C122.548 69.195 123.043 69.2939 123.458 69.4916C123.878 69.6894 124.222 69.9662 124.489 70.3222C124.756 70.6732 124.954 71.0885 125.082 71.5681C125.211 72.0427 125.275 72.5618 125.275 73.1254V73.7409H119.283V72.6211H123.903V72.5173C123.883 72.1613 123.809 71.8152 123.681 71.4791C123.557 71.1429 123.359 70.866 123.087 70.6485C122.815 70.431 122.445 70.3222 121.975 70.3222C121.663 70.3222 121.377 70.3889 121.115 70.5224C120.853 70.651 120.628 70.8438 120.44 71.1009C120.252 71.3579 120.106 71.6719 120.002 72.0427C119.899 72.4135 119.847 72.8411 119.847 73.3256V73.6371C119.847 74.0177 119.899 74.3762 120.002 74.7123C120.111 75.0436 120.267 75.3353 120.47 75.5874C120.677 75.8395 120.927 76.0373 121.219 76.1807C121.515 76.324 121.851 76.3957 122.227 76.3957C122.712 76.3957 123.122 76.2968 123.458 76.0991C123.794 75.9013 124.088 75.6368 124.341 75.3056L125.171 75.9656C124.998 76.2276 124.778 76.4773 124.511 76.7146C124.244 76.9519 123.915 77.1447 123.525 77.293C123.139 77.4413 122.682 77.5155 122.153 77.5155ZM129.331 76.5366L131.563 69.3433H133.032L129.813 78.6056C129.739 78.8034 129.64 79.016 129.516 79.2434C129.398 79.4757 129.245 79.6957 129.057 79.9034C128.869 80.111 128.641 80.2791 128.374 80.4077C128.112 80.5411 127.798 80.6079 127.433 80.6079C127.324 80.6079 127.185 80.593 127.017 80.5634C126.849 80.5337 126.731 80.509 126.661 80.4892L126.654 79.3769C126.694 79.3818 126.755 79.3867 126.839 79.3917C126.928 79.4016 126.99 79.4065 127.025 79.4065C127.336 79.4065 127.601 79.3645 127.818 79.2805C128.036 79.2014 128.219 79.0654 128.367 78.8726C128.52 78.6847 128.651 78.4252 128.76 78.0939L129.331 76.5366ZM127.692 69.3433L129.776 75.5726L130.132 77.0186L129.146 77.5229L126.194 69.3433H127.692ZM142.004 69.3433V70.3964H137.666V69.3433H142.004ZM139.134 67.393H140.506V75.3798C140.506 75.6517 140.548 75.8568 140.632 75.9953C140.716 76.1337 140.825 76.2252 140.958 76.2697C141.092 76.3141 141.235 76.3364 141.389 76.3364C141.502 76.3364 141.621 76.3265 141.744 76.3067C141.873 76.282 141.969 76.2622 142.034 76.2474L142.041 77.3672C141.932 77.4018 141.789 77.4339 141.611 77.4636C141.438 77.4982 141.228 77.5155 140.981 77.5155C140.644 77.5155 140.335 77.4488 140.054 77.3153C139.772 77.1818 139.547 76.9593 139.379 76.6479C139.216 76.3315 139.134 75.9063 139.134 75.3723V67.393ZM145.289 65.9766V77.3672H143.917V65.9766H145.289ZM144.963 73.0512L144.392 73.029C144.397 72.4802 144.478 71.9734 144.636 71.5087C144.795 71.0391 145.017 70.6312 145.304 70.2851C145.591 69.9391 145.932 69.6721 146.327 69.4842C146.728 69.2914 147.17 69.195 147.655 69.195C148.05 69.195 148.406 69.2494 148.722 69.3582C149.039 69.462 149.308 69.6301 149.531 69.8624C149.758 70.0948 149.931 70.3964 150.05 70.7672C150.169 71.133 150.228 71.5804 150.228 72.1094V77.3672H148.849V72.0946C148.849 71.6743 148.787 71.3382 148.663 71.086C148.54 70.8289 148.359 70.6436 148.122 70.5298C147.884 70.4112 147.593 70.3519 147.247 70.3519C146.906 70.3519 146.594 70.4236 146.312 70.5669C146.035 70.7103 145.796 70.9081 145.593 71.1602C145.395 71.4123 145.239 71.7015 145.126 72.0278C145.017 72.3492 144.963 72.6903 144.963 73.0512ZM155.915 77.5155C155.357 77.5155 154.85 77.4216 154.395 77.2337C153.945 77.0409 153.557 76.7715 153.231 76.4254C152.91 76.0793 152.662 75.669 152.489 75.1944C152.316 74.7198 152.23 74.2007 152.23 73.6371V73.3256C152.23 72.673 152.326 72.0921 152.519 71.5829C152.712 71.0687 152.974 70.6337 153.305 70.2777C153.636 69.9218 154.012 69.6523 154.432 69.4694C154.853 69.2865 155.288 69.195 155.737 69.195C156.311 69.195 156.805 69.2939 157.221 69.4916C157.641 69.6894 157.984 69.9662 158.251 70.3222C158.518 70.6732 158.716 71.0885 158.845 71.5681C158.973 72.0427 159.037 72.5618 159.037 73.1254V73.7409H153.046V72.6211H157.666V72.5173C157.646 72.1613 157.572 71.8152 157.443 71.4791C157.319 71.1429 157.122 70.866 156.85 70.6485C156.578 70.431 156.207 70.3222 155.737 70.3222C155.426 70.3222 155.139 70.3889 154.877 70.5224C154.615 70.651 154.39 70.8438 154.202 71.1009C154.015 71.3579 153.869 71.6719 153.765 72.0427C153.661 72.4135 153.609 72.8411 153.609 73.3256V73.6371C153.609 74.0177 153.661 74.3762 153.765 74.7123C153.874 75.0436 154.029 75.3353 154.232 75.5874C154.44 75.8395 154.689 76.0373 154.981 76.1807C155.278 76.324 155.614 76.3957 155.99 76.3957C156.474 76.3957 156.884 76.2968 157.221 76.0991C157.557 75.9013 157.851 75.6368 158.103 75.3056L158.934 75.9656C158.761 76.2276 158.541 76.4773 158.274 76.7146C158.007 76.9519 157.678 77.1447 157.287 77.293C156.902 77.4413 156.444 77.5155 155.915 77.5155ZM162.315 70.604V77.3672H160.943V69.3433H162.278L162.315 70.604ZM164.821 69.2988L164.814 70.5743C164.7 70.5496 164.592 70.5348 164.488 70.5298C164.389 70.52 164.275 70.515 164.147 70.515C163.83 70.515 163.551 70.5645 163.309 70.6633C163.066 70.7622 162.861 70.9006 162.693 71.0786C162.525 71.2566 162.392 71.4692 162.293 71.7164C162.199 71.9586 162.137 72.2256 162.107 72.5173L161.722 72.7397C161.722 72.2552 161.769 71.8004 161.863 71.3752C161.961 70.9501 162.112 70.5743 162.315 70.248C162.518 69.9168 162.775 69.6597 163.086 69.4768C163.403 69.2889 163.778 69.195 164.213 69.195C164.312 69.195 164.426 69.2074 164.555 69.2321C164.683 69.2519 164.772 69.2741 164.821 69.2988ZM169.575 77.5155C169.016 77.5155 168.509 77.4216 168.054 77.2337C167.605 77.0409 167.216 76.7715 166.89 76.4254C166.569 76.0793 166.322 75.669 166.149 75.1944C165.976 74.7198 165.889 74.2007 165.889 73.6371V73.3256C165.889 72.673 165.985 72.0921 166.178 71.5829C166.371 71.0687 166.633 70.6337 166.964 70.2777C167.296 69.9218 167.671 69.6523 168.092 69.4694C168.512 69.2865 168.947 69.195 169.397 69.195C169.97 69.195 170.465 69.2939 170.88 69.4916C171.3 69.6894 171.644 69.9662 171.911 70.3222C172.178 70.6732 172.375 71.0885 172.504 71.5681C172.632 72.0427 172.697 72.5618 172.697 73.1254V73.7409H166.705V72.6211H171.325V72.5173C171.305 72.1613 171.231 71.8152 171.102 71.4791C170.979 71.1429 170.781 70.866 170.509 70.6485C170.237 70.431 169.866 70.3222 169.397 70.3222C169.085 70.3222 168.799 70.3889 168.536 70.5224C168.274 70.651 168.05 70.8438 167.862 71.1009C167.674 71.3579 167.528 71.6719 167.424 72.0427C167.32 72.4135 167.268 72.8411 167.268 73.3256V73.6371C167.268 74.0177 167.32 74.3762 167.424 74.7123C167.533 75.0436 167.689 75.3353 167.891 75.5874C168.099 75.8395 168.349 76.0373 168.64 76.1807C168.937 76.324 169.273 76.3957 169.649 76.3957C170.133 76.3957 170.544 76.2968 170.88 76.0991C171.216 75.9013 171.51 75.6368 171.762 75.3056L172.593 75.9656C172.42 76.2276 172.2 76.4773 171.933 76.7146C171.666 76.9519 171.337 77.1447 170.947 77.293C170.561 77.4413 170.104 77.5155 169.575 77.5155ZM175.848 75.7357V76.8407C175.848 77.2906 175.734 77.7652 175.507 78.2645C175.28 78.7688 174.961 79.189 174.55 79.5252L173.772 78.9838C173.93 78.7663 174.063 78.5438 174.172 78.3164C174.281 78.0939 174.363 77.8616 174.417 77.6193C174.476 77.382 174.506 77.1299 174.506 76.8629V75.7357H175.848ZM183.464 65.9766V77.3672H182.084V65.9766H183.464ZM189.299 77.5155C188.741 77.5155 188.234 77.4216 187.779 77.2337C187.329 77.0409 186.941 76.7715 186.615 76.4254C186.294 76.0793 186.046 75.669 185.873 75.1944C185.7 74.7198 185.614 74.2007 185.614 73.6371V73.3256C185.614 72.673 185.71 72.0921 185.903 71.5829C186.096 71.0687 186.358 70.6337 186.689 70.2777C187.02 69.9218 187.396 69.6523 187.816 69.4694C188.237 69.2865 188.672 69.195 189.121 69.195C189.695 69.195 190.189 69.2939 190.605 69.4916C191.025 69.6894 191.368 69.9662 191.635 70.3222C191.902 70.6732 192.1 71.0885 192.229 71.5681C192.357 72.0427 192.422 72.5618 192.422 73.1254V73.7409H186.43V72.6211H191.05V72.5173C191.03 72.1613 190.956 71.8152 190.827 71.4791C190.704 71.1429 190.506 70.866 190.234 70.6485C189.962 70.431 189.591 70.3222 189.121 70.3222C188.81 70.3222 188.523 70.3889 188.261 70.5224C187.999 70.651 187.774 70.8438 187.586 71.1009C187.399 71.3579 187.253 71.6719 187.149 72.0427C187.045 72.4135 186.993 72.8411 186.993 73.3256V73.6371C186.993 74.0177 187.045 74.3762 187.149 74.7123C187.258 75.0436 187.413 75.3353 187.616 75.5874C187.824 75.8395 188.073 76.0373 188.365 76.1807C188.662 76.324 188.998 76.3957 189.374 76.3957C189.858 76.3957 190.268 76.2968 190.605 76.0991C190.941 75.9013 191.235 75.6368 191.487 75.3056L192.318 75.9656C192.145 76.2276 191.925 76.4773 191.658 76.7146C191.391 76.9519 191.062 77.1447 190.671 77.293C190.286 77.4413 189.828 77.5155 189.299 77.5155ZM197.686 69.3433V70.3964H193.348V69.3433H197.686ZM194.817 67.393H196.188V75.3798C196.188 75.6517 196.23 75.8568 196.314 75.9953C196.399 76.1337 196.507 76.2252 196.641 76.2697C196.774 76.3141 196.918 76.3364 197.071 76.3364C197.185 76.3364 197.303 76.3265 197.427 76.3067C197.555 76.282 197.652 76.2622 197.716 76.2474L197.723 77.3672C197.615 77.4018 197.471 77.4339 197.293 77.4636C197.12 77.4982 196.91 77.5155 196.663 77.5155C196.327 77.5155 196.018 77.4488 195.736 77.3153C195.454 77.1818 195.229 76.9593 195.061 76.6479C194.898 76.3315 194.817 75.9063 194.817 75.3723V67.393ZM204.271 75.2389C204.271 75.0411 204.227 74.8582 204.138 74.6901C204.054 74.5171 203.878 74.3613 203.611 74.2229C203.349 74.0795 202.954 73.9559 202.425 73.8521C201.98 73.7582 201.577 73.6469 201.216 73.5184C200.86 73.3899 200.556 73.2341 200.304 73.0512C200.057 72.8683 199.866 72.6532 199.733 72.406C199.599 72.1588 199.533 71.8696 199.533 71.5384C199.533 71.222 199.602 70.9229 199.74 70.6411C199.884 70.3593 200.084 70.1096 200.341 69.8921C200.603 69.6746 200.917 69.504 201.283 69.3804C201.649 69.2568 202.056 69.195 202.506 69.195C203.149 69.195 203.698 69.3087 204.153 69.5361C204.607 69.7635 204.956 70.0676 205.198 70.4483C205.441 70.824 205.562 71.2418 205.562 71.7015H204.19C204.19 71.4791 204.123 71.264 203.99 71.0564C203.861 70.8438 203.671 70.6683 203.419 70.5298C203.171 70.3914 202.867 70.3222 202.506 70.3222C202.126 70.3222 201.817 70.3815 201.579 70.5002C201.347 70.6139 201.176 70.7597 201.068 70.9377C200.964 71.1157 200.912 71.3036 200.912 71.5013C200.912 71.6496 200.937 71.7831 200.986 71.9018C201.041 72.0155 201.134 72.1218 201.268 72.2206C201.401 72.3146 201.589 72.4036 201.832 72.4876C202.074 72.5717 202.383 72.6557 202.758 72.7397C203.416 72.8881 203.957 73.066 204.383 73.2737C204.808 73.4813 205.124 73.7359 205.332 74.0375C205.539 74.3391 205.643 74.7049 205.643 75.135C205.643 75.4861 205.569 75.8074 205.421 76.0991C205.277 76.3908 205.067 76.6429 204.79 76.8555C204.519 77.0631 204.192 77.2263 203.812 77.3449C203.436 77.4586 203.013 77.5155 202.543 77.5155C201.836 77.5155 201.238 77.3894 200.749 77.1373C200.259 76.8852 199.889 76.5589 199.636 76.1584C199.384 75.758 199.258 75.3353 199.258 74.8903H200.638C200.657 75.2661 200.766 75.5652 200.964 75.7876C201.162 76.0052 201.404 76.1609 201.691 76.2548C201.977 76.3438 202.262 76.3883 202.543 76.3883C202.919 76.3883 203.233 76.3389 203.485 76.24C203.742 76.1411 203.938 76.0052 204.071 75.8321C204.205 75.6591 204.271 75.4613 204.271 75.2389ZM213.184 70.9377V77.3672H211.805V69.3433H213.11L213.184 70.9377ZM212.903 73.0512L212.265 73.029C212.27 72.4802 212.342 71.9734 212.48 71.5087C212.618 71.0391 212.824 70.6312 213.095 70.2851C213.367 69.9391 213.706 69.6721 214.111 69.4842C214.517 69.2914 214.987 69.195 215.52 69.195C215.896 69.195 216.242 69.2494 216.559 69.3582C216.875 69.462 217.149 69.6276 217.382 69.855C217.614 70.0824 217.795 70.3741 217.923 70.7301C218.052 71.086 218.116 71.5161 218.116 72.0204V77.3672H216.744V72.0872C216.744 71.6669 216.672 71.3307 216.529 71.0786C216.391 70.8265 216.193 70.6436 215.936 70.5298C215.679 70.4112 215.377 70.3519 215.031 70.3519C214.626 70.3519 214.287 70.4236 214.015 70.5669C213.743 70.7103 213.526 70.9081 213.362 71.1602C213.199 71.4123 213.081 71.7015 213.007 72.0278C212.937 72.3492 212.903 72.6903 212.903 73.0512ZM218.101 72.2948L217.182 72.5766C217.187 72.1366 217.258 71.7139 217.397 71.3085C217.54 70.9031 217.745 70.5422 218.012 70.2258C218.284 69.9094 218.618 69.6597 219.013 69.4768C219.409 69.2889 219.861 69.195 220.37 69.195C220.8 69.195 221.181 69.2519 221.512 69.3656C221.849 69.4793 222.13 69.6548 222.358 69.8921C222.59 70.1245 222.766 70.4236 222.884 70.7894C223.003 71.1552 223.062 71.5903 223.062 72.0946V77.3672H221.683V72.0797C221.683 71.6299 221.611 71.2813 221.468 71.0341C221.329 70.782 221.132 70.6065 220.875 70.5076C220.622 70.4038 220.321 70.3519 219.97 70.3519C219.668 70.3519 219.401 70.4038 219.169 70.5076C218.937 70.6114 218.741 70.7548 218.583 70.9377C218.425 71.1157 218.304 71.3209 218.22 71.5532C218.141 71.7856 218.101 72.0328 218.101 72.2948ZM230.174 75.9953V71.8647C230.174 71.5483 230.109 71.2739 229.981 71.0415C229.857 70.8042 229.669 70.6213 229.417 70.4928C229.165 70.3642 228.854 70.3 228.483 70.3C228.137 70.3 227.833 70.3593 227.571 70.4779C227.314 70.5966 227.111 70.7523 226.963 70.9451C226.819 71.1379 226.748 71.3456 226.748 71.5681H225.376C225.376 71.2813 225.45 70.997 225.598 70.7152C225.746 70.4334 225.959 70.1788 226.236 69.9514C226.518 69.7191 226.854 69.5361 227.244 69.4026C227.64 69.2642 228.08 69.195 228.564 69.195C229.148 69.195 229.662 69.2939 230.107 69.4916C230.557 69.6894 230.908 69.9885 231.16 70.3889C231.417 70.7845 231.546 71.2813 231.546 71.8795V75.6171C231.546 75.884 231.568 76.1683 231.612 76.4699C231.662 76.7715 231.733 77.031 231.827 77.2485V77.3672H230.396C230.327 77.209 230.273 76.9989 230.233 76.7368C230.193 76.4699 230.174 76.2227 230.174 75.9953ZM230.411 72.5024L230.426 73.4665H229.039C228.649 73.4665 228.3 73.4986 227.993 73.5629C227.687 73.6222 227.43 73.7137 227.222 73.8373C227.015 73.9609 226.856 74.1166 226.748 74.3045C226.639 74.4874 226.584 74.7025 226.584 74.9496C226.584 75.2018 226.641 75.4317 226.755 75.6393C226.869 75.847 227.039 76.0126 227.267 76.1362C227.499 76.2548 227.783 76.3141 228.12 76.3141C228.54 76.3141 228.911 76.2252 229.232 76.0472C229.553 75.8692 229.808 75.6517 229.996 75.3946C230.189 75.1375 230.292 74.8878 230.307 74.6456L230.893 75.3056C230.858 75.5132 230.765 75.7431 230.611 75.9953C230.458 76.2474 230.253 76.4897 229.996 76.722C229.744 76.9494 229.442 77.1398 229.091 77.293C228.745 77.4413 228.354 77.5155 227.919 77.5155C227.375 77.5155 226.898 77.4092 226.488 77.1966C226.083 76.984 225.766 76.6998 225.539 76.3438C225.316 75.9829 225.205 75.58 225.205 75.135C225.205 74.7049 225.289 74.3267 225.457 74.0004C225.625 73.6692 225.868 73.3948 226.184 73.1773C226.5 72.9548 226.881 72.7867 227.326 72.673C227.771 72.5593 228.268 72.5024 228.817 72.5024H230.411ZM235.387 65.9766V77.3672H234.007V65.9766H235.387ZM240.289 69.3433L236.788 73.0883L234.831 75.1202L234.719 73.6593L236.121 71.9833L238.613 69.3433H240.289ZM239.035 77.3672L236.173 73.5406L236.885 72.317L240.652 77.3672H239.035ZM245.19 77.5155C244.631 77.5155 244.125 77.4216 243.67 77.2337C243.22 77.0409 242.832 76.7715 242.506 76.4254C242.184 76.0793 241.937 75.669 241.764 75.1944C241.591 74.7198 241.504 74.2007 241.504 73.6371V73.3256C241.504 72.673 241.601 72.0921 241.794 71.5829C241.986 71.0687 242.248 70.6337 242.58 70.2777C242.911 69.9218 243.287 69.6523 243.707 69.4694C244.127 69.2865 244.562 69.195 245.012 69.195C245.586 69.195 246.08 69.2939 246.495 69.4916C246.915 69.6894 247.259 69.9662 247.526 70.3222C247.793 70.6732 247.991 71.0885 248.119 71.5681C248.248 72.0427 248.312 72.5618 248.312 73.1254V73.7409H242.32V72.6211H246.94V72.5173C246.92 72.1613 246.846 71.8152 246.718 71.4791C246.594 71.1429 246.396 70.866 246.124 70.6485C245.853 70.431 245.482 70.3222 245.012 70.3222C244.701 70.3222 244.414 70.3889 244.152 70.5224C243.89 70.651 243.665 70.8438 243.477 71.1009C243.289 71.3579 243.143 71.6719 243.039 72.0427C242.936 72.4135 242.884 72.8411 242.884 73.3256V73.6371C242.884 74.0177 242.936 74.3762 243.039 74.7123C243.148 75.0436 243.304 75.3353 243.507 75.5874C243.714 75.8395 243.964 76.0373 244.256 76.1807C244.552 76.324 244.888 76.3957 245.264 76.3957C245.749 76.3957 246.159 76.2968 246.495 76.0991C246.831 75.9013 247.126 75.6368 247.378 75.3056L248.208 75.9656C248.035 76.2276 247.815 76.4773 247.548 76.7146C247.281 76.9519 246.953 77.1447 246.562 77.293C246.176 77.4413 245.719 77.5155 245.19 77.5155ZM257.648 69.3433V70.3964H253.31V69.3433H257.648ZM254.778 67.393H256.15V75.3798C256.15 75.6517 256.192 75.8568 256.276 75.9953C256.36 76.1337 256.469 76.2252 256.602 76.2697C256.736 76.3141 256.879 76.3364 257.032 76.3364C257.146 76.3364 257.265 76.3265 257.388 76.3067C257.517 76.282 257.613 76.2622 257.678 76.2474L257.685 77.3672C257.576 77.4018 257.433 77.4339 257.255 77.4636C257.082 77.4982 256.872 77.5155 256.625 77.5155C256.288 77.5155 255.979 77.4488 255.698 77.3153C255.416 77.1818 255.191 76.9593 255.023 76.6479C254.86 76.3315 254.778 75.9063 254.778 75.3723V67.393ZM260.933 65.9766V77.3672H259.561V65.9766H260.933ZM260.607 73.0512L260.036 73.029C260.04 72.4802 260.122 71.9734 260.28 71.5087C260.438 71.0391 260.661 70.6312 260.948 70.2851C261.234 69.9391 261.576 69.6721 261.971 69.4842C262.372 69.2914 262.814 69.195 263.298 69.195C263.694 69.195 264.05 69.2494 264.366 69.3582C264.683 69.462 264.952 69.6301 265.175 69.8624C265.402 70.0948 265.575 70.3964 265.694 70.7672C265.812 71.133 265.872 71.5804 265.872 72.1094V77.3672H264.492V72.0946C264.492 71.6743 264.431 71.3382 264.307 71.086C264.183 70.8289 264.003 70.6436 263.766 70.5298C263.528 70.4112 263.237 70.3519 262.891 70.3519C262.549 70.3519 262.238 70.4236 261.956 70.5669C261.679 70.7103 261.44 70.9081 261.237 71.1602C261.039 71.4123 260.883 71.7015 260.77 72.0278C260.661 72.3492 260.607 72.6903 260.607 73.0512ZM269.72 69.3433V77.3672H268.341V69.3433H269.72ZM268.237 67.215C268.237 66.9925 268.304 66.8047 268.437 66.6514C268.576 66.4981 268.778 66.4215 269.045 66.4215C269.307 66.4215 269.508 66.4981 269.646 66.6514C269.789 66.8047 269.861 66.9925 269.861 67.215C269.861 67.4276 269.789 67.6105 269.646 67.7638C269.508 67.9121 269.307 67.9862 269.045 67.9862C268.778 67.9862 268.576 67.9121 268.437 67.7638C268.304 67.6105 268.237 67.4276 268.237 67.215ZM276.898 75.2389C276.898 75.0411 276.854 74.8582 276.765 74.6901C276.681 74.5171 276.505 74.3613 276.238 74.2229C275.976 74.0795 275.581 73.9559 275.052 73.8521C274.607 73.7582 274.204 73.6469 273.843 73.5184C273.487 73.3899 273.183 73.2341 272.931 73.0512C272.684 72.8683 272.493 72.6532 272.36 72.406C272.226 72.1588 272.16 71.8696 272.16 71.5384C272.16 71.222 272.229 70.9229 272.367 70.6411C272.511 70.3593 272.711 70.1096 272.968 69.8921C273.23 69.6746 273.544 69.504 273.91 69.3804C274.276 69.2568 274.684 69.195 275.133 69.195C275.776 69.195 276.325 69.3087 276.78 69.5361C277.235 69.7635 277.583 70.0676 277.825 70.4483C278.068 70.824 278.189 71.2418 278.189 71.7015H276.817C276.817 71.4791 276.75 71.264 276.617 71.0564C276.488 70.8438 276.298 70.6683 276.046 70.5298C275.798 70.3914 275.494 70.3222 275.133 70.3222C274.753 70.3222 274.444 70.3815 274.206 70.5002C273.974 70.6139 273.804 70.7597 273.695 70.9377C273.591 71.1157 273.539 71.3036 273.539 71.5013C273.539 71.6496 273.564 71.7831 273.613 71.9018C273.668 72.0155 273.762 72.1218 273.895 72.2206C274.029 72.3146 274.216 72.4036 274.459 72.4876C274.701 72.5717 275.01 72.6557 275.386 72.7397C276.043 72.8881 276.584 73.066 277.01 73.2737C277.435 73.4813 277.751 73.7359 277.959 74.0375C278.167 74.3391 278.27 74.7049 278.27 75.135C278.27 75.4861 278.196 75.8074 278.048 76.0991C277.904 76.3908 277.694 76.6429 277.418 76.8555C277.146 77.0631 276.819 77.2263 276.439 77.3449C276.063 77.4586 275.64 77.5155 275.171 77.5155C274.464 77.5155 273.865 77.3894 273.376 77.1373C272.886 76.8852 272.516 76.5589 272.264 76.1584C272.011 75.758 271.885 75.3353 271.885 74.8903H273.265C273.284 75.2661 273.393 75.5652 273.591 75.7876C273.789 76.0052 274.031 76.1609 274.318 76.2548C274.604 76.3438 274.889 76.3883 275.171 76.3883C275.546 76.3883 275.86 76.3389 276.112 76.24C276.369 76.1411 276.565 76.0052 276.698 75.8321C276.832 75.6591 276.898 75.4613 276.898 75.2389ZM286.479 75.9434L288.541 69.3433H289.445L289.267 70.6559L287.169 77.3672H286.286L286.479 75.9434ZM285.092 69.3433L286.85 76.0175L286.976 77.3672H286.049L283.72 69.3433H285.092ZM291.418 75.9656L293.094 69.3433H294.458L292.13 77.3672H291.21L291.418 75.9656ZM289.646 69.3433L291.663 75.8321L291.893 77.3672H291.017L288.859 70.6411L288.681 69.3433H289.646ZM295.808 73.4442V73.2737C295.808 72.6953 295.892 72.1588 296.06 71.6645C296.228 71.1651 296.47 70.7325 296.787 70.3667C297.103 69.9959 297.486 69.7092 297.936 69.5065C298.386 69.2988 298.89 69.195 299.449 69.195C300.012 69.195 300.519 69.2988 300.969 69.5065C301.424 69.7092 301.81 69.9959 302.126 70.3667C302.447 70.7325 302.692 71.1651 302.86 71.6645C303.028 72.1588 303.112 72.6953 303.112 73.2737V73.4442C303.112 74.0227 303.028 74.5591 302.86 75.0535C302.692 75.5479 302.447 75.9804 302.126 76.3512C301.81 76.7171 301.426 77.0038 300.977 77.2115C300.532 77.4142 300.027 77.5155 299.464 77.5155C298.9 77.5155 298.393 77.4142 297.943 77.2115C297.494 77.0038 297.108 76.7171 296.787 76.3512C296.47 75.9804 296.228 75.5479 296.06 75.0535C295.892 74.5591 295.808 74.0227 295.808 73.4442ZM297.18 73.2737V73.4442C297.18 73.8447 297.227 74.2229 297.321 74.5789C297.414 74.9299 297.555 75.2413 297.743 75.5132C297.936 75.7852 298.176 76.0002 298.463 76.1584C298.749 76.3117 299.083 76.3883 299.464 76.3883C299.839 76.3883 300.168 76.3117 300.45 76.1584C300.737 76.0002 300.974 75.7852 301.162 75.5132C301.35 75.2413 301.491 74.9299 301.585 74.5789C301.684 74.2229 301.733 73.8447 301.733 73.4442V73.2737C301.733 72.8782 301.684 72.5049 301.585 72.1539C301.491 71.7979 301.347 71.484 301.155 71.2121C300.967 70.9352 300.729 70.7177 300.443 70.5595C300.161 70.4013 299.83 70.3222 299.449 70.3222C299.073 70.3222 298.742 70.4013 298.455 70.5595C298.173 70.7177 297.936 70.9352 297.743 71.2121C297.555 71.484 297.414 71.7979 297.321 72.1539C297.227 72.5049 297.18 72.8782 297.18 73.2737ZM306.508 70.604V77.3672H305.136V69.3433H306.471L306.508 70.604ZM309.015 69.2988L309.008 70.5743C308.894 70.5496 308.785 70.5348 308.681 70.5298C308.582 70.52 308.469 70.515 308.34 70.515C308.024 70.515 307.744 70.5645 307.502 70.6633C307.26 70.7622 307.055 70.9006 306.887 71.0786C306.719 71.2566 306.585 71.4692 306.486 71.7164C306.392 71.9586 306.33 72.2256 306.301 72.5173L305.915 72.7397C305.915 72.2552 305.962 71.8004 306.056 71.3752C306.155 70.9501 306.306 70.5743 306.508 70.248C306.711 69.9168 306.968 69.6597 307.28 69.4768C307.596 69.2889 307.972 69.195 308.407 69.195C308.506 69.195 308.619 69.2074 308.748 69.2321C308.877 69.2519 308.965 69.2741 309.015 69.2988ZM311.966 65.9766V77.3672H310.587V65.9766H311.966ZM316.868 69.3433L313.368 73.0883L311.41 75.1202L311.299 73.6593L312.7 71.9833L315.192 69.3433H316.868ZM315.615 77.3672L312.752 73.5406L313.464 72.317L317.231 77.3672H315.615ZM322.429 70.0923C322.429 69.86 322.501 69.6647 322.644 69.5065C322.793 69.3433 323.005 69.2617 323.282 69.2617C323.559 69.2617 323.769 69.3433 323.912 69.5065C324.061 69.6647 324.135 69.86 324.135 70.0923C324.135 70.3197 324.061 70.5125 323.912 70.6707C323.769 70.8289 323.559 70.9081 323.282 70.9081C323.005 70.9081 322.793 70.8289 322.644 70.6707C322.501 70.5125 322.429 70.3197 322.429 70.0923ZM323.994 75.7357V76.8407C323.994 77.2906 323.88 77.7652 323.653 78.2645C323.425 78.7688 323.106 79.189 322.696 79.5252L321.917 78.9838C322.076 78.7663 322.209 78.5438 322.318 78.3164C322.427 78.0939 322.508 77.8616 322.563 77.6193C322.622 77.382 322.652 77.1299 322.652 76.8629V75.7357H323.994ZM329.34 72.9771V73.0512C329.34 74.1339 329.219 75.1128 328.977 75.9879C328.735 76.8629 328.426 77.6267 328.05 78.2793C327.674 78.9369 327.279 79.4807 326.864 79.9108C326.448 80.3459 326.065 80.6598 325.714 80.8526L325.425 80.022C325.717 79.7996 326.011 79.4881 326.307 79.0876C326.604 78.6921 326.878 78.2027 327.13 77.6193C327.383 77.0409 327.585 76.3735 327.739 75.6171C327.892 74.8557 327.968 74.0054 327.968 73.066V72.9622C327.968 72.0229 327.887 71.175 327.724 70.4186C327.561 69.6573 327.348 68.9874 327.086 68.4089C326.829 67.8305 326.552 67.3435 326.255 66.948C325.964 66.5476 325.687 66.2386 325.425 66.0211L325.714 65.1831C326.065 65.3759 326.448 65.6898 326.864 66.1249C327.279 66.555 327.674 67.0988 328.05 67.7563C328.426 68.4139 328.735 69.1802 328.977 70.0552C329.219 70.9254 329.34 71.8993 329.34 72.9771Z" fill="white"/>
</g>
<defs>
<filter id="filter0_d_599_446" x="0.5" y="0" width="472.148" height="124.734" filterUnits="userSpaceOnUse" color-interpolation-filters="sRGB">
<feFlood flood-opacity="0" result="BackgroundImageFix"/>
<feColorMatrix in="SourceAlpha" type="matrix" values="0 0 0 0 0 0 0 0 0 0 0 0 0 0 0 0 0 0 127 0" result="hardAlpha"/>
<feOffset dy="4.5"/>
<feGaussianBlur stdDeviation="11.25"/>
<feComposite in2="hardAlpha" operator="out"/>
<feColorMatrix type="matrix" values="0 0 0 0 0 0 0 0 0 0 0 0 0 0 0 0 0 0 0.1 0"/>
<feBlend mode="normal" in2="BackgroundImageFix" result="effect1_dropShadow_599_446"/>
<feBlend mode="normal" in="SourceGraphic" in2="effect1_dropShadow_599_446" result="shape"/>
</filter>
</defs>
</svg>
