<svg width="145" height="327" viewBox="0 0 145 327" fill="none" xmlns="http://www.w3.org/2000/svg">
<rect width="75" height="242.721" transform="matrix(0.866025 0.5 0 1 1 46)" fill="#E94649"/>
<rect width="75" height="75" transform="matrix(0.866025 0.5 0 1 80.0481 0)" fill="#E94649"/>
<rect width="91.2213" height="243.067" transform="matrix(0.866025 -0.5 0 1 66 82.6107)" fill="#F17274"/>
<rect width="75" height="91.7894" transform="matrix(0.866025 0.5 -0.866025 0.5 80.0481 0)" fill="#FFB7B8"/>
<rect width="72" height="18" rx="9" transform="matrix(0.866025 -0.5 0 1 77 106)" fill="#FF9083" fill-opacity="0.5"/>
<path d="M84.3825 106.201C84.5121 105.666 85.0765 105.34 85.2061 105.726L85.8637 107.683C85.9217 107.856 86.0879 107.899 86.2755 107.791L88.4035 106.562C88.8229 106.32 88.9973 106.839 88.658 107.32L86.9364 109.758C86.7847 109.973 86.7212 110.235 86.7791 110.408L87.4367 112.365C87.5663 112.751 87.1097 113.397 86.7704 113.309L85.0488 112.858C84.897 112.819 84.6915 112.937 84.5398 113.152L82.8182 115.59C82.4789 116.071 82.0223 115.952 82.1519 115.416L82.8095 112.7C82.8674 112.46 82.8039 112.271 82.6522 112.231L80.9306 111.781C80.5913 111.692 80.7657 110.972 81.1851 110.73L83.3131 109.501C83.5007 109.393 83.6669 109.157 83.7249 108.918L84.3825 106.201Z" fill="url(#paint0_linear_378_1625)"/>
<path d="M96.0736 99.4513C96.2033 98.9158 96.7677 98.5899 96.8973 98.9758L97.5549 100.933C97.6128 101.106 97.7791 101.149 97.9667 101.041L100.095 99.8121C100.514 99.57 100.688 100.089 100.349 100.57L98.6276 103.008C98.4758 103.223 98.4123 103.485 98.4703 103.658L99.1279 105.615C99.2575 106.001 98.8009 106.647 98.4615 106.559L96.74 106.108C96.5882 106.069 96.3827 106.187 96.2309 106.402L94.5094 108.84C94.17 109.321 93.7134 109.202 93.8431 108.666L94.5006 105.95C94.5586 105.71 94.4951 105.521 94.3433 105.481L92.6218 105.031C92.2824 104.942 92.4568 104.222 92.8763 103.98L95.0042 102.751C95.1918 102.643 95.3581 102.407 95.4161 102.168L96.0736 99.4513Z" fill="url(#paint1_linear_378_1625)"/>
<path d="M107.765 92.7013C107.895 92.1658 108.459 91.8399 108.589 92.2258L109.246 94.183C109.304 94.3555 109.47 94.399 109.658 94.2907L111.786 93.0621C112.205 92.82 112.38 93.3391 112.041 93.8197L110.319 96.2579C110.167 96.4729 110.104 96.7352 110.162 96.9078L110.819 98.865C110.949 99.2508 110.492 99.8975 110.153 99.8087L108.431 99.3584C108.28 99.3187 108.074 99.4373 107.922 99.6523L106.201 102.09C105.861 102.571 105.405 102.452 105.534 101.916L106.192 99.1996C106.25 98.9602 106.186 98.7711 106.035 98.7314L104.313 98.2811C103.974 98.1923 104.148 97.4718 104.568 97.2296L106.696 96.0011C106.883 95.8928 107.05 95.6573 107.107 95.4178L107.765 92.7013Z" fill="url(#paint2_linear_378_1625)"/>
<path d="M119.456 85.9513C119.586 85.4158 120.15 85.0899 120.28 85.4758L120.938 87.433C120.996 87.6055 121.162 87.649 121.349 87.5407L123.477 86.3121C123.897 86.07 124.071 86.5891 123.732 87.0697L122.01 89.5079C121.859 89.7229 121.795 89.9852 121.853 90.1578L122.511 92.115C122.64 92.5008 122.184 93.1475 121.844 93.0587L120.123 92.6084C119.971 92.5687 119.766 92.6873 119.614 92.9023L117.892 95.3405C117.553 95.8211 117.096 95.7017 117.226 95.1662L117.883 92.4496C117.941 92.2102 117.878 92.0211 117.726 91.9814L116.005 91.5311C115.665 91.4423 115.84 90.7218 116.259 90.4796L118.387 89.2511C118.575 89.1428 118.741 88.9073 118.799 88.6678L119.456 85.9513Z" fill="url(#paint3_linear_378_1625)"/>
<path d="M131.148 79.2013C131.277 78.6658 131.842 78.3399 131.971 78.7258L132.629 80.683C132.687 80.8555 132.853 80.899 133.041 80.7907L135.169 79.5621C135.588 79.32 135.763 79.8391 135.423 80.3197L133.702 82.7579C133.55 82.9729 133.487 83.2352 133.545 83.4078L134.202 85.365C134.332 85.7508 133.875 86.3975 133.536 86.3087L131.814 85.8584C131.662 85.8187 131.457 85.9373 131.305 86.1523L129.584 88.5905C129.244 89.0711 128.788 88.9517 128.917 88.4162L129.575 85.6996C129.633 85.4602 129.569 85.2711 129.418 85.2314L127.696 84.7811C127.357 84.6923 127.531 83.9718 127.951 83.7296L130.078 82.5011C130.266 82.3928 130.432 82.1573 130.49 81.9178L131.148 79.2013Z" fill="url(#paint4_linear_378_1625)"/>
<path d="M78.995 96.3482C78.8564 96.4282 78.7872 96.4095 78.7872 96.2922C78.7872 96.1749 78.8472 96.0762 78.9673 95.9962L79.5908 95.5242C79.7756 95.3855 79.9003 95.2602 79.9649 95.1482C80.0296 95.0255 80.0619 94.8522 80.0619 94.6282V85.0282C80.0619 84.8789 80.0342 84.7882 79.9788 84.7562C79.9234 84.7242 79.8079 84.7589 79.6324 84.8602C79.2906 85.0575 78.9534 85.4229 78.6209 85.9562C78.2883 86.4895 78.0712 87.1642 77.9696 87.9802L77.9003 88.5482C77.8819 88.6975 77.8172 88.8042 77.7064 88.8682C77.5678 88.9482 77.5077 88.8922 77.5262 88.7002L77.6509 85.7322C77.6694 85.4762 77.7525 85.3055 77.9003 85.2202C77.965 85.1829 78.0251 85.1695 78.0805 85.1802C78.1359 85.1802 78.2283 85.1642 78.3576 85.1322C78.4962 85.0949 78.7133 84.9909 79.0089 84.8202L82.0988 83.0362C82.3944 82.8655 82.6069 82.7215 82.7362 82.6042C82.8748 82.4815 82.9718 82.3882 83.0272 82.3242C83.0919 82.2442 83.1519 82.1882 83.2073 82.1562C83.3551 82.0709 83.4383 82.1455 83.4568 82.3802L83.5815 85.2042C83.5999 85.3749 83.5399 85.5002 83.4013 85.5802C83.2905 85.6442 83.2258 85.6122 83.2073 85.4842L83.1381 84.9962C83.0457 84.2922 82.8332 83.8655 82.5007 83.7162C82.1681 83.5669 81.8263 83.5935 81.4753 83.7962C81.2998 83.8975 81.1843 83.9962 81.1289 84.0922C81.0735 84.1882 81.0457 84.3109 81.0457 84.4602V94.0602C81.0457 94.2842 81.0781 94.4202 81.1427 94.4682C81.2166 94.5002 81.3414 94.4815 81.5169 94.4122L82.1404 94.1642C82.2605 94.1055 82.3205 94.1349 82.3205 94.2522C82.3205 94.3695 82.2513 94.4682 82.1127 94.5482L78.995 96.3482ZM85.9438 92.4803C85.4727 92.7523 85.0477 92.8163 84.669 92.6723C84.2995 92.5123 84.0039 92.1763 83.7822 91.6643C83.5605 91.1523 83.4496 90.5016 83.4496 89.7123C83.4496 88.923 83.5605 88.1496 83.7822 87.3923C84.0039 86.635 84.3041 85.9603 84.6828 85.3683C85.0616 84.7763 85.4819 84.347 85.9438 84.0803C86.4149 83.8083 86.8352 83.7523 87.2047 83.9123C87.5834 84.067 87.8837 84.395 88.1054 84.8963C88.3271 85.3976 88.4379 86.043 88.4379 86.8323C88.4379 87.6216 88.3271 88.4003 88.1054 89.1683C87.8929 89.931 87.5973 90.6083 87.2186 91.2003C86.8398 91.7816 86.4149 92.2083 85.9438 92.4803ZM85.9438 92.0803C86.9045 91.5256 87.3848 89.979 87.3848 87.4403C87.3848 84.9123 86.9045 83.9256 85.9438 84.4803C84.9831 85.035 84.5027 86.5763 84.5027 89.1043C84.5027 91.643 84.9831 92.635 85.9438 92.0803ZM89.4384 93.5987C89.2998 93.6787 89.2306 93.66 89.2306 93.5427C89.2306 93.4254 89.2906 93.3267 89.4107 93.2467L89.6047 93.1027C89.7987 92.9587 89.9234 92.8227 89.9788 92.6947C90.0435 92.5614 90.0758 92.3827 90.0758 92.1587V83.5027C90.0758 83.3107 90.0481 83.1987 89.9927 83.1667C89.9465 83.1187 89.8587 83.1214 89.7294 83.1747L89.4384 83.2947C89.3183 83.3534 89.2583 83.3294 89.2583 83.2227C89.2583 83.1374 89.3322 83.036 89.48 82.9187C89.7663 82.7 89.9834 82.4894 90.1312 82.2867C90.2883 82.0787 90.4499 81.8414 90.6162 81.5747C90.6993 81.4307 90.7686 81.3427 90.824 81.3107C90.9072 81.2627 90.9487 81.3027 90.9487 81.4307V81.9267C90.9487 82.0014 90.9765 82.0387 91.0319 82.0387C91.0873 82.028 91.152 81.9587 91.2259 81.8307L91.3783 81.5667C91.563 81.2467 91.7524 80.9827 91.9464 80.7747C92.1404 80.556 92.3621 80.3747 92.6115 80.2307C93.0364 79.9854 93.4106 79.9347 93.7339 80.0787C94.0664 80.2067 94.3251 80.5054 94.5098 80.9747C94.7038 81.4387 94.8008 82.06 94.8008 82.8387C94.8008 83.724 94.6807 84.5774 94.4406 85.3987C94.2004 86.22 93.8678 86.9454 93.4429 87.5747C93.0272 88.1987 92.5469 88.668 92.0018 88.9827C91.7247 89.1427 91.4799 89.2254 91.2674 89.2307C91.1012 89.2414 91.018 89.348 91.018 89.5507V91.6147C91.018 91.8387 91.0457 91.972 91.1012 92.0147C91.1658 92.0627 91.2952 92.0467 91.4891 91.9667L92.0018 91.7507C92.1034 91.7134 92.1543 91.7427 92.1543 91.8387C92.1543 91.9667 92.085 92.0707 91.9464 92.1507L89.4384 93.5987ZM92.0434 88.5587C92.5607 88.26 92.9764 87.668 93.2905 86.7827C93.6138 85.892 93.7755 84.8494 93.7755 83.6547C93.7755 82.556 93.6369 81.7987 93.3598 81.3827C93.0826 80.9667 92.69 80.9054 92.182 81.1987C91.8679 81.38 91.5954 81.6867 91.3644 82.1187C91.1335 82.5507 91.018 83.0334 91.018 83.5667V87.5987C91.018 88.0787 91.1104 88.404 91.2952 88.5747C91.4891 88.74 91.7386 88.7347 92.0434 88.5587ZM104.365 81.8446C103.562 82.3086 103.049 81.9966 102.827 80.9086L102.509 79.3166C102.407 78.7993 102.291 78.4286 102.162 78.2046C102.042 77.9753 101.871 77.8713 101.649 77.8926C101.437 77.9086 101.141 78.026 100.763 78.2446C100.633 78.3193 100.532 78.4206 100.458 78.5486C100.384 78.666 100.347 78.7833 100.347 78.9006V82.9006C100.347 83.1246 100.384 83.258 100.458 83.3006C100.532 83.3326 100.698 83.3006 100.957 83.2046L101.469 83.0046C101.571 82.9673 101.622 82.9966 101.622 83.0926C101.622 83.2206 101.552 83.3246 101.414 83.4046L98.6011 85.0286C98.4625 85.1086 98.3932 85.09 98.3932 84.9726C98.3932 84.8766 98.4533 84.778 98.5733 84.6766L98.892 84.4286C99.086 84.274 99.2107 84.1433 99.2662 84.0366C99.3308 83.9246 99.3632 83.7566 99.3632 83.5326V74.1246C99.3632 73.9006 99.3308 73.77 99.2662 73.7326C99.2107 73.69 99.086 73.7033 98.892 73.7726L98.5733 73.8926C98.4533 73.93 98.3932 73.9006 98.3932 73.8046C98.3932 73.6873 98.4625 73.5886 98.6011 73.5086L101.414 71.8846C101.959 71.57 102.444 71.4126 102.869 71.4126C103.294 71.4126 103.626 71.562 103.866 71.8606C104.107 72.1486 104.227 72.5753 104.227 73.1406C104.227 73.8126 104.051 74.522 103.7 75.2686C103.349 76.0046 102.906 76.6393 102.37 77.1726C102.305 77.2313 102.268 77.29 102.259 77.3486C102.259 77.3913 102.291 77.41 102.356 77.4046C102.652 77.394 102.883 77.4846 103.049 77.6766C103.224 77.8633 103.358 78.17 103.451 78.5966L103.756 80.0526C103.857 80.5486 103.977 80.874 104.116 81.0286C104.254 81.1833 104.43 81.1993 104.642 81.0766C104.716 81.034 104.781 80.986 104.836 80.9326C104.901 80.8633 104.98 80.7646 105.072 80.6366C105.146 80.5406 105.215 80.49 105.28 80.4846C105.345 80.4686 105.377 80.5033 105.377 80.5886C105.377 80.77 105.275 80.9886 105.072 81.2446C104.869 81.49 104.633 81.69 104.365 81.8446ZM101.275 77.5486C101.904 77.186 102.379 76.6713 102.703 76.0046C103.026 75.3273 103.188 74.5833 103.188 73.7726C103.188 72.9833 102.998 72.4793 102.619 72.2606C102.25 72.026 101.737 72.098 101.081 72.4766C100.592 72.7593 100.347 73.114 100.347 73.5406V77.2046C100.347 77.7913 100.656 77.906 101.275 77.5486ZM107.833 79.8424C107.39 80.0984 106.993 80.157 106.642 80.0184C106.291 79.8797 106.009 79.5624 105.796 79.0664C105.593 78.5544 105.492 77.8877 105.492 77.0664C105.492 76.2237 105.598 75.421 105.81 74.6584C106.023 73.8957 106.314 73.2264 106.683 72.6504C107.053 72.0744 107.464 71.6557 107.916 71.3944C108.461 71.0797 108.9 71.0877 109.233 71.4184C109.575 71.733 109.746 72.4717 109.746 73.6344C109.746 73.9864 109.63 74.229 109.399 74.3624L106.766 75.8824C106.582 75.989 106.489 76.165 106.489 76.4104C106.489 77.541 106.632 78.3064 106.919 78.7064C107.205 79.1064 107.57 79.1784 108.013 78.9224C108.364 78.7197 108.651 78.4104 108.873 77.9944C109.094 77.5784 109.274 76.989 109.413 76.2264C109.441 76.093 109.501 75.9997 109.593 75.9464C109.704 75.8824 109.746 75.965 109.718 76.1944C109.57 77.229 109.334 78.0317 109.011 78.6024C108.688 79.1624 108.295 79.5757 107.833 79.8424ZM106.725 75.5064L108.124 74.6984C108.568 74.4424 108.789 74.0477 108.789 73.5144C108.789 72.821 108.716 72.3197 108.568 72.0104C108.42 71.701 108.198 71.6317 107.903 71.8024C107.542 72.0104 107.237 72.4264 106.988 73.0504C106.748 73.669 106.591 74.4424 106.517 75.3704C106.498 75.5517 106.568 75.597 106.725 75.5064ZM112.191 77.3266C111.978 77.4493 111.752 77.548 111.512 77.6226C111.272 77.708 111.078 77.7506 110.93 77.7506C110.847 77.7453 110.805 77.6786 110.805 77.5506L110.764 75.7826C110.764 75.6013 110.824 75.476 110.944 75.4066C111.045 75.348 111.115 75.3933 111.151 75.5426C111.309 76.2093 111.498 76.6173 111.72 76.7666C111.951 76.9106 112.228 76.8893 112.551 76.7026C112.819 76.548 113.041 76.3026 113.216 75.9666C113.392 75.62 113.479 75.2333 113.479 74.8066C113.479 74.38 113.378 74.06 113.175 73.8466C112.971 73.6333 112.63 73.468 112.149 73.3506C111.669 73.2546 111.318 73.084 111.096 72.8386C110.874 72.5826 110.764 72.2306 110.764 71.7826C110.764 71.1746 110.948 70.5773 111.318 69.9906C111.687 69.404 112.177 68.9346 112.787 68.5826C112.971 68.476 113.151 68.3986 113.327 68.3506C113.502 68.292 113.66 68.276 113.798 68.3026C113.881 68.3186 113.923 68.38 113.923 68.4866L113.95 70.2306C113.95 70.3906 113.895 70.5026 113.784 70.5666C113.72 70.604 113.673 70.6093 113.646 70.5826C113.618 70.5453 113.595 70.4946 113.576 70.4306C113.392 69.844 113.207 69.4706 113.022 69.3106C112.837 69.14 112.611 69.132 112.343 69.2866C112.103 69.4253 111.904 69.636 111.747 69.9186C111.59 70.2013 111.512 70.4866 111.512 70.7746C111.512 71.148 111.609 71.4173 111.803 71.5826C111.997 71.748 112.348 71.8866 112.856 71.9986C113.318 72.116 113.664 72.332 113.895 72.6466C114.135 72.9453 114.255 73.356 114.255 73.8786C114.255 74.5613 114.066 75.22 113.687 75.8546C113.308 76.4786 112.81 76.9693 112.191 77.3266ZM117.285 74.3857C117.054 74.519 116.832 74.5884 116.619 74.5937C116.407 74.599 116.231 74.5137 116.093 74.3377C115.954 74.1617 115.885 73.8604 115.885 73.4337V67.8657C115.885 67.6737 115.857 67.5564 115.802 67.5137C115.756 67.4657 115.668 67.4737 115.539 67.5377L115.303 67.6417C115.146 67.711 115.068 67.687 115.068 67.5697C115.068 67.431 115.155 67.311 115.331 67.2097L116.619 66.4657C116.758 66.3857 116.827 66.4257 116.827 66.5857V72.5537C116.827 73.0444 116.906 73.351 117.063 73.4737C117.229 73.5804 117.455 73.551 117.742 73.3857C118.028 73.2204 118.282 72.983 118.504 72.6737C118.726 72.3537 118.901 72.0017 119.03 71.6177C119.169 71.2177 119.238 70.831 119.238 70.4577V65.9297C119.238 65.7377 119.211 65.6204 119.155 65.5777C119.109 65.5297 119.021 65.5377 118.892 65.6017L118.656 65.7057C118.499 65.775 118.421 65.751 118.421 65.6337C118.421 65.495 118.509 65.375 118.684 65.2737L119.973 64.5297C120.111 64.4497 120.181 64.4897 120.181 64.6497V70.8577C120.181 71.0497 120.204 71.1697 120.25 71.2177C120.305 71.2497 120.398 71.239 120.527 71.1857L120.818 71.0657C120.938 71.007 120.998 71.0257 120.998 71.1217C120.998 71.2177 120.924 71.3244 120.776 71.4417C120.49 71.6497 120.259 71.8684 120.084 72.0977C119.917 72.3217 119.769 72.5617 119.64 72.8177C119.557 72.9617 119.488 73.0497 119.432 73.0817C119.349 73.1297 119.308 73.0897 119.308 72.9617V72.2257C119.308 72.1404 119.28 72.1084 119.224 72.1297C119.178 72.135 119.127 72.1857 119.072 72.2817C118.73 72.8737 118.425 73.327 118.158 73.6417C117.899 73.951 117.608 74.199 117.285 74.3857ZM121.762 71.6569C121.651 71.7209 121.595 71.6942 121.595 71.5769C121.595 71.4702 121.646 71.3769 121.748 71.2969L121.942 71.1529C122.136 71.0089 122.279 70.8622 122.371 70.7129C122.464 70.5635 122.51 70.3769 122.51 70.1529V60.9849C122.51 60.7929 122.482 60.6755 122.427 60.6329C122.381 60.5849 122.293 60.5929 122.163 60.6569L121.845 60.7929C121.743 60.8302 121.692 60.7955 121.692 60.6889C121.692 60.5822 121.743 60.4889 121.845 60.4089C122.103 60.1955 122.325 59.9929 122.51 59.8009C122.695 59.6089 122.847 59.4355 122.967 59.2809C123.115 59.0889 123.226 58.9715 123.3 58.9289C123.401 58.8702 123.452 58.9262 123.452 59.0969V69.6089C123.452 69.8329 123.48 69.9769 123.535 70.0409C123.6 70.0889 123.729 70.0729 123.923 69.9929L124.242 69.8569C124.344 69.8195 124.394 69.8542 124.394 69.9609C124.394 70.0782 124.339 70.1689 124.228 70.2329L121.762 71.6569ZM126.843 68.8671C126.52 69.0537 126.252 69.0804 126.039 68.9471C125.836 68.7977 125.735 68.4244 125.735 67.8271V61.8431C125.735 61.7151 125.679 61.6831 125.568 61.7471L125.166 61.9791C125.019 62.0644 124.945 62.0431 124.945 61.9151C124.945 61.8297 124.986 61.7311 125.069 61.6191C125.374 61.1977 125.619 60.7951 125.804 60.4111C125.989 60.0164 126.15 59.5337 126.289 58.9631C126.354 58.7017 126.432 58.5444 126.524 58.4911C126.626 58.4324 126.677 58.4884 126.677 58.6591V60.4351C126.677 60.5844 126.742 60.6217 126.871 60.5471L127.771 60.0271C127.919 59.9417 127.993 59.9737 127.993 60.1231C127.993 60.2724 127.919 60.3897 127.771 60.4751L126.871 60.9951C126.742 61.0697 126.677 61.1817 126.677 61.3311V67.2991C126.677 67.5337 126.709 67.7017 126.774 67.8031C126.839 67.8937 126.959 67.8884 127.134 67.7871C127.328 67.6751 127.485 67.4724 127.605 67.1791C127.735 66.8804 127.818 66.4697 127.855 65.9471C127.873 65.7871 127.933 65.6777 128.035 65.6191C128.146 65.5551 128.201 65.6031 128.201 65.7631C128.173 66.6004 128.026 67.2777 127.758 67.7951C127.499 68.3071 127.194 68.6644 126.843 68.8671ZM130.484 66.7647C130.272 66.8874 130.046 66.9861 129.805 67.0607C129.565 67.1461 129.371 67.1887 129.223 67.1887C129.14 67.1834 129.099 67.1167 129.099 66.9887L129.057 65.2207C129.057 65.0394 129.117 64.9141 129.237 64.8447C129.339 64.7861 129.408 64.8314 129.445 64.9807C129.602 65.6474 129.792 66.0554 130.013 66.2047C130.244 66.3487 130.521 66.3274 130.845 66.1407C131.113 65.9861 131.334 65.7407 131.51 65.4047C131.685 65.0581 131.773 64.6714 131.773 64.2447C131.773 63.8181 131.671 63.4981 131.468 63.2847C131.265 63.0714 130.923 62.9061 130.443 62.7887C129.963 62.6927 129.611 62.5221 129.39 62.2767C129.168 62.0207 129.057 61.6687 129.057 61.2207C129.057 60.6127 129.242 60.0154 129.611 59.4287C129.981 58.8421 130.471 58.3727 131.08 58.0207C131.265 57.9141 131.445 57.8367 131.621 57.7887C131.796 57.7301 131.953 57.7141 132.092 57.7407C132.175 57.7567 132.216 57.8181 132.216 57.9247L132.244 59.6687C132.244 59.8287 132.189 59.9407 132.078 60.0047C132.013 60.0421 131.967 60.0474 131.939 60.0207C131.912 59.9834 131.889 59.9327 131.87 59.8687C131.685 59.2821 131.501 58.9087 131.316 58.7487C131.131 58.5781 130.905 58.5701 130.637 58.7247C130.397 58.8634 130.198 59.0741 130.041 59.3567C129.884 59.6394 129.805 59.9247 129.805 60.2127C129.805 60.5861 129.902 60.8554 130.096 61.0207C130.29 61.1861 130.641 61.3247 131.15 61.4367C131.611 61.5541 131.958 61.7701 132.189 62.0847C132.429 62.3834 132.549 62.7941 132.549 63.3167C132.549 63.9994 132.36 64.6581 131.981 65.2927C131.602 65.9167 131.103 66.4074 130.484 66.7647Z" fill="white"/>
<defs>
<linearGradient id="paint0_linear_378_1625" x1="84.7943" y1="104.5" x2="89.9904" y2="113.5" gradientUnits="userSpaceOnUse">
<stop stop-color="#B70404"/>
<stop offset="1" stop-color="#FF5858"/>
</linearGradient>
<linearGradient id="paint1_linear_378_1625" x1="96.4855" y1="97.75" x2="101.682" y2="106.75" gradientUnits="userSpaceOnUse">
<stop stop-color="#B70404"/>
<stop offset="1" stop-color="#FF5858"/>
</linearGradient>
<linearGradient id="paint2_linear_378_1625" x1="108.177" y1="91" x2="113.373" y2="100" gradientUnits="userSpaceOnUse">
<stop stop-color="#B70404"/>
<stop offset="1" stop-color="#FF5858"/>
</linearGradient>
<linearGradient id="paint3_linear_378_1625" x1="119.868" y1="84.25" x2="125.064" y2="93.25" gradientUnits="userSpaceOnUse">
<stop stop-color="#B70404"/>
<stop offset="1" stop-color="#FF5858"/>
</linearGradient>
<linearGradient id="paint4_linear_378_1625" x1="131.56" y1="77.5" x2="136.756" y2="86.5" gradientUnits="userSpaceOnUse">
<stop stop-color="#B70404"/>
<stop offset="1" stop-color="#FF5858"/>
</linearGradient>
</defs>
</svg>
