<svg width="21" height="19" viewBox="0 0 21 19" fill="none" xmlns="http://www.w3.org/2000/svg">
<path d="M18.7476 0.725586C13.2884 0.725586 11.2654 4.63257 9.63879 7.77129L8.57616 9.77934C6.85369 13.1079 5.56681 15.1313 2.25037 15.1313C2.04448 15.1313 1.84059 15.1719 1.65039 15.2509C1.46015 15.3299 1.28731 15.4456 1.14169 15.5916C0.996118 15.7375 0.880578 15.9107 0.801775 16.1014C0.723014 16.292 0.682495 16.4964 0.682495 16.7028C0.683064 17.1194 0.84843 17.5188 1.14234 17.8134C1.43626 18.108 1.83474 18.2738 2.25037 18.2743C7.7117 18.2743 9.73463 14.3673 11.3613 11.2286L12.4218 9.22057C14.1464 5.89199 15.4333 3.86865 18.7476 3.86865C18.9536 3.86894 19.1577 3.8285 19.3482 3.74961C19.5387 3.67077 19.7118 3.55507 19.8576 3.40913C20.0034 3.26315 20.1192 3.08981 20.1981 2.89901C20.277 2.7082 20.3176 2.50365 20.3176 2.29712C20.317 1.8801 20.1513 1.4804 19.857 1.18572C19.5626 0.891075 19.1636 0.725586 18.7476 0.725586Z" fill="white"/>
</svg>
