<svg width="51" height="51" viewBox="0 0 51 51" fill="none" xmlns="http://www.w3.org/2000/svg">
<rect x="0.125" y="0.124939" width="50.625" height="50.625" rx="6.75" fill="#B70404"/>
<path d="M10.6767 29.0027H8.31003V22.4974H10.5249V23.4846H10.6388C10.9932 22.7632 11.7399 22.3708 12.6385 22.3708C13.7016 22.3708 14.3471 22.8138 14.6761 23.4846H14.79C15.233 22.7505 15.9671 22.3708 16.9163 22.3708C18.5996 22.3708 19.2324 23.4972 19.2324 24.8388V29.0027H16.853V25.3324C16.853 24.6363 16.7011 24.4085 15.9291 24.4085C15.1824 24.4085 14.9546 24.5983 14.9546 25.2944V29.0027H12.5752V25.3324C12.5752 24.6363 12.4233 24.4085 11.6513 24.4085C10.9046 24.4085 10.6767 24.5983 10.6767 25.2944V29.0027ZM22.3072 29.0027H19.9404V22.4974H22.1553V23.4846H22.2692C22.6236 22.7505 23.4336 22.3708 24.3954 22.3708C26.0787 22.3708 26.7115 23.4972 26.7115 24.8388V29.0027H24.3322V25.3324C24.3322 24.6363 24.1676 24.4085 23.3323 24.4085C22.5476 24.4085 22.3072 24.5983 22.3072 25.2944V29.0027ZM32.095 29.0027H29.0575L26.6275 22.4974H29.2853L30.5256 26.636H30.6901L31.9304 22.4974H34.5376L32.095 29.0027ZM37.0398 29.0027H34.6731V22.4974H36.8879V23.4846H37.0018C37.3689 22.8517 37.989 22.3708 38.8497 22.3708C40.1026 22.3708 40.5456 23.1808 40.5456 24.4591V25.6361H38.1662V24.9907C38.1662 24.5097 38.0776 24.3705 37.6347 24.3705C37.2423 24.3705 37.0398 24.4211 37.0398 24.8894V29.0027ZM42.5632 29.0027H39.7282V26.3828H42.5632V29.0027Z" fill="#F9F0DE"/>
</svg>
