<svg width="19" height="18" viewBox="0 0 19 18" fill="none" xmlns="http://www.w3.org/2000/svg">
<path d="M1.70001 10.5C1.70001 8.39332 1.70001 7.33996 2.2056 6.58329C2.42448 6.25572 2.70573 5.97447 3.0333 5.75559C3.78997 5.25 4.84332 5.25 6.95001 5.25H11.45C13.5567 5.25 14.6101 5.25 15.3667 5.75559C15.6943 5.97447 15.9755 6.25572 16.1944 6.58329C16.7 7.33996 16.7 8.39332 16.7 10.5C16.7 12.6067 16.7 13.66 16.1944 14.4167C15.9755 14.7442 15.6943 15.0255 15.3667 15.2444C14.6101 15.75 13.5567 15.75 11.45 15.75H6.95001C4.84332 15.75 3.78997 15.75 3.0333 15.2444C2.70573 15.0255 2.42448 14.7442 2.2056 14.4167C1.70001 13.66 1.70001 12.6067 1.70001 10.5Z" stroke="#B70404" stroke-width="1.125" stroke-linecap="round" stroke-linejoin="round"/>
<path d="M12.2 5.25C12.2 3.83579 12.2 3.12868 11.7607 2.68934C11.3213 2.25 10.6142 2.25 9.20001 2.25C7.78581 2.25 7.07869 2.25 6.63935 2.68934C6.20001 3.12868 6.20001 3.83579 6.20001 5.25" stroke="#B70404" stroke-width="1.125" stroke-linecap="round" stroke-linejoin="round"/>
<path d="M4.70001 8.25L5.18899 8.4015C7.76384 9.1995 10.6362 9.1995 13.211 8.4015L13.7 8.25M9.20001 9V10.5" stroke="#B70404" stroke-width="1.125" stroke-linecap="round" stroke-linejoin="round"/>
</svg>
