<svg width="237" height="198" viewBox="0 0 237 198" fill="none" xmlns="http://www.w3.org/2000/svg">
<g filter="url(#filter0_d_502_839)">
<rect x="23" y="20" width="191" height="152" rx="12" fill="#FF9083" fill-opacity="0.5" shape-rendering="crispEdges"/>
<rect x="23.5" y="20.5" width="190" height="151" rx="11.5" stroke="#E94649" stroke-opacity="0.5" shape-rendering="crispEdges"/>
<rect x="29" y="26" width="179" height="140" rx="6" fill="white" fill-opacity="0.8"/>
<circle cx="150" cy="42" r="3" fill="#3ED243"/>
<path d="M48.1406 50.0703C48.1406 49.8359 48.1042 49.6276 48.0312 49.4453C47.9635 49.263 47.8411 49.0964 47.6641 48.9453C47.487 48.7943 47.237 48.6484 46.9141 48.5078C46.5964 48.362 46.1901 48.2135 45.6953 48.0625C45.1536 47.8958 44.6536 47.7109 44.1953 47.5078C43.7422 47.2995 43.3464 47.0599 43.0078 46.7891C42.6693 46.513 42.4062 46.1979 42.2188 45.8438C42.0312 45.4844 41.9375 45.0703 41.9375 44.6016C41.9375 44.138 42.0339 43.7161 42.2266 43.3359C42.4245 42.9557 42.7031 42.6276 43.0625 42.3516C43.4271 42.0703 43.8568 41.8542 44.3516 41.7031C44.8464 41.5469 45.3932 41.4688 45.9922 41.4688C46.8359 41.4688 47.5625 41.625 48.1719 41.9375C48.7865 42.25 49.2578 42.6693 49.5859 43.1953C49.9193 43.7214 50.0859 44.3021 50.0859 44.9375H48.1406C48.1406 44.5625 48.0599 44.2318 47.8984 43.9453C47.7422 43.6536 47.5026 43.4245 47.1797 43.2578C46.862 43.0911 46.4583 43.0078 45.9688 43.0078C45.5052 43.0078 45.1198 43.0781 44.8125 43.2188C44.5052 43.3594 44.276 43.5495 44.125 43.7891C43.974 44.0286 43.8984 44.2995 43.8984 44.6016C43.8984 44.8151 43.9479 45.0104 44.0469 45.1875C44.1458 45.3594 44.2969 45.5208 44.5 45.6719C44.7031 45.8177 44.9583 45.9557 45.2656 46.0859C45.5729 46.2161 45.9349 46.3411 46.3516 46.4609C46.9818 46.6484 47.5312 46.8568 48 47.0859C48.4688 47.3099 48.8594 47.5651 49.1719 47.8516C49.4844 48.138 49.7188 48.4635 49.875 48.8281C50.0312 49.1875 50.1094 49.5964 50.1094 50.0547C50.1094 50.5339 50.013 50.9661 49.8203 51.3516C49.6276 51.7318 49.3516 52.0573 48.9922 52.3281C48.638 52.5938 48.2109 52.7995 47.7109 52.9453C47.2161 53.0859 46.6641 53.1562 46.0547 53.1562C45.5078 53.1562 44.9688 53.0833 44.4375 52.9375C43.9115 52.7917 43.4323 52.5703 43 52.2734C42.5677 51.9714 42.224 51.5964 41.9688 51.1484C41.7135 50.6953 41.5859 50.1667 41.5859 49.5625H43.5469C43.5469 49.9323 43.6094 50.2474 43.7344 50.5078C43.8646 50.7682 44.0443 50.9818 44.2734 51.1484C44.5026 51.3099 44.7682 51.4297 45.0703 51.5078C45.3776 51.5859 45.7057 51.625 46.0547 51.625C46.513 51.625 46.8958 51.5599 47.2031 51.4297C47.5156 51.2995 47.75 51.1172 47.9062 50.8828C48.0625 50.6484 48.1406 50.3776 48.1406 50.0703ZM55.3828 53.1562C54.7578 53.1562 54.1927 53.0547 53.6875 52.8516C53.1875 52.6432 52.7604 52.3542 52.4062 51.9844C52.0573 51.6146 51.7891 51.1797 51.6016 50.6797C51.4141 50.1797 51.3203 49.6406 51.3203 49.0625V48.75C51.3203 48.0885 51.4167 47.4896 51.6094 46.9531C51.8021 46.4167 52.0703 45.9583 52.4141 45.5781C52.7578 45.1927 53.1641 44.8984 53.6328 44.6953C54.1016 44.4922 54.6094 44.3906 55.1562 44.3906C55.7604 44.3906 56.2891 44.4922 56.7422 44.6953C57.1953 44.8984 57.5703 45.1849 57.8672 45.5547C58.1693 45.9193 58.3932 46.3542 58.5391 46.8594C58.6901 47.3646 58.7656 47.9219 58.7656 48.5312V49.3359H52.2344V47.9844H56.9062V47.8359C56.8958 47.4974 56.8281 47.1797 56.7031 46.8828C56.5833 46.5859 56.3984 46.3464 56.1484 46.1641C55.8984 45.9818 55.5651 45.8906 55.1484 45.8906C54.8359 45.8906 54.5573 45.9583 54.3125 46.0938C54.0729 46.224 53.8724 46.4141 53.7109 46.6641C53.5495 46.9141 53.4245 47.2161 53.3359 47.5703C53.2526 47.9193 53.2109 48.3125 53.2109 48.75V49.0625C53.2109 49.4323 53.2604 49.776 53.3594 50.0938C53.4635 50.4062 53.6146 50.6797 53.8125 50.9141C54.0104 51.1484 54.25 51.3333 54.5312 51.4688C54.8125 51.599 55.1328 51.6641 55.4922 51.6641C55.9453 51.6641 56.349 51.5729 56.7031 51.3906C57.0573 51.2083 57.3646 50.9505 57.625 50.6172L58.6172 51.5781C58.4349 51.8438 58.1979 52.099 57.9062 52.3438C57.6146 52.5833 57.2578 52.7786 56.8359 52.9297C56.4193 53.0807 55.9349 53.1562 55.3828 53.1562ZM62.125 46.1562V53H60.2422V44.5469H62.0391L62.125 46.1562ZM64.7109 44.4922L64.6953 46.2422C64.5807 46.2214 64.4557 46.2057 64.3203 46.1953C64.1901 46.1849 64.0599 46.1797 63.9297 46.1797C63.6068 46.1797 63.3229 46.2266 63.0781 46.3203C62.8333 46.4089 62.6276 46.5391 62.4609 46.7109C62.2995 46.8776 62.1745 47.0807 62.0859 47.3203C61.9974 47.5599 61.9453 47.8281 61.9297 48.125L61.5 48.1562C61.5 47.625 61.5521 47.1328 61.6562 46.6797C61.7604 46.2266 61.9167 45.8281 62.125 45.4844C62.3385 45.1406 62.6042 44.8724 62.9219 44.6797C63.2448 44.487 63.6172 44.3906 64.0391 44.3906C64.1536 44.3906 64.276 44.401 64.4062 44.4219C64.5417 44.4427 64.6432 44.4661 64.7109 44.4922ZM68.7812 51.5078L70.8516 44.5469H72.8047L69.8672 53H68.6484L68.7812 51.5078ZM67.1953 44.5469L69.3047 51.5391L69.4062 53H68.1875L65.2344 44.5469H67.1953ZM77.5859 53.1562C76.9609 53.1562 76.3958 53.0547 75.8906 52.8516C75.3906 52.6432 74.9635 52.3542 74.6094 51.9844C74.2604 51.6146 73.9922 51.1797 73.8047 50.6797C73.6172 50.1797 73.5234 49.6406 73.5234 49.0625V48.75C73.5234 48.0885 73.6198 47.4896 73.8125 46.9531C74.0052 46.4167 74.2734 45.9583 74.6172 45.5781C74.9609 45.1927 75.3672 44.8984 75.8359 44.6953C76.3047 44.4922 76.8125 44.3906 77.3594 44.3906C77.9635 44.3906 78.4922 44.4922 78.9453 44.6953C79.3984 44.8984 79.7734 45.1849 80.0703 45.5547C80.3724 45.9193 80.5964 46.3542 80.7422 46.8594C80.8932 47.3646 80.9688 47.9219 80.9688 48.5312V49.3359H74.4375V47.9844H79.1094V47.8359C79.099 47.4974 79.0312 47.1797 78.9062 46.8828C78.7865 46.5859 78.6016 46.3464 78.3516 46.1641C78.1016 45.9818 77.7682 45.8906 77.3516 45.8906C77.0391 45.8906 76.7604 45.9583 76.5156 46.0938C76.276 46.224 76.0755 46.4141 75.9141 46.6641C75.7526 46.9141 75.6276 47.2161 75.5391 47.5703C75.4557 47.9193 75.4141 48.3125 75.4141 48.75V49.0625C75.4141 49.4323 75.4635 49.776 75.5625 50.0938C75.6667 50.4062 75.8177 50.6797 76.0156 50.9141C76.2135 51.1484 76.4531 51.3333 76.7344 51.4688C77.0156 51.599 77.3359 51.6641 77.6953 51.6641C78.1484 51.6641 78.5521 51.5729 78.9062 51.3906C79.2604 51.2083 79.5677 50.9505 79.8281 50.6172L80.8203 51.5781C80.638 51.8438 80.401 52.099 80.1094 52.3438C79.8177 52.5833 79.4609 52.7786 79.0391 52.9297C78.6224 53.0807 78.138 53.1562 77.5859 53.1562ZM84.3281 46.1562V53H82.4453V44.5469H84.2422L84.3281 46.1562ZM86.9141 44.4922L86.8984 46.2422C86.7839 46.2214 86.6589 46.2057 86.5234 46.1953C86.3932 46.1849 86.263 46.1797 86.1328 46.1797C85.8099 46.1797 85.526 46.2266 85.2812 46.3203C85.0365 46.4089 84.8307 46.5391 84.6641 46.7109C84.5026 46.8776 84.3776 47.0807 84.2891 47.3203C84.2005 47.5599 84.1484 47.8281 84.1328 48.125L83.7031 48.1562C83.7031 47.625 83.7552 47.1328 83.8594 46.6797C83.9635 46.2266 84.1198 45.8281 84.3281 45.4844C84.5417 45.1406 84.8073 44.8724 85.125 44.6797C85.4479 44.487 85.8203 44.3906 86.2422 44.3906C86.3568 44.3906 86.4792 44.401 86.6094 44.4219C86.7448 44.4427 86.8464 44.4661 86.9141 44.4922ZM98.6484 41.625H100.602V49.2266C100.602 50.0911 100.414 50.8151 100.039 51.3984C99.6641 51.9818 99.1536 52.4219 98.5078 52.7188C97.8672 53.0104 97.151 53.1562 96.3594 53.1562C95.5417 53.1562 94.8125 53.0104 94.1719 52.7188C93.5312 52.4219 93.026 51.9818 92.6562 51.3984C92.2917 50.8151 92.1094 50.0911 92.1094 49.2266V41.625H94.0625V49.2266C94.0625 49.7734 94.1562 50.224 94.3438 50.5781C94.5312 50.9271 94.7969 51.1849 95.1406 51.3516C95.4844 51.5182 95.8906 51.6016 96.3594 51.6016C96.8281 51.6016 97.2318 51.5182 97.5703 51.3516C97.9141 51.1849 98.1797 50.9271 98.3672 50.5781C98.5547 50.224 98.6484 49.7734 98.6484 49.2266V41.625ZM104.438 46.1719V56.25H102.555V44.5469H104.289L104.438 46.1719ZM109.945 48.6953V48.8594C109.945 49.474 109.872 50.0443 109.727 50.5703C109.586 51.0911 109.375 51.5469 109.094 51.9375C108.818 52.3229 108.477 52.6224 108.07 52.8359C107.664 53.0495 107.195 53.1562 106.664 53.1562C106.138 53.1562 105.677 53.0599 105.281 52.8672C104.891 52.6693 104.56 52.3906 104.289 52.0312C104.018 51.6719 103.799 51.25 103.633 50.7656C103.471 50.276 103.357 49.7396 103.289 49.1562V48.5234C103.357 47.9036 103.471 47.3411 103.633 46.8359C103.799 46.3307 104.018 45.8958 104.289 45.5312C104.56 45.1667 104.891 44.8854 105.281 44.6875C105.672 44.4896 106.128 44.3906 106.648 44.3906C107.18 44.3906 107.651 44.4948 108.062 44.7031C108.474 44.9062 108.82 45.1979 109.102 45.5781C109.383 45.9531 109.594 46.4062 109.734 46.9375C109.875 47.4635 109.945 48.0495 109.945 48.6953ZM108.062 48.8594V48.6953C108.062 48.3047 108.026 47.9427 107.953 47.6094C107.88 47.2708 107.766 46.974 107.609 46.7188C107.453 46.4635 107.253 46.2656 107.008 46.125C106.768 45.9792 106.479 45.9062 106.141 45.9062C105.807 45.9062 105.521 45.9635 105.281 46.0781C105.042 46.1875 104.841 46.3411 104.68 46.5391C104.518 46.737 104.393 46.9688 104.305 47.2344C104.216 47.4948 104.154 47.7786 104.117 48.0859V49.6016C104.18 49.9766 104.286 50.3203 104.438 50.6328C104.589 50.9453 104.802 51.1953 105.078 51.3828C105.359 51.5651 105.719 51.6562 106.156 51.6562C106.495 51.6562 106.784 51.5833 107.023 51.4375C107.263 51.2917 107.458 51.0911 107.609 50.8359C107.766 50.5755 107.88 50.276 107.953 49.9375C108.026 49.599 108.062 49.2396 108.062 48.8594ZM115.422 44.5469V45.9219H110.656V44.5469H115.422ZM112.031 42.4766H113.914V50.6641C113.914 50.9245 113.951 51.125 114.023 51.2656C114.102 51.401 114.208 51.4922 114.344 51.5391C114.479 51.5859 114.638 51.6094 114.82 51.6094C114.951 51.6094 115.076 51.6016 115.195 51.5859C115.315 51.5703 115.411 51.5547 115.484 51.5391L115.492 52.9766C115.336 53.0234 115.154 53.0651 114.945 53.1016C114.742 53.138 114.508 53.1562 114.242 53.1562C113.81 53.1562 113.427 53.0807 113.094 52.9297C112.76 52.7734 112.5 52.5208 112.312 52.1719C112.125 51.8229 112.031 51.3594 112.031 50.7812V42.4766ZM118.891 44.5469V53H117V44.5469H118.891ZM116.875 42.3281C116.875 42.0417 116.969 41.8047 117.156 41.6172C117.349 41.4245 117.615 41.3281 117.953 41.3281C118.286 41.3281 118.549 41.4245 118.742 41.6172C118.935 41.8047 119.031 42.0417 119.031 42.3281C119.031 42.6094 118.935 42.8438 118.742 43.0312C118.549 43.2188 118.286 43.3125 117.953 43.3125C117.615 43.3125 117.349 43.2188 117.156 43.0312C116.969 42.8438 116.875 42.6094 116.875 42.3281ZM122.836 46.2656V53H120.953V44.5469H122.727L122.836 46.2656ZM122.531 48.4609L121.891 48.4531C121.891 47.8698 121.964 47.3307 122.109 46.8359C122.255 46.3411 122.469 45.9115 122.75 45.5469C123.031 45.1771 123.38 44.8932 123.797 44.6953C124.219 44.4922 124.706 44.3906 125.258 44.3906C125.643 44.3906 125.995 44.4479 126.312 44.5625C126.635 44.6719 126.914 44.8464 127.148 45.0859C127.388 45.3255 127.57 45.6328 127.695 46.0078C127.826 46.3828 127.891 46.8359 127.891 47.3672V53H126.008V47.5312C126.008 47.1198 125.945 46.7969 125.82 46.5625C125.701 46.3281 125.526 46.1615 125.297 46.0625C125.073 45.9583 124.805 45.9062 124.492 45.9062C124.138 45.9062 123.836 45.974 123.586 46.1094C123.341 46.2448 123.141 46.4297 122.984 46.6641C122.828 46.8984 122.714 47.1693 122.641 47.4766C122.568 47.7839 122.531 48.112 122.531 48.4609ZM127.773 47.9609L126.891 48.1562C126.891 47.6458 126.961 47.1641 127.102 46.7109C127.247 46.2526 127.458 45.8516 127.734 45.5078C128.016 45.1589 128.362 44.8854 128.773 44.6875C129.185 44.4896 129.656 44.3906 130.188 44.3906C130.62 44.3906 131.005 44.4505 131.344 44.5703C131.688 44.6849 131.979 44.8672 132.219 45.1172C132.458 45.3672 132.641 45.6927 132.766 46.0938C132.891 46.4896 132.953 46.9688 132.953 47.5312V53H131.062V47.5234C131.062 47.0964 131 46.7656 130.875 46.5312C130.755 46.2969 130.583 46.1354 130.359 46.0469C130.135 45.9531 129.867 45.9062 129.555 45.9062C129.263 45.9062 129.005 45.9609 128.781 46.0703C128.562 46.1745 128.378 46.3229 128.227 46.5156C128.076 46.7031 127.961 46.9193 127.883 47.1641C127.81 47.4089 127.773 47.6745 127.773 47.9609ZM138.617 53.1562C137.992 53.1562 137.427 53.0547 136.922 52.8516C136.422 52.6432 135.995 52.3542 135.641 51.9844C135.292 51.6146 135.023 51.1797 134.836 50.6797C134.648 50.1797 134.555 49.6406 134.555 49.0625V48.75C134.555 48.0885 134.651 47.4896 134.844 46.9531C135.036 46.4167 135.305 45.9583 135.648 45.5781C135.992 45.1927 136.398 44.8984 136.867 44.6953C137.336 44.4922 137.844 44.3906 138.391 44.3906C138.995 44.3906 139.523 44.4922 139.977 44.6953C140.43 44.8984 140.805 45.1849 141.102 45.5547C141.404 45.9193 141.628 46.3542 141.773 46.8594C141.924 47.3646 142 47.9219 142 48.5312V49.3359H135.469V47.9844H140.141V47.8359C140.13 47.4974 140.062 47.1797 139.938 46.8828C139.818 46.5859 139.633 46.3464 139.383 46.1641C139.133 45.9818 138.799 45.8906 138.383 45.8906C138.07 45.8906 137.792 45.9583 137.547 46.0938C137.307 46.224 137.107 46.4141 136.945 46.6641C136.784 46.9141 136.659 47.2161 136.57 47.5703C136.487 47.9193 136.445 48.3125 136.445 48.75V49.0625C136.445 49.4323 136.495 49.776 136.594 50.0938C136.698 50.4062 136.849 50.6797 137.047 50.9141C137.245 51.1484 137.484 51.3333 137.766 51.4688C138.047 51.599 138.367 51.6641 138.727 51.6641C139.18 51.6641 139.583 51.5729 139.938 51.3906C140.292 51.2083 140.599 50.9505 140.859 50.6172L141.852 51.5781C141.669 51.8438 141.432 52.099 141.141 52.3438C140.849 52.5833 140.492 52.7786 140.07 52.9297C139.654 53.0807 139.169 53.1562 138.617 53.1562Z" fill="black"/>
<path d="M52.8701 78.7363V80.3691H41.5693V79.1982L48.5732 68.3594H50.1953L48.4551 71.4961L43.8252 78.7363H52.8701ZM50.6895 68.3594V84H48.7021V68.3594H50.6895ZM57.1885 76.5557L55.5986 76.1475L56.3828 68.3594H64.4072V70.1963H58.0693L57.5967 74.4502C57.8831 74.2855 58.2448 74.1315 58.6816 73.9883C59.1257 73.8451 59.6341 73.7734 60.207 73.7734C60.9303 73.7734 61.5785 73.8988 62.1514 74.1494C62.7243 74.3929 63.2113 74.7438 63.6123 75.2021C64.0205 75.6605 64.332 76.2119 64.5469 76.8564C64.7617 77.501 64.8691 78.2207 64.8691 79.0156C64.8691 79.7676 64.7653 80.4587 64.5576 81.0889C64.3571 81.7191 64.0527 82.2705 63.6445 82.7432C63.2363 83.2087 62.7207 83.5703 62.0977 83.8281C61.4818 84.0859 60.7549 84.2148 59.917 84.2148C59.2868 84.2148 58.6888 84.1289 58.123 83.957C57.5645 83.778 57.0632 83.5094 56.6191 83.1514C56.1823 82.7861 55.8242 82.335 55.5449 81.7979C55.2728 81.2536 55.1009 80.6162 55.0293 79.8857H56.9199C57.0059 80.473 57.1777 80.9671 57.4355 81.3682C57.6934 81.7692 58.0299 82.0736 58.4453 82.2812C58.8678 82.4818 59.3584 82.582 59.917 82.582C60.3896 82.582 60.8086 82.4997 61.1738 82.335C61.5391 82.1702 61.847 81.9339 62.0977 81.626C62.3483 81.318 62.5381 80.9456 62.667 80.5088C62.8031 80.0719 62.8711 79.5814 62.8711 79.0371C62.8711 78.543 62.8031 78.0846 62.667 77.6621C62.5309 77.2396 62.3268 76.8708 62.0547 76.5557C61.7897 76.2406 61.4639 75.9971 61.0771 75.8252C60.6904 75.6462 60.2464 75.5566 59.7451 75.5566C59.0791 75.5566 58.5742 75.6462 58.2305 75.8252C57.8939 76.0042 57.5465 76.2477 57.1885 76.5557ZM69.252 67.5V84H67.2646V67.5H69.252ZM68.7793 77.748L67.9521 77.7158C67.9593 76.9209 68.0775 76.1868 68.3066 75.5137C68.5358 74.8333 68.8581 74.2425 69.2734 73.7412C69.6888 73.2399 70.1829 72.8532 70.7559 72.5811C71.3359 72.3018 71.9769 72.1621 72.6787 72.1621C73.2516 72.1621 73.7673 72.2409 74.2256 72.3984C74.6839 72.5488 75.0742 72.7923 75.3965 73.1289C75.7259 73.4655 75.9766 73.9023 76.1484 74.4395C76.3203 74.9694 76.4062 75.6175 76.4062 76.3838V84H74.4082V76.3623C74.4082 75.7536 74.3187 75.2666 74.1396 74.9014C73.9606 74.529 73.6992 74.2604 73.3555 74.0957C73.0117 73.9238 72.5892 73.8379 72.0879 73.8379C71.5938 73.8379 71.1426 73.9417 70.7344 74.1494C70.3333 74.3571 69.986 74.6436 69.6924 75.0088C69.4059 75.374 69.1803 75.793 69.0156 76.2656C68.8581 76.7311 68.7793 77.2253 68.7793 77.748ZM81.3691 74.2031V84H79.3818V72.377H81.3154L81.3691 74.2031ZM85 72.3125L84.9893 74.1602C84.8245 74.1243 84.667 74.1029 84.5166 74.0957C84.3734 74.0814 84.2087 74.0742 84.0225 74.0742C83.5641 74.0742 83.1595 74.1458 82.8086 74.2891C82.4577 74.4323 82.1605 74.6328 81.917 74.8906C81.6735 75.1484 81.4801 75.4564 81.3369 75.8145C81.2008 76.1654 81.1113 76.5521 81.0684 76.9746L80.5098 77.2969C80.5098 76.5951 80.5778 75.9362 80.7139 75.3203C80.8571 74.7044 81.0755 74.1602 81.3691 73.6875C81.6628 73.2077 82.0352 72.8353 82.4863 72.5703C82.9447 72.2982 83.4889 72.1621 84.1191 72.1621C84.2624 72.1621 84.4271 72.18 84.6133 72.2158C84.7995 72.2445 84.9284 72.2767 85 72.3125ZM93.6045 80.917C93.6045 80.6305 93.54 80.3656 93.4111 80.1221C93.2894 79.8714 93.0352 79.6458 92.6484 79.4453C92.2689 79.2376 91.696 79.0586 90.9297 78.9082C90.2852 78.7721 89.7015 78.611 89.1787 78.4248C88.6631 78.2386 88.2227 78.013 87.8574 77.748C87.4993 77.4831 87.2236 77.1715 87.0303 76.8135C86.8369 76.4554 86.7402 76.0365 86.7402 75.5566C86.7402 75.0983 86.8405 74.665 87.041 74.2568C87.2487 73.8486 87.5387 73.487 87.9111 73.1719C88.2907 72.8568 88.7454 72.6097 89.2754 72.4307C89.8053 72.2516 90.3962 72.1621 91.0479 72.1621C91.9788 72.1621 92.7738 72.3268 93.4326 72.6562C94.0915 72.9857 94.5964 73.4261 94.9473 73.9775C95.2982 74.5218 95.4736 75.127 95.4736 75.793H93.4863C93.4863 75.4707 93.3896 75.1592 93.1963 74.8584C93.0101 74.5505 92.7344 74.2962 92.3691 74.0957C92.0111 73.8952 91.5706 73.7949 91.0479 73.7949C90.4964 73.7949 90.0488 73.8809 89.7051 74.0527C89.3685 74.2174 89.1214 74.4287 88.9639 74.6865C88.8135 74.9443 88.7383 75.2165 88.7383 75.5029C88.7383 75.7178 88.7741 75.9111 88.8457 76.083C88.9245 76.2477 89.0605 76.4017 89.2539 76.5449C89.4473 76.681 89.7194 76.8099 90.0703 76.9316C90.4212 77.0534 90.8688 77.1751 91.4131 77.2969C92.3656 77.5117 93.1497 77.7695 93.7656 78.0703C94.3815 78.3711 94.8398 78.7399 95.1406 79.1768C95.4414 79.6136 95.5918 80.1436 95.5918 80.7666C95.5918 81.2751 95.4844 81.7406 95.2695 82.1631C95.0618 82.5856 94.7575 82.9508 94.3564 83.2588C93.9626 83.5596 93.4899 83.7959 92.9385 83.9678C92.3942 84.1325 91.7819 84.2148 91.1016 84.2148C90.0775 84.2148 89.2109 84.0322 88.502 83.667C87.793 83.3018 87.2559 82.8291 86.8906 82.249C86.5254 81.6689 86.3428 81.0566 86.3428 80.4121H88.3408C88.3695 80.9564 88.527 81.3896 88.8135 81.7119C89.0999 82.027 89.4508 82.2526 89.8662 82.3887C90.2816 82.5176 90.6934 82.582 91.1016 82.582C91.6458 82.582 92.1006 82.5104 92.4658 82.3672C92.8382 82.224 93.1211 82.027 93.3145 81.7764C93.5078 81.5257 93.6045 81.2393 93.6045 80.917ZM106.345 75.2021H107.763C108.457 75.2021 109.03 75.0876 109.481 74.8584C109.94 74.6221 110.28 74.3034 110.502 73.9023C110.731 73.4941 110.846 73.0358 110.846 72.5273C110.846 71.9258 110.745 71.4209 110.545 71.0127C110.344 70.6045 110.044 70.2965 109.643 70.0889C109.242 69.8812 108.733 69.7773 108.117 69.7773C107.559 69.7773 107.064 69.8883 106.635 70.1104C106.212 70.3252 105.879 70.6331 105.636 71.0342C105.399 71.4352 105.281 71.9079 105.281 72.4521H103.294C103.294 71.6572 103.494 70.9339 103.896 70.2822C104.297 69.6305 104.859 69.1113 105.582 68.7246C106.312 68.3379 107.158 68.1445 108.117 68.1445C109.062 68.1445 109.89 68.3128 110.599 68.6494C111.308 68.9788 111.859 69.473 112.253 70.1318C112.647 70.7835 112.844 71.5964 112.844 72.5703C112.844 72.9642 112.751 73.3867 112.564 73.8379C112.385 74.2819 112.103 74.6973 111.716 75.084C111.336 75.4707 110.842 75.7894 110.233 76.04C109.625 76.2835 108.894 76.4053 108.042 76.4053H106.345V75.2021ZM106.345 76.835V75.6426H108.042C109.037 75.6426 109.861 75.7607 110.513 75.9971C111.164 76.2334 111.676 76.5485 112.049 76.9424C112.428 77.3363 112.693 77.7695 112.844 78.2422C113.001 78.7077 113.08 79.1732 113.08 79.6387C113.08 80.3691 112.955 81.0173 112.704 81.583C112.461 82.1488 112.113 82.6286 111.662 83.0225C111.218 83.4163 110.695 83.7135 110.094 83.9141C109.492 84.1146 108.837 84.2148 108.128 84.2148C107.448 84.2148 106.807 84.1182 106.205 83.9248C105.611 83.7314 105.084 83.4521 104.626 83.0869C104.168 82.7145 103.81 82.2598 103.552 81.7227C103.294 81.1784 103.165 80.5589 103.165 79.8643H105.152C105.152 80.4085 105.271 80.8848 105.507 81.293C105.75 81.7012 106.094 82.0199 106.538 82.249C106.989 82.471 107.519 82.582 108.128 82.582C108.737 82.582 109.259 82.4782 109.696 82.2705C110.14 82.0557 110.48 81.7334 110.717 81.3037C110.96 80.874 111.082 80.3333 111.082 79.6816C111.082 79.0299 110.946 78.4964 110.674 78.0811C110.402 77.6585 110.015 77.347 109.514 77.1465C109.02 76.9388 108.436 76.835 107.763 76.835H106.345ZM118.333 76.5557L116.743 76.1475L117.527 68.3594H125.552V70.1963H119.214L118.741 74.4502C119.028 74.2855 119.389 74.1315 119.826 73.9883C120.27 73.8451 120.779 73.7734 121.352 73.7734C122.075 73.7734 122.723 73.8988 123.296 74.1494C123.869 74.3929 124.356 74.7438 124.757 75.2021C125.165 75.6605 125.477 76.2119 125.691 76.8564C125.906 77.501 126.014 78.2207 126.014 79.0156C126.014 79.7676 125.91 80.4587 125.702 81.0889C125.502 81.7191 125.197 82.2705 124.789 82.7432C124.381 83.2087 123.865 83.5703 123.242 83.8281C122.626 84.0859 121.899 84.2148 121.062 84.2148C120.431 84.2148 119.833 84.1289 119.268 83.957C118.709 83.778 118.208 83.5094 117.764 83.1514C117.327 82.7861 116.969 82.335 116.689 81.7979C116.417 81.2536 116.245 80.6162 116.174 79.8857H118.064C118.15 80.473 118.322 80.9671 118.58 81.3682C118.838 81.7692 119.174 82.0736 119.59 82.2812C120.012 82.4818 120.503 82.582 121.062 82.582C121.534 82.582 121.953 82.4997 122.318 82.335C122.684 82.1702 122.992 81.9339 123.242 81.626C123.493 81.318 123.683 80.9456 123.812 80.5088C123.948 80.0719 124.016 79.5814 124.016 79.0371C124.016 78.543 123.948 78.0846 123.812 77.6621C123.675 77.2396 123.471 76.8708 123.199 76.5557C122.934 76.2406 122.608 75.9971 122.222 75.8252C121.835 75.6462 121.391 75.5566 120.89 75.5566C120.224 75.5566 119.719 75.6462 119.375 75.8252C119.038 76.0042 118.691 76.2477 118.333 76.5557ZM130.386 74.6865V84H128.388V72.377H130.278L130.386 74.6865ZM129.978 77.748L129.054 77.7158C129.061 76.9209 129.165 76.1868 129.365 75.5137C129.566 74.8333 129.863 74.2425 130.257 73.7412C130.651 73.2399 131.141 72.8532 131.729 72.5811C132.316 72.3018 132.996 72.1621 133.77 72.1621C134.314 72.1621 134.815 72.2409 135.273 72.3984C135.732 72.5488 136.129 72.7887 136.466 73.1182C136.802 73.4476 137.064 73.8701 137.25 74.3857C137.436 74.9014 137.529 75.5244 137.529 76.2549V84H135.542V76.3516C135.542 75.7428 135.438 75.2559 135.23 74.8906C135.03 74.5254 134.743 74.2604 134.371 74.0957C133.999 73.9238 133.562 73.8379 133.061 73.8379C132.473 73.8379 131.983 73.9417 131.589 74.1494C131.195 74.3571 130.88 74.6436 130.644 75.0088C130.407 75.374 130.235 75.793 130.128 76.2656C130.028 76.7311 129.978 77.2253 129.978 77.748ZM137.508 76.6523L136.176 77.0605C136.183 76.4232 136.287 75.8109 136.487 75.2236C136.695 74.6364 136.992 74.1136 137.379 73.6553C137.773 73.1969 138.256 72.8353 138.829 72.5703C139.402 72.2982 140.057 72.1621 140.795 72.1621C141.418 72.1621 141.969 72.2445 142.449 72.4092C142.936 72.5739 143.344 72.8281 143.674 73.1719C144.01 73.5085 144.265 73.9417 144.437 74.4717C144.608 75.0016 144.694 75.6318 144.694 76.3623V84H142.696V76.3408C142.696 75.6891 142.592 75.1842 142.385 74.8262C142.184 74.4609 141.898 74.2067 141.525 74.0635C141.16 73.9131 140.723 73.8379 140.215 73.8379C139.778 73.8379 139.391 73.9131 139.055 74.0635C138.718 74.2139 138.435 74.4215 138.206 74.6865C137.977 74.9443 137.801 75.2415 137.68 75.5781C137.565 75.9147 137.508 76.2728 137.508 76.6523ZM149.861 72.377V84H147.863V72.377H149.861ZM147.713 69.2939C147.713 68.9717 147.81 68.6995 148.003 68.4775C148.203 68.2555 148.497 68.1445 148.884 68.1445C149.263 68.1445 149.553 68.2555 149.754 68.4775C149.962 68.6995 150.065 68.9717 150.065 69.2939C150.065 69.6019 149.962 69.8669 149.754 70.0889C149.553 70.3037 149.263 70.4111 148.884 70.4111C148.497 70.4111 148.203 70.3037 148.003 70.0889C147.81 69.8669 147.713 69.6019 147.713 69.2939ZM155.039 74.8584V84H153.052V72.377H154.932L155.039 74.8584ZM154.566 77.748L153.739 77.7158C153.746 76.9209 153.865 76.1868 154.094 75.5137C154.323 74.8333 154.645 74.2425 155.061 73.7412C155.476 73.2399 155.97 72.8532 156.543 72.5811C157.123 72.3018 157.764 72.1621 158.466 72.1621C159.039 72.1621 159.554 72.2409 160.013 72.3984C160.471 72.5488 160.861 72.7923 161.184 73.1289C161.513 73.4655 161.764 73.9023 161.936 74.4395C162.107 74.9694 162.193 75.6175 162.193 76.3838V84H160.195V76.3623C160.195 75.7536 160.106 75.2666 159.927 74.9014C159.748 74.529 159.486 74.2604 159.143 74.0957C158.799 73.9238 158.376 73.8379 157.875 73.8379C157.381 73.8379 156.93 73.9417 156.521 74.1494C156.12 74.3571 155.773 74.6436 155.479 75.0088C155.193 75.374 154.967 75.793 154.803 76.2656C154.645 76.7311 154.566 77.2253 154.566 77.748ZM171.979 80.917C171.979 80.6305 171.915 80.3656 171.786 80.1221C171.664 79.8714 171.41 79.6458 171.023 79.4453C170.644 79.2376 170.071 79.0586 169.305 78.9082C168.66 78.7721 168.076 78.611 167.554 78.4248C167.038 78.2386 166.598 78.013 166.232 77.748C165.874 77.4831 165.599 77.1715 165.405 76.8135C165.212 76.4554 165.115 76.0365 165.115 75.5566C165.115 75.0983 165.215 74.665 165.416 74.2568C165.624 73.8486 165.914 73.487 166.286 73.1719C166.666 72.8568 167.12 72.6097 167.65 72.4307C168.18 72.2516 168.771 72.1621 169.423 72.1621C170.354 72.1621 171.149 72.3268 171.808 72.6562C172.466 72.9857 172.971 73.4261 173.322 73.9775C173.673 74.5218 173.849 75.127 173.849 75.793H171.861C171.861 75.4707 171.765 75.1592 171.571 74.8584C171.385 74.5505 171.109 74.2962 170.744 74.0957C170.386 73.8952 169.946 73.7949 169.423 73.7949C168.871 73.7949 168.424 73.8809 168.08 74.0527C167.743 74.2174 167.496 74.4287 167.339 74.6865C167.188 74.9443 167.113 75.2165 167.113 75.5029C167.113 75.7178 167.149 75.9111 167.221 76.083C167.299 76.2477 167.436 76.4017 167.629 76.5449C167.822 76.681 168.094 76.8099 168.445 76.9316C168.796 77.0534 169.244 77.1751 169.788 77.2969C170.741 77.5117 171.525 77.7695 172.141 78.0703C172.757 78.3711 173.215 78.7399 173.516 79.1768C173.816 79.6136 173.967 80.1436 173.967 80.7666C173.967 81.2751 173.859 81.7406 173.645 82.1631C173.437 82.5856 173.132 82.9508 172.731 83.2588C172.338 83.5596 171.865 83.7959 171.313 83.9678C170.769 84.1325 170.157 84.2148 169.477 84.2148C168.452 84.2148 167.586 84.0322 166.877 83.667C166.168 83.3018 165.631 82.8291 165.266 82.249C164.9 81.6689 164.718 81.0566 164.718 80.4121H166.716C166.744 80.9564 166.902 81.3896 167.188 81.7119C167.475 82.027 167.826 82.2526 168.241 82.3887C168.657 82.5176 169.068 82.582 169.477 82.582C170.021 82.582 170.476 82.5104 170.841 82.3672C171.213 82.224 171.496 82.027 171.689 81.7764C171.883 81.5257 171.979 81.2393 171.979 80.917Z" fill="#AAAAAA"/>
<path d="M46.5859 106.141L43.1875 116H41.1328L45.4141 104.625H46.7266L46.5859 106.141ZM49.4297 116L46.0234 106.141L45.875 104.625H47.1953L51.4922 116H49.4297ZM49.2656 111.781V113.336H43.0781V111.781H49.2656ZM54.9375 114.508L57.0078 107.547H58.9609L56.0234 116H54.8047L54.9375 114.508ZM53.3516 107.547L55.4609 114.539L55.5625 116H54.3438L51.3906 107.547H53.3516ZM65.4297 107.547H67.1406V115.766C67.1406 116.526 66.9792 117.172 66.6562 117.703C66.3333 118.234 65.8828 118.638 65.3047 118.914C64.7266 119.195 64.0573 119.336 63.2969 119.336C62.974 119.336 62.6146 119.289 62.2188 119.195C61.8281 119.102 61.4479 118.951 61.0781 118.742C60.7135 118.539 60.4089 118.271 60.1641 117.938L61.0469 116.828C61.349 117.188 61.6823 117.451 62.0469 117.617C62.4115 117.784 62.7943 117.867 63.1953 117.867C63.6276 117.867 63.9948 117.786 64.2969 117.625C64.6042 117.469 64.8411 117.237 65.0078 116.93C65.1745 116.622 65.2578 116.247 65.2578 115.805V109.461L65.4297 107.547ZM59.6875 111.867V111.703C59.6875 111.062 59.7656 110.479 59.9219 109.953C60.0781 109.422 60.3021 108.966 60.5938 108.586C60.8854 108.201 61.2396 107.906 61.6562 107.703C62.0729 107.495 62.5443 107.391 63.0703 107.391C63.6172 107.391 64.0833 107.49 64.4688 107.688C64.8594 107.885 65.1849 108.169 65.4453 108.539C65.7057 108.904 65.9089 109.341 66.0547 109.852C66.2057 110.357 66.3177 110.919 66.3906 111.539V112.062C66.3229 112.667 66.2083 113.219 66.0469 113.719C65.8854 114.219 65.6719 114.651 65.4062 115.016C65.1406 115.38 64.8125 115.661 64.4219 115.859C64.0365 116.057 63.5807 116.156 63.0547 116.156C62.5391 116.156 62.0729 116.049 61.6562 115.836C61.2448 115.622 60.8906 115.323 60.5938 114.938C60.3021 114.552 60.0781 114.099 59.9219 113.578C59.7656 113.052 59.6875 112.482 59.6875 111.867ZM61.5703 111.703V111.867C61.5703 112.253 61.6068 112.612 61.6797 112.945C61.7578 113.279 61.875 113.573 62.0312 113.828C62.1927 114.078 62.3958 114.276 62.6406 114.422C62.8906 114.562 63.1849 114.633 63.5234 114.633C63.9661 114.633 64.3281 114.539 64.6094 114.352C64.8958 114.164 65.1146 113.911 65.2656 113.594C65.4219 113.271 65.5312 112.911 65.5938 112.516V111.102C65.5625 110.794 65.4974 110.508 65.3984 110.242C65.3047 109.977 65.1771 109.745 65.0156 109.547C64.8542 109.344 64.651 109.188 64.4062 109.078C64.1615 108.964 63.8724 108.906 63.5391 108.906C63.2005 108.906 62.9062 108.979 62.6562 109.125C62.4062 109.271 62.2005 109.471 62.0391 109.727C61.8828 109.982 61.7656 110.279 61.6875 110.617C61.6094 110.956 61.5703 111.318 61.5703 111.703ZM69.1719 115.062C69.1719 114.771 69.2708 114.526 69.4688 114.328C69.6667 114.125 69.9349 114.023 70.2734 114.023C70.6172 114.023 70.8854 114.125 71.0781 114.328C71.276 114.526 71.375 114.771 71.375 115.062C71.375 115.354 71.276 115.599 71.0781 115.797C70.8854 115.995 70.6172 116.094 70.2734 116.094C69.9349 116.094 69.6667 115.995 69.4688 115.797C69.2708 115.599 69.1719 115.354 69.1719 115.062ZM77.7188 104.625H81.7422C82.6068 104.625 83.3438 104.755 83.9531 105.016C84.5625 105.276 85.0286 105.661 85.3516 106.172C85.6797 106.677 85.8438 107.302 85.8438 108.047C85.8438 108.615 85.7396 109.115 85.5312 109.547C85.3229 109.979 85.0286 110.344 84.6484 110.641C84.2682 110.932 83.8151 111.159 83.2891 111.32L82.6953 111.609H79.0781L79.0625 110.055H81.7734C82.2422 110.055 82.6328 109.971 82.9453 109.805C83.2578 109.638 83.4922 109.411 83.6484 109.125C83.8099 108.833 83.8906 108.505 83.8906 108.141C83.8906 107.745 83.8125 107.401 83.6562 107.109C83.5052 106.812 83.2708 106.586 82.9531 106.43C82.6354 106.268 82.2318 106.188 81.7422 106.188H79.6797V116H77.7188V104.625ZM84.2109 116L81.5391 110.891L83.5938 110.883L86.3047 115.898V116H84.2109ZM91.3359 116.156C90.7109 116.156 90.1458 116.055 89.6406 115.852C89.1406 115.643 88.7135 115.354 88.3594 114.984C88.0104 114.615 87.7422 114.18 87.5547 113.68C87.3672 113.18 87.2734 112.641 87.2734 112.062V111.75C87.2734 111.089 87.3698 110.49 87.5625 109.953C87.7552 109.417 88.0234 108.958 88.3672 108.578C88.7109 108.193 89.1172 107.898 89.5859 107.695C90.0547 107.492 90.5625 107.391 91.1094 107.391C91.7135 107.391 92.2422 107.492 92.6953 107.695C93.1484 107.898 93.5234 108.185 93.8203 108.555C94.1224 108.919 94.3464 109.354 94.4922 109.859C94.6432 110.365 94.7188 110.922 94.7188 111.531V112.336H88.1875V110.984H92.8594V110.836C92.849 110.497 92.7812 110.18 92.6562 109.883C92.5365 109.586 92.3516 109.346 92.1016 109.164C91.8516 108.982 91.5182 108.891 91.1016 108.891C90.7891 108.891 90.5104 108.958 90.2656 109.094C90.026 109.224 89.8255 109.414 89.6641 109.664C89.5026 109.914 89.3776 110.216 89.2891 110.57C89.2057 110.919 89.1641 111.312 89.1641 111.75V112.062C89.1641 112.432 89.2135 112.776 89.3125 113.094C89.4167 113.406 89.5677 113.68 89.7656 113.914C89.9635 114.148 90.2031 114.333 90.4844 114.469C90.7656 114.599 91.0859 114.664 91.4453 114.664C91.8984 114.664 92.3021 114.573 92.6562 114.391C93.0104 114.208 93.3177 113.951 93.5781 113.617L94.5703 114.578C94.388 114.844 94.151 115.099 93.8594 115.344C93.5677 115.583 93.2109 115.779 92.7891 115.93C92.3724 116.081 91.888 116.156 91.3359 116.156ZM100.93 113.711C100.93 113.523 100.883 113.354 100.789 113.203C100.695 113.047 100.516 112.906 100.25 112.781C99.9896 112.656 99.6042 112.542 99.0938 112.438C98.6458 112.339 98.2344 112.221 97.8594 112.086C97.4896 111.945 97.1719 111.776 96.9062 111.578C96.6406 111.38 96.4349 111.146 96.2891 110.875C96.1432 110.604 96.0703 110.292 96.0703 109.938C96.0703 109.594 96.1458 109.268 96.2969 108.961C96.4479 108.654 96.6641 108.383 96.9453 108.148C97.2266 107.914 97.5677 107.729 97.9688 107.594C98.375 107.458 98.8281 107.391 99.3281 107.391C100.036 107.391 100.643 107.51 101.148 107.75C101.659 107.984 102.049 108.305 102.32 108.711C102.591 109.112 102.727 109.565 102.727 110.07H100.844C100.844 109.846 100.786 109.638 100.672 109.445C100.562 109.247 100.396 109.089 100.172 108.969C99.9479 108.844 99.6667 108.781 99.3281 108.781C99.0052 108.781 98.737 108.833 98.5234 108.938C98.3151 109.036 98.1589 109.167 98.0547 109.328C97.9557 109.49 97.9062 109.667 97.9062 109.859C97.9062 110 97.9323 110.128 97.9844 110.242C98.0417 110.352 98.1354 110.453 98.2656 110.547C98.3958 110.635 98.5729 110.719 98.7969 110.797C99.026 110.875 99.3125 110.951 99.6562 111.023C100.302 111.159 100.857 111.333 101.32 111.547C101.789 111.755 102.148 112.026 102.398 112.359C102.648 112.688 102.773 113.104 102.773 113.609C102.773 113.984 102.693 114.328 102.531 114.641C102.375 114.948 102.146 115.216 101.844 115.445C101.542 115.669 101.18 115.844 100.758 115.969C100.341 116.094 99.8724 116.156 99.3516 116.156C98.5859 116.156 97.9375 116.021 97.4062 115.75C96.875 115.474 96.4714 115.122 96.1953 114.695C95.9245 114.263 95.7891 113.815 95.7891 113.352H97.6094C97.6302 113.701 97.7266 113.979 97.8984 114.188C98.0755 114.391 98.2943 114.539 98.5547 114.633C98.8203 114.721 99.0938 114.766 99.375 114.766C99.7135 114.766 99.9974 114.721 100.227 114.633C100.456 114.539 100.63 114.414 100.75 114.258C100.87 114.096 100.93 113.914 100.93 113.711ZM106.312 109.172V119.25H104.43V107.547H106.164L106.312 109.172ZM111.82 111.695V111.859C111.82 112.474 111.747 113.044 111.602 113.57C111.461 114.091 111.25 114.547 110.969 114.938C110.693 115.323 110.352 115.622 109.945 115.836C109.539 116.049 109.07 116.156 108.539 116.156C108.013 116.156 107.552 116.06 107.156 115.867C106.766 115.669 106.435 115.391 106.164 115.031C105.893 114.672 105.674 114.25 105.508 113.766C105.346 113.276 105.232 112.74 105.164 112.156V111.523C105.232 110.904 105.346 110.341 105.508 109.836C105.674 109.331 105.893 108.896 106.164 108.531C106.435 108.167 106.766 107.885 107.156 107.688C107.547 107.49 108.003 107.391 108.523 107.391C109.055 107.391 109.526 107.495 109.938 107.703C110.349 107.906 110.695 108.198 110.977 108.578C111.258 108.953 111.469 109.406 111.609 109.938C111.75 110.464 111.82 111.049 111.82 111.695ZM109.938 111.859V111.695C109.938 111.305 109.901 110.943 109.828 110.609C109.755 110.271 109.641 109.974 109.484 109.719C109.328 109.464 109.128 109.266 108.883 109.125C108.643 108.979 108.354 108.906 108.016 108.906C107.682 108.906 107.396 108.964 107.156 109.078C106.917 109.188 106.716 109.341 106.555 109.539C106.393 109.737 106.268 109.969 106.18 110.234C106.091 110.495 106.029 110.779 105.992 111.086V112.602C106.055 112.977 106.161 113.32 106.312 113.633C106.464 113.945 106.677 114.195 106.953 114.383C107.234 114.565 107.594 114.656 108.031 114.656C108.37 114.656 108.659 114.583 108.898 114.438C109.138 114.292 109.333 114.091 109.484 113.836C109.641 113.576 109.755 113.276 109.828 112.938C109.901 112.599 109.938 112.24 109.938 111.859ZM113.062 111.867V111.688C113.062 111.078 113.151 110.513 113.328 109.992C113.505 109.466 113.76 109.01 114.094 108.625C114.432 108.234 114.844 107.932 115.328 107.719C115.818 107.5 116.37 107.391 116.984 107.391C117.604 107.391 118.156 107.5 118.641 107.719C119.13 107.932 119.544 108.234 119.883 108.625C120.221 109.01 120.479 109.466 120.656 109.992C120.833 110.513 120.922 111.078 120.922 111.688V111.867C120.922 112.477 120.833 113.042 120.656 113.562C120.479 114.083 120.221 114.539 119.883 114.93C119.544 115.315 119.133 115.617 118.648 115.836C118.164 116.049 117.615 116.156 117 116.156C116.38 116.156 115.826 116.049 115.336 115.836C114.852 115.617 114.44 115.315 114.102 114.93C113.763 114.539 113.505 114.083 113.328 113.562C113.151 113.042 113.062 112.477 113.062 111.867ZM114.945 111.688V111.867C114.945 112.247 114.984 112.607 115.062 112.945C115.141 113.284 115.263 113.581 115.43 113.836C115.596 114.091 115.81 114.292 116.07 114.438C116.331 114.583 116.641 114.656 117 114.656C117.349 114.656 117.651 114.583 117.906 114.438C118.167 114.292 118.38 114.091 118.547 113.836C118.714 113.581 118.836 113.284 118.914 112.945C118.997 112.607 119.039 112.247 119.039 111.867V111.688C119.039 111.312 118.997 110.958 118.914 110.625C118.836 110.286 118.711 109.987 118.539 109.727C118.372 109.466 118.159 109.263 117.898 109.117C117.643 108.966 117.339 108.891 116.984 108.891C116.63 108.891 116.323 108.966 116.062 109.117C115.807 109.263 115.596 109.466 115.43 109.727C115.263 109.987 115.141 110.286 115.062 110.625C114.984 110.958 114.945 111.312 114.945 111.688ZM124.367 109.352V116H122.484V107.547H124.258L124.367 109.352ZM124.031 111.461L123.422 111.453C123.427 110.854 123.51 110.305 123.672 109.805C123.839 109.305 124.068 108.875 124.359 108.516C124.656 108.156 125.01 107.88 125.422 107.688C125.833 107.49 126.292 107.391 126.797 107.391C127.203 107.391 127.57 107.448 127.898 107.562C128.232 107.672 128.516 107.852 128.75 108.102C128.99 108.352 129.172 108.677 129.297 109.078C129.422 109.474 129.484 109.961 129.484 110.539V116H127.594V110.531C127.594 110.125 127.534 109.805 127.414 109.57C127.299 109.331 127.13 109.161 126.906 109.062C126.688 108.958 126.414 108.906 126.086 108.906C125.763 108.906 125.474 108.974 125.219 109.109C124.964 109.245 124.747 109.43 124.57 109.664C124.398 109.898 124.266 110.169 124.172 110.477C124.078 110.784 124.031 111.112 124.031 111.461ZM136.148 113.711C136.148 113.523 136.102 113.354 136.008 113.203C135.914 113.047 135.734 112.906 135.469 112.781C135.208 112.656 134.823 112.542 134.312 112.438C133.865 112.339 133.453 112.221 133.078 112.086C132.708 111.945 132.391 111.776 132.125 111.578C131.859 111.38 131.654 111.146 131.508 110.875C131.362 110.604 131.289 110.292 131.289 109.938C131.289 109.594 131.365 109.268 131.516 108.961C131.667 108.654 131.883 108.383 132.164 108.148C132.445 107.914 132.786 107.729 133.188 107.594C133.594 107.458 134.047 107.391 134.547 107.391C135.255 107.391 135.862 107.51 136.367 107.75C136.878 107.984 137.268 108.305 137.539 108.711C137.81 109.112 137.945 109.565 137.945 110.07H136.062C136.062 109.846 136.005 109.638 135.891 109.445C135.781 109.247 135.615 109.089 135.391 108.969C135.167 108.844 134.885 108.781 134.547 108.781C134.224 108.781 133.956 108.833 133.742 108.938C133.534 109.036 133.378 109.167 133.273 109.328C133.174 109.49 133.125 109.667 133.125 109.859C133.125 110 133.151 110.128 133.203 110.242C133.26 110.352 133.354 110.453 133.484 110.547C133.615 110.635 133.792 110.719 134.016 110.797C134.245 110.875 134.531 110.951 134.875 111.023C135.521 111.159 136.076 111.333 136.539 111.547C137.008 111.755 137.367 112.026 137.617 112.359C137.867 112.688 137.992 113.104 137.992 113.609C137.992 113.984 137.911 114.328 137.75 114.641C137.594 114.948 137.365 115.216 137.062 115.445C136.76 115.669 136.398 115.844 135.977 115.969C135.56 116.094 135.091 116.156 134.57 116.156C133.805 116.156 133.156 116.021 132.625 115.75C132.094 115.474 131.69 115.122 131.414 114.695C131.143 114.263 131.008 113.815 131.008 113.352H132.828C132.849 113.701 132.945 113.979 133.117 114.188C133.294 114.391 133.513 114.539 133.773 114.633C134.039 114.721 134.312 114.766 134.594 114.766C134.932 114.766 135.216 114.721 135.445 114.633C135.674 114.539 135.849 114.414 135.969 114.258C136.089 114.096 136.148 113.914 136.148 113.711ZM143.367 116.156C142.742 116.156 142.177 116.055 141.672 115.852C141.172 115.643 140.745 115.354 140.391 114.984C140.042 114.615 139.773 114.18 139.586 113.68C139.398 113.18 139.305 112.641 139.305 112.062V111.75C139.305 111.089 139.401 110.49 139.594 109.953C139.786 109.417 140.055 108.958 140.398 108.578C140.742 108.193 141.148 107.898 141.617 107.695C142.086 107.492 142.594 107.391 143.141 107.391C143.745 107.391 144.273 107.492 144.727 107.695C145.18 107.898 145.555 108.185 145.852 108.555C146.154 108.919 146.378 109.354 146.523 109.859C146.674 110.365 146.75 110.922 146.75 111.531V112.336H140.219V110.984H144.891V110.836C144.88 110.497 144.812 110.18 144.688 109.883C144.568 109.586 144.383 109.346 144.133 109.164C143.883 108.982 143.549 108.891 143.133 108.891C142.82 108.891 142.542 108.958 142.297 109.094C142.057 109.224 141.857 109.414 141.695 109.664C141.534 109.914 141.409 110.216 141.32 110.57C141.237 110.919 141.195 111.312 141.195 111.75V112.062C141.195 112.432 141.245 112.776 141.344 113.094C141.448 113.406 141.599 113.68 141.797 113.914C141.995 114.148 142.234 114.333 142.516 114.469C142.797 114.599 143.117 114.664 143.477 114.664C143.93 114.664 144.333 114.573 144.688 114.391C145.042 114.208 145.349 113.951 145.609 113.617L146.602 114.578C146.419 114.844 146.182 115.099 145.891 115.344C145.599 115.583 145.242 115.779 144.82 115.93C144.404 116.081 143.919 116.156 143.367 116.156ZM156.695 104.625V116H154.75V104.625H156.695ZM160.266 104.625V106.188H151.211V104.625H160.266ZM163.594 107.547V116H161.703V107.547H163.594ZM161.578 105.328C161.578 105.042 161.672 104.805 161.859 104.617C162.052 104.424 162.318 104.328 162.656 104.328C162.99 104.328 163.253 104.424 163.445 104.617C163.638 104.805 163.734 105.042 163.734 105.328C163.734 105.609 163.638 105.844 163.445 106.031C163.253 106.219 162.99 106.312 162.656 106.312C162.318 106.312 162.052 106.219 161.859 106.031C161.672 105.844 161.578 105.609 161.578 105.328ZM167.539 109.266V116H165.656V107.547H167.43L167.539 109.266ZM167.234 111.461L166.594 111.453C166.594 110.87 166.667 110.331 166.812 109.836C166.958 109.341 167.172 108.911 167.453 108.547C167.734 108.177 168.083 107.893 168.5 107.695C168.922 107.492 169.409 107.391 169.961 107.391C170.346 107.391 170.698 107.448 171.016 107.562C171.339 107.672 171.617 107.846 171.852 108.086C172.091 108.326 172.273 108.633 172.398 109.008C172.529 109.383 172.594 109.836 172.594 110.367V116H170.711V110.531C170.711 110.12 170.648 109.797 170.523 109.562C170.404 109.328 170.229 109.161 170 109.062C169.776 108.958 169.508 108.906 169.195 108.906C168.841 108.906 168.539 108.974 168.289 109.109C168.044 109.245 167.844 109.43 167.688 109.664C167.531 109.898 167.417 110.169 167.344 110.477C167.271 110.784 167.234 111.112 167.234 111.461ZM172.477 110.961L171.594 111.156C171.594 110.646 171.664 110.164 171.805 109.711C171.951 109.253 172.161 108.852 172.438 108.508C172.719 108.159 173.065 107.885 173.477 107.688C173.888 107.49 174.359 107.391 174.891 107.391C175.323 107.391 175.708 107.451 176.047 107.57C176.391 107.685 176.682 107.867 176.922 108.117C177.161 108.367 177.344 108.693 177.469 109.094C177.594 109.49 177.656 109.969 177.656 110.531V116H175.766V110.523C175.766 110.096 175.703 109.766 175.578 109.531C175.458 109.297 175.286 109.135 175.062 109.047C174.839 108.953 174.57 108.906 174.258 108.906C173.966 108.906 173.708 108.961 173.484 109.07C173.266 109.174 173.081 109.323 172.93 109.516C172.779 109.703 172.664 109.919 172.586 110.164C172.513 110.409 172.477 110.674 172.477 110.961ZM183.32 116.156C182.695 116.156 182.13 116.055 181.625 115.852C181.125 115.643 180.698 115.354 180.344 114.984C179.995 114.615 179.727 114.18 179.539 113.68C179.352 113.18 179.258 112.641 179.258 112.062V111.75C179.258 111.089 179.354 110.49 179.547 109.953C179.74 109.417 180.008 108.958 180.352 108.578C180.695 108.193 181.102 107.898 181.57 107.695C182.039 107.492 182.547 107.391 183.094 107.391C183.698 107.391 184.227 107.492 184.68 107.695C185.133 107.898 185.508 108.185 185.805 108.555C186.107 108.919 186.331 109.354 186.477 109.859C186.628 110.365 186.703 110.922 186.703 111.531V112.336H180.172V110.984H184.844V110.836C184.833 110.497 184.766 110.18 184.641 109.883C184.521 109.586 184.336 109.346 184.086 109.164C183.836 108.982 183.503 108.891 183.086 108.891C182.773 108.891 182.495 108.958 182.25 109.094C182.01 109.224 181.81 109.414 181.648 109.664C181.487 109.914 181.362 110.216 181.273 110.57C181.19 110.919 181.148 111.312 181.148 111.75V112.062C181.148 112.432 181.198 112.776 181.297 113.094C181.401 113.406 181.552 113.68 181.75 113.914C181.948 114.148 182.188 114.333 182.469 114.469C182.75 114.599 183.07 114.664 183.43 114.664C183.883 114.664 184.286 114.573 184.641 114.391C184.995 114.208 185.302 113.951 185.562 113.617L186.555 114.578C186.372 114.844 186.135 115.099 185.844 115.344C185.552 115.583 185.195 115.779 184.773 115.93C184.357 116.081 183.872 116.156 183.32 116.156Z" fill="black"/>
<path d="M53.1758 143.383C53.1758 144.422 52.9336 145.305 52.4492 146.031C51.9727 146.75 51.3242 147.297 50.5039 147.672C49.6914 148.047 48.7734 148.234 47.75 148.234C46.7266 148.234 45.8047 148.047 44.9844 147.672C44.1641 147.297 43.5156 146.75 43.0391 146.031C42.5625 145.305 42.3242 144.422 42.3242 143.383C42.3242 142.703 42.4531 142.082 42.7109 141.52C42.9766 140.949 43.3477 140.453 43.8242 140.031C44.3086 139.609 44.8789 139.285 45.5352 139.059C46.1992 138.824 46.9297 138.707 47.7266 138.707C48.7734 138.707 49.707 138.91 50.5273 139.316C51.3477 139.715 51.9922 140.266 52.4609 140.969C52.9375 141.672 53.1758 142.477 53.1758 143.383ZM50.9961 143.336C50.9961 142.703 50.8594 142.145 50.5859 141.66C50.3125 141.168 49.9297 140.785 49.4375 140.512C48.9453 140.238 48.375 140.102 47.7266 140.102C47.0625 140.102 46.4883 140.238 46.0039 140.512C45.5273 140.785 45.1562 141.168 44.8906 141.66C44.625 142.145 44.4922 142.703 44.4922 143.336C44.4922 143.992 44.6211 144.555 44.8789 145.023C45.1445 145.484 45.5195 145.84 46.0039 146.09C46.4961 146.332 47.0781 146.453 47.75 146.453C48.4219 146.453 49 146.332 49.4844 146.09C49.9688 145.84 50.3398 145.484 50.5977 145.023C50.8633 144.555 50.9961 143.992 50.9961 143.336ZM52.7773 135.379C52.7773 136.207 52.5586 136.953 52.1211 137.617C51.6836 138.281 51.0859 138.805 50.3281 139.188C49.5703 139.57 48.7109 139.762 47.75 139.762C46.7734 139.762 45.9023 139.57 45.1367 139.188C44.3789 138.805 43.7852 138.281 43.3555 137.617C42.9258 136.953 42.7109 136.207 42.7109 135.379C42.7109 134.387 42.9258 133.543 43.3555 132.848C43.793 132.152 44.3906 131.621 45.1484 131.254C45.9062 130.887 46.7695 130.703 47.7383 130.703C48.7148 130.703 49.582 130.887 50.3398 131.254C51.0977 131.621 51.6914 132.152 52.1211 132.848C52.5586 133.543 52.7773 134.387 52.7773 135.379ZM50.6094 135.414C50.6094 134.844 50.4883 134.34 50.2461 133.902C50.0039 133.465 49.668 133.121 49.2383 132.871C48.8086 132.613 48.3086 132.484 47.7383 132.484C47.168 132.484 46.668 132.605 46.2383 132.848C45.8164 133.082 45.4844 133.418 45.2422 133.855C45.0078 134.293 44.8906 134.812 44.8906 135.414C44.8906 136 45.0078 136.512 45.2422 136.949C45.4844 137.387 45.8203 137.727 46.25 137.969C46.6797 138.211 47.1797 138.332 47.75 138.332C48.3203 138.332 48.8164 138.211 49.2383 137.969C49.668 137.727 50.0039 137.387 50.2461 136.949C50.4883 136.512 50.6094 136 50.6094 135.414ZM66.6289 138.109V140.711C66.6289 142.109 66.5039 143.289 66.2539 144.25C66.0039 145.211 65.6445 145.984 65.1758 146.57C64.707 147.156 64.1406 147.582 63.4766 147.848C62.8203 148.105 62.0781 148.234 61.25 148.234C60.5938 148.234 59.9883 148.152 59.4336 147.988C58.8789 147.824 58.3789 147.562 57.9336 147.203C57.4961 146.836 57.1211 146.359 56.8086 145.773C56.4961 145.188 56.2578 144.477 56.0938 143.641C55.9297 142.805 55.8477 141.828 55.8477 140.711V138.109C55.8477 136.711 55.9727 135.539 56.2227 134.594C56.4805 133.648 56.8438 132.891 57.3125 132.32C57.7812 131.742 58.3438 131.328 59 131.078C59.6641 130.828 60.4062 130.703 61.2266 130.703C61.8906 130.703 62.5 130.785 63.0547 130.949C63.6172 131.105 64.1172 131.359 64.5547 131.711C64.9922 132.055 65.3633 132.516 65.668 133.094C65.9805 133.664 66.2188 134.363 66.3828 135.191C66.5469 136.02 66.6289 136.992 66.6289 138.109ZM64.4492 141.062V137.746C64.4492 136.98 64.4023 136.309 64.3086 135.73C64.2227 135.145 64.0938 134.645 63.9219 134.23C63.75 133.816 63.5312 133.48 63.2656 133.223C63.0078 132.965 62.707 132.777 62.3633 132.66C62.0273 132.535 61.6484 132.473 61.2266 132.473C60.7109 132.473 60.2539 132.57 59.8555 132.766C59.457 132.953 59.1211 133.254 58.8477 133.668C58.582 134.082 58.3789 134.625 58.2383 135.297C58.0977 135.969 58.0273 136.785 58.0273 137.746V141.062C58.0273 141.828 58.0703 142.504 58.1562 143.09C58.25 143.676 58.3867 144.184 58.5664 144.613C58.7461 145.035 58.9648 145.383 59.2227 145.656C59.4805 145.93 59.7773 146.133 60.1133 146.266C60.457 146.391 60.8359 146.453 61.25 146.453C61.7812 146.453 62.2461 146.352 62.6445 146.148C63.043 145.945 63.375 145.629 63.6406 145.199C63.9141 144.762 64.1172 144.203 64.25 143.523C64.3828 142.836 64.4492 142.016 64.4492 141.062ZM71.8086 137.84V148H69.6289V135.32H71.6914L71.8086 137.84ZM71.3633 141.18L70.3555 141.145C70.3633 140.277 70.4766 139.477 70.6953 138.742C70.9141 138 71.2383 137.355 71.668 136.809C72.0977 136.262 72.6328 135.84 73.2734 135.543C73.9141 135.238 74.6562 135.086 75.5 135.086C76.0938 135.086 76.6406 135.172 77.1406 135.344C77.6406 135.508 78.0742 135.77 78.4414 136.129C78.8086 136.488 79.0938 136.949 79.2969 137.512C79.5 138.074 79.6016 138.754 79.6016 139.551V148H77.4336V139.656C77.4336 138.992 77.3203 138.461 77.0938 138.062C76.875 137.664 76.5625 137.375 76.1562 137.195C75.75 137.008 75.2734 136.914 74.7266 136.914C74.0859 136.914 73.5508 137.027 73.1211 137.254C72.6914 137.48 72.3477 137.793 72.0898 138.191C71.832 138.59 71.6445 139.047 71.5273 139.562C71.418 140.07 71.3633 140.609 71.3633 141.18ZM79.5781 139.984L78.125 140.43C78.1328 139.734 78.2461 139.066 78.4648 138.426C78.6914 137.785 79.0156 137.215 79.4375 136.715C79.8672 136.215 80.3945 135.82 81.0195 135.531C81.6445 135.234 82.3594 135.086 83.1641 135.086C83.8438 135.086 84.4453 135.176 84.9688 135.355C85.5 135.535 85.9453 135.812 86.3047 136.188C86.6719 136.555 86.9492 137.027 87.1367 137.605C87.3242 138.184 87.418 138.871 87.418 139.668V148H85.2383V139.645C85.2383 138.934 85.125 138.383 84.8984 137.992C84.6797 137.594 84.3672 137.316 83.9609 137.16C83.5625 136.996 83.0859 136.914 82.5312 136.914C82.0547 136.914 81.6328 136.996 81.2656 137.16C80.8984 137.324 80.5898 137.551 80.3398 137.84C80.0898 138.121 79.8984 138.445 79.7656 138.812C79.6406 139.18 79.5781 139.57 79.5781 139.984ZM98.082 144.637C98.082 144.324 98.0117 144.035 97.8711 143.77C97.7383 143.496 97.4609 143.25 97.0391 143.031C96.625 142.805 96 142.609 95.1641 142.445C94.4609 142.297 93.8242 142.121 93.2539 141.918C92.6914 141.715 92.2109 141.469 91.8125 141.18C91.4219 140.891 91.1211 140.551 90.9102 140.16C90.6992 139.77 90.5938 139.312 90.5938 138.789C90.5938 138.289 90.7031 137.816 90.9219 137.371C91.1484 136.926 91.4648 136.531 91.8711 136.188C92.2852 135.844 92.7812 135.574 93.3594 135.379C93.9375 135.184 94.582 135.086 95.293 135.086C96.3086 135.086 97.1758 135.266 97.8945 135.625C98.6133 135.984 99.1641 136.465 99.5469 137.066C99.9297 137.66 100.121 138.32 100.121 139.047H97.9531C97.9531 138.695 97.8477 138.355 97.6367 138.027C97.4336 137.691 97.1328 137.414 96.7344 137.195C96.3438 136.977 95.8633 136.867 95.293 136.867C94.6914 136.867 94.2031 136.961 93.8281 137.148C93.4609 137.328 93.1914 137.559 93.0195 137.84C92.8555 138.121 92.7734 138.418 92.7734 138.73C92.7734 138.965 92.8125 139.176 92.8906 139.363C92.9766 139.543 93.125 139.711 93.3359 139.867C93.5469 140.016 93.8438 140.156 94.2266 140.289C94.6094 140.422 95.0977 140.555 95.6914 140.688C96.7305 140.922 97.5859 141.203 98.2578 141.531C98.9297 141.859 99.4297 142.262 99.7578 142.738C100.086 143.215 100.25 143.793 100.25 144.473C100.25 145.027 100.133 145.535 99.8984 145.996C99.6719 146.457 99.3398 146.855 98.9023 147.191C98.4727 147.52 97.957 147.777 97.3555 147.965C96.7617 148.145 96.0938 148.234 95.3516 148.234C94.2344 148.234 93.2891 148.035 92.5156 147.637C91.7422 147.238 91.1562 146.723 90.7578 146.09C90.3594 145.457 90.1602 144.789 90.1602 144.086H92.3398C92.3711 144.68 92.543 145.152 92.8555 145.504C93.168 145.848 93.5508 146.094 94.0039 146.242C94.457 146.383 94.9062 146.453 95.3516 146.453C95.9453 146.453 96.4414 146.375 96.8398 146.219C97.2461 146.062 97.5547 145.848 97.7656 145.574C97.9766 145.301 98.082 144.988 98.082 144.637Z" fill="#AAAAAA"/>
</g>
<defs>
<filter id="filter0_d_502_839" x="0.5" y="0.5" width="236" height="197" filterUnits="userSpaceOnUse" color-interpolation-filters="sRGB">
<feFlood flood-opacity="0" result="BackgroundImageFix"/>
<feColorMatrix in="SourceAlpha" type="matrix" values="0 0 0 0 0 0 0 0 0 0 0 0 0 0 0 0 0 0 127 0" result="hardAlpha"/>
<feOffset dy="3"/>
<feGaussianBlur stdDeviation="11.25"/>
<feComposite in2="hardAlpha" operator="out"/>
<feColorMatrix type="matrix" values="0 0 0 0 1 0 0 0 0 0.563846 0 0 0 0 0.515385 0 0 0 0.5 0"/>
<feBlend mode="normal" in2="BackgroundImageFix" result="effect1_dropShadow_502_839"/>
<feBlend mode="normal" in="SourceGraphic" in2="effect1_dropShadow_502_839" result="shape"/>
</filter>
</defs>
</svg>
