<svg width="473" height="125" viewBox="0 0 473 125" fill="none" xmlns="http://www.w3.org/2000/svg">
<g filter="url(#filter0_d_502_848)">
<rect x="23" y="18" width="427.148" height="79.7344" rx="9.49219" fill="#FF9083" fill-opacity="0.5" shape-rendering="crispEdges"/>
<rect x="34.3906" y="29.3906" width="56.9531" height="56.9531" rx="7.59375" fill="#B70404"/>
<path d="M46.2612 62.0029H43.5987V54.6845H46.0904V55.795H46.2185C46.6172 54.9835 47.4572 54.5421 48.4682 54.5421C49.6642 54.5421 50.3903 55.0404 50.7605 55.795H50.8887C51.387 54.9692 52.2128 54.5421 53.2807 54.5421C55.1744 54.5421 55.8863 55.8093 55.8863 57.3185V62.0029H53.2095V57.8738C53.2095 57.0907 53.0386 56.8344 52.1701 56.8344C51.33 56.8344 51.0738 57.048 51.0738 57.8311V62.0029H48.397V57.8738C48.397 57.0907 48.2261 56.8344 47.3576 56.8344C46.5175 56.8344 46.2612 57.048 46.2612 57.8311V62.0029ZM59.3454 62.0029H56.6829V54.6845H59.1746V55.795H59.3027C59.7014 54.9692 60.6126 54.5421 61.6947 54.5421C63.5884 54.5421 64.3003 55.8093 64.3003 57.3185V62.0029H61.6235V57.8738C61.6235 57.0907 61.4385 56.8344 60.4987 56.8344C59.616 56.8344 59.3454 57.048 59.3454 57.8311V62.0029ZM70.3567 62.0029H66.9395L64.2058 54.6845H67.1958L68.5912 59.3404H68.7763L70.1716 54.6845H73.1047L70.3567 62.0029ZM75.9197 62.0029H73.2571V54.6845H75.7488V55.795H75.877C76.2899 55.0831 76.9875 54.5421 77.9557 54.5421C79.3653 54.5421 79.8637 55.4533 79.8637 56.8914V58.2155H77.1869V57.4894C77.1869 56.9483 77.0872 56.7917 76.5889 56.7917C76.1475 56.7917 75.9197 56.8487 75.9197 57.3755V62.0029ZM82.1335 62.0029H78.9441V59.0556H82.1335V62.0029Z" fill="#F9F0DE"/>
<path d="M108.692 38.2202H110.678L113.998 47.3638L117.31 38.2202H119.304L114.791 50.3672H113.197L108.692 38.2202ZM107.691 38.2202H109.635L109.985 46.6213V50.3672H107.691V38.2202ZM118.353 38.2202H120.305V50.3672H118.011V46.6213L118.353 38.2202ZM127.788 48.4484V44.2853C127.788 43.9794 127.735 43.7152 127.63 43.4928C127.524 43.2703 127.363 43.0979 127.146 42.9755C126.929 42.8532 126.654 42.792 126.32 42.792C126.025 42.792 125.767 42.842 125.544 42.9421C125.327 43.0423 125.16 43.1841 125.043 43.3676C124.927 43.5456 124.868 43.7514 124.868 43.985H122.657C122.657 43.6123 122.746 43.2592 122.924 42.9255C123.102 42.5862 123.355 42.2859 123.684 42.0244C124.017 41.7575 124.415 41.5489 124.877 41.3987C125.344 41.2486 125.867 41.1735 126.445 41.1735C127.129 41.1735 127.738 41.2903 128.272 41.5239C128.812 41.7519 129.234 42.0967 129.54 42.5584C129.852 43.02 130.007 43.6012 130.007 44.302V48.2398C130.007 48.6903 130.035 49.0768 130.091 49.3994C130.152 49.7165 130.241 49.9918 130.358 50.2254V50.3672H128.114C128.008 50.1392 127.927 49.8499 127.872 49.4995C127.816 49.1436 127.788 48.7932 127.788 48.4484ZM128.097 44.8693L128.114 46.1791H126.72C126.376 46.1791 126.072 46.2153 125.811 46.2876C125.55 46.3543 125.335 46.4544 125.169 46.5879C125.002 46.7158 124.877 46.8716 124.793 47.0551C124.71 47.2331 124.668 47.4361 124.668 47.6641C124.668 47.8866 124.718 48.0868 124.818 48.2648C124.924 48.4428 125.074 48.5846 125.269 48.6903C125.469 48.7904 125.703 48.8405 125.97 48.8405C126.359 48.8405 126.698 48.7626 126.987 48.6069C127.277 48.4456 127.502 48.2509 127.663 48.0229C127.824 47.7948 127.911 47.5779 127.922 47.3721L128.556 48.3232C128.478 48.5513 128.361 48.7932 128.205 49.049C128.05 49.3049 127.849 49.544 127.605 49.7665C127.36 49.989 127.065 50.1725 126.72 50.3171C126.376 50.4617 125.975 50.534 125.519 50.534C124.935 50.534 124.412 50.4172 123.951 50.1836C123.489 49.9501 123.125 49.6302 122.858 49.2242C122.591 48.8182 122.457 48.3566 122.457 47.8393C122.457 47.361 122.546 46.9383 122.724 46.5712C122.902 46.2042 123.166 45.8955 123.517 45.6452C123.867 45.3894 124.301 45.1975 124.818 45.0695C125.341 44.9361 125.939 44.8693 126.612 44.8693H128.097ZM134.495 43.2675V50.3672H132.293V41.3403H134.362L134.495 43.2675ZM134.145 45.5284H133.494C133.5 44.8721 133.589 44.277 133.761 43.743C133.934 43.2091 134.176 42.7503 134.487 42.3665C134.804 41.9827 135.18 41.688 135.613 41.4822C136.047 41.2764 136.531 41.1735 137.065 41.1735C137.499 41.1735 137.891 41.2347 138.241 41.357C138.592 41.4794 138.892 41.674 139.142 41.941C139.398 42.208 139.593 42.5584 139.726 42.9922C139.865 43.4205 139.935 43.9488 139.935 44.5773V50.3672H137.716V44.5606C137.716 44.1491 137.655 43.8237 137.532 43.5845C137.415 43.3454 137.243 43.1757 137.015 43.0756C136.792 42.9755 136.517 42.9255 136.189 42.9255C135.85 42.9255 135.552 42.995 135.296 43.134C135.046 43.2675 134.835 43.4538 134.662 43.693C134.495 43.9322 134.368 44.2075 134.279 44.5189C134.19 44.8304 134.145 45.1669 134.145 45.5284ZM146.275 50.534C145.591 50.534 144.976 50.4228 144.431 50.2003C143.886 49.9779 143.422 49.6692 143.038 49.2743C142.66 48.8738 142.368 48.4094 142.162 47.8811C141.962 47.3471 141.862 46.7742 141.862 46.1624V45.8287C141.862 45.1335 141.962 44.5022 142.162 43.9349C142.362 43.3621 142.646 42.8698 143.013 42.4583C143.38 42.0467 143.82 41.7297 144.331 41.5072C144.843 41.2847 145.407 41.1735 146.025 41.1735C146.664 41.1735 147.229 41.2819 147.718 41.4989C148.208 41.7102 148.617 42.0105 148.945 42.3999C149.273 42.7892 149.52 43.2564 149.687 43.8014C149.854 44.3409 149.938 44.9388 149.938 45.5951V46.5212H142.863V45.0028H147.768V44.8359C147.757 44.4856 147.691 44.1657 147.568 43.8765C147.446 43.5818 147.257 43.3482 147.001 43.1757C146.745 42.9978 146.414 42.9088 146.008 42.9088C145.68 42.9088 145.394 42.9811 145.149 43.1257C144.91 43.2647 144.709 43.465 144.548 43.7264C144.392 43.9822 144.276 44.2881 144.198 44.6441C144.12 45 144.081 45.3949 144.081 45.8287V46.1624C144.081 46.5406 144.131 46.891 144.231 47.2136C144.337 47.5362 144.49 47.8171 144.69 48.0562C144.896 48.2898 145.14 48.4734 145.424 48.6069C145.713 48.7348 146.041 48.7988 146.409 48.7988C146.87 48.7988 147.287 48.7098 147.66 48.5318C148.038 48.3482 148.366 48.0785 148.644 47.7225L149.754 48.8738C149.565 49.1519 149.309 49.4189 148.986 49.6747C148.669 49.9306 148.286 50.1392 147.835 50.3004C147.385 50.4562 146.865 50.534 146.275 50.534ZM157.129 48.2231V41.3403H159.348V50.3672H157.262L157.129 48.2231ZM157.412 46.3543L158.096 46.3376C158.096 46.9439 158.03 47.5028 157.896 48.0145C157.763 48.5262 157.554 48.9712 157.27 49.3494C156.992 49.722 156.639 50.014 156.211 50.2254C155.783 50.4311 155.277 50.534 154.693 50.534C154.248 50.534 153.842 50.4729 153.475 50.3505C153.107 50.2226 152.79 50.0251 152.523 49.7582C152.262 49.4856 152.059 49.138 151.914 48.7153C151.77 48.2871 151.698 47.7726 151.698 47.1719V41.3403H153.9V47.1886C153.9 47.4889 153.933 47.7392 154 47.9394C154.072 48.1397 154.17 48.3037 154.292 48.4317C154.42 48.554 154.567 48.643 154.734 48.6986C154.907 48.7487 155.09 48.7737 155.285 48.7737C155.819 48.7737 156.239 48.668 156.545 48.4567C156.856 48.2398 157.079 47.9506 157.212 47.5891C157.346 47.222 157.412 46.8104 157.412 46.3543ZM164.637 48.6986L166.739 41.3403H169.042L165.947 50.3672H164.545L164.637 48.6986ZM163.102 41.3403L165.229 48.7153L165.304 50.3672H163.894L160.791 41.3403H163.102ZM174.481 50.534C173.797 50.534 173.182 50.4228 172.637 50.2003C172.092 49.9779 171.628 49.6692 171.244 49.2743C170.866 48.8738 170.574 48.4094 170.368 47.8811C170.168 47.3471 170.068 46.7742 170.068 46.1624V45.8287C170.068 45.1335 170.168 44.5022 170.368 43.9349C170.568 43.3621 170.852 42.8698 171.219 42.4583C171.586 42.0467 172.025 41.7297 172.537 41.5072C173.049 41.2847 173.613 41.1735 174.231 41.1735C174.87 41.1735 175.435 41.2819 175.924 41.4989C176.414 41.7102 176.822 42.0105 177.151 42.3999C177.479 42.7892 177.726 43.2564 177.893 43.8014C178.06 44.3409 178.143 44.9388 178.143 45.5951V46.5212H171.069V45.0028H175.974V44.8359C175.963 44.4856 175.896 44.1657 175.774 43.8765C175.652 43.5818 175.463 43.3482 175.207 43.1757C174.951 42.9978 174.62 42.9088 174.214 42.9088C173.886 42.9088 173.599 42.9811 173.355 43.1257C173.115 43.2647 172.915 43.465 172.754 43.7264C172.598 43.9822 172.481 44.2881 172.404 44.6441C172.326 45 172.287 45.3949 172.287 45.8287V46.1624C172.287 46.5406 172.337 46.891 172.437 47.2136C172.543 47.5362 172.696 47.8171 172.896 48.0562C173.102 48.2898 173.346 48.4734 173.63 48.6069C173.919 48.7348 174.247 48.7988 174.614 48.7988C175.076 48.7988 175.493 48.7098 175.866 48.5318C176.244 48.3482 176.572 48.0785 176.85 47.7225L177.96 48.8738C177.771 49.1519 177.515 49.4189 177.192 49.6747C176.875 49.9306 176.491 50.1392 176.041 50.3004C175.59 50.4562 175.07 50.534 174.481 50.534ZM182.164 43.1841V50.3672H179.962V41.3403H182.047L182.164 43.1841ZM184.909 41.2819L184.876 43.3343C184.753 43.312 184.614 43.2953 184.458 43.2842C184.308 43.2731 184.166 43.2675 184.033 43.2675C183.694 43.2675 183.396 43.3148 183.14 43.4093C182.884 43.4983 182.67 43.629 182.498 43.8014C182.331 43.9739 182.203 44.1852 182.114 44.4355C182.025 44.6802 181.975 44.9583 181.964 45.2698L181.488 45.2114C181.488 44.6385 181.547 44.1073 181.664 43.6179C181.78 43.1285 181.95 42.7002 182.173 42.3331C182.395 41.966 182.673 41.6824 183.007 41.4822C183.346 41.2764 183.735 41.1735 184.175 41.1735C184.297 41.1735 184.428 41.1846 184.567 41.2069C184.712 41.2235 184.826 41.2486 184.909 41.2819ZM197.581 47.2136C197.581 46.98 197.545 46.7715 197.472 46.5879C197.406 46.3988 197.281 46.2292 197.097 46.079C196.919 45.9233 196.666 45.7731 196.338 45.6285C196.015 45.4783 195.598 45.3226 195.086 45.1613C194.519 44.9833 193.991 44.7831 193.501 44.5606C193.012 44.3382 192.581 44.0795 192.208 43.7848C191.841 43.49 191.555 43.1507 191.349 42.7669C191.143 42.3776 191.04 41.9271 191.04 41.4154C191.04 40.9149 191.146 40.4588 191.357 40.0472C191.574 39.6356 191.88 39.2825 192.275 38.9877C192.67 38.6873 193.134 38.4565 193.668 38.2952C194.208 38.1339 194.803 38.0533 195.454 38.0533C196.355 38.0533 197.133 38.2174 197.79 38.5455C198.451 38.8737 198.963 39.3186 199.325 39.8804C199.686 40.4421 199.867 41.0734 199.867 41.7742H197.581C197.581 41.396 197.5 41.0622 197.339 40.773C197.183 40.4838 196.944 40.2558 196.622 40.0889C196.305 39.9221 195.904 39.8386 195.42 39.8386C194.953 39.8386 194.564 39.9082 194.252 40.0472C193.946 40.1863 193.715 40.3754 193.56 40.6145C193.41 40.8537 193.334 41.1206 193.334 41.4154C193.334 41.6379 193.387 41.8381 193.493 42.0161C193.599 42.1885 193.757 42.3526 193.969 42.5083C194.18 42.6585 194.441 42.8003 194.753 42.9338C195.07 43.0617 195.437 43.1896 195.854 43.3176C196.521 43.5178 197.105 43.7403 197.606 43.985C198.112 44.2297 198.532 44.5078 198.866 44.8193C199.205 45.1307 199.458 45.4811 199.625 45.8704C199.797 46.2598 199.884 46.7019 199.884 47.1969C199.884 47.7198 199.781 48.187 199.575 48.5985C199.369 49.0101 199.074 49.3605 198.691 49.6497C198.307 49.9389 197.845 50.1586 197.306 50.3088C196.772 50.459 196.174 50.534 195.512 50.534C194.922 50.534 194.338 50.4562 193.76 50.3004C193.187 50.1392 192.667 49.9 192.2 49.583C191.733 49.2604 191.36 48.8544 191.082 48.3649C190.804 47.8699 190.665 47.2915 190.665 46.6296H192.967C192.967 47.0134 193.029 47.3416 193.151 47.6141C193.279 47.8811 193.457 48.1007 193.685 48.2732C193.918 48.44 194.191 48.5624 194.502 48.6402C194.814 48.7181 195.15 48.757 195.512 48.757C195.979 48.757 196.363 48.6931 196.663 48.5652C196.969 48.4317 197.197 48.2481 197.347 48.0145C197.503 47.7809 197.581 47.514 197.581 47.2136ZM207.2 48.2231V41.3403H209.419V50.3672H207.333L207.2 48.2231ZM207.483 46.3543L208.168 46.3376C208.168 46.9439 208.101 47.5028 207.967 48.0145C207.834 48.5262 207.625 48.9712 207.342 49.3494C207.064 49.722 206.71 50.014 206.282 50.2254C205.854 50.4311 205.348 50.534 204.764 50.534C204.319 50.534 203.913 50.4729 203.546 50.3505C203.179 50.2226 202.862 50.0251 202.595 49.7582C202.333 49.4856 202.13 49.138 201.986 48.7153C201.841 48.2871 201.769 47.7726 201.769 47.1719V41.3403H203.971V47.1886C203.971 47.4889 204.005 47.7392 204.071 47.9394C204.144 48.1397 204.241 48.3037 204.363 48.4317C204.491 48.554 204.639 48.643 204.805 48.6986C204.978 48.7487 205.161 48.7737 205.356 48.7737C205.89 48.7737 206.31 48.668 206.616 48.4567C206.927 48.2398 207.15 47.9506 207.283 47.5891C207.417 47.222 207.483 46.8104 207.483 46.3543ZM213.915 43.0756V53.8378H211.705V41.3403H213.749L213.915 43.0756ZM219.714 45.762V45.9372C219.714 46.5935 219.636 47.2025 219.48 47.7643C219.33 48.3204 219.107 48.8071 218.813 49.2242C218.518 49.6358 218.151 49.9584 217.711 50.192C217.277 50.42 216.777 50.534 216.21 50.534C215.653 50.534 215.17 50.4284 214.758 50.217C214.346 50.0001 213.999 49.6942 213.715 49.2993C213.431 48.9044 213.203 48.4456 213.031 47.9228C212.864 47.3944 212.739 46.8187 212.656 46.1958V45.6369C212.739 44.975 212.864 44.3743 213.031 43.8348C213.203 43.2898 213.431 42.8198 213.715 42.4249C213.999 42.0244 214.344 41.7158 214.75 41.4989C215.161 41.2819 215.642 41.1735 216.193 41.1735C216.766 41.1735 217.269 41.2819 217.703 41.4989C218.142 41.7158 218.512 42.0272 218.813 42.4332C219.113 42.8393 219.338 43.3231 219.488 43.8849C219.638 44.4466 219.714 45.0723 219.714 45.762ZM217.503 45.9372V45.762C217.503 45.3615 217.467 44.9917 217.394 44.6524C217.322 44.3076 217.211 44.0072 217.061 43.7514C216.91 43.49 216.716 43.287 216.477 43.1424C216.237 42.9978 215.948 42.9255 215.609 42.9255C215.27 42.9255 214.978 42.9811 214.733 43.0923C214.488 43.2036 214.288 43.3621 214.132 43.5679C213.977 43.7736 213.854 44.0184 213.765 44.302C213.682 44.5801 213.626 44.8888 213.598 45.2281V46.613C213.648 47.0245 213.746 47.3944 213.89 47.7225C214.035 48.0507 214.246 48.3121 214.524 48.5068C214.808 48.7014 215.175 48.7988 215.626 48.7988C215.965 48.7988 216.254 48.7237 216.493 48.5735C216.732 48.4233 216.927 48.2175 217.077 47.9561C217.227 47.6892 217.336 47.3833 217.403 47.0384C217.469 46.6936 217.503 46.3265 217.503 45.9372ZM223.868 43.0756V53.8378H221.657V41.3403H223.701L223.868 43.0756ZM229.666 45.762V45.9372C229.666 46.5935 229.588 47.2025 229.433 47.7643C229.282 48.3204 229.06 48.8071 228.765 49.2242C228.47 49.6358 228.103 49.9584 227.664 50.192C227.23 50.42 226.729 50.534 226.162 50.534C225.606 50.534 225.122 50.4284 224.711 50.217C224.299 50.0001 223.951 49.6942 223.668 49.2993C223.384 48.9044 223.156 48.4456 222.984 47.9228C222.817 47.3944 222.692 46.8187 222.608 46.1958V45.6369C222.692 44.975 222.817 44.3743 222.984 43.8348C223.156 43.2898 223.384 42.8198 223.668 42.4249C223.951 42.0244 224.296 41.7158 224.702 41.4989C225.114 41.2819 225.595 41.1735 226.145 41.1735C226.718 41.1735 227.222 41.2819 227.656 41.4989C228.095 41.7158 228.465 42.0272 228.765 42.4332C229.065 42.8393 229.291 43.3231 229.441 43.8849C229.591 44.4466 229.666 45.0723 229.666 45.762ZM227.455 45.9372V45.762C227.455 45.3615 227.419 44.9917 227.347 44.6524C227.275 44.3076 227.163 44.0072 227.013 43.7514C226.863 43.49 226.668 43.287 226.429 43.1424C226.19 42.9978 225.901 42.9255 225.562 42.9255C225.222 42.9255 224.93 42.9811 224.686 43.0923C224.441 43.2036 224.241 43.3621 224.085 43.5679C223.929 43.7736 223.807 44.0184 223.718 44.302C223.634 44.5801 223.579 44.8888 223.551 45.2281V46.613C223.601 47.0245 223.698 47.3944 223.843 47.7225C223.988 48.0507 224.199 48.3121 224.477 48.5068C224.761 48.7014 225.128 48.7988 225.578 48.7988C225.917 48.7988 226.207 48.7237 226.446 48.5735C226.685 48.4233 226.88 48.2175 227.03 47.9561C227.18 47.6892 227.288 47.3833 227.355 47.0384C227.422 46.6936 227.455 46.3265 227.455 45.9372ZM231.226 45.9455V45.7703C231.226 45.1085 231.32 44.4995 231.51 43.9433C231.699 43.3815 231.974 42.8949 232.335 42.4833C232.697 42.0717 233.139 41.7519 233.662 41.5239C234.185 41.2903 234.78 41.1735 235.447 41.1735C236.126 41.1735 236.727 41.2903 237.249 41.5239C237.778 41.7519 238.223 42.0717 238.584 42.4833C238.946 42.8949 239.221 43.3815 239.41 43.9433C239.599 44.4995 239.694 45.1085 239.694 45.7703V45.9455C239.694 46.6018 239.599 47.2108 239.41 47.7726C239.221 48.3288 238.946 48.8154 238.584 49.2326C238.223 49.6441 237.781 49.964 237.258 50.192C236.735 50.42 236.137 50.534 235.464 50.534C234.797 50.534 234.199 50.42 233.67 50.192C233.142 49.964 232.697 49.6441 232.335 49.2326C231.974 48.8154 231.699 48.3288 231.51 47.7726C231.32 47.2108 231.226 46.6018 231.226 45.9455ZM233.428 45.7703V45.9455C233.428 46.3404 233.467 46.7103 233.545 47.0551C233.623 47.4 233.743 47.7031 233.904 47.9645C234.065 48.2259 234.274 48.4317 234.53 48.5818C234.791 48.7264 235.102 48.7988 235.464 48.7988C235.82 48.7988 236.126 48.7264 236.382 48.5818C236.638 48.4317 236.846 48.2259 237.007 47.9645C237.174 47.7031 237.297 47.4 237.374 47.0551C237.452 46.7103 237.491 46.3404 237.491 45.9455V45.7703C237.491 45.381 237.452 45.0167 237.374 44.6774C237.297 44.3326 237.174 44.0295 237.007 43.7681C236.846 43.5011 236.635 43.2925 236.373 43.1424C236.118 42.9866 235.809 42.9088 235.447 42.9088C235.091 42.9088 234.785 42.9866 234.53 43.1424C234.274 43.2925 234.065 43.5011 233.904 43.7681C233.743 44.0295 233.623 44.3326 233.545 44.6774C233.467 45.0167 233.428 45.381 233.428 45.7703ZM243.84 43.1841V50.3672H241.637V41.3403H243.723L243.84 43.1841ZM246.585 41.2819L246.551 43.3343C246.429 43.312 246.29 43.2953 246.134 43.2842C245.984 43.2731 245.842 43.2675 245.709 43.2675C245.369 43.2675 245.072 43.3148 244.816 43.4093C244.56 43.4983 244.346 43.629 244.173 43.8014C244.007 43.9739 243.879 44.1852 243.79 44.4355C243.701 44.6802 243.651 44.9583 243.64 45.2698L243.164 45.2114C243.164 44.6385 243.222 44.1073 243.339 43.6179C243.456 43.1285 243.626 42.7002 243.848 42.3331C244.071 41.966 244.349 41.6824 244.682 41.4822C245.022 41.2764 245.411 41.1735 245.85 41.1735C245.973 41.1735 246.103 41.1846 246.242 41.2069C246.387 41.2235 246.501 41.2486 246.585 41.2819ZM252.825 41.3403V42.9255H247.652V41.3403H252.825ZM249.037 39.1212H251.248V47.7643C251.248 48.0312 251.284 48.237 251.356 48.3816C251.429 48.5262 251.537 48.6236 251.682 48.6736C251.826 48.7237 251.999 48.7487 252.199 48.7487C252.343 48.7487 252.477 48.7404 252.599 48.7237C252.722 48.707 252.825 48.6903 252.908 48.6736L252.916 50.3255C252.733 50.3867 252.524 50.4367 252.291 50.4756C252.063 50.5146 251.804 50.534 251.515 50.534C251.02 50.534 250.586 50.4506 250.213 50.2838C249.841 50.1113 249.551 49.836 249.346 49.4578C249.14 49.0741 249.037 48.5679 249.037 47.9394V39.1212Z" fill="white"/>
<path d="M111.104 74.1042L113.247 66.5698H114.286L113.685 69.4991L111.379 77.3672H110.348L111.104 74.1042ZM108.887 66.5698L110.593 73.9559L111.104 77.3672H110.081L107.463 66.5698H108.887ZM117.059 73.9485L118.728 66.5698H120.159L117.549 77.3672H116.525L117.059 73.9485ZM114.441 66.5698L116.525 74.1042L117.282 77.3672H116.251L114.026 69.4991L113.418 66.5698H114.441ZM124.934 77.5155C124.376 77.5155 123.869 77.4216 123.414 77.2337C122.964 77.0409 122.576 76.7715 122.25 76.4254C121.929 76.0793 121.681 75.669 121.508 75.1944C121.335 74.7198 121.249 74.2007 121.249 73.6371V73.3256C121.249 72.673 121.345 72.0921 121.538 71.5829C121.731 71.0687 121.993 70.6337 122.324 70.2777C122.655 69.9218 123.031 69.6523 123.451 69.4694C123.871 69.2865 124.306 69.195 124.756 69.195C125.33 69.195 125.824 69.2939 126.24 69.4916C126.66 69.6894 127.003 69.9662 127.27 70.3222C127.537 70.6732 127.735 71.0885 127.864 71.5681C127.992 72.0427 128.056 72.5618 128.056 73.1254V73.7409H122.064V72.6211H126.684V72.5173C126.665 72.1613 126.591 71.8152 126.462 71.4791C126.338 71.1429 126.141 70.866 125.869 70.6485C125.597 70.431 125.226 70.3222 124.756 70.3222C124.445 70.3222 124.158 70.3889 123.896 70.5224C123.634 70.651 123.409 70.8438 123.221 71.1009C123.033 71.3579 122.888 71.6719 122.784 72.0427C122.68 72.4135 122.628 72.8411 122.628 73.3256V73.6371C122.628 74.0177 122.68 74.3762 122.784 74.7123C122.893 75.0436 123.048 75.3353 123.251 75.5874C123.459 75.8395 123.708 76.0373 124 76.1807C124.297 76.324 124.633 76.3957 125.009 76.3957C125.493 76.3957 125.903 76.2968 126.24 76.0991C126.576 75.9013 126.87 75.6368 127.122 75.3056L127.953 75.9656C127.78 76.2276 127.56 76.4773 127.293 76.7146C127.026 76.9519 126.697 77.1447 126.306 77.293C125.921 77.4413 125.463 77.5155 124.934 77.5155ZM137.244 76.3883C137.57 76.3883 137.872 76.3216 138.149 76.1881C138.426 76.0546 138.653 75.8717 138.831 75.6393C139.009 75.402 139.11 75.1326 139.135 74.831H140.44C140.415 75.3056 140.255 75.7481 139.958 76.1584C139.666 76.5638 139.283 76.8926 138.809 77.1447C138.334 77.3919 137.812 77.5155 137.244 77.5155C136.641 77.5155 136.114 77.4092 135.664 77.1966C135.219 76.984 134.849 76.6924 134.552 76.3216C134.26 75.9508 134.04 75.5256 133.892 75.0461C133.749 74.5616 133.677 74.0499 133.677 73.511V73.1995C133.677 72.6606 133.749 72.1514 133.892 71.6719C134.04 71.1874 134.26 70.7597 134.552 70.3889C134.849 70.0182 135.219 69.7265 135.664 69.5139C136.114 69.3013 136.641 69.195 137.244 69.195C137.872 69.195 138.421 69.3235 138.89 69.5806C139.36 69.8328 139.728 70.1788 139.995 70.6188C140.267 71.0539 140.415 71.5483 140.44 72.102H139.135C139.11 71.7708 139.016 71.4716 138.853 71.2047C138.695 70.9377 138.477 70.7251 138.201 70.5669C137.929 70.4038 137.61 70.3222 137.244 70.3222C136.824 70.3222 136.47 70.4062 136.183 70.5743C135.902 70.7375 135.677 70.96 135.509 71.2418C135.346 71.5186 135.227 71.8276 135.153 72.1687C135.083 72.5049 135.049 72.8485 135.049 73.1995V73.511C135.049 73.862 135.083 74.2081 135.153 74.5492C135.222 74.8903 135.338 75.1993 135.501 75.4762C135.669 75.753 135.894 75.9755 136.176 76.1436C136.463 76.3067 136.819 76.3883 137.244 76.3883ZM147.018 75.9953V71.8647C147.018 71.5483 146.953 71.2739 146.825 71.0415C146.701 70.8042 146.513 70.6213 146.261 70.4928C146.009 70.3642 145.698 70.3 145.327 70.3C144.981 70.3 144.677 70.3593 144.415 70.4779C144.158 70.5966 143.955 70.7523 143.807 70.9451C143.663 71.1379 143.592 71.3456 143.592 71.5681H142.22C142.22 71.2813 142.294 70.997 142.442 70.7152C142.59 70.4334 142.803 70.1788 143.08 69.9514C143.362 69.7191 143.698 69.5361 144.088 69.4026C144.484 69.2642 144.924 69.195 145.408 69.195C145.992 69.195 146.506 69.2939 146.951 69.4916C147.401 69.6894 147.752 69.9885 148.004 70.3889C148.261 70.7845 148.39 71.2813 148.39 71.8795V75.6171C148.39 75.884 148.412 76.1683 148.456 76.4699C148.506 76.7715 148.577 77.031 148.671 77.2485V77.3672H147.24C147.171 77.209 147.117 76.9989 147.077 76.7368C147.037 76.4699 147.018 76.2227 147.018 75.9953ZM147.255 72.5024L147.27 73.4665H145.883C145.492 73.4665 145.144 73.4986 144.837 73.5629C144.531 73.6222 144.274 73.7137 144.066 73.8373C143.859 73.9609 143.7 74.1166 143.592 74.3045C143.483 74.4874 143.428 74.7025 143.428 74.9496C143.428 75.2018 143.485 75.4317 143.599 75.6393C143.713 75.847 143.883 76.0126 144.111 76.1362C144.343 76.2548 144.627 76.3141 144.963 76.3141C145.384 76.3141 145.754 76.2252 146.076 76.0472C146.397 75.8692 146.652 75.6517 146.84 75.3946C147.032 75.1375 147.136 74.8878 147.151 74.6456L147.737 75.3056C147.702 75.5132 147.608 75.7431 147.455 75.9953C147.302 76.2474 147.097 76.4897 146.84 76.722C146.588 76.9494 146.286 77.1398 145.935 77.293C145.589 77.4413 145.198 77.5155 144.763 77.5155C144.219 77.5155 143.742 77.4092 143.332 77.1966C142.927 76.984 142.61 76.6998 142.383 76.3438C142.16 75.9829 142.049 75.58 142.049 75.135C142.049 74.7049 142.133 74.3267 142.301 74.0004C142.469 73.6692 142.712 73.3948 143.028 73.1773C143.344 72.9548 143.725 72.7867 144.17 72.673C144.615 72.5593 145.112 72.5024 145.661 72.5024H147.255ZM152.223 71.0564V77.3672H150.851V69.3433H152.149L152.223 71.0564ZM151.897 73.0512L151.326 73.029C151.331 72.4802 151.412 71.9734 151.571 71.5087C151.729 71.0391 151.951 70.6312 152.238 70.2851C152.525 69.9391 152.866 69.6721 153.261 69.4842C153.662 69.2914 154.104 69.195 154.589 69.195C154.984 69.195 155.34 69.2494 155.657 69.3582C155.973 69.462 156.243 69.6301 156.465 69.8624C156.692 70.0948 156.865 70.3964 156.984 70.7672C157.103 71.133 157.162 71.5804 157.162 72.1094V77.3672H155.783V72.0946C155.783 71.6743 155.721 71.3382 155.597 71.086C155.474 70.8289 155.293 70.6436 155.056 70.5298C154.819 70.4112 154.527 70.3519 154.181 70.3519C153.84 70.3519 153.528 70.4236 153.247 70.5669C152.97 70.7103 152.73 70.9081 152.527 71.1602C152.33 71.4123 152.174 71.7015 152.06 72.0278C151.951 72.3492 151.897 72.6903 151.897 73.0512ZM165.111 65.9766V77.3672H163.732V65.9766H165.111ZM172.349 75.9953V71.8647C172.349 71.5483 172.284 71.2739 172.156 71.0415C172.032 70.8042 171.844 70.6213 171.592 70.4928C171.34 70.3642 171.029 70.3 170.658 70.3C170.312 70.3 170.008 70.3593 169.746 70.4779C169.489 70.5966 169.286 70.7523 169.138 70.9451C168.994 71.1379 168.923 71.3456 168.923 71.5681H167.551C167.551 71.2813 167.625 70.997 167.773 70.7152C167.922 70.4334 168.134 70.1788 168.411 69.9514C168.693 69.7191 169.029 69.5361 169.42 69.4026C169.815 69.2642 170.255 69.195 170.74 69.195C171.323 69.195 171.837 69.2939 172.282 69.4916C172.732 69.6894 173.083 69.9885 173.335 70.3889C173.592 70.7845 173.721 71.2813 173.721 71.8795V75.6171C173.721 75.884 173.743 76.1683 173.787 76.4699C173.837 76.7715 173.909 77.031 174.002 77.2485V77.3672H172.571C172.502 77.209 172.448 76.9989 172.408 76.7368C172.369 76.4699 172.349 76.2227 172.349 75.9953ZM172.586 72.5024L172.601 73.4665H171.214C170.824 73.4665 170.475 73.4986 170.168 73.5629C169.862 73.6222 169.605 73.7137 169.397 73.8373C169.19 73.9609 169.031 74.1166 168.923 74.3045C168.814 74.4874 168.759 74.7025 168.759 74.9496C168.759 75.2018 168.816 75.4317 168.93 75.6393C169.044 75.847 169.214 76.0126 169.442 76.1362C169.674 76.2548 169.958 76.3141 170.295 76.3141C170.715 76.3141 171.086 76.2252 171.407 76.0472C171.728 75.8692 171.983 75.6517 172.171 75.3946C172.364 75.1375 172.467 74.8878 172.482 74.6456L173.068 75.3056C173.033 75.5132 172.94 75.7431 172.786 75.9953C172.633 76.2474 172.428 76.4897 172.171 76.722C171.919 76.9494 171.617 77.1398 171.266 77.293C170.92 77.4413 170.529 77.5155 170.094 77.5155C169.551 77.5155 169.073 77.4092 168.663 77.1966C168.258 76.984 167.941 76.6998 167.714 76.3438C167.491 75.9829 167.38 75.58 167.38 75.135C167.38 74.7049 167.464 74.3267 167.632 74.0004C167.8 73.6692 168.043 73.3948 168.359 73.1773C168.675 72.9548 169.056 72.7867 169.501 72.673C169.946 72.5593 170.443 72.5024 170.992 72.5024H172.586ZM181.092 75.5132V69.3433H182.471V77.3672H181.158L181.092 75.5132ZM181.351 73.8224L181.922 73.8076C181.922 74.3416 181.865 74.8359 181.752 75.2908C181.643 75.7407 181.465 76.1312 181.218 76.4625C180.971 76.7937 180.647 77.0533 180.246 77.2411C179.846 77.424 179.359 77.5155 178.785 77.5155C178.395 77.5155 178.036 77.4586 177.71 77.3449C177.389 77.2312 177.112 77.0557 176.879 76.8184C176.647 76.5811 176.467 76.2721 176.338 75.8914C176.215 75.5108 176.153 75.0535 176.153 74.5195V69.3433H177.525V74.5344C177.525 74.8953 177.564 75.1944 177.643 75.4317C177.727 75.664 177.839 75.8494 177.977 75.9879C178.12 76.1213 178.279 76.2153 178.452 76.2697C178.63 76.324 178.813 76.3512 179 76.3512C179.584 76.3512 180.046 76.24 180.387 76.0175C180.728 75.7901 180.973 75.4861 181.121 75.1054C181.275 74.7198 181.351 74.2921 181.351 73.8224ZM186.238 71.0564V77.3672H184.866V69.3433H186.164L186.238 71.0564ZM185.912 73.0512L185.341 73.029C185.346 72.4802 185.427 71.9734 185.585 71.5087C185.743 71.0391 185.966 70.6312 186.253 70.2851C186.539 69.9391 186.881 69.6721 187.276 69.4842C187.677 69.2914 188.119 69.195 188.604 69.195C188.999 69.195 189.355 69.2494 189.671 69.3582C189.988 69.462 190.257 69.6301 190.48 69.8624C190.707 70.0948 190.88 70.3964 190.999 70.7672C191.117 71.133 191.177 71.5804 191.177 72.1094V77.3672H189.797V72.0946C189.797 71.6743 189.736 71.3382 189.612 71.086C189.488 70.8289 189.308 70.6436 189.071 70.5298C188.833 70.4112 188.542 70.3519 188.196 70.3519C187.855 70.3519 187.543 70.4236 187.261 70.5669C186.984 70.7103 186.745 70.9081 186.542 71.1602C186.344 71.4123 186.188 71.7015 186.075 72.0278C185.966 72.3492 185.912 72.6903 185.912 73.0512ZM196.775 76.3883C197.102 76.3883 197.403 76.3216 197.68 76.1881C197.957 76.0546 198.184 75.8717 198.362 75.6393C198.54 75.402 198.642 75.1326 198.666 74.831H199.972C199.947 75.3056 199.786 75.7481 199.49 76.1584C199.198 76.5638 198.815 76.8926 198.34 77.1447C197.866 77.3919 197.344 77.5155 196.775 77.5155C196.172 77.5155 195.646 77.4092 195.196 77.1966C194.751 76.984 194.38 76.6924 194.083 76.3216C193.792 75.9508 193.572 75.5256 193.423 75.0461C193.28 74.5616 193.208 74.0499 193.208 73.511V73.1995C193.208 72.6606 193.28 72.1514 193.423 71.6719C193.572 71.1874 193.792 70.7597 194.083 70.3889C194.38 70.0182 194.751 69.7265 195.196 69.5139C195.646 69.3013 196.172 69.195 196.775 69.195C197.403 69.195 197.952 69.3235 198.422 69.5806C198.891 69.8328 199.26 70.1788 199.527 70.6188C199.799 71.0539 199.947 71.5483 199.972 72.102H198.666C198.642 71.7708 198.548 71.4716 198.385 71.2047C198.226 70.9377 198.009 70.7251 197.732 70.5669C197.46 70.4038 197.141 70.3222 196.775 70.3222C196.355 70.3222 196.002 70.4062 195.715 70.5743C195.433 70.7375 195.208 70.96 195.04 71.2418C194.877 71.5186 194.758 71.8276 194.684 72.1687C194.615 72.5049 194.58 72.8485 194.58 73.1995V73.511C194.58 73.862 194.615 74.2081 194.684 74.5492C194.753 74.8903 194.87 75.1993 195.033 75.4762C195.201 75.753 195.426 75.9755 195.708 76.1436C195.994 76.3067 196.35 76.3883 196.775 76.3883ZM203.19 65.9766V77.3672H201.818V65.9766H203.19ZM202.863 73.0512L202.292 73.029C202.297 72.4802 202.379 71.9734 202.537 71.5087C202.695 71.0391 202.918 70.6312 203.205 70.2851C203.491 69.9391 203.832 69.6721 204.228 69.4842C204.628 69.2914 205.071 69.195 205.555 69.195C205.951 69.195 206.307 69.2494 206.623 69.3582C206.94 69.462 207.209 69.6301 207.432 69.8624C207.659 70.0948 207.832 70.3964 207.951 70.7672C208.069 71.133 208.129 71.5804 208.129 72.1094V77.3672H206.749V72.0946C206.749 71.6743 206.688 71.3382 206.564 71.086C206.44 70.8289 206.26 70.6436 206.023 70.5298C205.785 70.4112 205.494 70.3519 205.147 70.3519C204.806 70.3519 204.495 70.4236 204.213 70.5669C203.936 70.7103 203.696 70.9081 203.494 71.1602C203.296 71.4123 203.14 71.7015 203.027 72.0278C202.918 72.3492 202.863 72.6903 202.863 73.0512ZM216.997 76.1288L219.192 69.3433H220.594L217.709 77.3672H216.79L216.997 76.1288ZM215.166 69.3433L217.427 76.1658L217.583 77.3672H216.664L213.757 69.3433H215.166ZM230.649 66.5105V77.3672H229.277V68.2235L226.511 69.2321V67.9937L230.434 66.5105H230.649ZM235.158 76.6404C235.158 76.4081 235.229 76.2128 235.373 76.0546C235.521 75.8914 235.734 75.8099 236.01 75.8099C236.287 75.8099 236.497 75.8914 236.641 76.0546C236.789 76.2128 236.863 76.4081 236.863 76.6404C236.863 76.8679 236.789 77.0607 236.641 77.2189C236.497 77.3771 236.287 77.4562 236.01 77.4562C235.734 77.4562 235.521 77.3771 235.373 77.2189C235.229 77.0607 235.158 76.8679 235.158 76.6404ZM243.804 66.5105V77.3672H242.432V68.2235L239.666 69.2321V67.9937L243.589 66.5105H243.804ZM248.313 76.6404C248.313 76.4081 248.384 76.2128 248.528 76.0546C248.676 75.8914 248.889 75.8099 249.165 75.8099C249.442 75.8099 249.652 75.8914 249.796 76.0546C249.944 76.2128 250.018 76.4081 250.018 76.6404C250.018 76.8679 249.944 77.0607 249.796 77.2189C249.652 77.3771 249.442 77.4562 249.165 77.4562C248.889 77.4562 248.676 77.3771 248.528 77.2189C248.384 77.0607 248.313 76.8679 248.313 76.6404ZM259.747 73.7335V74.8607H251.946V74.0523L256.781 66.5698H257.901L256.7 68.7352L253.503 73.7335H259.747ZM258.242 66.5698V77.3672H256.87V66.5698H258.242ZM265.509 65.9766H266.888V75.8099L266.77 77.3672H265.509V65.9766ZM272.309 73.2885V73.4442C272.309 74.0276 272.24 74.569 272.102 75.0683C271.963 75.5627 271.76 75.9928 271.493 76.3586C271.226 76.7245 270.9 77.0088 270.515 77.2115C270.129 77.4142 269.686 77.5155 269.187 77.5155C268.678 77.5155 268.23 77.429 267.845 77.256C267.464 77.078 267.143 76.8234 266.881 76.4921C266.619 76.1609 266.409 75.7604 266.25 75.2908C266.097 74.8211 265.991 74.2921 265.932 73.7038V73.0215C265.991 72.4283 266.097 71.8968 266.25 71.4272C266.409 70.9575 266.619 70.557 266.881 70.2258C267.143 69.8896 267.464 69.635 267.845 69.462C268.226 69.284 268.668 69.195 269.172 69.195C269.677 69.195 270.124 69.2939 270.515 69.4916C270.905 69.6844 271.231 69.9613 271.493 70.3222C271.76 70.6831 271.963 71.1157 272.102 71.62C272.24 72.1193 272.309 72.6755 272.309 73.2885ZM270.93 73.4442V73.2885C270.93 72.8881 270.893 72.5123 270.819 72.1613C270.744 71.8054 270.626 71.4939 270.463 71.2269C270.299 70.955 270.084 70.7424 269.817 70.5892C269.551 70.431 269.222 70.3519 268.831 70.3519C268.485 70.3519 268.184 70.4112 267.926 70.5298C267.674 70.6485 267.459 70.8092 267.281 71.0119C267.103 71.2096 266.957 71.437 266.844 71.6941C266.735 71.9463 266.653 72.2083 266.599 72.4802V74.2674C266.678 74.6135 266.807 74.9472 266.985 75.2685C267.168 75.5849 267.41 75.8445 267.711 76.0472C268.018 76.2499 268.396 76.3512 268.846 76.3512C269.217 76.3512 269.533 76.2771 269.795 76.1288C270.062 75.9755 270.277 75.7654 270.44 75.4984C270.608 75.2314 270.732 74.9225 270.811 74.5714C270.89 74.2204 270.93 73.8447 270.93 73.4442ZM276.514 76.5366L278.746 69.3433H280.214L276.996 78.6056C276.921 78.8034 276.823 79.016 276.699 79.2434C276.58 79.4757 276.427 79.6957 276.239 79.9034C276.051 80.111 275.824 80.2791 275.557 80.4077C275.295 80.5411 274.981 80.6079 274.615 80.6079C274.506 80.6079 274.368 80.593 274.2 80.5634C274.032 80.5337 273.913 80.509 273.844 80.4892L273.837 79.3769C273.876 79.3818 273.938 79.3867 274.022 79.3917C274.111 79.4016 274.173 79.4065 274.207 79.4065C274.519 79.4065 274.783 79.3645 275.001 79.2805C275.218 79.2014 275.401 79.0654 275.55 78.8726C275.703 78.6847 275.834 78.4252 275.943 78.0939L276.514 76.5366ZM274.875 69.3433L276.959 75.5726L277.315 77.0186L276.328 77.5229L273.377 69.3433H274.875ZM289.187 69.3433V70.3964H284.848V69.3433H289.187ZM286.317 67.393H287.689V75.3798C287.689 75.6517 287.731 75.8568 287.815 75.9953C287.899 76.1337 288.007 76.2252 288.141 76.2697C288.274 76.3141 288.418 76.3364 288.571 76.3364C288.685 76.3364 288.803 76.3265 288.927 76.3067C289.056 76.282 289.152 76.2622 289.216 76.2474L289.224 77.3672C289.115 77.4018 288.972 77.4339 288.794 77.4636C288.621 77.4982 288.41 77.5155 288.163 77.5155C287.827 77.5155 287.518 77.4488 287.236 77.3153C286.954 77.1818 286.729 76.9593 286.561 76.6479C286.398 76.3315 286.317 75.9063 286.317 75.3723V67.393ZM292.471 65.9766V77.3672H291.1V65.9766H292.471ZM292.145 73.0512L291.574 73.029C291.579 72.4802 291.661 71.9734 291.819 71.5087C291.977 71.0391 292.2 70.6312 292.486 70.2851C292.773 69.9391 293.114 69.6721 293.51 69.4842C293.91 69.2914 294.353 69.195 294.837 69.195C295.233 69.195 295.589 69.2494 295.905 69.3582C296.221 69.462 296.491 69.6301 296.713 69.8624C296.941 70.0948 297.114 70.3964 297.232 70.7672C297.351 71.133 297.41 71.5804 297.41 72.1094V77.3672H296.031V72.0946C296.031 71.6743 295.969 71.3382 295.846 71.086C295.722 70.8289 295.542 70.6436 295.304 70.5298C295.067 70.4112 294.775 70.3519 294.429 70.3519C294.088 70.3519 293.777 70.4236 293.495 70.5669C293.218 70.7103 292.978 70.9081 292.776 71.1602C292.578 71.4123 292.422 71.7015 292.308 72.0278C292.2 72.3492 292.145 72.6903 292.145 73.0512ZM301.259 69.3433V77.3672H299.88V69.3433H301.259ZM299.776 67.215C299.776 66.9925 299.842 66.8047 299.976 66.6514C300.114 66.4981 300.317 66.4215 300.584 66.4215C300.846 66.4215 301.046 66.4981 301.185 66.6514C301.328 66.8047 301.4 66.9925 301.4 67.215C301.4 67.4276 301.328 67.6105 301.185 67.7638C301.046 67.9121 300.846 67.9862 300.584 67.9862C300.317 67.9862 300.114 67.9121 299.976 67.7638C299.842 67.6105 299.776 67.4276 299.776 67.215ZM308.437 75.2389C308.437 75.0411 308.393 74.8582 308.304 74.6901C308.22 74.5171 308.044 74.3613 307.777 74.2229C307.515 74.0795 307.12 73.9559 306.591 73.8521C306.146 73.7582 305.743 73.6469 305.382 73.5184C305.026 73.3899 304.722 73.2341 304.47 73.0512C304.222 72.8683 304.032 72.6532 303.899 72.406C303.765 72.1588 303.698 71.8696 303.698 71.5384C303.698 71.222 303.768 70.9229 303.906 70.6411C304.049 70.3593 304.25 70.1096 304.507 69.8921C304.769 69.6746 305.083 69.504 305.448 69.3804C305.814 69.2568 306.222 69.195 306.672 69.195C307.315 69.195 307.864 69.3087 308.318 69.5361C308.773 69.7635 309.122 70.0676 309.364 70.4483C309.606 70.824 309.727 71.2418 309.727 71.7015H308.355C308.355 71.4791 308.289 71.264 308.155 71.0564C308.027 70.8438 307.836 70.6683 307.584 70.5298C307.337 70.3914 307.033 70.3222 306.672 70.3222C306.291 70.3222 305.982 70.3815 305.745 70.5002C305.513 70.6139 305.342 70.7597 305.233 70.9377C305.13 71.1157 305.078 71.3036 305.078 71.5013C305.078 71.6496 305.102 71.7831 305.152 71.9018C305.206 72.0155 305.3 72.1218 305.434 72.2206C305.567 72.3146 305.755 72.4036 305.997 72.4876C306.24 72.5717 306.548 72.6557 306.924 72.7397C307.582 72.8881 308.123 73.066 308.548 73.2737C308.973 73.4813 309.29 73.7359 309.497 74.0375C309.705 74.3391 309.809 74.7049 309.809 75.135C309.809 75.4861 309.735 75.8074 309.586 76.0991C309.443 76.3908 309.233 76.6429 308.956 76.8555C308.684 77.0631 308.358 77.2263 307.977 77.3449C307.602 77.4586 307.179 77.5155 306.709 77.5155C306.002 77.5155 305.404 77.3894 304.915 77.1373C304.425 76.8852 304.054 76.5589 303.802 76.1584C303.55 75.758 303.424 75.3353 303.424 74.8903H304.803C304.823 75.2661 304.932 75.5652 305.13 75.7876C305.327 76.0052 305.57 76.1609 305.856 76.2548C306.143 76.3438 306.427 76.3883 306.709 76.3883C307.085 76.3883 307.399 76.3389 307.651 76.24C307.908 76.1411 308.103 76.0052 308.237 75.8321C308.37 75.6591 308.437 75.4613 308.437 75.2389ZM318.018 75.9434L320.079 69.3433H320.984L320.806 70.6559L318.707 77.3672H317.825L318.018 75.9434ZM316.631 69.3433L318.388 76.0175L318.514 77.3672H317.588L315.259 69.3433H316.631ZM322.957 75.9656L324.632 69.3433H325.997L323.668 77.3672H322.749L322.957 75.9656ZM321.184 69.3433L323.201 75.8321L323.431 77.3672H322.556L320.398 70.6411L320.22 69.3433H321.184ZM331.039 77.5155C330.481 77.5155 329.974 77.4216 329.519 77.2337C329.069 77.0409 328.681 76.7715 328.355 76.4254C328.034 76.0793 327.786 75.669 327.613 75.1944C327.44 74.7198 327.354 74.2007 327.354 73.6371V73.3256C327.354 72.673 327.45 72.0921 327.643 71.5829C327.836 71.0687 328.098 70.6337 328.429 70.2777C328.76 69.9218 329.136 69.6523 329.556 69.4694C329.976 69.2865 330.412 69.195 330.861 69.195C331.435 69.195 331.929 69.2939 332.345 69.4916C332.765 69.6894 333.108 69.9662 333.375 70.3222C333.642 70.6732 333.84 71.0885 333.969 71.5681C334.097 72.0427 334.161 72.5618 334.161 73.1254V73.7409H328.17V72.6211H332.79V72.5173C332.77 72.1613 332.696 71.8152 332.567 71.4791C332.443 71.1429 332.246 70.866 331.974 70.6485C331.702 70.431 331.331 70.3222 330.861 70.3222C330.55 70.3222 330.263 70.3889 330.001 70.5224C329.739 70.651 329.514 70.8438 329.326 71.1009C329.139 71.3579 328.993 71.6719 328.889 72.0427C328.785 72.4135 328.733 72.8411 328.733 73.3256V73.6371C328.733 74.0177 328.785 74.3762 328.889 74.7123C328.998 75.0436 329.153 75.3353 329.356 75.5874C329.564 75.8395 329.813 76.0373 330.105 76.1807C330.402 76.324 330.738 76.3957 331.114 76.3957C331.598 76.3957 332.008 76.2968 332.345 76.0991C332.681 75.9013 332.975 75.6368 333.227 75.3056L334.058 75.9656C333.885 76.2276 333.665 76.4773 333.398 76.7146C333.131 76.9519 332.802 77.1447 332.411 77.293C332.026 77.4413 331.568 77.5155 331.039 77.5155ZM339.397 77.5155C338.838 77.5155 338.331 77.4216 337.876 77.2337C337.427 77.0409 337.038 76.7715 336.712 76.4254C336.391 76.0793 336.144 75.669 335.971 75.1944C335.798 74.7198 335.711 74.2007 335.711 73.6371V73.3256C335.711 72.673 335.807 72.0921 336 71.5829C336.193 71.0687 336.455 70.6337 336.786 70.2777C337.118 69.9218 337.493 69.6523 337.914 69.4694C338.334 69.2865 338.769 69.195 339.219 69.195C339.792 69.195 340.287 69.2939 340.702 69.4916C341.122 69.6894 341.466 69.9662 341.733 70.3222C342 70.6732 342.197 71.0885 342.326 71.5681C342.454 72.0427 342.519 72.5618 342.519 73.1254V73.7409H336.527V72.6211H341.147V72.5173C341.127 72.1613 341.053 71.8152 340.924 71.4791C340.801 71.1429 340.603 70.866 340.331 70.6485C340.059 70.431 339.688 70.3222 339.219 70.3222C338.907 70.3222 338.621 70.3889 338.358 70.5224C338.096 70.651 337.872 70.8438 337.684 71.1009C337.496 71.3579 337.35 71.6719 337.246 72.0427C337.142 72.4135 337.09 72.8411 337.09 73.3256V73.6371C337.09 74.0177 337.142 74.3762 337.246 74.7123C337.355 75.0436 337.511 75.3353 337.713 75.5874C337.921 75.8395 338.171 76.0373 338.462 76.1807C338.759 76.324 339.095 76.3957 339.471 76.3957C339.955 76.3957 340.366 76.2968 340.702 76.0991C341.038 75.9013 341.332 75.6368 341.584 75.3056L342.415 75.9656C342.242 76.2276 342.022 76.4773 341.755 76.7146C341.488 76.9519 341.159 77.1447 340.769 77.293C340.383 77.4413 339.926 77.5155 339.397 77.5155ZM345.804 65.9766V77.3672H344.424V65.9766H345.804ZM350.705 69.3433L347.205 73.0883L345.247 75.1202L345.136 73.6593L346.538 71.9833L349.029 69.3433H350.705ZM349.452 77.3672L346.59 73.5406L347.302 72.317L351.069 77.3672H349.452ZM355.607 77.5155C355.048 77.5155 354.542 77.4216 354.087 77.2337C353.637 77.0409 353.249 76.7715 352.922 76.4254C352.601 76.0793 352.354 75.669 352.181 75.1944C352.008 74.7198 351.921 74.2007 351.921 73.6371V73.3256C351.921 72.673 352.018 72.0921 352.211 71.5829C352.403 71.0687 352.665 70.6337 352.997 70.2777C353.328 69.9218 353.704 69.6523 354.124 69.4694C354.544 69.2865 354.979 69.195 355.429 69.195C356.002 69.195 356.497 69.2939 356.912 69.4916C357.332 69.6894 357.676 69.9662 357.943 70.3222C358.21 70.6732 358.408 71.0885 358.536 71.5681C358.665 72.0427 358.729 72.5618 358.729 73.1254V73.7409H352.737V72.6211H357.357V72.5173C357.337 72.1613 357.263 71.8152 357.135 71.4791C357.011 71.1429 356.813 70.866 356.541 70.6485C356.269 70.431 355.899 70.3222 355.429 70.3222C355.118 70.3222 354.831 70.3889 354.569 70.5224C354.307 70.651 354.082 70.8438 353.894 71.1009C353.706 71.3579 353.56 71.6719 353.456 72.0427C353.353 72.4135 353.301 72.8411 353.301 73.3256V73.6371C353.301 74.0177 353.353 74.3762 353.456 74.7123C353.565 75.0436 353.721 75.3353 353.924 75.5874C354.131 75.8395 354.381 76.0373 354.673 76.1807C354.969 76.324 355.305 76.3957 355.681 76.3957C356.166 76.3957 356.576 76.2968 356.912 76.0991C357.248 75.9013 357.542 75.6368 357.795 75.3056L358.625 75.9656C358.452 76.2276 358.232 76.4773 357.965 76.7146C357.698 76.9519 357.369 77.1447 356.979 77.293C356.593 77.4413 356.136 77.5155 355.607 77.5155ZM362.007 71.0564V77.3672H360.635V69.3433H361.932L362.007 71.0564ZM361.68 73.0512L361.109 73.029C361.114 72.4802 361.196 71.9734 361.354 71.5087C361.512 71.0391 361.735 70.6312 362.021 70.2851C362.308 69.9391 362.649 69.6721 363.045 69.4842C363.445 69.2914 363.888 69.195 364.372 69.195C364.768 69.195 365.124 69.2494 365.44 69.3582C365.756 69.462 366.026 69.6301 366.248 69.8624C366.476 70.0948 366.649 70.3964 366.767 70.7672C366.886 71.133 366.945 71.5804 366.945 72.1094V77.3672H365.566V72.0946C365.566 71.6743 365.504 71.3382 365.381 71.086C365.257 70.8289 365.077 70.6436 364.839 70.5298C364.602 70.4112 364.31 70.3519 363.964 70.3519C363.623 70.3519 363.312 70.4236 363.03 70.5669C362.753 70.7103 362.513 70.9081 362.311 71.1602C362.113 71.4123 361.957 71.7015 361.843 72.0278C361.735 72.3492 361.68 72.6903 361.68 73.0512ZM374.391 75.8099V65.9766H375.77V77.3672H374.509L374.391 75.8099ZM368.992 73.4442V73.2885C368.992 72.6755 369.066 72.1193 369.214 71.62C369.368 71.1157 369.583 70.6831 369.859 70.3222C370.141 69.9613 370.475 69.6844 370.861 69.4916C371.251 69.2939 371.686 69.195 372.166 69.195C372.67 69.195 373.11 69.284 373.486 69.462C373.866 69.635 374.188 69.8896 374.45 70.2258C374.717 70.557 374.927 70.9575 375.08 71.4272C375.233 71.8968 375.34 72.4283 375.399 73.0215V73.7038C375.345 74.2921 375.238 74.8211 375.08 75.2908C374.927 75.7604 374.717 76.1609 374.45 76.4921C374.188 76.8234 373.866 77.078 373.486 77.256C373.105 77.429 372.66 77.5155 372.151 77.5155C371.681 77.5155 371.251 77.4142 370.861 77.2115C370.475 77.0088 370.141 76.7245 369.859 76.3586C369.583 75.9928 369.368 75.5627 369.214 75.0683C369.066 74.569 368.992 74.0276 368.992 73.4442ZM370.371 73.2885V73.4442C370.371 73.8447 370.411 74.2204 370.49 74.5714C370.574 74.9225 370.702 75.2314 370.875 75.4984C371.048 75.7654 371.268 75.9755 371.535 76.1288C371.802 76.2771 372.121 76.3512 372.492 76.3512C372.947 76.3512 373.32 76.2548 373.612 76.062C373.909 75.8692 374.146 75.6146 374.324 75.2982C374.502 74.9818 374.64 74.6382 374.739 74.2674V72.4802C374.68 72.2083 374.593 71.9463 374.48 71.6941C374.371 71.437 374.227 71.2096 374.049 71.0119C373.876 70.8092 373.661 70.6485 373.404 70.5298C373.152 70.4112 372.853 70.3519 372.507 70.3519C372.131 70.3519 371.807 70.431 371.535 70.5892C371.268 70.7424 371.048 70.955 370.875 71.2269C370.702 71.4939 370.574 71.8054 370.49 72.1613C370.411 72.5123 370.371 72.8881 370.371 73.2885ZM382.05 70.0923C382.05 69.86 382.122 69.6647 382.266 69.5065C382.414 69.3433 382.626 69.2617 382.903 69.2617C383.18 69.2617 383.39 69.3433 383.534 69.5065C383.682 69.6647 383.756 69.86 383.756 70.0923C383.756 70.3197 383.682 70.5125 383.534 70.6707C383.39 70.8289 383.18 70.9081 382.903 70.9081C382.626 70.9081 382.414 70.8289 382.266 70.6707C382.122 70.5125 382.05 70.3197 382.05 70.0923ZM383.615 75.7357V76.8407C383.615 77.2906 383.501 77.7652 383.274 78.2645C383.047 78.7688 382.728 79.189 382.317 79.5252L381.539 78.9838C381.697 78.7663 381.83 78.5438 381.939 78.3164C382.048 78.0939 382.13 77.8616 382.184 77.6193C382.243 77.382 382.273 77.1299 382.273 76.8629V75.7357H383.615ZM388.962 72.9771V73.0512C388.962 74.1339 388.841 75.1128 388.598 75.9879C388.356 76.8629 388.047 77.6267 387.671 78.2793C387.296 78.9369 386.9 79.4807 386.485 79.9108C386.069 80.3459 385.686 80.6598 385.335 80.8526L385.046 80.022C385.338 79.7996 385.632 79.4881 385.929 79.0876C386.225 78.6921 386.5 78.2027 386.752 77.6193C387.004 77.0409 387.207 76.3735 387.36 75.6171C387.513 74.8557 387.59 74.0054 387.59 73.066V72.9622C387.59 72.0229 387.508 71.175 387.345 70.4186C387.182 69.6573 386.969 68.9874 386.707 68.4089C386.45 67.8305 386.173 67.3435 385.877 66.948C385.585 66.5476 385.308 66.2386 385.046 66.0211L385.335 65.1831C385.686 65.3759 386.069 65.6898 386.485 66.1249C386.9 66.555 387.296 67.0988 387.671 67.7563C388.047 68.4139 388.356 69.1802 388.598 70.0552C388.841 70.9254 388.962 71.8993 388.962 72.9771Z" fill="white"/>
</g>
<defs>
<filter id="filter0_d_502_848" x="0.5" y="0" width="472.148" height="124.734" filterUnits="userSpaceOnUse" color-interpolation-filters="sRGB">
<feFlood flood-opacity="0" result="BackgroundImageFix"/>
<feColorMatrix in="SourceAlpha" type="matrix" values="0 0 0 0 0 0 0 0 0 0 0 0 0 0 0 0 0 0 127 0" result="hardAlpha"/>
<feOffset dy="4.5"/>
<feGaussianBlur stdDeviation="11.25"/>
<feComposite in2="hardAlpha" operator="out"/>
<feColorMatrix type="matrix" values="0 0 0 0 0 0 0 0 0 0 0 0 0 0 0 0 0 0 0.1 0"/>
<feBlend mode="normal" in2="BackgroundImageFix" result="effect1_dropShadow_502_848"/>
<feBlend mode="normal" in="SourceGraphic" in2="effect1_dropShadow_502_848" result="shape"/>
</filter>
</defs>
</svg>
