<svg width="265" height="104" viewBox="0 0 265 104" fill="none" xmlns="http://www.w3.org/2000/svg">
<g filter="url(#filter0_d_494_798)">
<rect x="23.25" y="20.3071" width="219" height="58" rx="8" fill="#FF9083" fill-opacity="0.5" shape-rendering="crispEdges"/>
<rect x="23.75" y="20.8071" width="218" height="57" rx="7.5" stroke="#E94649" stroke-opacity="0.5" shape-rendering="crispEdges"/>
<rect x="29.25" y="26.3071" width="207" height="46" rx="4" fill="white" fill-opacity="0.9"/>
<path fill-rule="evenodd" clip-rule="evenodd" d="M51.9375 62.4321C44.5162 62.4321 38.5 56.416 38.5 48.9946C38.5 41.5733 44.5162 35.5571 51.9375 35.5571C59.3589 35.5571 65.375 41.5733 65.375 48.9946C65.375 56.416 59.3589 62.4321 51.9375 62.4321ZM57.4876 46.3675C58.1076 46.0638 58.364 45.3151 58.0604 44.6951C57.7566 44.0751 57.0079 43.8187 56.3879 44.1223C53.9431 45.3198 52.0503 47.3745 50.7965 49.0494C50.362 49.6298 49.9953 50.1768 49.7003 50.6459C49.3514 50.3436 49.0073 50.0933 48.704 49.8933C48.357 49.6645 48.0492 49.4923 47.8245 49.3756C47.7119 49.3171 47.6192 49.272 47.5519 49.2404C47.5182 49.2246 47.4908 49.2121 47.4703 49.2029L47.4448 49.1916L47.4361 49.1879L47.4328 49.1864L47.4302 49.1853C47.4299 49.1851 47.4301 49.1853 46.9377 50.3343L47.4302 49.1853C46.7956 48.9134 46.0608 49.2073 45.7888 49.8418C45.5174 50.4751 45.8101 51.2085 46.4421 51.4818L46.4434 51.4823L46.4479 51.4843C46.4554 51.4876 46.4693 51.494 46.4891 51.5033C46.5288 51.5219 46.5914 51.5523 46.6721 51.5941C46.8341 51.6784 47.0653 51.8074 47.3278 51.9805C47.8638 52.3339 48.4744 52.8343 48.9137 53.4618C49.1674 53.8241 49.5936 54.0254 50.0346 53.9911C50.4754 53.9569 50.8655 53.6919 51.0602 53.2949L51.0635 53.2885L51.0816 53.2525C51.0987 53.219 51.1256 53.167 51.1621 53.0986C51.2352 52.9615 51.3465 52.7589 51.4943 52.5071C51.7904 52.0026 52.2297 51.3064 52.7977 50.5476C53.9502 49.0083 55.5574 47.3129 57.4876 46.3675Z" fill="#3ED243"/>
<path d="M81.0938 43.4321L84.0469 49.1431L87.0078 43.4321H88.7188L84.7969 50.5571V54.8071H83.2891V50.5571L79.3672 43.4321H81.0938ZM89.0625 50.6743V50.4946C89.0625 49.8853 89.151 49.3201 89.3281 48.7993C89.5052 48.2733 89.7604 47.8175 90.0938 47.4321C90.4271 47.0415 90.8307 46.7394 91.3047 46.5259C91.7786 46.3071 92.3099 46.1978 92.8984 46.1978C93.4922 46.1978 94.026 46.3071 94.5 46.5259C94.9792 46.7394 95.3854 47.0415 95.7188 47.4321C96.0573 47.8175 96.3151 48.2733 96.4922 48.7993C96.6693 49.3201 96.7578 49.8853 96.7578 50.4946V50.6743C96.7578 51.2837 96.6693 51.8488 96.4922 52.3696C96.3151 52.8905 96.0573 53.3462 95.7188 53.7368C95.3854 54.1222 94.9818 54.4243 94.5078 54.6431C94.0391 54.8566 93.5078 54.9634 92.9141 54.9634C92.3203 54.9634 91.7865 54.8566 91.3125 54.6431C90.8385 54.4243 90.4323 54.1222 90.0938 53.7368C89.7604 53.3462 89.5052 52.8905 89.3281 52.3696C89.151 51.8488 89.0625 51.2837 89.0625 50.6743ZM90.5078 50.4946V50.6743C90.5078 51.0962 90.5573 51.4946 90.6562 51.8696C90.7552 52.2394 90.9036 52.5675 91.1016 52.854C91.3047 53.1405 91.5573 53.367 91.8594 53.5337C92.1615 53.6951 92.513 53.7759 92.9141 53.7759C93.3099 53.7759 93.6562 53.6951 93.9531 53.5337C94.2552 53.367 94.5052 53.1405 94.7031 52.854C94.901 52.5675 95.0495 52.2394 95.1484 51.8696C95.2526 51.4946 95.3047 51.0962 95.3047 50.6743V50.4946C95.3047 50.078 95.2526 49.6847 95.1484 49.3149C95.0495 48.9399 94.8984 48.6092 94.6953 48.3228C94.4974 48.0311 94.2474 47.8019 93.9453 47.6353C93.6484 47.4686 93.2995 47.3853 92.8984 47.3853C92.5026 47.3853 92.1536 47.4686 91.8516 47.6353C91.5547 47.8019 91.3047 48.0311 91.1016 48.3228C90.9036 48.6092 90.7552 48.9399 90.6562 49.3149C90.5573 49.6847 90.5078 50.078 90.5078 50.4946ZM103.742 52.854V46.354H105.195V54.8071H103.812L103.742 52.854ZM104.016 51.0728L104.617 51.0571C104.617 51.6196 104.557 52.1405 104.438 52.6196C104.323 53.0936 104.135 53.505 103.875 53.854C103.615 54.203 103.273 54.4764 102.852 54.6743C102.43 54.867 101.917 54.9634 101.312 54.9634C100.901 54.9634 100.523 54.9035 100.18 54.7837C99.8411 54.6639 99.5495 54.479 99.3047 54.229C99.0599 53.979 98.8698 53.6535 98.7344 53.2524C98.6042 52.8514 98.5391 52.3696 98.5391 51.8071V46.354H99.9844V51.8228C99.9844 52.203 100.026 52.5181 100.109 52.7681C100.198 53.0129 100.315 53.2082 100.461 53.354C100.612 53.4946 100.779 53.5936 100.961 53.6509C101.148 53.7082 101.341 53.7368 101.539 53.7368C102.154 53.7368 102.641 53.6196 103 53.3853C103.359 53.1457 103.617 52.8254 103.773 52.4243C103.935 52.0181 104.016 51.5675 104.016 51.0728ZM108.844 47.6821V54.8071H107.398V46.354H108.805L108.844 47.6821ZM111.484 46.3071L111.477 47.6509C111.357 47.6248 111.242 47.6092 111.133 47.604C111.029 47.5936 110.909 47.5884 110.773 47.5884C110.44 47.5884 110.146 47.6405 109.891 47.7446C109.635 47.8488 109.419 47.9946 109.242 48.1821C109.065 48.3696 108.924 48.5936 108.82 48.854C108.721 49.1092 108.656 49.3905 108.625 49.6978L108.219 49.9321C108.219 49.4217 108.268 48.9425 108.367 48.4946C108.471 48.0467 108.63 47.6509 108.844 47.3071C109.057 46.9582 109.328 46.6873 109.656 46.4946C109.99 46.2967 110.385 46.1978 110.844 46.1978C110.948 46.1978 111.068 46.2108 111.203 46.2368C111.339 46.2576 111.432 46.2811 111.484 46.3071ZM118.93 53.3071L121.102 46.354H122.055L121.867 47.7368L119.656 54.8071H118.727L118.93 53.3071ZM117.469 46.354L119.32 53.3853L119.453 54.8071H118.477L116.023 46.354H117.469ZM124.133 53.3306L125.898 46.354H127.336L124.883 54.8071H123.914L124.133 53.3306ZM122.266 46.354L124.391 53.1899L124.633 54.8071H123.711L121.438 47.7212L121.25 46.354H122.266ZM132.328 54.9634C131.74 54.9634 131.206 54.8644 130.727 54.6665C130.253 54.4634 129.844 54.1795 129.5 53.8149C129.161 53.4504 128.901 53.0181 128.719 52.5181C128.536 52.0181 128.445 51.4712 128.445 50.8774V50.5493C128.445 49.8618 128.547 49.2498 128.75 48.7134C128.953 48.1717 129.229 47.7134 129.578 47.3384C129.927 46.9634 130.323 46.6795 130.766 46.4868C131.208 46.2941 131.667 46.1978 132.141 46.1978C132.745 46.1978 133.266 46.3019 133.703 46.5103C134.146 46.7186 134.508 47.0103 134.789 47.3853C135.07 47.755 135.279 48.1925 135.414 48.6978C135.549 49.1978 135.617 49.7446 135.617 50.3384V50.9868H129.305V49.8071H134.172V49.6978C134.151 49.3228 134.073 48.9582 133.938 48.604C133.807 48.2498 133.599 47.9582 133.312 47.729C133.026 47.4998 132.635 47.3853 132.141 47.3853C131.812 47.3853 131.51 47.4556 131.234 47.5962C130.958 47.7316 130.721 47.9347 130.523 48.2056C130.326 48.4764 130.172 48.8071 130.062 49.1978C129.953 49.5884 129.898 50.0389 129.898 50.5493V50.8774C129.898 51.2785 129.953 51.6561 130.062 52.0103C130.177 52.3592 130.341 52.6665 130.555 52.9321C130.773 53.1978 131.036 53.4061 131.344 53.5571C131.656 53.7082 132.01 53.7837 132.406 53.7837C132.917 53.7837 133.349 53.6795 133.703 53.4712C134.057 53.2629 134.367 52.9842 134.633 52.6353L135.508 53.3306C135.326 53.6066 135.094 53.8696 134.812 54.1196C134.531 54.3696 134.185 54.5728 133.773 54.729C133.367 54.8853 132.885 54.9634 132.328 54.9634ZM137.297 42.8071H138.75V53.1665L138.625 54.8071H137.297V42.8071ZM144.461 50.5103V50.6743C144.461 51.2889 144.388 51.8592 144.242 52.3853C144.096 52.9061 143.883 53.3592 143.602 53.7446C143.32 54.13 142.977 54.4295 142.57 54.6431C142.164 54.8566 141.698 54.9634 141.172 54.9634C140.635 54.9634 140.164 54.8722 139.758 54.6899C139.357 54.5024 139.018 54.2342 138.742 53.8853C138.466 53.5363 138.245 53.1144 138.078 52.6196C137.917 52.1248 137.805 51.5675 137.742 50.9478V50.229C137.805 49.604 137.917 49.0441 138.078 48.5493C138.245 48.0545 138.466 47.6326 138.742 47.2837C139.018 46.9295 139.357 46.6613 139.758 46.479C140.159 46.2915 140.625 46.1978 141.156 46.1978C141.688 46.1978 142.159 46.3019 142.57 46.5103C142.982 46.7134 143.326 47.005 143.602 47.3853C143.883 47.7655 144.096 48.2212 144.242 48.7524C144.388 49.2785 144.461 49.8644 144.461 50.5103ZM143.008 50.6743V50.5103C143.008 50.0884 142.969 49.6925 142.891 49.3228C142.812 48.9478 142.688 48.6196 142.516 48.3384C142.344 48.0519 142.117 47.828 141.836 47.6665C141.555 47.4998 141.208 47.4165 140.797 47.4165C140.432 47.4165 140.115 47.479 139.844 47.604C139.578 47.729 139.352 47.8983 139.164 48.1118C138.977 48.3201 138.823 48.5597 138.703 48.8306C138.589 49.0962 138.503 49.3722 138.445 49.6587V51.5415C138.529 51.9061 138.664 52.2576 138.852 52.5962C139.044 52.9295 139.299 53.203 139.617 53.4165C139.94 53.63 140.339 53.7368 140.812 53.7368C141.203 53.7368 141.536 53.6587 141.812 53.5024C142.094 53.341 142.32 53.1196 142.492 52.8384C142.669 52.5571 142.799 52.2316 142.883 51.8618C142.966 51.492 143.008 51.0962 143.008 50.6743ZM151.211 52.5649C151.211 52.3566 151.164 52.1639 151.07 51.9868C150.982 51.8045 150.797 51.6405 150.516 51.4946C150.24 51.3436 149.823 51.2134 149.266 51.104C148.797 51.005 148.372 50.8879 147.992 50.7524C147.617 50.617 147.297 50.453 147.031 50.2603C146.771 50.0675 146.57 49.841 146.43 49.5806C146.289 49.3201 146.219 49.0155 146.219 48.6665C146.219 48.3332 146.292 48.0181 146.438 47.7212C146.589 47.4243 146.799 47.1613 147.07 46.9321C147.346 46.703 147.677 46.5233 148.062 46.3931C148.448 46.2629 148.878 46.1978 149.352 46.1978C150.029 46.1978 150.607 46.3175 151.086 46.5571C151.565 46.7967 151.932 47.117 152.188 47.5181C152.443 47.9139 152.57 48.354 152.57 48.8384H151.125C151.125 48.604 151.055 48.3774 150.914 48.1587C150.779 47.9347 150.578 47.7498 150.312 47.604C150.052 47.4582 149.732 47.3853 149.352 47.3853C148.951 47.3853 148.625 47.4478 148.375 47.5728C148.13 47.6925 147.951 47.8462 147.836 48.0337C147.727 48.2212 147.672 48.4191 147.672 48.6274C147.672 48.7837 147.698 48.9243 147.75 49.0493C147.807 49.1691 147.906 49.2811 148.047 49.3853C148.188 49.4842 148.385 49.578 148.641 49.6665C148.896 49.755 149.221 49.8436 149.617 49.9321C150.31 50.0884 150.88 50.2759 151.328 50.4946C151.776 50.7134 152.109 50.9816 152.328 51.2993C152.547 51.617 152.656 52.0024 152.656 52.4556C152.656 52.8254 152.578 53.1639 152.422 53.4712C152.271 53.7785 152.049 54.0441 151.758 54.2681C151.471 54.4868 151.128 54.6587 150.727 54.7837C150.331 54.9035 149.885 54.9634 149.391 54.9634C148.646 54.9634 148.016 54.8306 147.5 54.5649C146.984 54.2993 146.594 53.9556 146.328 53.5337C146.062 53.1118 145.93 52.6665 145.93 52.1978H147.383C147.404 52.5936 147.518 52.9087 147.727 53.1431C147.935 53.3722 148.19 53.5363 148.492 53.6353C148.794 53.729 149.094 53.7759 149.391 53.7759C149.786 53.7759 150.117 53.7238 150.383 53.6196C150.654 53.5155 150.859 53.3722 151 53.1899C151.141 53.0076 151.211 52.7993 151.211 52.5649ZM156.125 46.354V54.8071H154.672V46.354H156.125ZM154.562 44.1118C154.562 43.8774 154.633 43.6795 154.773 43.5181C154.919 43.3566 155.133 43.2759 155.414 43.2759C155.69 43.2759 155.901 43.3566 156.047 43.5181C156.198 43.6795 156.273 43.8774 156.273 44.1118C156.273 44.3358 156.198 44.5285 156.047 44.6899C155.901 44.8462 155.69 44.9243 155.414 44.9243C155.133 44.9243 154.919 44.8462 154.773 44.6899C154.633 44.5285 154.562 44.3358 154.562 44.1118ZM161.984 46.354V47.4634H157.414V46.354H161.984ZM158.961 44.2993H160.406V52.7134C160.406 52.9998 160.451 53.216 160.539 53.3618C160.628 53.5076 160.742 53.604 160.883 53.6509C161.023 53.6978 161.174 53.7212 161.336 53.7212C161.456 53.7212 161.581 53.7108 161.711 53.6899C161.846 53.6639 161.948 53.6431 162.016 53.6274L162.023 54.8071C161.909 54.8436 161.758 54.8774 161.57 54.9087C161.388 54.9451 161.167 54.9634 160.906 54.9634C160.552 54.9634 160.227 54.8931 159.93 54.7524C159.633 54.6118 159.396 54.3774 159.219 54.0493C159.047 53.716 158.961 53.2681 158.961 52.7056V44.2993ZM167.188 54.9634C166.599 54.9634 166.065 54.8644 165.586 54.6665C165.112 54.4634 164.703 54.1795 164.359 53.8149C164.021 53.4504 163.76 53.0181 163.578 52.5181C163.396 52.0181 163.305 51.4712 163.305 50.8774V50.5493C163.305 49.8618 163.406 49.2498 163.609 48.7134C163.812 48.1717 164.089 47.7134 164.438 47.3384C164.786 46.9634 165.182 46.6795 165.625 46.4868C166.068 46.2941 166.526 46.1978 167 46.1978C167.604 46.1978 168.125 46.3019 168.562 46.5103C169.005 46.7186 169.367 47.0103 169.648 47.3853C169.93 47.755 170.138 48.1925 170.273 48.6978C170.409 49.1978 170.477 49.7446 170.477 50.3384V50.9868H164.164V49.8071H169.031V49.6978C169.01 49.3228 168.932 48.9582 168.797 48.604C168.667 48.2498 168.458 47.9582 168.172 47.729C167.885 47.4998 167.495 47.3853 167 47.3853C166.672 47.3853 166.37 47.4556 166.094 47.5962C165.818 47.7316 165.581 47.9347 165.383 48.2056C165.185 48.4764 165.031 48.8071 164.922 49.1978C164.812 49.5884 164.758 50.0389 164.758 50.5493V50.8774C164.758 51.2785 164.812 51.6561 164.922 52.0103C165.036 52.3592 165.201 52.6665 165.414 52.9321C165.633 53.1978 165.896 53.4061 166.203 53.5571C166.516 53.7082 166.87 53.7837 167.266 53.7837C167.776 53.7837 168.208 53.6795 168.562 53.4712C168.917 53.2629 169.227 52.9842 169.492 52.6353L170.367 53.3306C170.185 53.6066 169.953 53.8696 169.672 54.1196C169.391 54.3696 169.044 54.5728 168.633 54.729C168.227 54.8853 167.745 54.9634 167.188 54.9634ZM177.703 46.354V54.8071H176.25V46.354H177.703ZM176.141 44.1118C176.141 43.8774 176.211 43.6795 176.352 43.5181C176.497 43.3566 176.711 43.2759 176.992 43.2759C177.268 43.2759 177.479 43.3566 177.625 43.5181C177.776 43.6795 177.852 43.8774 177.852 44.1118C177.852 44.3358 177.776 44.5285 177.625 44.6899C177.479 44.8462 177.268 44.9243 176.992 44.9243C176.711 44.9243 176.497 44.8462 176.352 44.6899C176.211 44.5285 176.141 44.3358 176.141 44.1118ZM184.945 52.5649C184.945 52.3566 184.898 52.1639 184.805 51.9868C184.716 51.8045 184.531 51.6405 184.25 51.4946C183.974 51.3436 183.557 51.2134 183 51.104C182.531 51.005 182.107 50.8879 181.727 50.7524C181.352 50.617 181.031 50.453 180.766 50.2603C180.505 50.0675 180.305 49.841 180.164 49.5806C180.023 49.3201 179.953 49.0155 179.953 48.6665C179.953 48.3332 180.026 48.0181 180.172 47.7212C180.323 47.4243 180.534 47.1613 180.805 46.9321C181.081 46.703 181.411 46.5233 181.797 46.3931C182.182 46.2629 182.612 46.1978 183.086 46.1978C183.763 46.1978 184.341 46.3175 184.82 46.5571C185.299 46.7967 185.667 47.117 185.922 47.5181C186.177 47.9139 186.305 48.354 186.305 48.8384H184.859C184.859 48.604 184.789 48.3774 184.648 48.1587C184.513 47.9347 184.312 47.7498 184.047 47.604C183.786 47.4582 183.466 47.3853 183.086 47.3853C182.685 47.3853 182.359 47.4478 182.109 47.5728C181.865 47.6925 181.685 47.8462 181.57 48.0337C181.461 48.2212 181.406 48.4191 181.406 48.6274C181.406 48.7837 181.432 48.9243 181.484 49.0493C181.542 49.1691 181.641 49.2811 181.781 49.3853C181.922 49.4842 182.12 49.578 182.375 49.6665C182.63 49.755 182.956 49.8436 183.352 49.9321C184.044 50.0884 184.615 50.2759 185.062 50.4946C185.51 50.7134 185.844 50.9816 186.062 51.2993C186.281 51.617 186.391 52.0024 186.391 52.4556C186.391 52.8254 186.312 53.1639 186.156 53.4712C186.005 53.7785 185.784 54.0441 185.492 54.2681C185.206 54.4868 184.862 54.6587 184.461 54.7837C184.065 54.9035 183.62 54.9634 183.125 54.9634C182.38 54.9634 181.75 54.8306 181.234 54.5649C180.719 54.2993 180.328 53.9556 180.062 53.5337C179.797 53.1118 179.664 52.6665 179.664 52.1978H181.117C181.138 52.5936 181.253 52.9087 181.461 53.1431C181.669 53.3722 181.924 53.5363 182.227 53.6353C182.529 53.729 182.828 53.7759 183.125 53.7759C183.521 53.7759 183.852 53.7238 184.117 53.6196C184.388 53.5155 184.594 53.3722 184.734 53.1899C184.875 53.0076 184.945 52.7993 184.945 52.5649ZM193.828 42.8071V54.8071H192.375V42.8071H193.828ZM197.719 46.354V54.8071H196.266V46.354H197.719ZM196.156 44.1118C196.156 43.8774 196.227 43.6795 196.367 43.5181C196.513 43.3566 196.727 43.2759 197.008 43.2759C197.284 43.2759 197.495 43.3566 197.641 43.5181C197.792 43.6795 197.867 43.8774 197.867 44.1118C197.867 44.3358 197.792 44.5285 197.641 44.6899C197.495 44.8462 197.284 44.9243 197.008 44.9243C196.727 44.9243 196.513 44.8462 196.367 44.6899C196.227 44.5285 196.156 44.3358 196.156 44.1118ZM202.609 53.5024L204.922 46.354H206.398L203.359 54.8071H202.391L202.609 53.5024ZM200.68 46.354L203.062 53.5415L203.227 54.8071H202.258L199.195 46.354H200.68ZM211.188 54.9634C210.599 54.9634 210.065 54.8644 209.586 54.6665C209.112 54.4634 208.703 54.1795 208.359 53.8149C208.021 53.4504 207.76 53.0181 207.578 52.5181C207.396 52.0181 207.305 51.4712 207.305 50.8774V50.5493C207.305 49.8618 207.406 49.2498 207.609 48.7134C207.812 48.1717 208.089 47.7134 208.438 47.3384C208.786 46.9634 209.182 46.6795 209.625 46.4868C210.068 46.2941 210.526 46.1978 211 46.1978C211.604 46.1978 212.125 46.3019 212.562 46.5103C213.005 46.7186 213.367 47.0103 213.648 47.3853C213.93 47.755 214.138 48.1925 214.273 48.6978C214.409 49.1978 214.477 49.7446 214.477 50.3384V50.9868H208.164V49.8071H213.031V49.6978C213.01 49.3228 212.932 48.9582 212.797 48.604C212.667 48.2498 212.458 47.9582 212.172 47.729C211.885 47.4998 211.495 47.3853 211 47.3853C210.672 47.3853 210.37 47.4556 210.094 47.5962C209.818 47.7316 209.581 47.9347 209.383 48.2056C209.185 48.4764 209.031 48.8071 208.922 49.1978C208.812 49.5884 208.758 50.0389 208.758 50.5493V50.8774C208.758 51.2785 208.812 51.6561 208.922 52.0103C209.036 52.3592 209.201 52.6665 209.414 52.9321C209.633 53.1978 209.896 53.4061 210.203 53.5571C210.516 53.7082 210.87 53.7837 211.266 53.7837C211.776 53.7837 212.208 53.6795 212.562 53.4712C212.917 53.2629 213.227 52.9842 213.492 52.6353L214.367 53.3306C214.185 53.6066 213.953 53.8696 213.672 54.1196C213.391 54.3696 213.044 54.5728 212.633 54.729C212.227 54.8853 211.745 54.9634 211.188 54.9634ZM219.891 47.1431C219.891 46.8983 219.966 46.6925 220.117 46.5259C220.273 46.354 220.497 46.2681 220.789 46.2681C221.081 46.2681 221.302 46.354 221.453 46.5259C221.609 46.6925 221.688 46.8983 221.688 47.1431C221.688 47.3826 221.609 47.5858 221.453 47.7524C221.302 47.9191 221.081 48.0024 220.789 48.0024C220.497 48.0024 220.273 47.9191 220.117 47.7524C219.966 47.5858 219.891 47.3826 219.891 47.1431ZM221.539 53.0884V54.2524C221.539 54.7264 221.419 55.2264 221.18 55.7524C220.94 56.2837 220.604 56.7264 220.172 57.0806L219.352 56.5103C219.518 56.2811 219.659 56.0467 219.773 55.8071C219.888 55.5728 219.974 55.328 220.031 55.0728C220.094 54.8228 220.125 54.5571 220.125 54.2759V53.0884H221.539ZM226.852 50.1821V50.2603C226.852 51.4009 226.724 52.4321 226.469 53.354C226.214 54.2759 225.888 55.0806 225.492 55.7681C225.096 56.4608 224.68 57.0337 224.242 57.4868C223.805 57.9451 223.401 58.2759 223.031 58.479L222.727 57.604C223.034 57.3696 223.344 57.0415 223.656 56.6196C223.969 56.203 224.258 55.6873 224.523 55.0728C224.789 54.4634 225.003 53.7603 225.164 52.9634C225.326 52.1613 225.406 51.2655 225.406 50.2759V50.1665C225.406 49.1769 225.32 48.2837 225.148 47.4868C224.977 46.6847 224.753 45.979 224.477 45.3696C224.206 44.7603 223.914 44.2472 223.602 43.8306C223.294 43.4087 223.003 43.0832 222.727 42.854L223.031 41.9712C223.401 42.1743 223.805 42.505 224.242 42.9634C224.68 43.4165 225.096 43.9894 225.492 44.6821C225.888 45.3748 226.214 46.1821 226.469 47.104C226.724 48.0207 226.852 49.0467 226.852 50.1821Z" fill="black"/>
</g>
<defs>
<filter id="filter0_d_494_798" x="0.75" y="0.807129" width="264" height="103" filterUnits="userSpaceOnUse" color-interpolation-filters="sRGB">
<feFlood flood-opacity="0" result="BackgroundImageFix"/>
<feColorMatrix in="SourceAlpha" type="matrix" values="0 0 0 0 0 0 0 0 0 0 0 0 0 0 0 0 0 0 127 0" result="hardAlpha"/>
<feOffset dy="3"/>
<feGaussianBlur stdDeviation="11.25"/>
<feComposite in2="hardAlpha" operator="out"/>
<feColorMatrix type="matrix" values="0 0 0 0 1 0 0 0 0 0.563846 0 0 0 0 0.515385 0 0 0 0.5 0"/>
<feBlend mode="normal" in2="BackgroundImageFix" result="effect1_dropShadow_494_798"/>
<feBlend mode="normal" in="SourceGraphic" in2="effect1_dropShadow_494_798" result="shape"/>
</filter>
</defs>
</svg>
