<svg width="329" height="104" viewBox="0 0 329 104" fill="none" xmlns="http://www.w3.org/2000/svg">
<g filter="url(#filter0_d_494_803)">
<rect x="23.25" y="20.3071" width="283" height="58" rx="8" fill="#FF9083" fill-opacity="0.5" shape-rendering="crispEdges"/>
<rect x="23.75" y="20.8071" width="282" height="57" rx="7.5" stroke="#E94649" stroke-opacity="0.5" shape-rendering="crispEdges"/>
<rect x="29.25" y="26.3071" width="271" height="46" rx="4" fill="white" fill-opacity="0.9"/>
<path fill-rule="evenodd" clip-rule="evenodd" d="M51.9375 62.4321C44.5162 62.4321 38.5 56.416 38.5 48.9946C38.5 41.5733 44.5162 35.5571 51.9375 35.5571C59.3589 35.5571 65.375 41.5733 65.375 48.9946C65.375 56.416 59.3589 62.4321 51.9375 62.4321ZM57.4876 46.3675C58.1076 46.0638 58.364 45.3151 58.0604 44.6951C57.7566 44.0751 57.0079 43.8187 56.3879 44.1223C53.9431 45.3198 52.0503 47.3745 50.7965 49.0494C50.362 49.6298 49.9953 50.1768 49.7003 50.6459C49.3514 50.3436 49.0073 50.0933 48.704 49.8933C48.357 49.6645 48.0492 49.4923 47.8245 49.3756C47.7119 49.3171 47.6192 49.272 47.5519 49.2404C47.5182 49.2246 47.4908 49.2121 47.4703 49.2029L47.4448 49.1916L47.4361 49.1879L47.4328 49.1864L47.4302 49.1853C47.4299 49.1851 47.4301 49.1853 46.9377 50.3343L47.4302 49.1853C46.7956 48.9134 46.0608 49.2073 45.7888 49.8418C45.5174 50.4751 45.8101 51.2085 46.4421 51.4818L46.4434 51.4823L46.4479 51.4843C46.4554 51.4876 46.4693 51.494 46.4891 51.5033C46.5288 51.5219 46.5914 51.5523 46.6721 51.5941C46.8341 51.6784 47.0653 51.8074 47.3278 51.9805C47.8638 52.3339 48.4744 52.8343 48.9137 53.4618C49.1674 53.8241 49.5936 54.0254 50.0346 53.9911C50.4754 53.9569 50.8655 53.6919 51.0602 53.2949L51.0635 53.2885L51.0816 53.2525C51.0987 53.219 51.1256 53.167 51.1621 53.0986C51.2352 52.9615 51.3465 52.7589 51.4943 52.5071C51.7904 52.0026 52.2297 51.3064 52.7977 50.5476C53.9502 49.0083 55.5574 47.3129 57.4876 46.3675Z" fill="#3ED243"/>
<path d="M87.4375 51.1899H88.9375C88.8594 51.9087 88.6536 52.5519 88.3203 53.1196C87.987 53.6873 87.5156 54.1379 86.9062 54.4712C86.2969 54.7993 85.5365 54.9634 84.625 54.9634C83.9583 54.9634 83.3516 54.8384 82.8047 54.5884C82.263 54.3384 81.7969 53.9842 81.4062 53.5259C81.0156 53.0623 80.7135 52.5076 80.5 51.8618C80.2917 51.2108 80.1875 50.4868 80.1875 49.6899V48.5571C80.1875 47.7603 80.2917 47.0389 80.5 46.3931C80.7135 45.742 81.0182 45.1847 81.4141 44.7212C81.8151 44.2576 82.2969 43.9009 82.8594 43.6509C83.4219 43.4009 84.0547 43.2759 84.7578 43.2759C85.6172 43.2759 86.3438 43.4373 86.9375 43.7603C87.5312 44.0832 87.9922 44.5311 88.3203 45.104C88.6536 45.6717 88.8594 46.3306 88.9375 47.0806H87.4375C87.3646 46.5493 87.2292 46.0936 87.0312 45.7134C86.8333 45.328 86.5521 45.0311 86.1875 44.8228C85.8229 44.6144 85.3464 44.5103 84.7578 44.5103C84.2526 44.5103 83.8073 44.6066 83.4219 44.7993C83.0417 44.992 82.7214 45.2655 82.4609 45.6196C82.2057 45.9738 82.013 46.3983 81.8828 46.8931C81.7526 47.3879 81.6875 47.9373 81.6875 48.5415V49.6899C81.6875 50.2472 81.7448 50.7707 81.8594 51.2603C81.9792 51.7498 82.1589 52.1795 82.3984 52.5493C82.638 52.9191 82.9427 53.2108 83.3125 53.4243C83.6823 53.6326 84.1198 53.7368 84.625 53.7368C85.2656 53.7368 85.776 53.6353 86.1562 53.4321C86.5365 53.229 86.8229 52.9373 87.0156 52.5571C87.2135 52.1769 87.3542 51.7212 87.4375 51.1899ZM90.3906 50.6743V50.4946C90.3906 49.8853 90.4792 49.3201 90.6562 48.7993C90.8333 48.2733 91.0885 47.8175 91.4219 47.4321C91.7552 47.0415 92.1589 46.7394 92.6328 46.5259C93.1068 46.3071 93.638 46.1978 94.2266 46.1978C94.8203 46.1978 95.3542 46.3071 95.8281 46.5259C96.3073 46.7394 96.7135 47.0415 97.0469 47.4321C97.3854 47.8175 97.6432 48.2733 97.8203 48.7993C97.9974 49.3201 98.0859 49.8853 98.0859 50.4946V50.6743C98.0859 51.2837 97.9974 51.8488 97.8203 52.3696C97.6432 52.8905 97.3854 53.3462 97.0469 53.7368C96.7135 54.1222 96.3099 54.4243 95.8359 54.6431C95.3672 54.8566 94.8359 54.9634 94.2422 54.9634C93.6484 54.9634 93.1146 54.8566 92.6406 54.6431C92.1667 54.4243 91.7604 54.1222 91.4219 53.7368C91.0885 53.3462 90.8333 52.8905 90.6562 52.3696C90.4792 51.8488 90.3906 51.2837 90.3906 50.6743ZM91.8359 50.4946V50.6743C91.8359 51.0962 91.8854 51.4946 91.9844 51.8696C92.0833 52.2394 92.2318 52.5675 92.4297 52.854C92.6328 53.1405 92.8854 53.367 93.1875 53.5337C93.4896 53.6951 93.8411 53.7759 94.2422 53.7759C94.638 53.7759 94.9844 53.6951 95.2812 53.5337C95.5833 53.367 95.8333 53.1405 96.0312 52.854C96.2292 52.5675 96.3776 52.2394 96.4766 51.8696C96.5807 51.4946 96.6328 51.0962 96.6328 50.6743V50.4946C96.6328 50.078 96.5807 49.6847 96.4766 49.3149C96.3776 48.9399 96.2266 48.6092 96.0234 48.3228C95.8255 48.0311 95.5755 47.8019 95.2734 47.6353C94.9766 47.4686 94.6276 47.3853 94.2266 47.3853C93.8307 47.3853 93.4818 47.4686 93.1797 47.6353C92.8828 47.8019 92.6328 48.0311 92.4297 48.3228C92.2318 48.6092 92.0833 48.9399 91.9844 49.3149C91.8854 49.6847 91.8359 50.078 91.8359 50.4946ZM105.227 53.1665V42.8071H106.68V54.8071H105.352L105.227 53.1665ZM99.5391 50.6743V50.5103C99.5391 49.8644 99.6172 49.2785 99.7734 48.7524C99.9349 48.2212 100.161 47.7655 100.453 47.3853C100.75 47.005 101.102 46.7134 101.508 46.5103C101.919 46.3019 102.378 46.1978 102.883 46.1978C103.414 46.1978 103.878 46.2915 104.273 46.479C104.674 46.6613 105.013 46.9295 105.289 47.2837C105.57 47.6326 105.792 48.0545 105.953 48.5493C106.115 49.0441 106.227 49.604 106.289 50.229V50.9478C106.232 51.5675 106.12 52.1248 105.953 52.6196C105.792 53.1144 105.57 53.5363 105.289 53.8853C105.013 54.2342 104.674 54.5024 104.273 54.6899C103.872 54.8722 103.404 54.9634 102.867 54.9634C102.372 54.9634 101.919 54.8566 101.508 54.6431C101.102 54.4295 100.75 54.13 100.453 53.7446C100.161 53.3592 99.9349 52.9061 99.7734 52.3853C99.6172 51.8592 99.5391 51.2889 99.5391 50.6743ZM100.992 50.5103V50.6743C100.992 51.0962 101.034 51.492 101.117 51.8618C101.206 52.2316 101.341 52.5571 101.523 52.8384C101.706 53.1196 101.938 53.341 102.219 53.5024C102.5 53.6587 102.836 53.7368 103.227 53.7368C103.706 53.7368 104.099 53.6353 104.406 53.4321C104.719 53.229 104.969 52.9608 105.156 52.6274C105.344 52.2941 105.49 51.9321 105.594 51.5415V49.6587C105.531 49.3722 105.44 49.0962 105.32 48.8306C105.206 48.5597 105.055 48.3201 104.867 48.1118C104.685 47.8983 104.458 47.729 104.188 47.604C103.922 47.479 103.607 47.4165 103.242 47.4165C102.846 47.4165 102.505 47.4998 102.219 47.6665C101.938 47.828 101.706 48.0519 101.523 48.3384C101.341 48.6196 101.206 48.9478 101.117 49.3228C101.034 49.6925 100.992 50.0884 100.992 50.5103ZM112.438 54.9634C111.849 54.9634 111.315 54.8644 110.836 54.6665C110.362 54.4634 109.953 54.1795 109.609 53.8149C109.271 53.4504 109.01 53.0181 108.828 52.5181C108.646 52.0181 108.555 51.4712 108.555 50.8774V50.5493C108.555 49.8618 108.656 49.2498 108.859 48.7134C109.062 48.1717 109.339 47.7134 109.688 47.3384C110.036 46.9634 110.432 46.6795 110.875 46.4868C111.318 46.2941 111.776 46.1978 112.25 46.1978C112.854 46.1978 113.375 46.3019 113.812 46.5103C114.255 46.7186 114.617 47.0103 114.898 47.3853C115.18 47.755 115.388 48.1925 115.523 48.6978C115.659 49.1978 115.727 49.7446 115.727 50.3384V50.9868H109.414V49.8071H114.281V49.6978C114.26 49.3228 114.182 48.9582 114.047 48.604C113.917 48.2498 113.708 47.9582 113.422 47.729C113.135 47.4998 112.745 47.3853 112.25 47.3853C111.922 47.3853 111.62 47.4556 111.344 47.5962C111.068 47.7316 110.831 47.9347 110.633 48.2056C110.435 48.4764 110.281 48.8071 110.172 49.1978C110.062 49.5884 110.008 50.0389 110.008 50.5493V50.8774C110.008 51.2785 110.062 51.6561 110.172 52.0103C110.286 52.3592 110.451 52.6665 110.664 52.9321C110.883 53.1978 111.146 53.4061 111.453 53.5571C111.766 53.7082 112.12 53.7837 112.516 53.7837C113.026 53.7837 113.458 53.6795 113.812 53.4712C114.167 53.2629 114.477 52.9842 114.742 52.6353L115.617 53.3306C115.435 53.6066 115.203 53.8696 114.922 54.1196C114.641 54.3696 114.294 54.5728 113.883 54.729C113.477 54.8853 112.995 54.9634 112.438 54.9634ZM124.766 53.7759C125.109 53.7759 125.427 53.7056 125.719 53.5649C126.01 53.4243 126.25 53.2316 126.438 52.9868C126.625 52.7368 126.732 52.453 126.758 52.1353H128.133C128.107 52.6353 127.938 53.1014 127.625 53.5337C127.318 53.9608 126.914 54.3071 126.414 54.5728C125.914 54.8332 125.365 54.9634 124.766 54.9634C124.13 54.9634 123.576 54.8514 123.102 54.6274C122.633 54.4035 122.242 54.0962 121.93 53.7056C121.622 53.3149 121.391 52.867 121.234 52.3618C121.083 51.8514 121.008 51.3123 121.008 50.7446V50.4165C121.008 49.8488 121.083 49.3123 121.234 48.8071C121.391 48.2967 121.622 47.8462 121.93 47.4556C122.242 47.0649 122.633 46.7576 123.102 46.5337C123.576 46.3097 124.13 46.1978 124.766 46.1978C125.427 46.1978 126.005 46.3332 126.5 46.604C126.995 46.8696 127.383 47.2342 127.664 47.6978C127.951 48.1561 128.107 48.6769 128.133 49.2603H126.758C126.732 48.9113 126.633 48.5962 126.461 48.3149C126.294 48.0337 126.065 47.8097 125.773 47.6431C125.487 47.4712 125.151 47.3853 124.766 47.3853C124.323 47.3853 123.951 47.4738 123.648 47.6509C123.352 47.8228 123.115 48.0571 122.938 48.354C122.766 48.6457 122.641 48.9712 122.562 49.3306C122.49 49.6847 122.453 50.0467 122.453 50.4165V50.7446C122.453 51.1144 122.49 51.479 122.562 51.8384C122.635 52.1978 122.758 52.5233 122.93 52.8149C123.107 53.1066 123.344 53.341 123.641 53.5181C123.943 53.6899 124.318 53.7759 124.766 53.7759ZM129.375 50.6743V50.4946C129.375 49.8853 129.464 49.3201 129.641 48.7993C129.818 48.2733 130.073 47.8175 130.406 47.4321C130.74 47.0415 131.143 46.7394 131.617 46.5259C132.091 46.3071 132.622 46.1978 133.211 46.1978C133.805 46.1978 134.339 46.3071 134.812 46.5259C135.292 46.7394 135.698 47.0415 136.031 47.4321C136.37 47.8175 136.628 48.2733 136.805 48.7993C136.982 49.3201 137.07 49.8853 137.07 50.4946V50.6743C137.07 51.2837 136.982 51.8488 136.805 52.3696C136.628 52.8905 136.37 53.3462 136.031 53.7368C135.698 54.1222 135.294 54.4243 134.82 54.6431C134.352 54.8566 133.82 54.9634 133.227 54.9634C132.633 54.9634 132.099 54.8566 131.625 54.6431C131.151 54.4243 130.745 54.1222 130.406 53.7368C130.073 53.3462 129.818 52.8905 129.641 52.3696C129.464 51.8488 129.375 51.2837 129.375 50.6743ZM130.82 50.4946V50.6743C130.82 51.0962 130.87 51.4946 130.969 51.8696C131.068 52.2394 131.216 52.5675 131.414 52.854C131.617 53.1405 131.87 53.367 132.172 53.5337C132.474 53.6951 132.826 53.7759 133.227 53.7759C133.622 53.7759 133.969 53.6951 134.266 53.5337C134.568 53.367 134.818 53.1405 135.016 52.854C135.214 52.5675 135.362 52.2394 135.461 51.8696C135.565 51.4946 135.617 51.0962 135.617 50.6743V50.4946C135.617 50.078 135.565 49.6847 135.461 49.3149C135.362 48.9399 135.211 48.6092 135.008 48.3228C134.81 48.0311 134.56 47.8019 134.258 47.6353C133.961 47.4686 133.612 47.3853 133.211 47.3853C132.815 47.3853 132.466 47.4686 132.164 47.6353C131.867 47.8019 131.617 48.0311 131.414 48.3228C131.216 48.6092 131.068 48.9399 130.969 49.3149C130.87 49.6847 130.82 50.078 130.82 50.4946ZM140.32 48.0337V54.8071H138.867V46.354H140.242L140.32 48.0337ZM140.023 50.2603L139.352 50.2368C139.357 49.6587 139.432 49.1248 139.578 48.6353C139.724 48.1405 139.94 47.7108 140.227 47.3462C140.513 46.9816 140.87 46.7004 141.297 46.5024C141.724 46.2993 142.219 46.1978 142.781 46.1978C143.177 46.1978 143.542 46.255 143.875 46.3696C144.208 46.479 144.497 46.6535 144.742 46.8931C144.987 47.1326 145.177 47.4399 145.312 47.8149C145.448 48.1899 145.516 48.6431 145.516 49.1743V54.8071H144.07V49.2446C144.07 48.8019 143.995 48.4478 143.844 48.1821C143.698 47.9165 143.49 47.7238 143.219 47.604C142.948 47.479 142.63 47.4165 142.266 47.4165C141.839 47.4165 141.482 47.492 141.195 47.6431C140.909 47.7941 140.68 48.0024 140.508 48.2681C140.336 48.5337 140.211 48.8384 140.133 49.1821C140.06 49.5207 140.023 49.88 140.023 50.2603ZM145.5 49.4634L144.531 49.7603C144.536 49.2967 144.612 48.8514 144.758 48.4243C144.909 47.9972 145.125 47.617 145.406 47.2837C145.693 46.9504 146.044 46.6873 146.461 46.4946C146.878 46.2967 147.354 46.1978 147.891 46.1978C148.344 46.1978 148.745 46.2576 149.094 46.3774C149.448 46.4972 149.745 46.6821 149.984 46.9321C150.229 47.1769 150.414 47.492 150.539 47.8774C150.664 48.2629 150.727 48.7212 150.727 49.2524V54.8071H149.273V49.2368C149.273 48.7629 149.198 48.3957 149.047 48.1353C148.901 47.8696 148.693 47.6847 148.422 47.5806C148.156 47.4712 147.839 47.4165 147.469 47.4165C147.151 47.4165 146.87 47.4712 146.625 47.5806C146.38 47.6899 146.174 47.841 146.008 48.0337C145.841 48.2212 145.714 48.4373 145.625 48.6821C145.542 48.9269 145.5 49.1873 145.5 49.4634ZM154.359 47.979V58.0571H152.906V46.354H154.234L154.359 47.979ZM160.055 50.5103V50.6743C160.055 51.2889 159.982 51.8592 159.836 52.3853C159.69 52.9061 159.477 53.3592 159.195 53.7446C158.919 54.13 158.578 54.4295 158.172 54.6431C157.766 54.8566 157.299 54.9634 156.773 54.9634C156.237 54.9634 155.763 54.8748 155.352 54.6978C154.94 54.5207 154.591 54.2629 154.305 53.9243C154.018 53.5858 153.789 53.1795 153.617 52.7056C153.451 52.2316 153.336 51.6978 153.273 51.104V50.229C153.336 49.604 153.453 49.0441 153.625 48.5493C153.797 48.0545 154.023 47.6326 154.305 47.2837C154.591 46.9295 154.938 46.6613 155.344 46.479C155.75 46.2915 156.219 46.1978 156.75 46.1978C157.281 46.1978 157.753 46.3019 158.164 46.5103C158.576 46.7134 158.922 47.005 159.203 47.3853C159.484 47.7655 159.695 48.2212 159.836 48.7524C159.982 49.2785 160.055 49.8644 160.055 50.5103ZM158.602 50.6743V50.5103C158.602 50.0884 158.557 49.6925 158.469 49.3228C158.38 48.9478 158.242 48.6196 158.055 48.3384C157.872 48.0519 157.638 47.828 157.352 47.6665C157.065 47.4998 156.724 47.4165 156.328 47.4165C155.964 47.4165 155.646 47.479 155.375 47.604C155.109 47.729 154.883 47.8983 154.695 48.1118C154.508 48.3201 154.354 48.5597 154.234 48.8306C154.12 49.0962 154.034 49.3722 153.977 49.6587V51.6821C154.081 52.0467 154.227 52.3905 154.414 52.7134C154.602 53.0311 154.852 53.2889 155.164 53.4868C155.477 53.6795 155.87 53.7759 156.344 53.7759C156.734 53.7759 157.07 53.6951 157.352 53.5337C157.638 53.367 157.872 53.1405 158.055 52.854C158.242 52.5675 158.38 52.2394 158.469 51.8696C158.557 51.4946 158.602 51.0962 158.602 50.6743ZM163.469 46.354V54.8071H162.016V46.354H163.469ZM161.906 44.1118C161.906 43.8774 161.977 43.6795 162.117 43.5181C162.263 43.3566 162.477 43.2759 162.758 43.2759C163.034 43.2759 163.245 43.3566 163.391 43.5181C163.542 43.6795 163.617 43.8774 163.617 44.1118C163.617 44.3358 163.542 44.5285 163.391 44.6899C163.245 44.8462 163.034 44.9243 162.758 44.9243C162.477 44.9243 162.263 44.8462 162.117 44.6899C161.977 44.5285 161.906 44.3358 161.906 44.1118ZM167.359 42.8071V54.8071H165.906V42.8071H167.359ZM173.188 54.9634C172.599 54.9634 172.065 54.8644 171.586 54.6665C171.112 54.4634 170.703 54.1795 170.359 53.8149C170.021 53.4504 169.76 53.0181 169.578 52.5181C169.396 52.0181 169.305 51.4712 169.305 50.8774V50.5493C169.305 49.8618 169.406 49.2498 169.609 48.7134C169.812 48.1717 170.089 47.7134 170.438 47.3384C170.786 46.9634 171.182 46.6795 171.625 46.4868C172.068 46.2941 172.526 46.1978 173 46.1978C173.604 46.1978 174.125 46.3019 174.562 46.5103C175.005 46.7186 175.367 47.0103 175.648 47.3853C175.93 47.755 176.138 48.1925 176.273 48.6978C176.409 49.1978 176.477 49.7446 176.477 50.3384V50.9868H170.164V49.8071H175.031V49.6978C175.01 49.3228 174.932 48.9582 174.797 48.604C174.667 48.2498 174.458 47.9582 174.172 47.729C173.885 47.4998 173.495 47.3853 173 47.3853C172.672 47.3853 172.37 47.4556 172.094 47.5962C171.818 47.7316 171.581 47.9347 171.383 48.2056C171.185 48.4764 171.031 48.8071 170.922 49.1978C170.812 49.5884 170.758 50.0389 170.758 50.5493V50.8774C170.758 51.2785 170.812 51.6561 170.922 52.0103C171.036 52.3592 171.201 52.6665 171.414 52.9321C171.633 53.1978 171.896 53.4061 172.203 53.5571C172.516 53.7082 172.87 53.7837 173.266 53.7837C173.776 53.7837 174.208 53.6795 174.562 53.4712C174.917 53.2629 175.227 52.9842 175.492 52.6353L176.367 53.3306C176.185 53.6066 175.953 53.8696 175.672 54.1196C175.391 54.3696 175.044 54.5728 174.633 54.729C174.227 54.8853 173.745 54.9634 173.188 54.9634ZM183.492 53.1665V42.8071H184.945V54.8071H183.617L183.492 53.1665ZM177.805 50.6743V50.5103C177.805 49.8644 177.883 49.2785 178.039 48.7524C178.201 48.2212 178.427 47.7655 178.719 47.3853C179.016 47.005 179.367 46.7134 179.773 46.5103C180.185 46.3019 180.643 46.1978 181.148 46.1978C181.68 46.1978 182.143 46.2915 182.539 46.479C182.94 46.6613 183.279 46.9295 183.555 47.2837C183.836 47.6326 184.057 48.0545 184.219 48.5493C184.38 49.0441 184.492 49.604 184.555 50.229V50.9478C184.497 51.5675 184.385 52.1248 184.219 52.6196C184.057 53.1144 183.836 53.5363 183.555 53.8853C183.279 54.2342 182.94 54.5024 182.539 54.6899C182.138 54.8722 181.669 54.9634 181.133 54.9634C180.638 54.9634 180.185 54.8566 179.773 54.6431C179.367 54.4295 179.016 54.13 178.719 53.7446C178.427 53.3592 178.201 52.9061 178.039 52.3853C177.883 51.8592 177.805 51.2889 177.805 50.6743ZM179.258 50.5103V50.6743C179.258 51.0962 179.299 51.492 179.383 51.8618C179.471 52.2316 179.607 52.5571 179.789 52.8384C179.971 53.1196 180.203 53.341 180.484 53.5024C180.766 53.6587 181.102 53.7368 181.492 53.7368C181.971 53.7368 182.365 53.6353 182.672 53.4321C182.984 53.229 183.234 52.9608 183.422 52.6274C183.609 52.2941 183.755 51.9321 183.859 51.5415V49.6587C183.797 49.3722 183.706 49.0962 183.586 48.8306C183.471 48.5597 183.32 48.3201 183.133 48.1118C182.951 47.8983 182.724 47.729 182.453 47.604C182.188 47.479 181.872 47.4165 181.508 47.4165C181.112 47.4165 180.771 47.4998 180.484 47.6665C180.203 47.828 179.971 48.0519 179.789 48.3384C179.607 48.6196 179.471 48.9478 179.383 49.3228C179.299 49.6925 179.258 50.0884 179.258 50.5103ZM196.086 52.5649C196.086 52.3566 196.039 52.1639 195.945 51.9868C195.857 51.8045 195.672 51.6405 195.391 51.4946C195.115 51.3436 194.698 51.2134 194.141 51.104C193.672 51.005 193.247 50.8879 192.867 50.7524C192.492 50.617 192.172 50.453 191.906 50.2603C191.646 50.0675 191.445 49.841 191.305 49.5806C191.164 49.3201 191.094 49.0155 191.094 48.6665C191.094 48.3332 191.167 48.0181 191.312 47.7212C191.464 47.4243 191.674 47.1613 191.945 46.9321C192.221 46.703 192.552 46.5233 192.938 46.3931C193.323 46.2629 193.753 46.1978 194.227 46.1978C194.904 46.1978 195.482 46.3175 195.961 46.5571C196.44 46.7967 196.807 47.117 197.062 47.5181C197.318 47.9139 197.445 48.354 197.445 48.8384H196C196 48.604 195.93 48.3774 195.789 48.1587C195.654 47.9347 195.453 47.7498 195.188 47.604C194.927 47.4582 194.607 47.3853 194.227 47.3853C193.826 47.3853 193.5 47.4478 193.25 47.5728C193.005 47.6925 192.826 47.8462 192.711 48.0337C192.602 48.2212 192.547 48.4191 192.547 48.6274C192.547 48.7837 192.573 48.9243 192.625 49.0493C192.682 49.1691 192.781 49.2811 192.922 49.3853C193.062 49.4842 193.26 49.578 193.516 49.6665C193.771 49.755 194.096 49.8436 194.492 49.9321C195.185 50.0884 195.755 50.2759 196.203 50.4946C196.651 50.7134 196.984 50.9816 197.203 51.2993C197.422 51.617 197.531 52.0024 197.531 52.4556C197.531 52.8254 197.453 53.1639 197.297 53.4712C197.146 53.7785 196.924 54.0441 196.633 54.2681C196.346 54.4868 196.003 54.6587 195.602 54.7837C195.206 54.9035 194.76 54.9634 194.266 54.9634C193.521 54.9634 192.891 54.8306 192.375 54.5649C191.859 54.2993 191.469 53.9556 191.203 53.5337C190.938 53.1118 190.805 52.6665 190.805 52.1978H192.258C192.279 52.5936 192.393 52.9087 192.602 53.1431C192.81 53.3722 193.065 53.5363 193.367 53.6353C193.669 53.729 193.969 53.7759 194.266 53.7759C194.661 53.7759 194.992 53.7238 195.258 53.6196C195.529 53.5155 195.734 53.3722 195.875 53.1899C196.016 53.0076 196.086 52.7993 196.086 52.5649ZM204.602 52.854V46.354H206.055V54.8071H204.672L204.602 52.854ZM204.875 51.0728L205.477 51.0571C205.477 51.6196 205.417 52.1405 205.297 52.6196C205.182 53.0936 204.995 53.505 204.734 53.854C204.474 54.203 204.133 54.4764 203.711 54.6743C203.289 54.867 202.776 54.9634 202.172 54.9634C201.76 54.9634 201.383 54.9035 201.039 54.7837C200.701 54.6639 200.409 54.479 200.164 54.229C199.919 53.979 199.729 53.6535 199.594 53.2524C199.464 52.8514 199.398 52.3696 199.398 51.8071V46.354H200.844V51.8228C200.844 52.203 200.885 52.5181 200.969 52.7681C201.057 53.0129 201.174 53.2082 201.32 53.354C201.471 53.4946 201.638 53.5936 201.82 53.6509C202.008 53.7082 202.201 53.7368 202.398 53.7368C203.013 53.7368 203.5 53.6196 203.859 53.3853C204.219 53.1457 204.477 52.8254 204.633 52.4243C204.794 52.0181 204.875 51.5675 204.875 51.0728ZM211.641 53.7759C211.984 53.7759 212.302 53.7056 212.594 53.5649C212.885 53.4243 213.125 53.2316 213.312 52.9868C213.5 52.7368 213.607 52.453 213.633 52.1353H215.008C214.982 52.6353 214.812 53.1014 214.5 53.5337C214.193 53.9608 213.789 54.3071 213.289 54.5728C212.789 54.8332 212.24 54.9634 211.641 54.9634C211.005 54.9634 210.451 54.8514 209.977 54.6274C209.508 54.4035 209.117 54.0962 208.805 53.7056C208.497 53.3149 208.266 52.867 208.109 52.3618C207.958 51.8514 207.883 51.3123 207.883 50.7446V50.4165C207.883 49.8488 207.958 49.3123 208.109 48.8071C208.266 48.2967 208.497 47.8462 208.805 47.4556C209.117 47.0649 209.508 46.7576 209.977 46.5337C210.451 46.3097 211.005 46.1978 211.641 46.1978C212.302 46.1978 212.88 46.3332 213.375 46.604C213.87 46.8696 214.258 47.2342 214.539 47.6978C214.826 48.1561 214.982 48.6769 215.008 49.2603H213.633C213.607 48.9113 213.508 48.5962 213.336 48.3149C213.169 48.0337 212.94 47.8097 212.648 47.6431C212.362 47.4712 212.026 47.3853 211.641 47.3853C211.198 47.3853 210.826 47.4738 210.523 47.6509C210.227 47.8228 209.99 48.0571 209.812 48.354C209.641 48.6457 209.516 48.9712 209.438 49.3306C209.365 49.6847 209.328 50.0467 209.328 50.4165V50.7446C209.328 51.1144 209.365 51.479 209.438 51.8384C209.51 52.1978 209.633 52.5233 209.805 52.8149C209.982 53.1066 210.219 53.341 210.516 53.5181C210.818 53.6899 211.193 53.7759 211.641 53.7759ZM220.016 53.7759C220.359 53.7759 220.677 53.7056 220.969 53.5649C221.26 53.4243 221.5 53.2316 221.688 52.9868C221.875 52.7368 221.982 52.453 222.008 52.1353H223.383C223.357 52.6353 223.188 53.1014 222.875 53.5337C222.568 53.9608 222.164 54.3071 221.664 54.5728C221.164 54.8332 220.615 54.9634 220.016 54.9634C219.38 54.9634 218.826 54.8514 218.352 54.6274C217.883 54.4035 217.492 54.0962 217.18 53.7056C216.872 53.3149 216.641 52.867 216.484 52.3618C216.333 51.8514 216.258 51.3123 216.258 50.7446V50.4165C216.258 49.8488 216.333 49.3123 216.484 48.8071C216.641 48.2967 216.872 47.8462 217.18 47.4556C217.492 47.0649 217.883 46.7576 218.352 46.5337C218.826 46.3097 219.38 46.1978 220.016 46.1978C220.677 46.1978 221.255 46.3332 221.75 46.604C222.245 46.8696 222.633 47.2342 222.914 47.6978C223.201 48.1561 223.357 48.6769 223.383 49.2603H222.008C221.982 48.9113 221.883 48.5962 221.711 48.3149C221.544 48.0337 221.315 47.8097 221.023 47.6431C220.737 47.4712 220.401 47.3853 220.016 47.3853C219.573 47.3853 219.201 47.4738 218.898 47.6509C218.602 47.8228 218.365 48.0571 218.188 48.354C218.016 48.6457 217.891 48.9712 217.812 49.3306C217.74 49.6847 217.703 50.0467 217.703 50.4165V50.7446C217.703 51.1144 217.74 51.479 217.812 51.8384C217.885 52.1978 218.008 52.5233 218.18 52.8149C218.357 53.1066 218.594 53.341 218.891 53.5181C219.193 53.6899 219.568 53.7759 220.016 53.7759ZM228.516 54.9634C227.927 54.9634 227.393 54.8644 226.914 54.6665C226.44 54.4634 226.031 54.1795 225.688 53.8149C225.349 53.4504 225.089 53.0181 224.906 52.5181C224.724 52.0181 224.633 51.4712 224.633 50.8774V50.5493C224.633 49.8618 224.734 49.2498 224.938 48.7134C225.141 48.1717 225.417 47.7134 225.766 47.3384C226.115 46.9634 226.51 46.6795 226.953 46.4868C227.396 46.2941 227.854 46.1978 228.328 46.1978C228.932 46.1978 229.453 46.3019 229.891 46.5103C230.333 46.7186 230.695 47.0103 230.977 47.3853C231.258 47.755 231.466 48.1925 231.602 48.6978C231.737 49.1978 231.805 49.7446 231.805 50.3384V50.9868H225.492V49.8071H230.359V49.6978C230.339 49.3228 230.26 48.9582 230.125 48.604C229.995 48.2498 229.786 47.9582 229.5 47.729C229.214 47.4998 228.823 47.3853 228.328 47.3853C228 47.3853 227.698 47.4556 227.422 47.5962C227.146 47.7316 226.909 47.9347 226.711 48.2056C226.513 48.4764 226.359 48.8071 226.25 49.1978C226.141 49.5884 226.086 50.0389 226.086 50.5493V50.8774C226.086 51.2785 226.141 51.6561 226.25 52.0103C226.365 52.3592 226.529 52.6665 226.742 52.9321C226.961 53.1978 227.224 53.4061 227.531 53.5571C227.844 53.7082 228.198 53.7837 228.594 53.7837C229.104 53.7837 229.536 53.6795 229.891 53.4712C230.245 53.2629 230.555 52.9842 230.82 52.6353L231.695 53.3306C231.513 53.6066 231.281 53.8696 231 54.1196C230.719 54.3696 230.372 54.5728 229.961 54.729C229.555 54.8853 229.073 54.9634 228.516 54.9634ZM238.414 52.5649C238.414 52.3566 238.367 52.1639 238.273 51.9868C238.185 51.8045 238 51.6405 237.719 51.4946C237.443 51.3436 237.026 51.2134 236.469 51.104C236 51.005 235.576 50.8879 235.195 50.7524C234.82 50.617 234.5 50.453 234.234 50.2603C233.974 50.0675 233.773 49.841 233.633 49.5806C233.492 49.3201 233.422 49.0155 233.422 48.6665C233.422 48.3332 233.495 48.0181 233.641 47.7212C233.792 47.4243 234.003 47.1613 234.273 46.9321C234.549 46.703 234.88 46.5233 235.266 46.3931C235.651 46.2629 236.081 46.1978 236.555 46.1978C237.232 46.1978 237.81 46.3175 238.289 46.5571C238.768 46.7967 239.135 47.117 239.391 47.5181C239.646 47.9139 239.773 48.354 239.773 48.8384H238.328C238.328 48.604 238.258 48.3774 238.117 48.1587C237.982 47.9347 237.781 47.7498 237.516 47.604C237.255 47.4582 236.935 47.3853 236.555 47.3853C236.154 47.3853 235.828 47.4478 235.578 47.5728C235.333 47.6925 235.154 47.8462 235.039 48.0337C234.93 48.2212 234.875 48.4191 234.875 48.6274C234.875 48.7837 234.901 48.9243 234.953 49.0493C235.01 49.1691 235.109 49.2811 235.25 49.3853C235.391 49.4842 235.589 49.578 235.844 49.6665C236.099 49.755 236.424 49.8436 236.82 49.9321C237.513 50.0884 238.083 50.2759 238.531 50.4946C238.979 50.7134 239.312 50.9816 239.531 51.2993C239.75 51.617 239.859 52.0024 239.859 52.4556C239.859 52.8254 239.781 53.1639 239.625 53.4712C239.474 53.7785 239.253 54.0441 238.961 54.2681C238.674 54.4868 238.331 54.6587 237.93 54.7837C237.534 54.9035 237.089 54.9634 236.594 54.9634C235.849 54.9634 235.219 54.8306 234.703 54.5649C234.188 54.2993 233.797 53.9556 233.531 53.5337C233.266 53.1118 233.133 52.6665 233.133 52.1978H234.586C234.607 52.5936 234.721 52.9087 234.93 53.1431C235.138 53.3722 235.393 53.5363 235.695 53.6353C235.997 53.729 236.297 53.7759 236.594 53.7759C236.99 53.7759 237.32 53.7238 237.586 53.6196C237.857 53.5155 238.062 53.3722 238.203 53.1899C238.344 53.0076 238.414 52.7993 238.414 52.5649ZM246.68 52.5649C246.68 52.3566 246.633 52.1639 246.539 51.9868C246.451 51.8045 246.266 51.6405 245.984 51.4946C245.708 51.3436 245.292 51.2134 244.734 51.104C244.266 51.005 243.841 50.8879 243.461 50.7524C243.086 50.617 242.766 50.453 242.5 50.2603C242.24 50.0675 242.039 49.841 241.898 49.5806C241.758 49.3201 241.688 49.0155 241.688 48.6665C241.688 48.3332 241.76 48.0181 241.906 47.7212C242.057 47.4243 242.268 47.1613 242.539 46.9321C242.815 46.703 243.146 46.5233 243.531 46.3931C243.917 46.2629 244.346 46.1978 244.82 46.1978C245.497 46.1978 246.076 46.3175 246.555 46.5571C247.034 46.7967 247.401 47.117 247.656 47.5181C247.911 47.9139 248.039 48.354 248.039 48.8384H246.594C246.594 48.604 246.523 48.3774 246.383 48.1587C246.247 47.9347 246.047 47.7498 245.781 47.604C245.521 47.4582 245.201 47.3853 244.82 47.3853C244.419 47.3853 244.094 47.4478 243.844 47.5728C243.599 47.6925 243.419 47.8462 243.305 48.0337C243.195 48.2212 243.141 48.4191 243.141 48.6274C243.141 48.7837 243.167 48.9243 243.219 49.0493C243.276 49.1691 243.375 49.2811 243.516 49.3853C243.656 49.4842 243.854 49.578 244.109 49.6665C244.365 49.755 244.69 49.8436 245.086 49.9321C245.779 50.0884 246.349 50.2759 246.797 50.4946C247.245 50.7134 247.578 50.9816 247.797 51.2993C248.016 51.617 248.125 52.0024 248.125 52.4556C248.125 52.8254 248.047 53.1639 247.891 53.4712C247.74 53.7785 247.518 54.0441 247.227 54.2681C246.94 54.4868 246.596 54.6587 246.195 54.7837C245.799 54.9035 245.354 54.9634 244.859 54.9634C244.115 54.9634 243.484 54.8306 242.969 54.5649C242.453 54.2993 242.062 53.9556 241.797 53.5337C241.531 53.1118 241.398 52.6665 241.398 52.1978H242.852C242.872 52.5936 242.987 52.9087 243.195 53.1431C243.404 53.3722 243.659 53.5363 243.961 53.6353C244.263 53.729 244.562 53.7759 244.859 53.7759C245.255 53.7759 245.586 53.7238 245.852 53.6196C246.122 53.5155 246.328 53.3722 246.469 53.1899C246.609 53.0076 246.68 52.7993 246.68 52.5649ZM252.18 54.8071H250.734V45.4634C250.734 44.854 250.844 44.341 251.062 43.9243C251.286 43.5024 251.607 43.1847 252.023 42.9712C252.44 42.7524 252.935 42.6431 253.508 42.6431C253.674 42.6431 253.841 42.6535 254.008 42.6743C254.18 42.6951 254.346 42.7264 254.508 42.7681L254.43 43.9478C254.32 43.9217 254.195 43.9035 254.055 43.8931C253.919 43.8826 253.784 43.8774 253.648 43.8774C253.341 43.8774 253.076 43.9399 252.852 44.0649C252.633 44.1847 252.466 44.3618 252.352 44.5962C252.237 44.8306 252.18 45.1196 252.18 45.4634V54.8071ZM253.977 46.354V47.4634H249.398V46.354H253.977ZM260.758 52.854V46.354H262.211V54.8071H260.828L260.758 52.854ZM261.031 51.0728L261.633 51.0571C261.633 51.6196 261.573 52.1405 261.453 52.6196C261.339 53.0936 261.151 53.505 260.891 53.854C260.63 54.203 260.289 54.4764 259.867 54.6743C259.445 54.867 258.932 54.9634 258.328 54.9634C257.917 54.9634 257.539 54.9035 257.195 54.7837C256.857 54.6639 256.565 54.479 256.32 54.229C256.076 53.979 255.885 53.6535 255.75 53.2524C255.62 52.8514 255.555 52.3696 255.555 51.8071V46.354H257V51.8228C257 52.203 257.042 52.5181 257.125 52.7681C257.214 53.0129 257.331 53.2082 257.477 53.354C257.628 53.4946 257.794 53.5936 257.977 53.6509C258.164 53.7082 258.357 53.7368 258.555 53.7368C259.169 53.7368 259.656 53.6196 260.016 53.3853C260.375 53.1457 260.633 52.8254 260.789 52.4243C260.951 52.0181 261.031 51.5675 261.031 51.0728ZM265.984 42.8071V54.8071H264.531V42.8071H265.984ZM269.875 42.8071V54.8071H268.422V42.8071H269.875ZM274.57 53.9321L276.922 46.354H278.469L275.078 56.1118C275 56.3201 274.896 56.5441 274.766 56.7837C274.641 57.0285 274.479 57.2603 274.281 57.479C274.083 57.6978 273.844 57.8748 273.562 58.0103C273.286 58.1509 272.956 58.2212 272.57 58.2212C272.456 58.2212 272.31 58.2056 272.133 58.1743C271.956 58.1431 271.831 58.117 271.758 58.0962L271.75 56.9243C271.792 56.9295 271.857 56.9347 271.945 56.9399C272.039 56.9504 272.104 56.9556 272.141 56.9556C272.469 56.9556 272.747 56.9113 272.977 56.8228C273.206 56.7394 273.398 56.5962 273.555 56.3931C273.716 56.1951 273.854 55.9217 273.969 55.5728L274.57 53.9321ZM272.844 46.354L275.039 52.9165L275.414 54.4399L274.375 54.9712L271.266 46.354H272.844ZM283.5 47.1431C283.5 46.8983 283.576 46.6925 283.727 46.5259C283.883 46.354 284.107 46.2681 284.398 46.2681C284.69 46.2681 284.911 46.354 285.062 46.5259C285.219 46.6925 285.297 46.8983 285.297 47.1431C285.297 47.3826 285.219 47.5858 285.062 47.7524C284.911 47.9191 284.69 48.0024 284.398 48.0024C284.107 48.0024 283.883 47.9191 283.727 47.7524C283.576 47.5858 283.5 47.3826 283.5 47.1431ZM285.148 53.0884V54.2524C285.148 54.7264 285.029 55.2264 284.789 55.7524C284.549 56.2837 284.214 56.7264 283.781 57.0806L282.961 56.5103C283.128 56.2811 283.268 56.0467 283.383 55.8071C283.497 55.5728 283.583 55.328 283.641 55.0728C283.703 54.8228 283.734 54.5571 283.734 54.2759V53.0884H285.148ZM290.461 50.1821V50.2603C290.461 51.4009 290.333 52.4321 290.078 53.354C289.823 54.2759 289.497 55.0806 289.102 55.7681C288.706 56.4608 288.289 57.0337 287.852 57.4868C287.414 57.9451 287.01 58.2759 286.641 58.479L286.336 57.604C286.643 57.3696 286.953 57.0415 287.266 56.6196C287.578 56.203 287.867 55.6873 288.133 55.0728C288.398 54.4634 288.612 53.7603 288.773 52.9634C288.935 52.1613 289.016 51.2655 289.016 50.2759V50.1665C289.016 49.1769 288.93 48.2837 288.758 47.4868C288.586 46.6847 288.362 45.979 288.086 45.3696C287.815 44.7603 287.523 44.2472 287.211 43.8306C286.904 43.4087 286.612 43.0832 286.336 42.854L286.641 41.9712C287.01 42.1743 287.414 42.505 287.852 42.9634C288.289 43.4165 288.706 43.9894 289.102 44.6821C289.497 45.3748 289.823 46.1821 290.078 47.104C290.333 48.0207 290.461 49.0467 290.461 50.1821Z" fill="black"/>
</g>
<defs>
<filter id="filter0_d_494_803" x="0.75" y="0.807129" width="328" height="103" filterUnits="userSpaceOnUse" color-interpolation-filters="sRGB">
<feFlood flood-opacity="0" result="BackgroundImageFix"/>
<feColorMatrix in="SourceAlpha" type="matrix" values="0 0 0 0 0 0 0 0 0 0 0 0 0 0 0 0 0 0 127 0" result="hardAlpha"/>
<feOffset dy="3"/>
<feGaussianBlur stdDeviation="11.25"/>
<feComposite in2="hardAlpha" operator="out"/>
<feColorMatrix type="matrix" values="0 0 0 0 1 0 0 0 0 0.563846 0 0 0 0 0.515385 0 0 0 0.5 0"/>
<feBlend mode="normal" in2="BackgroundImageFix" result="effect1_dropShadow_494_803"/>
<feBlend mode="normal" in="SourceGraphic" in2="effect1_dropShadow_494_803" result="shape"/>
</filter>
</defs>
</svg>
