<svg width="30" height="30" viewBox="0 0 30 30" fill="none" xmlns="http://www.w3.org/2000/svg">
<path d="M2.8767 15.7289C3.07518 15.762 3.3729 15.6627 3.5383 15.7951C3.73678 15.9274 3.76986 16.2583 3.83602 16.4568C4.8615 18.9713 6.41626 21.2543 8.46723 23.074C10.3859 24.7945 12.5361 26.1179 14.8186 27.1767C14.8848 27.2098 15.0171 27.2428 15.0832 27.2098C17.8289 25.9194 20.343 24.3313 22.4601 22.1145C24.081 20.394 25.3711 18.3758 26.1981 16.159C26.3635 15.7289 26.3635 15.7289 26.8267 15.7289H27.6537C27.9183 15.7289 27.9183 15.7289 27.8521 15.9605C27.5213 16.8538 27.1244 17.7141 26.6613 18.5743C24.8749 21.8829 22.3278 24.4967 19.1852 26.4819C17.862 27.3421 16.4726 28.0369 15.0502 28.6325C14.984 28.6656 14.9509 28.6656 14.8848 28.6325C12.4699 27.673 10.2535 26.3164 8.26875 24.6952C5.5231 22.4123 3.43906 19.4676 2.18202 16.1259C2.01662 15.6958 2.01662 15.6958 2.47974 15.6958C2.61206 15.7289 2.74438 15.7289 2.8767 15.7289Z" fill="white" stroke="white" stroke-width="1.10016" stroke-miterlimit="10"/>
<path d="M16.8694 2.72606V0.840154C16.8694 0.608552 16.8694 0.608552 17.101 0.641638L19.0196 1.30336C19.8797 1.56805 20.806 1.73348 21.7322 1.79965C22.6585 1.86582 23.5847 1.86582 24.544 1.79965C25.4372 1.70039 26.2973 1.56805 27.1573 1.40262C27.2897 1.36953 27.4551 1.4357 27.4881 1.56805V1.60113C27.9843 2.89149 28.3482 4.21494 28.5798 5.57147C28.7452 6.36553 28.8113 7.1596 28.8775 7.95366C28.9437 8.78082 28.9437 9.60797 28.9106 10.4351C28.8775 10.9645 28.8113 11.4608 28.7452 11.9902C28.7121 12.1556 28.679 12.2218 28.4805 12.2218C28.0505 12.1887 27.6535 12.1887 27.2235 12.2218C27.1243 12.2218 27.0581 12.1887 27.0581 12.0563C27.2566 10.6998 27.2566 9.34328 27.1243 7.98675C26.9919 6.76257 26.7273 5.53838 26.3634 4.38037C26.2642 3.98333 26.1319 3.61939 25.9995 3.22235C25.9665 3.09001 25.9003 3.05692 25.768 3.1231C24.3455 3.65247 22.89 3.75173 21.4014 3.75173C20.1774 3.75173 18.9866 3.98333 17.8618 4.51271C17.5972 4.61197 17.2995 4.71123 17.0018 4.81049C16.8364 4.87666 16.8033 4.81049 16.8033 4.64505V2.69298C16.8694 2.72606 16.8694 2.72606 16.8694 2.72606Z" fill="white" stroke="white" stroke-width="1.10016" stroke-miterlimit="10"/>
<path d="M13.0985 2.72602V4.64502C13.0985 4.84353 13.0654 4.87662 12.8669 4.81045C12.3707 4.64502 11.9407 4.47958 11.4776 4.28107C10.6175 3.95021 9.75739 3.78478 8.86423 3.78478C7.90491 3.78478 6.91251 3.7186 5.95319 3.61935C5.39083 3.55317 4.86155 3.42083 4.29919 3.22231C4.10071 3.12305 4.00147 3.15614 3.93531 3.38774C3.60451 4.34724 3.30679 5.406 3.10831 6.39858C2.84367 7.65585 2.71134 8.94621 2.77751 10.2366C2.77751 10.8652 2.84367 11.5269 2.94291 12.1556C2.97599 12.321 2.90983 12.321 2.77751 12.321H1.4543C1.32198 12.321 1.25582 12.2548 1.25582 12.1225C1.18966 11.4938 1.1235 10.8983 1.09042 10.2697C1.05734 9.74027 1.05734 9.24398 1.09042 8.71461C1.15658 6.79561 1.48738 4.87662 2.01666 3.05688C2.18206 2.56059 2.34746 2.0643 2.54594 1.56801C2.6121 1.46875 2.64518 1.40258 2.77751 1.43566C3.60451 1.60109 4.43151 1.73344 5.29159 1.8327C6.31707 1.93196 7.37563 1.93196 8.40111 1.8327C9.22811 1.76653 10.0551 1.63418 10.849 1.36949C11.5106 1.17098 12.1392 0.906287 12.7677 0.70777C13.0654 0.608512 13.0654 0.641598 13.0654 0.939373L13.0985 2.72602Z" fill="white" stroke="white" stroke-width="1.10016" stroke-miterlimit="10"/>
<mask id="path-4-inside-1_273_1542" fill="white">
<path d="M20.0452 12.7511C20.2767 12.8504 20.5414 12.9827 20.7398 13.1482C21.236 13.5121 21.8315 13.6445 22.46 13.5452C22.6254 13.5121 22.7908 13.479 22.9562 13.479C23.1216 13.4459 23.1216 13.3798 23.0555 13.2474C23.0224 13.1813 22.9893 13.1151 22.9231 13.0489C22.8239 12.9497 22.8239 12.7511 22.89 12.6188C22.9562 12.4864 22.9893 12.2879 22.9562 12.1225C22.857 11.6924 22.7908 11.2623 22.7577 10.7991C22.7577 10.6005 22.8239 10.6005 22.9562 10.6667C23.1547 10.766 23.287 10.8983 23.4524 11.0637C23.7501 11.4608 24.0479 11.8578 24.3456 12.2879C24.4117 12.3872 24.5441 12.4864 24.6764 12.4864C24.8418 12.5195 25.0072 12.5195 25.1726 12.5526C25.3049 12.5857 25.3049 12.6188 25.2387 12.7181C25.1726 12.7842 25.0733 12.8173 24.941 12.8504C24.8087 12.8835 24.8087 12.9166 24.8749 13.0158C25.0403 13.2143 25.2718 13.3467 25.5365 13.3467C26.1319 13.3467 26.7273 13.3136 27.2897 13.3467C27.6867 13.3798 28.0836 13.4459 28.4475 13.6114C28.5467 13.6775 28.5467 13.7106 28.4806 13.8099C28.249 14.0084 27.9513 14.1408 27.6536 14.1408C27.0251 14.2069 26.3635 14.24 25.7349 14.24C25.4703 14.2069 25.2057 14.3062 25.0072 14.5378C24.9079 14.637 24.941 14.7032 25.0733 14.7694C25.1726 14.8025 25.2718 14.8686 25.4041 14.9348C25.3049 15.0341 25.1726 15.1002 24.9741 15.1333C24.7425 15.1333 24.4779 15.2326 24.3125 15.4311C24.0148 15.762 23.7171 16.159 23.4524 16.523C23.287 16.7546 23.0885 16.9862 22.857 17.1516C22.6916 17.2508 22.6585 17.2178 22.6254 17.0854C22.5923 16.92 22.5923 16.7546 22.6585 16.5891C22.7247 16.3575 22.8239 16.0928 22.857 15.8281C22.9562 15.5965 22.8901 15.2988 22.7577 15.1002C22.6916 15.001 22.6916 14.9348 22.8239 14.9017C22.9893 14.8356 23.1216 14.7032 23.1547 14.5047C23.2209 14.3393 23.1878 14.2731 22.9893 14.2731C22.03 14.1738 21.1368 14.2069 20.409 14.9679C20.3429 15.0341 20.2767 15.0672 20.2106 15.1333C20.1775 15.1664 20.1775 15.1664 20.1444 15.1664C20.0782 14.9348 20.1775 14.7032 20.2436 14.5047C20.3098 14.3062 20.3098 14.2731 20.0782 14.2731H17.8288C17.6965 14.2731 17.5642 14.3393 17.498 14.4716C17.2995 14.7694 17.068 15.0672 16.8695 15.3649C16.7372 15.5635 16.7041 15.5635 16.5387 15.3319C16.3071 14.9679 16.0425 14.5709 15.7778 14.24C15.7448 14.2069 15.7448 14.1738 15.7117 14.1738C15.6786 14.1408 15.6455 14.1077 15.6124 14.1077C15.5463 14.1408 15.5794 14.1738 15.5463 14.2069C15.2486 15.4642 14.9508 16.6884 14.6862 17.9457C14.4877 18.9052 14.2231 19.8977 14.0246 20.8572C13.9915 20.9234 14.0246 20.9896 13.9584 21.0557C13.76 17.9787 13.4953 14.9348 13.2968 11.8909H13.2307C13.1976 12.4534 13.0653 12.9827 12.9991 13.5452C12.8999 14.0746 12.8006 14.604 12.7676 15.1664C12.7676 15.2326 12.7676 15.2657 12.7014 15.2657C12.6352 15.2657 12.6352 15.1995 12.6352 15.1995C12.4698 14.9679 12.3044 14.7032 12.139 14.4385C12.0729 14.3393 12.0067 14.2731 11.9075 14.4054C11.6759 14.7363 11.3782 15.0341 11.1136 15.3319C10.9151 15.5635 10.9151 15.5635 10.8158 15.2657C10.7166 14.9679 10.6174 14.637 10.485 14.3393C10.4189 14.1738 10.3858 14.1408 10.1873 14.2069C9.72419 14.3062 9.39339 14.637 9.26107 15.0672C9.19491 15.2326 9.09567 15.3649 9.02951 15.5304C8.99643 15.5965 8.99643 15.6296 8.96335 15.6296C8.93027 15.6296 8.89719 15.5635 8.86411 15.5304C8.73179 15.2326 8.56639 14.9348 8.43407 14.6701C8.36791 14.5047 8.33483 14.4716 8.20251 14.637C7.90479 15.001 7.60707 15.3649 7.30935 15.6958C7.07779 15.2326 6.71391 14.8686 6.48235 14.4054C6.41619 14.3062 6.31695 14.24 6.18463 14.24H1.78498C1.48726 14.24 1.48726 14.24 1.55342 13.9753C1.5865 13.6114 1.5865 13.6114 1.95038 13.6114C3.37283 13.6114 4.79527 13.6114 6.21771 13.5783C6.35003 13.5452 6.44927 13.6445 6.51543 13.7437C6.71391 14.0415 6.94547 14.3062 7.14395 14.604C7.21011 14.7032 7.24319 14.6701 7.34243 14.604C7.64015 14.2731 7.97095 13.8761 8.23559 13.5452C8.33483 13.4459 8.33483 13.3798 8.43407 13.5783C8.53331 13.8099 8.66563 14.0746 8.79795 14.3062C8.83103 14.3724 8.83103 14.4054 8.89719 14.4054C8.96335 14.4054 8.96335 14.3393 8.99643 14.3062C9.06259 14.0084 9.32723 13.9092 9.59187 13.8099C9.88959 13.7106 10.2204 13.5783 10.485 13.4459C10.5843 13.3798 10.6835 13.4129 10.7166 13.5452C10.7828 13.7768 10.9151 14.0415 10.9812 14.3062C11.0474 14.4716 11.0805 14.4385 11.1797 14.3393C11.4444 14.0415 11.709 13.7106 11.9736 13.4129C12.0729 13.3136 12.139 13.2805 12.1721 13.4459C12.2383 13.5452 12.2714 13.6445 12.3706 13.7106C12.4037 13.7437 12.4368 13.8099 12.4698 13.8099C12.536 13.8099 12.536 13.7106 12.536 13.7106C12.7345 12.3872 12.933 11.1299 13.1645 9.80647C13.2638 9.14475 13.3961 8.44994 13.4622 7.75514C13.4622 7.72205 13.4953 7.72205 13.5284 7.68896C13.5615 7.92057 13.5615 8.18526 13.5615 8.35069C13.6607 9.90573 13.76 11.4608 13.8923 13.0158C13.9915 14.4716 14.0908 15.9274 14.2231 17.4163C14.2231 17.5155 14.19 17.7141 14.2892 17.7141C14.3885 17.7141 14.3554 17.5155 14.3885 17.4163C14.587 16.4899 14.8516 15.4973 15.0501 14.5378C15.1493 14.0415 15.2816 13.5452 15.414 13.0489C15.447 12.9497 15.4801 12.8504 15.4801 12.7181C15.844 13.3467 16.274 13.843 16.671 14.4385C16.7702 14.5709 16.8364 14.604 16.9026 14.4716C17.068 14.2731 17.2003 14.0746 17.2995 13.8761C17.3657 13.7768 17.4649 13.6775 17.5972 13.7106H20.1444C20.409 13.7106 20.376 13.7106 20.3098 13.479C20.1775 13.2474 20.0782 13.0158 20.0452 12.7511Z"/>
</mask>
<path d="M20.0452 12.7511C20.2767 12.8504 20.5414 12.9827 20.7398 13.1482C21.236 13.5121 21.8315 13.6445 22.46 13.5452C22.6254 13.5121 22.7908 13.479 22.9562 13.479C23.1216 13.4459 23.1216 13.3798 23.0555 13.2474C23.0224 13.1813 22.9893 13.1151 22.9231 13.0489C22.8239 12.9497 22.8239 12.7511 22.89 12.6188C22.9562 12.4864 22.9893 12.2879 22.9562 12.1225C22.857 11.6924 22.7908 11.2623 22.7577 10.7991C22.7577 10.6005 22.8239 10.6005 22.9562 10.6667C23.1547 10.766 23.287 10.8983 23.4524 11.0637C23.7501 11.4608 24.0479 11.8578 24.3456 12.2879C24.4117 12.3872 24.5441 12.4864 24.6764 12.4864C24.8418 12.5195 25.0072 12.5195 25.1726 12.5526C25.3049 12.5857 25.3049 12.6188 25.2387 12.7181C25.1726 12.7842 25.0733 12.8173 24.941 12.8504C24.8087 12.8835 24.8087 12.9166 24.8749 13.0158C25.0403 13.2143 25.2718 13.3467 25.5365 13.3467C26.1319 13.3467 26.7273 13.3136 27.2897 13.3467C27.6867 13.3798 28.0836 13.4459 28.4475 13.6114C28.5467 13.6775 28.5467 13.7106 28.4806 13.8099C28.249 14.0084 27.9513 14.1408 27.6536 14.1408C27.0251 14.2069 26.3635 14.24 25.7349 14.24C25.4703 14.2069 25.2057 14.3062 25.0072 14.5378C24.9079 14.637 24.941 14.7032 25.0733 14.7694C25.1726 14.8025 25.2718 14.8686 25.4041 14.9348C25.3049 15.0341 25.1726 15.1002 24.9741 15.1333C24.7425 15.1333 24.4779 15.2326 24.3125 15.4311C24.0148 15.762 23.7171 16.159 23.4524 16.523C23.287 16.7546 23.0885 16.9862 22.857 17.1516C22.6916 17.2508 22.6585 17.2178 22.6254 17.0854C22.5923 16.92 22.5923 16.7546 22.6585 16.5891C22.7247 16.3575 22.8239 16.0928 22.857 15.8281C22.9562 15.5965 22.8901 15.2988 22.7577 15.1002C22.6916 15.001 22.6916 14.9348 22.8239 14.9017C22.9893 14.8356 23.1216 14.7032 23.1547 14.5047C23.2209 14.3393 23.1878 14.2731 22.9893 14.2731C22.03 14.1738 21.1368 14.2069 20.409 14.9679C20.3429 15.0341 20.2767 15.0672 20.2106 15.1333C20.1775 15.1664 20.1775 15.1664 20.1444 15.1664C20.0782 14.9348 20.1775 14.7032 20.2436 14.5047C20.3098 14.3062 20.3098 14.2731 20.0782 14.2731H17.8288C17.6965 14.2731 17.5642 14.3393 17.498 14.4716C17.2995 14.7694 17.068 15.0672 16.8695 15.3649C16.7372 15.5635 16.7041 15.5635 16.5387 15.3319C16.3071 14.9679 16.0425 14.5709 15.7778 14.24C15.7448 14.2069 15.7448 14.1738 15.7117 14.1738C15.6786 14.1408 15.6455 14.1077 15.6124 14.1077C15.5463 14.1408 15.5794 14.1738 15.5463 14.2069C15.2486 15.4642 14.9508 16.6884 14.6862 17.9457C14.4877 18.9052 14.2231 19.8977 14.0246 20.8572C13.9915 20.9234 14.0246 20.9896 13.9584 21.0557C13.76 17.9787 13.4953 14.9348 13.2968 11.8909H13.2307C13.1976 12.4534 13.0653 12.9827 12.9991 13.5452C12.8999 14.0746 12.8006 14.604 12.7676 15.1664C12.7676 15.2326 12.7676 15.2657 12.7014 15.2657C12.6352 15.2657 12.6352 15.1995 12.6352 15.1995C12.4698 14.9679 12.3044 14.7032 12.139 14.4385C12.0729 14.3393 12.0067 14.2731 11.9075 14.4054C11.6759 14.7363 11.3782 15.0341 11.1136 15.3319C10.9151 15.5635 10.9151 15.5635 10.8158 15.2657C10.7166 14.9679 10.6174 14.637 10.485 14.3393C10.4189 14.1738 10.3858 14.1408 10.1873 14.2069C9.72419 14.3062 9.39339 14.637 9.26107 15.0672C9.19491 15.2326 9.09567 15.3649 9.02951 15.5304C8.99643 15.5965 8.99643 15.6296 8.96335 15.6296C8.93027 15.6296 8.89719 15.5635 8.86411 15.5304C8.73179 15.2326 8.56639 14.9348 8.43407 14.6701C8.36791 14.5047 8.33483 14.4716 8.20251 14.637C7.90479 15.001 7.60707 15.3649 7.30935 15.6958C7.07779 15.2326 6.71391 14.8686 6.48235 14.4054C6.41619 14.3062 6.31695 14.24 6.18463 14.24H1.78498C1.48726 14.24 1.48726 14.24 1.55342 13.9753C1.5865 13.6114 1.5865 13.6114 1.95038 13.6114C3.37283 13.6114 4.79527 13.6114 6.21771 13.5783C6.35003 13.5452 6.44927 13.6445 6.51543 13.7437C6.71391 14.0415 6.94547 14.3062 7.14395 14.604C7.21011 14.7032 7.24319 14.6701 7.34243 14.604C7.64015 14.2731 7.97095 13.8761 8.23559 13.5452C8.33483 13.4459 8.33483 13.3798 8.43407 13.5783C8.53331 13.8099 8.66563 14.0746 8.79795 14.3062C8.83103 14.3724 8.83103 14.4054 8.89719 14.4054C8.96335 14.4054 8.96335 14.3393 8.99643 14.3062C9.06259 14.0084 9.32723 13.9092 9.59187 13.8099C9.88959 13.7106 10.2204 13.5783 10.485 13.4459C10.5843 13.3798 10.6835 13.4129 10.7166 13.5452C10.7828 13.7768 10.9151 14.0415 10.9812 14.3062C11.0474 14.4716 11.0805 14.4385 11.1797 14.3393C11.4444 14.0415 11.709 13.7106 11.9736 13.4129C12.0729 13.3136 12.139 13.2805 12.1721 13.4459C12.2383 13.5452 12.2714 13.6445 12.3706 13.7106C12.4037 13.7437 12.4368 13.8099 12.4698 13.8099C12.536 13.8099 12.536 13.7106 12.536 13.7106C12.7345 12.3872 12.933 11.1299 13.1645 9.80647C13.2638 9.14475 13.3961 8.44994 13.4622 7.75514C13.4622 7.72205 13.4953 7.72205 13.5284 7.68896C13.5615 7.92057 13.5615 8.18526 13.5615 8.35069C13.6607 9.90573 13.76 11.4608 13.8923 13.0158C13.9915 14.4716 14.0908 15.9274 14.2231 17.4163C14.2231 17.5155 14.19 17.7141 14.2892 17.7141C14.3885 17.7141 14.3554 17.5155 14.3885 17.4163C14.587 16.4899 14.8516 15.4973 15.0501 14.5378C15.1493 14.0415 15.2816 13.5452 15.414 13.0489C15.447 12.9497 15.4801 12.8504 15.4801 12.7181C15.844 13.3467 16.274 13.843 16.671 14.4385C16.7702 14.5709 16.8364 14.604 16.9026 14.4716C17.068 14.2731 17.2003 14.0746 17.2995 13.8761C17.3657 13.7768 17.4649 13.6775 17.5972 13.7106H20.1444C20.409 13.7106 20.376 13.7106 20.3098 13.479C20.1775 13.2474 20.0782 13.0158 20.0452 12.7511Z" fill="white" stroke="white" stroke-width="1.42766" mask="url(#path-4-inside-1_273_1542)"/>
</svg>
