<svg width="24" height="25" viewBox="0 0 24 25" fill="none" xmlns="http://www.w3.org/2000/svg">
<path fill-rule="evenodd" clip-rule="evenodd" d="M13.2482 5C13.2482 3.75736 14.2556 2.75 15.4982 2.75C16.7408 2.75 17.7482 3.75736 17.7482 5C17.7482 6.24264 16.7408 7.25 15.4982 7.25C14.2556 7.25 13.2482 6.24264 13.2482 5ZM10.0339 9.69501C9.43515 9.82087 8.95887 10.0026 8.57001 10.2241C7.84222 10.6387 7.32776 11.2452 6.89012 12.1072C6.64011 12.5997 6.03822 12.7962 5.54576 12.5462C5.0533 12.2962 4.85676 11.6943 5.10677 11.2019C5.66913 10.0942 6.42351 9.14509 7.58013 8.48628C8.72016 7.83692 10.1554 7.52421 11.9866 7.50255L11.998 7.50242L13.352 7.50195C14.1528 7.50164 14.7844 7.96905 15.1451 8.48647C15.2765 8.67493 15.4329 8.85441 15.5983 8.9785C16.0303 9.30243 16.5244 9.48716 17.0609 9.42967C17.5956 9.37236 18.3447 9.05594 19.2509 8.03604C19.6177 7.62319 20.2498 7.58588 20.6626 7.95271C21.0755 8.31954 21.1128 8.95161 20.746 9.36447C19.6148 10.6375 18.4412 11.2932 17.274 11.4183C16.5447 11.4964 15.8853 11.3602 15.3167 11.1146L12.785 14.9645L13.7208 15.886C14.4908 16.6442 15.0385 17.5959 15.3036 18.6399L15.9677 21.2559C16.1036 21.7912 15.7798 22.3353 15.2445 22.4712C14.7092 22.6071 14.1651 22.2833 14.0292 21.748L13.3651 19.132C13.1905 18.4445 12.8291 17.8149 12.3175 17.311L10.8362 15.8523C10.366 15.482 9.95845 15.1606 9.64843 14.8635C9.31657 14.5455 9.0241 14.1896 8.85308 13.7248C8.72265 13.3703 8.66034 12.9944 8.66942 12.6167C8.68134 12.1216 8.84335 11.6904 9.05487 11.2823C9.25354 10.8991 9.53767 10.4607 9.86541 9.95503L9.89017 9.91682L10.0339 9.69501ZM9.88371 16.9653C10.1406 16.4764 9.95248 15.8718 9.46357 15.615C8.97467 15.3581 8.37009 15.5462 8.11321 16.0351C7.53999 17.1261 6.21548 17.73 4.90813 17.419L4.22991 17.2576C3.69262 17.1298 3.15344 17.4617 3.02561 17.999C2.89778 18.5363 3.22972 19.0755 3.76701 19.2033L4.44523 19.3647C6.59469 19.876 8.86341 18.9072 9.88371 16.9653Z" fill="white"/>
</svg>
