<svg width="114" height="32" viewBox="0 0 114 32" fill="none" xmlns="http://www.w3.org/2000/svg">
<rect width="114" height="32" rx="4" fill="white"/>
<rect x="4" y="4" width="24" height="24" rx="2" fill="#00FF1E"/>
<path d="M38.4521 22.5L40.9395 9.70312H42.2051L39.709 22.5H38.4521ZM42.0293 22.5L44.5254 9.70312H45.7822L43.2861 22.5H42.0293ZM46.8545 14.5811H37.7139V13.3594H46.8545V14.5811ZM46.1953 18.8965H37.0459V17.6836H46.1953V18.8965ZM56.5485 15.082V17.0332C56.5485 18.082 56.4547 18.9668 56.2672 19.6875C56.0797 20.4082 55.8102 20.9883 55.4586 21.4277C55.1071 21.8672 54.6823 22.1865 54.1842 22.3857C53.692 22.5791 53.1354 22.6758 52.5143 22.6758C52.0221 22.6758 51.568 22.6143 51.152 22.4912C50.736 22.3682 50.361 22.1719 50.027 21.9023C49.6989 21.627 49.4176 21.2695 49.1832 20.8301C48.9489 20.3906 48.7702 19.8574 48.6471 19.2305C48.5241 18.6035 48.4625 17.8711 48.4625 17.0332V15.082C48.4625 14.0332 48.5563 13.1543 48.7438 12.4453C48.9371 11.7363 49.2096 11.168 49.5612 10.7402C49.9127 10.3066 50.3346 9.99609 50.8268 9.80859C51.3248 9.62109 51.8815 9.52734 52.4967 9.52734C52.9948 9.52734 53.4518 9.58887 53.8678 9.71191C54.2897 9.8291 54.6647 10.0195 54.9928 10.2832C55.3209 10.541 55.5993 10.8867 55.8278 11.3203C56.0621 11.748 56.2409 12.2725 56.3639 12.8936C56.487 13.5146 56.5485 14.2441 56.5485 15.082ZM54.9137 17.2969V14.8096C54.9137 14.2354 54.8786 13.7314 54.8082 13.2979C54.7438 12.8584 54.6471 12.4834 54.5182 12.1729C54.3893 11.8623 54.2252 11.6104 54.026 11.417C53.8327 11.2236 53.6071 11.083 53.3493 10.9951C53.0973 10.9014 52.8131 10.8545 52.4967 10.8545C52.11 10.8545 51.7672 10.9277 51.4684 11.0742C51.1696 11.2148 50.9176 11.4404 50.7125 11.751C50.5133 12.0615 50.361 12.4688 50.2555 12.9727C50.15 13.4766 50.0973 14.0889 50.0973 14.8096V17.2969C50.0973 17.8711 50.1295 18.3779 50.194 18.8174C50.2643 19.2568 50.3668 19.6377 50.5016 19.96C50.6364 20.2764 50.8004 20.5371 50.9938 20.7422C51.1871 20.9473 51.4098 21.0996 51.6618 21.1992C51.9196 21.293 52.2037 21.3398 52.5143 21.3398C52.9127 21.3398 53.2614 21.2637 53.5602 21.1113C53.859 20.959 54.108 20.7217 54.3073 20.3994C54.5123 20.0713 54.6647 19.6523 54.7643 19.1426C54.8639 18.627 54.9137 18.0117 54.9137 17.2969ZM67.0335 15.082V17.0332C67.0335 18.082 66.9397 18.9668 66.7522 19.6875C66.5647 20.4082 66.2952 20.9883 65.9436 21.4277C65.5921 21.8672 65.1673 22.1865 64.6692 22.3857C64.177 22.5791 63.6204 22.6758 62.9993 22.6758C62.5071 22.6758 62.053 22.6143 61.637 22.4912C61.221 22.3682 60.846 22.1719 60.512 21.9023C60.1839 21.627 59.9026 21.2695 59.6682 20.8301C59.4339 20.3906 59.2552 19.8574 59.1321 19.2305C59.0091 18.6035 58.9475 17.8711 58.9475 17.0332V15.082C58.9475 14.0332 59.0413 13.1543 59.2288 12.4453C59.4221 11.7363 59.6946 11.168 60.0462 10.7402C60.3977 10.3066 60.8196 9.99609 61.3118 9.80859C61.8098 9.62109 62.3665 9.52734 62.9817 9.52734C63.4798 9.52734 63.9368 9.58887 64.3528 9.71191C64.7747 9.8291 65.1497 10.0195 65.4778 10.2832C65.8059 10.541 66.0843 10.8867 66.3128 11.3203C66.5471 11.748 66.7259 12.2725 66.8489 12.8936C66.972 13.5146 67.0335 14.2441 67.0335 15.082ZM65.3987 17.2969V14.8096C65.3987 14.2354 65.3636 13.7314 65.2932 13.2979C65.2288 12.8584 65.1321 12.4834 65.0032 12.1729C64.8743 11.8623 64.7102 11.6104 64.511 11.417C64.3177 11.2236 64.0921 11.083 63.8343 10.9951C63.5823 10.9014 63.2981 10.8545 62.9817 10.8545C62.595 10.8545 62.2522 10.9277 61.9534 11.0742C61.6546 11.2148 61.4026 11.4404 61.1975 11.751C60.9983 12.0615 60.846 12.4688 60.7405 12.9727C60.635 13.4766 60.5823 14.0889 60.5823 14.8096V17.2969C60.5823 17.8711 60.6145 18.3779 60.679 18.8174C60.7493 19.2568 60.8518 19.6377 60.9866 19.96C61.1214 20.2764 61.2854 20.5371 61.4788 20.7422C61.6721 20.9473 61.8948 21.0996 62.1468 21.1992C62.4046 21.293 62.6887 21.3398 62.9993 21.3398C63.3977 21.3398 63.7464 21.2637 64.0452 21.1113C64.344 20.959 64.593 20.7217 64.7923 20.3994C64.9973 20.0713 65.1497 19.6523 65.2493 19.1426C65.3489 18.627 65.3987 18.0117 65.3987 17.2969ZM71.6034 9.70312V22.5H69.9072V9.70312H71.6034ZM76.9648 15.46V16.8486H71.2343V15.46H76.9648ZM77.8349 9.70312V11.0918H71.2343V9.70312H77.8349ZM81.9127 9.70312V22.5H80.2164V9.70312H81.9127ZM87.274 15.46V16.8486H81.5435V15.46H87.274ZM88.1441 9.70312V11.0918H81.5435V9.70312H88.1441ZM95.4475 9.63281V22.5H93.8215V11.6631L90.5432 12.8584V11.3906L95.1926 9.63281H95.4475ZM109.14 21.1201V22.5H102.364V21.1201H109.14ZM102.707 9.70312V22.5H101.011V9.70312H102.707ZM108.244 15.2051V16.585H102.364V15.2051H108.244ZM109.053 9.70312V11.0918H102.364V9.70312H109.053Z" fill="black"/>
</svg>
