<svg width="90" height="94" viewBox="0 0 90 94" fill="none" xmlns="http://www.w3.org/2000/svg">
<rect x="0.305664" y="0.5" width="89.25" height="24" rx="3" fill="white"/>
<rect x="3.30566" y="3.5" width="18" height="18" rx="1.5" fill="#F9F0DE"/>
<path d="M29.1448 17.5L31.0103 7.90234H31.9595L30.0874 17.5H29.1448ZM31.8276 17.5L33.6997 7.90234H34.6423L32.7703 17.5H31.8276ZM35.4465 11.5608H28.5911V10.6445H35.4465V11.5608ZM34.9521 14.7974H28.0901V13.8877H34.9521V14.7974ZM38.2807 7.90234V17.5H37.0085V7.90234H38.2807ZM42.3017 12.22V13.2615H38.0039V12.22H42.3017ZM42.9543 7.90234V8.94385H38.0039V7.90234H42.9543ZM45.6369 16.4783H45.7622C46.4653 16.4783 47.0366 16.3794 47.476 16.1816C47.9155 15.9839 48.2539 15.718 48.4912 15.384C48.7285 15.05 48.8911 14.6743 48.979 14.2568C49.0669 13.835 49.1108 13.4021 49.1108 12.9583V11.4883C49.1108 11.0532 49.0603 10.6665 48.9592 10.3281C48.8625 9.98975 48.7263 9.7063 48.5505 9.47778C48.3791 9.24927 48.1836 9.07568 47.9638 8.95703C47.7441 8.83838 47.5112 8.77905 47.2651 8.77905C46.9838 8.77905 46.7312 8.83618 46.507 8.95044C46.2873 9.0603 46.1005 9.21631 45.9467 9.41846C45.7973 9.62061 45.6831 9.85791 45.604 10.1304C45.5249 10.4028 45.4853 10.6995 45.4853 11.0203C45.4853 11.3059 45.5205 11.5828 45.5908 11.8508C45.6611 12.1189 45.7688 12.3606 45.9138 12.5759C46.0588 12.7913 46.239 12.9626 46.4543 13.0901C46.674 13.2131 46.9311 13.2747 47.2255 13.2747C47.498 13.2747 47.7529 13.2219 47.9902 13.1165C48.2319 13.0066 48.445 12.8594 48.6296 12.6748C48.8186 12.4858 48.968 12.2727 49.0778 12.0354C49.1921 11.7981 49.258 11.5498 49.2756 11.2905H49.8557C49.8557 11.6553 49.7832 12.0156 49.6381 12.3716C49.4975 12.7231 49.2998 13.0439 49.0449 13.334C48.79 13.624 48.4912 13.8569 48.1484 14.0327C47.8056 14.2041 47.4321 14.2898 47.0278 14.2898C46.5532 14.2898 46.1423 14.1975 45.7951 14.0129C45.448 13.8284 45.1623 13.5823 44.9382 13.2747C44.7185 12.967 44.5537 12.6243 44.4438 12.2463C44.3383 11.864 44.2856 11.4773 44.2856 11.0862C44.2856 10.6292 44.3493 10.2007 44.4768 9.80078C44.6042 9.40088 44.7932 9.04932 45.0437 8.74609C45.2942 8.43848 45.604 8.19897 45.9731 8.02759C46.3466 7.8562 46.7773 7.77051 47.2651 7.77051C47.8144 7.77051 48.2824 7.88037 48.6692 8.1001C49.0559 8.31982 49.3701 8.61426 49.6118 8.9834C49.8579 9.35254 50.038 9.76782 50.1523 10.2292C50.2666 10.6907 50.3237 11.1653 50.3237 11.6531V12.0947C50.3237 12.5913 50.2907 13.0967 50.2248 13.6108C50.1633 14.1206 50.0424 14.6084 49.8623 15.0742C49.6865 15.54 49.4294 15.9575 49.091 16.3267C48.7526 16.6914 48.311 16.9814 47.7661 17.1968C47.2255 17.4077 46.5576 17.5132 45.7622 17.5132H45.6369V16.4783ZM53.8764 7.90234V17.5H52.6042V7.90234H53.8764ZM57.8974 12.22V13.2615H53.5996V12.22H57.8974ZM58.55 7.90234V8.94385H53.5996V7.90234H58.55ZM66.0446 11.9365V13.3999C66.0446 14.1865 65.9743 14.8501 65.8337 15.3906C65.693 15.9312 65.4909 16.3662 65.2272 16.6958C64.9635 17.0254 64.6449 17.2649 64.2714 17.4143C63.9023 17.5593 63.4848 17.6318 63.019 17.6318C62.6498 17.6318 62.3092 17.5857 61.9972 17.4934C61.6852 17.4011 61.404 17.2539 61.1535 17.0518C60.9074 16.8452 60.6965 16.5771 60.5207 16.2476C60.3449 15.918 60.2109 15.5181 60.1186 15.0479C60.0263 14.5776 59.9801 14.0283 59.9801 13.3999V11.9365C59.9801 11.1499 60.0505 10.4907 60.1911 9.95898C60.3361 9.42725 60.5404 9.00098 60.8041 8.68018C61.0678 8.35498 61.3842 8.12207 61.7533 7.98145C62.1269 7.84082 62.5444 7.77051 63.0058 7.77051C63.3793 7.77051 63.7221 7.81665 64.0341 7.90894C64.3505 7.99683 64.6318 8.13965 64.8779 8.3374C65.1239 8.53076 65.3327 8.79004 65.5041 9.11523C65.6799 9.43604 65.8139 9.82935 65.9062 10.2952C65.9985 10.761 66.0446 11.3081 66.0446 11.9365ZM64.8185 13.5977V11.7322C64.8185 11.3015 64.7922 10.9236 64.7394 10.5984C64.6911 10.2688 64.6186 9.98755 64.5219 9.75464C64.4252 9.52173 64.3022 9.33276 64.1528 9.18774C64.0077 9.04272 63.8385 8.93726 63.6452 8.87134C63.4562 8.80103 63.2431 8.76587 63.0058 8.76587C62.7157 8.76587 62.4587 8.8208 62.2345 8.93066C62.0104 9.03613 61.8215 9.20532 61.6676 9.43823C61.5182 9.67114 61.404 9.97656 61.3249 10.3545C61.2458 10.7324 61.2062 11.1917 61.2062 11.7322V13.5977C61.2062 14.0283 61.2304 14.4084 61.2787 14.738C61.3315 15.0676 61.4084 15.3533 61.5094 15.595C61.6105 15.8323 61.7336 16.0278 61.8786 16.1816C62.0236 16.3354 62.1906 16.4497 62.3796 16.5244C62.5729 16.5947 62.7861 16.6299 63.019 16.6299C63.3178 16.6299 63.5793 16.5728 63.8034 16.4585C64.0275 16.3442 64.2143 16.1663 64.3637 15.9246C64.5175 15.6785 64.6318 15.3643 64.7065 14.9819C64.7812 14.5952 64.8185 14.1338 64.8185 13.5977ZM70.797 17.5H68.7931L68.8063 16.4651H70.797C71.4826 16.4651 72.0539 16.3223 72.5109 16.0366C72.9679 15.7466 73.3107 15.3423 73.5392 14.8237C73.7721 14.3008 73.8886 13.6899 73.8886 12.9912V12.4045C73.8886 11.8552 73.8227 11.3674 73.6908 10.9412C73.559 10.5105 73.3656 10.1479 73.1107 9.85352C72.8559 9.55469 72.5438 9.32837 72.1747 9.17456C71.81 9.02075 71.3903 8.94385 70.9157 8.94385H68.7536V7.90234H70.9157C71.5441 7.90234 72.1176 8.00781 72.6361 8.21875C73.1547 8.42529 73.6007 8.72632 73.9743 9.12183C74.3522 9.51294 74.6422 9.98755 74.8444 10.5457C75.0465 11.0994 75.1476 11.7234 75.1476 12.4177V12.9912C75.1476 13.6855 75.0465 14.3118 74.8444 14.8699C74.6422 15.4236 74.35 15.896 73.9677 16.2871C73.5897 16.6782 73.1327 16.9792 72.5966 17.1902C72.0648 17.3967 71.465 17.5 70.797 17.5ZM69.4721 7.90234V17.5H68.1999V7.90234H69.4721ZM83.4266 16.4651V17.5H78.3444V16.4651H83.4266ZM78.6014 7.90234V17.5H77.3292V7.90234H78.6014ZM82.7543 12.0288V13.0637H78.3444V12.0288H82.7543ZM83.3607 7.90234V8.94385H78.3444V7.90234H83.3607Z" fill="black"/>
<rect x="0.305664" y="35" width="89.25" height="24" rx="3" fill="white"/>
<rect x="3.30566" y="38" width="18" height="18" rx="1.5" fill="#B70404"/>
<path d="M29.1448 52L31.0103 42.4023H31.9595L30.0874 52H29.1448ZM31.8276 52L33.6997 42.4023H34.6423L32.7703 52H31.8276ZM35.4465 46.0608H28.5911V45.1445H35.4465V46.0608ZM34.9521 49.2974H28.0901V48.3877H34.9521V49.2974ZM40.4297 47.511H37.9973L37.9841 46.4893H40.1924C40.5571 46.4893 40.8757 46.4277 41.1482 46.3047C41.4206 46.1816 41.6316 46.0059 41.781 45.7773C41.9348 45.5444 42.0117 45.2676 42.0117 44.9468C42.0117 44.5952 41.9436 44.3096 41.8074 44.0898C41.6755 43.8657 41.4712 43.7031 41.1943 43.6021C40.9219 43.4966 40.5747 43.4438 40.1528 43.4438H38.2807V52H37.0085V42.4023H40.1528C40.645 42.4023 41.0845 42.4529 41.4712 42.554C41.8579 42.6506 42.1853 42.8044 42.4534 43.0154C42.7258 43.2219 42.9324 43.4856 43.073 43.8064C43.2136 44.1272 43.2839 44.5117 43.2839 44.96C43.2839 45.3555 43.1828 45.7136 42.9807 46.0344C42.7785 46.3508 42.4973 46.6101 42.1369 46.8123C41.781 47.0144 41.3635 47.144 40.8845 47.2012L40.4297 47.511ZM40.3703 52H37.4963L38.2148 50.9651H40.3703C40.7746 50.9651 41.1174 50.8948 41.3987 50.7542C41.6843 50.6135 41.9018 50.4158 42.0513 50.1609C42.2007 49.9016 42.2754 49.5962 42.2754 49.2446C42.2754 48.8887 42.2117 48.5811 42.0842 48.3218C41.9568 48.0625 41.7568 47.8625 41.4844 47.7219C41.2119 47.5813 40.8603 47.511 40.4297 47.511H38.6169L38.6301 46.4893H41.1086L41.3789 46.8584C41.8403 46.8979 42.2314 47.0298 42.5522 47.2539C42.873 47.4736 43.1169 47.7549 43.2839 48.0977C43.4553 48.4404 43.541 48.8184 43.541 49.2314C43.541 49.8291 43.4092 50.3345 43.1455 50.7476C42.8862 51.1562 42.5193 51.4683 42.0447 51.6836C41.57 51.8945 41.0119 52 40.3703 52ZM51.5761 42.4023V43.0879L47.6013 52H46.3159L50.2841 43.4043H45.0898V42.4023H51.5761ZM59.2619 46.4365V47.8999C59.2619 48.6865 59.1916 49.3501 59.051 49.8906C58.9103 50.4312 58.7082 50.8662 58.4445 51.1958C58.1808 51.5254 57.8622 51.7649 57.4887 51.9143C57.1196 52.0593 56.7021 52.1318 56.2363 52.1318C55.8671 52.1318 55.5266 52.0857 55.2145 51.9934C54.9025 51.9011 54.6213 51.7539 54.3708 51.5518C54.1247 51.3452 53.9138 51.0771 53.738 50.7476C53.5622 50.418 53.4282 50.0181 53.3359 49.5479C53.2436 49.0776 53.1975 48.5283 53.1975 47.8999V46.4365C53.1975 45.6499 53.2678 44.9907 53.4084 44.459C53.5534 43.9272 53.7578 43.501 54.0214 43.1802C54.2851 42.855 54.6015 42.6221 54.9706 42.4814C55.3442 42.3408 55.7617 42.2705 56.2231 42.2705C56.5966 42.2705 56.9394 42.3167 57.2514 42.4089C57.5678 42.4968 57.8491 42.6396 58.0952 42.8374C58.3412 43.0308 58.55 43.29 58.7214 43.6152C58.8972 43.936 59.0312 44.3293 59.1235 44.7952C59.2158 45.261 59.2619 45.8081 59.2619 46.4365ZM58.0358 48.0977V46.2322C58.0358 45.8015 58.0095 45.4236 57.9567 45.0984C57.9084 44.7688 57.8359 44.4875 57.7392 44.2546C57.6425 44.0217 57.5195 43.8328 57.3701 43.6877C57.225 43.5427 57.0558 43.4373 56.8625 43.3713C56.6735 43.301 56.4604 43.2659 56.2231 43.2659C55.933 43.2659 55.676 43.3208 55.4518 43.4307C55.2277 43.5361 55.0388 43.7053 54.885 43.9382C54.7355 44.1711 54.6213 44.4766 54.5422 44.8545C54.4631 45.2324 54.4235 45.6917 54.4235 46.2322V48.0977C54.4235 48.5283 54.4477 48.9084 54.496 49.238C54.5488 49.5676 54.6257 49.8533 54.7267 50.095C54.8278 50.3323 54.9509 50.5278 55.0959 50.6816C55.2409 50.8354 55.4079 50.9497 55.5969 51.0244C55.7902 51.0947 56.0034 51.1299 56.2363 51.1299C56.5351 51.1299 56.7966 51.0728 57.0207 50.9585C57.2448 50.8442 57.4316 50.6663 57.581 50.4246C57.7348 50.1785 57.8491 49.8643 57.9238 49.4819C57.9985 49.0952 58.0358 48.6338 58.0358 48.0977ZM67.5871 48.77V49.772H60.6525V49.0535L64.9504 42.4023H65.9457L64.8779 44.3271L62.0368 48.77H67.5871ZM66.2489 42.4023V52H65.0295V42.4023H66.2489ZM74.9894 46.4365V47.8999C74.9894 48.6865 74.9191 49.3501 74.7785 49.8906C74.6378 50.4312 74.4357 50.8662 74.172 51.1958C73.9083 51.5254 73.5897 51.7649 73.2162 51.9143C72.8471 52.0593 72.4296 52.1318 71.9638 52.1318C71.5946 52.1318 71.2541 52.0857 70.942 51.9934C70.63 51.9011 70.3488 51.7539 70.0983 51.5518C69.8522 51.3452 69.6413 51.0771 69.4655 50.7476C69.2897 50.418 69.1557 50.0181 69.0634 49.5479C68.9711 49.0776 68.9249 48.5283 68.9249 47.8999V46.4365C68.9249 45.6499 68.9953 44.9907 69.1359 44.459C69.2809 43.9272 69.4853 43.501 69.7489 43.1802C70.0126 42.855 70.329 42.6221 70.6981 42.4814C71.0717 42.3408 71.4892 42.2705 71.9506 42.2705C72.3241 42.2705 72.6669 42.3167 72.9789 42.4089C73.2953 42.4968 73.5766 42.6396 73.8227 42.8374C74.0687 43.0308 74.2775 43.29 74.4489 43.6152C74.6247 43.936 74.7587 44.3293 74.851 44.7952C74.9433 45.261 74.9894 45.8081 74.9894 46.4365ZM73.7633 48.0977V46.2322C73.7633 45.8015 73.737 45.4236 73.6842 45.0984C73.6359 44.7688 73.5634 44.4875 73.4667 44.2546C73.37 44.0217 73.247 43.8328 73.0976 43.6877C72.9525 43.5427 72.7833 43.4373 72.59 43.3713C72.401 43.301 72.1879 43.2659 71.9506 43.2659C71.6605 43.2659 71.4035 43.3208 71.1793 43.4307C70.9552 43.5361 70.7663 43.7053 70.6124 43.9382C70.463 44.1711 70.3488 44.4766 70.2697 44.8545C70.1906 45.2324 70.151 45.6917 70.151 46.2322V48.0977C70.151 48.5283 70.1752 48.9084 70.2235 49.238C70.2763 49.5676 70.3532 49.8533 70.4542 50.095C70.5553 50.3323 70.6784 50.5278 70.8234 50.6816C70.9684 50.8354 71.1354 50.9497 71.3244 51.0244C71.5177 51.0947 71.7309 51.1299 71.9638 51.1299C72.2626 51.1299 72.5241 51.0728 72.7482 50.9585C72.9723 50.8442 73.1591 50.6663 73.3085 50.4246C73.4623 50.1785 73.5766 49.8643 73.6513 49.4819C73.726 49.0952 73.7633 48.6338 73.7633 48.0977ZM83.3146 48.77V49.772H76.38V49.0535L80.6779 42.4023H81.6732L80.6054 44.3271L77.7643 48.77H83.3146ZM81.9764 42.4023V52H80.757V42.4023H81.9764Z" fill="black"/>
<rect x="0.305664" y="69.5" width="89.25" height="24" rx="3" fill="white"/>
<rect x="3.30566" y="72.5" width="18" height="18" rx="1.5" fill="#FF9083"/>
<path d="M29.1448 86.5L31.0103 76.9023H31.9595L30.0874 86.5H29.1448ZM31.8276 86.5L33.6997 76.9023H34.6423L32.7703 86.5H31.8276ZM35.4465 80.5608H28.5911V79.6445H35.4465V80.5608ZM34.9521 83.7974H28.0901V82.8877H34.9521V83.7974ZM38.2807 76.9023V86.5H37.0085V76.9023H38.2807ZM42.3017 81.22V82.2615H38.0039V81.22H42.3017ZM42.9543 76.9023V77.9438H38.0039V76.9023H42.9543ZM46.0127 76.9023V86.5H44.7404V76.9023H46.0127ZM50.0337 81.22V82.2615H45.7358V81.22H50.0337ZM50.6862 76.9023V77.9438H45.7358V76.9023H50.6862ZM53.3688 85.4783H53.4941C54.1972 85.4783 54.7685 85.3794 55.2079 85.1816C55.6474 84.9839 55.9858 84.718 56.2231 84.384C56.4604 84.05 56.623 83.6743 56.7109 83.2568C56.7988 82.835 56.8427 82.4021 56.8427 81.9583V80.4883C56.8427 80.0532 56.7922 79.6665 56.6911 79.3281C56.5944 78.9897 56.4582 78.7063 56.2824 78.4778C56.111 78.2493 55.9155 78.0757 55.6957 77.957C55.476 77.8384 55.2431 77.7791 54.997 77.7791C54.7158 77.7791 54.4631 77.8362 54.239 77.9504C54.0192 78.0603 53.8325 78.2163 53.6787 78.4185C53.5292 78.6206 53.415 78.8579 53.3359 79.1304C53.2568 79.4028 53.2172 79.6995 53.2172 80.0203C53.2172 80.3059 53.2524 80.5828 53.3227 80.8508C53.393 81.1189 53.5007 81.3606 53.6457 81.5759C53.7907 81.7913 53.9709 81.9626 54.1862 82.0901C54.4059 82.2131 54.663 82.2747 54.9575 82.2747C55.2299 82.2747 55.4848 82.2219 55.7221 82.1165C55.9638 82.0066 56.1769 81.8594 56.3615 81.6748C56.5505 81.4858 56.6999 81.2727 56.8098 81.0354C56.924 80.7981 56.9899 80.5498 57.0075 80.2905H57.5876C57.5876 80.6553 57.5151 81.0156 57.3701 81.3716C57.2294 81.7231 57.0317 82.0439 56.7768 82.334C56.5219 82.624 56.2231 82.8569 55.8803 83.0327C55.5375 83.2041 55.164 83.2898 54.7597 83.2898C54.2851 83.2898 53.8742 83.1975 53.527 83.0129C53.1799 82.8284 52.8942 82.5823 52.6701 82.2747C52.4504 81.967 52.2856 81.6243 52.1757 81.2463C52.0703 80.864 52.0175 80.4773 52.0175 80.0862C52.0175 79.6292 52.0812 79.2007 52.2087 78.8008C52.3361 78.4009 52.5251 78.0493 52.7756 77.7461C53.0261 77.4385 53.3359 77.199 53.705 77.0276C54.0786 76.8562 54.5092 76.7705 54.997 76.7705C55.5463 76.7705 56.0143 76.8804 56.4011 77.1001C56.7878 77.3198 57.102 77.6143 57.3437 77.9834C57.5898 78.3525 57.77 78.7678 57.8842 79.2292C57.9985 79.6907 58.0556 80.1653 58.0556 80.6531V81.0947C58.0556 81.5913 58.0226 82.0967 57.9567 82.6108C57.8952 83.1206 57.7744 83.6084 57.5942 84.0742C57.4184 84.54 57.1613 84.9575 56.8229 85.3267C56.4846 85.6914 56.0429 85.9814 55.498 86.1968C54.9575 86.4077 54.2895 86.5132 53.4941 86.5132H53.3688V85.4783ZM66.0446 80.9365V82.3999C66.0446 83.1865 65.9743 83.8501 65.8337 84.3906C65.693 84.9312 65.4909 85.3662 65.2272 85.6958C64.9635 86.0254 64.6449 86.2649 64.2714 86.4143C63.9023 86.5593 63.4848 86.6318 63.019 86.6318C62.6498 86.6318 62.3092 86.5857 61.9972 86.4934C61.6852 86.4011 61.404 86.2539 61.1535 86.0518C60.9074 85.8452 60.6965 85.5771 60.5207 85.2476C60.3449 84.918 60.2109 84.5181 60.1186 84.0479C60.0263 83.5776 59.9801 83.0283 59.9801 82.3999V80.9365C59.9801 80.1499 60.0505 79.4907 60.1911 78.959C60.3361 78.4272 60.5404 78.001 60.8041 77.6802C61.0678 77.355 61.3842 77.1221 61.7533 76.9814C62.1269 76.8408 62.5444 76.7705 63.0058 76.7705C63.3793 76.7705 63.7221 76.8167 64.0341 76.9089C64.3505 76.9968 64.6318 77.1396 64.8779 77.3374C65.1239 77.5308 65.3327 77.79 65.5041 78.1152C65.6799 78.436 65.8139 78.8293 65.9062 79.2952C65.9985 79.761 66.0446 80.3081 66.0446 80.9365ZM64.8185 82.5977V80.7322C64.8185 80.3015 64.7922 79.9236 64.7394 79.5984C64.6911 79.2688 64.6186 78.9875 64.5219 78.7546C64.4252 78.5217 64.3022 78.3328 64.1528 78.1877C64.0077 78.0427 63.8385 77.9373 63.6452 77.8713C63.4562 77.801 63.2431 77.7659 63.0058 77.7659C62.7157 77.7659 62.4587 77.8208 62.2345 77.9307C62.0104 78.0361 61.8215 78.2053 61.6676 78.4382C61.5182 78.6711 61.404 78.9766 61.3249 79.3545C61.2458 79.7324 61.2062 80.1917 61.2062 80.7322V82.5977C61.2062 83.0283 61.2304 83.4084 61.2787 83.738C61.3315 84.0676 61.4084 84.3533 61.5094 84.595C61.6105 84.8323 61.7336 85.0278 61.8786 85.1816C62.0236 85.3354 62.1906 85.4497 62.3796 85.5244C62.5729 85.5947 62.7861 85.6299 63.019 85.6299C63.3178 85.6299 63.5793 85.5728 63.8034 85.4585C64.0275 85.3442 64.2143 85.1663 64.3637 84.9246C64.5175 84.6785 64.6318 84.3643 64.7065 83.9819C64.7812 83.5952 64.8185 83.1338 64.8185 82.5977ZM73.9347 83.9028C73.9347 84.4873 73.7985 84.9839 73.526 85.3926C73.258 85.7969 72.8932 86.1045 72.4318 86.3154C71.9748 86.5264 71.4584 86.6318 70.8827 86.6318C70.307 86.6318 69.7885 86.5264 69.327 86.3154C68.8656 86.1045 68.5009 85.7969 68.2328 85.3926C67.9647 84.9839 67.8307 84.4873 67.8307 83.9028C67.8307 83.5205 67.9032 83.1711 68.0482 82.8547C68.1977 82.5339 68.4064 82.2549 68.6745 82.0176C68.9469 81.7803 69.2677 81.5979 69.6369 81.4705C70.0104 81.3386 70.4213 81.2727 70.8695 81.2727C71.4584 81.2727 71.9835 81.387 72.445 81.6155C72.9064 81.8396 73.2689 82.1494 73.5326 82.5449C73.8007 82.9404 73.9347 83.3931 73.9347 83.9028ZM72.7086 83.8765C72.7086 83.5205 72.6317 83.2063 72.4779 82.9338C72.3241 82.657 72.1088 82.4417 71.8319 82.2878C71.5551 82.134 71.2343 82.0571 70.8695 82.0571C70.496 82.0571 70.173 82.134 69.9005 82.2878C69.6325 82.4417 69.4237 82.657 69.2743 82.9338C69.1249 83.2063 69.0502 83.5205 69.0502 83.8765C69.0502 84.2456 69.1227 84.562 69.2677 84.8257C69.4171 85.085 69.6281 85.2849 69.9005 85.4255C70.1774 85.5618 70.5048 85.6299 70.8827 85.6299C71.2606 85.6299 71.5858 85.5618 71.8583 85.4255C72.1308 85.2849 72.3395 85.085 72.4845 84.8257C72.6339 84.562 72.7086 84.2456 72.7086 83.8765ZM73.7106 79.4006C73.7106 79.8665 73.5875 80.2861 73.3415 80.6597C73.0954 81.0332 72.7592 81.3276 72.3329 81.543C71.9066 81.7583 71.4232 81.866 70.8827 81.866C70.3334 81.866 69.8434 81.7583 69.4127 81.543C68.9865 81.3276 68.6525 81.0332 68.4108 80.6597C68.1691 80.2861 68.0482 79.8665 68.0482 79.4006C68.0482 78.8425 68.1691 78.3679 68.4108 77.9768C68.6569 77.5857 68.9931 77.2869 69.4193 77.0803C69.8456 76.8738 70.3312 76.7705 70.8761 76.7705C71.4254 76.7705 71.9132 76.8738 72.3395 77.0803C72.7658 77.2869 73.0998 77.5857 73.3415 77.9768C73.5875 78.3679 73.7106 78.8425 73.7106 79.4006ZM72.4911 79.4204C72.4911 79.0996 72.423 78.8162 72.2868 78.5701C72.1505 78.324 71.9616 78.1306 71.7199 77.99C71.4782 77.845 71.1969 77.7725 70.8761 77.7725C70.5553 77.7725 70.2741 77.8406 70.0324 77.9768C69.7951 78.1086 69.6083 78.2976 69.4721 78.5437C69.3402 78.7898 69.2743 79.082 69.2743 79.4204C69.2743 79.75 69.3402 80.0378 69.4721 80.2839C69.6083 80.53 69.7973 80.7212 70.039 80.8574C70.2807 80.9937 70.5619 81.0618 70.8827 81.0618C71.2035 81.0618 71.4826 80.9937 71.7199 80.8574C71.9616 80.7212 72.1505 80.53 72.2868 80.2839C72.423 80.0378 72.4911 79.75 72.4911 79.4204ZM77.527 81.1013H78.3971C78.8234 81.1013 79.1749 81.031 79.4518 80.8904C79.733 80.7454 79.9418 80.5498 80.078 80.3037C80.2186 80.0532 80.2889 79.772 80.2889 79.46C80.2889 79.0908 80.2274 78.781 80.1044 78.5305C79.9813 78.28 79.7968 78.0911 79.5507 77.9636C79.3046 77.8362 78.9926 77.7725 78.6146 77.7725C78.2719 77.7725 77.9686 77.8406 77.705 77.9768C77.4457 78.1086 77.2413 78.2976 77.0919 78.5437C76.9469 78.7898 76.8744 79.0798 76.8744 79.4138H75.6549C75.6549 78.926 75.778 78.4822 76.0241 78.0823C76.2701 77.6824 76.6151 77.3638 77.059 77.1265C77.5072 76.8892 78.0258 76.7705 78.6146 76.7705C79.1947 76.7705 79.7023 76.8738 80.1373 77.0803C80.5724 77.2825 80.9108 77.5857 81.1525 77.99C81.3942 78.3899 81.515 78.8887 81.515 79.4863C81.515 79.728 81.4579 79.9873 81.3436 80.2642C81.2338 80.5366 81.0602 80.7915 80.8229 81.0288C80.59 81.2661 80.2867 81.4617 79.9132 81.6155C79.5397 81.7649 79.0914 81.8396 78.5685 81.8396H77.527V81.1013ZM77.527 82.1033V81.3716H78.5685C79.1793 81.3716 79.6847 81.4441 80.0846 81.5891C80.4845 81.7341 80.7987 81.9275 81.0272 82.1692C81.2601 82.4109 81.4227 82.6768 81.515 82.9668C81.6117 83.2524 81.66 83.5381 81.66 83.8237C81.66 84.272 81.5831 84.6697 81.4293 85.0168C81.2799 85.364 81.0668 85.6584 80.7899 85.9001C80.5175 86.1418 80.1967 86.3242 79.8275 86.4473C79.4584 86.5703 79.0563 86.6318 78.6212 86.6318C78.2037 86.6318 77.8104 86.5725 77.4413 86.4539C77.0765 86.3352 76.7535 86.1638 76.4723 85.9397C76.191 85.7112 75.9713 85.4321 75.8131 85.1025C75.6549 84.7686 75.5758 84.3884 75.5758 83.9622H76.7953C76.7953 84.2961 76.8678 84.5884 77.0128 84.8389C77.1622 85.0894 77.3732 85.2849 77.6456 85.4255C77.9225 85.5618 78.2477 85.6299 78.6212 85.6299C78.9948 85.6299 79.3156 85.5662 79.5836 85.4387C79.8561 85.3069 80.0648 85.1091 80.2098 84.8455C80.3593 84.5818 80.434 84.25 80.434 83.8501C80.434 83.4502 80.3505 83.1228 80.1835 82.8679C80.0165 82.6086 79.7792 82.4175 79.4716 82.2944C79.1683 82.167 78.8102 82.1033 78.3971 82.1033H77.527Z" fill="black"/>
</svg>
