<svg width="17" height="25" viewBox="0 0 17 25" fill="none" xmlns="http://www.w3.org/2000/svg">
<path d="M0.8125 20.1875C0.8125 18.0647 2.53341 16.3438 4.65625 16.3438H8.5V20.1875C8.5 22.3103 6.77909 24.0312 4.65625 24.0312C2.53341 24.0312 0.8125 22.3103 0.8125 20.1875Z" fill="#0ACF83"/>
<path d="M8.5 12.5C8.5 10.3772 10.2209 8.65625 12.3437 8.65625C14.4666 8.65625 16.1875 10.3772 16.1875 12.5C16.1875 14.6228 14.4666 16.3438 12.3437 16.3438C10.2209 16.3438 8.5 14.6228 8.5 12.5Z" fill="#1ABCFE"/>
<path d="M0.8125 12.5C0.8125 14.6228 2.53341 16.3438 4.65625 16.3438H8.5V8.65625H4.65625C2.53341 8.65625 0.8125 10.3772 0.8125 12.5Z" fill="#A259FF"/>
<path d="M8.5 0.96875V8.65625H12.3438C14.4666 8.65625 16.1875 6.93534 16.1875 4.8125C16.1875 2.68966 14.4666 0.96875 12.3438 0.96875L8.5 0.96875Z" fill="#FF7262"/>
<path d="M0.8125 4.8125C0.8125 6.93534 2.53341 8.65625 4.65625 8.65625L8.5 8.65625V0.96875H4.65625C2.53341 0.96875 0.8125 2.68966 0.8125 4.8125Z" fill="#F24E1E"/>
</svg>
