<svg width="281" height="280" viewBox="0 0 281 280" fill="none" xmlns="http://www.w3.org/2000/svg">
<path d="M141.583 0C139.845 18.8517 135.918 26.0041 117.083 27.5C133.397 30.3302 138.643 36.7134 141.583 56C144.629 38.9266 149.238 32.4638 163.583 27.5C145.639 24.9794 143.169 16.8958 141.583 0Z" fill="#B70404" fill-opacity="0.42"/>
<path d="M223.634 27.4723C211.148 41.7024 203.766 45.1803 187.649 35.3196C199.184 47.1987 199.676 55.4461 190.718 72.7773C203.218 60.7549 210.745 58.2358 225.268 62.6516C212.233 50.0654 214.986 42.0738 223.634 27.4723Z" fill="#B70404" fill-opacity="0.42"/>
<path d="M273.867 97.9264C255.401 102.099 247.385 100.574 240.142 83.1235C242.492 99.5141 238.042 106.475 220.608 115.231C237.787 112.852 245.358 115.239 254.511 127.348C251.363 109.503 258.288 104.656 273.867 97.9264Z" fill="#B70404" fill-opacity="0.42"/>
<path d="M273.094 184.451C255.702 176.973 250.114 171.028 254.511 152.652C246.778 167.294 239.086 170.31 219.835 167.146C235.132 175.319 239.854 181.7 240.142 196.877C248.084 180.59 256.535 180.739 273.094 184.451Z" fill="#B70404" fill-opacity="0.42"/>
<path d="M221.611 253.997C211.936 237.725 210.909 229.63 225.268 217.348C210.406 224.648 202.41 222.567 188.695 208.692C196.267 224.295 196.336 232.233 187.649 244.68C203.647 236.173 210.397 241.261 221.611 253.997Z" fill="#B70404" fill-opacity="0.42"/>
<path d="M139.083 280C140.82 261.148 144.747 253.996 163.583 252.5C147.268 249.67 142.022 243.287 139.083 224C136.037 241.073 131.427 247.536 117.083 252.5C135.026 255.021 137.496 263.104 139.083 280Z" fill="#B70404" fill-opacity="0.42"/>
<path d="M57.0314 252.528C69.5178 238.298 76.8993 234.82 93.0164 244.68C81.4812 232.801 80.9894 224.554 89.9474 207.223C77.4477 219.245 69.9198 221.764 55.3971 217.348C68.4322 229.935 65.6791 237.926 57.0314 252.528Z" fill="#B70404" fill-opacity="0.42"/>
<path d="M6.79847 182.074C25.2644 177.901 33.2804 179.426 40.5234 196.877C38.1737 180.486 42.6235 173.525 60.0576 164.769C42.8786 167.148 35.3077 164.761 26.1541 152.652C29.3018 170.497 22.3771 175.344 6.79847 182.074Z" fill="#B70404" fill-opacity="0.42"/>
<path d="M7.57092 95.5487C24.963 103.027 30.5518 108.972 26.1541 127.348C33.8872 112.706 41.5789 109.69 60.8301 112.854C45.5335 104.681 40.8114 98.2999 40.5233 83.1235C32.5813 99.4099 24.13 99.2611 7.57092 95.5487Z" fill="#B70404" fill-opacity="0.42"/>
<path d="M59.0541 26.0028C68.7291 42.2754 69.7559 50.3704 55.3972 62.6515C70.2595 55.3518 78.2552 57.4327 91.97 71.3078C84.3986 55.7048 84.3291 47.7669 93.0165 35.3195C77.0183 43.8273 70.2686 38.7394 59.0541 26.0028Z" fill="#B70404" fill-opacity="0.42"/>
</svg>
