<svg width="21" height="21" viewBox="0 0 21 21" fill="none" xmlns="http://www.w3.org/2000/svg">
<mask id="mask0_346_401" style="mask-type:alpha" maskUnits="userSpaceOnUse" x="0" y="0" width="21" height="21">
<path fill-rule="evenodd" clip-rule="evenodd" d="M14.6824 20.3633C14.9974 20.4861 15.3565 20.4782 15.6745 20.3252L19.7921 18.3439C20.2248 18.1357 20.5 17.6978 20.5 17.2174V3.7826C20.5 3.3022 20.2248 2.8643 19.7922 2.6561L15.6745 0.67469C15.2572 0.473913 14.7689 0.523091 14.4027 0.789329C14.3504 0.827361 14.3005 0.869825 14.2538 0.91662L6.37101 8.10823L2.93744 5.50185C2.6178 5.25923 2.17072 5.27911 1.87386 5.54915L0.772606 6.55091C0.40949 6.88121 0.409074 7.45247 0.771706 7.78333L3.74942 10.4999L0.771706 13.2166C0.409074 13.5474 0.40949 14.1187 0.772606 14.449L1.87386 15.4507C2.17072 15.7208 2.6178 15.7407 2.93744 15.498L6.37101 12.8917L14.2538 20.0833C14.3785 20.208 14.5249 20.302 14.6824 20.3633ZM15.503 5.95971L9.52181 10.4999L15.503 15.0402V5.95971Z" fill="white"/>
</mask>
<g mask="url(#mask0_346_401)">
<path d="M19.7923 2.65938L15.6714 0.675249C15.1944 0.445586 14.6243 0.542463 14.25 0.916806L0.759726 13.2168C0.396872 13.5476 0.397289 14.1189 0.760626 14.4492L1.86255 15.4509C2.15959 15.721 2.60695 15.7408 2.92677 15.4982L19.1722 3.17412C19.7172 2.76066 20.5 3.14938 20.5 3.83348V3.78564C20.5 3.30544 20.2249 2.8677 19.7923 2.65938Z" fill="#0065A9"/>
<g filter="url(#filter0_d_346_401)">
<path d="M19.7923 18.3407L15.6714 20.3248C15.1944 20.5545 14.6243 20.4576 14.25 20.0832L0.759726 7.7833C0.396872 7.45246 0.397289 6.88118 0.760626 6.55088L1.86255 5.54912C2.15959 5.27908 2.60695 5.2592 2.92677 5.50182L19.1722 17.8259C19.7172 18.2394 20.5 17.8507 20.5 17.1666V17.2144C20.5 17.6946 20.2249 18.1323 19.7923 18.3407Z" fill="#007ACC"/>
</g>
<g filter="url(#filter1_d_346_401)">
<path d="M15.6716 20.3252C15.1944 20.5547 14.6244 20.4576 14.25 20.0833C14.7113 20.5445 15.5 20.2178 15.5 19.5655V1.43439C15.5 0.782041 14.7113 0.455342 14.25 0.916621C14.6244 0.542244 15.1944 0.44523 15.6716 0.67469L19.7917 2.6561C20.2247 2.8643 20.5 3.3022 20.5 3.7826V17.2174C20.5 17.6978 20.2247 18.1357 19.7917 18.3439L15.6716 20.3252Z" fill="#1F9CF0"/>
</g>
<g style="mix-blend-mode:overlay" opacity="0.25">
<path fill-rule="evenodd" clip-rule="evenodd" d="M14.6702 20.3635C14.9852 20.4862 15.3444 20.4783 15.6623 20.3253L19.78 18.344C20.2127 18.1358 20.4878 17.6979 20.4878 17.2175V3.78273C20.4878 3.30231 20.2127 2.86441 19.78 2.65621L15.6623 0.674812C15.2451 0.474035 14.7568 0.523213 14.3905 0.789449C14.3382 0.827483 14.2884 0.869947 14.2416 0.916743L6.35886 8.10835L2.92529 5.50199C2.60567 5.25935 2.15858 5.27925 1.86172 5.54927L0.76046 6.55103C0.397344 6.88135 0.396928 7.45261 0.75956 7.78345L3.73727 10.5001L0.75956 13.2167C0.396928 13.5475 0.397344 14.1188 0.76046 14.4491L1.86172 15.4509C2.15858 15.7209 2.60567 15.7408 2.92529 15.4982L6.35886 12.8918L14.2416 20.0834C14.3663 20.2082 14.5128 20.3021 14.6702 20.3635ZM15.4909 5.95985L9.50966 10.5001L15.4909 15.0403V5.95985Z" fill="url(#paint0_linear_346_401)"/>
</g>
</g>
<defs>
<filter id="filter0_d_346_401" x="-1.17881" y="3.66573" width="23.3455" height="18.4492" filterUnits="userSpaceOnUse" color-interpolation-filters="sRGB">
<feFlood flood-opacity="0" result="BackgroundImageFix"/>
<feColorMatrix in="SourceAlpha" type="matrix" values="0 0 0 0 0 0 0 0 0 0 0 0 0 0 0 0 0 0 127 0" result="hardAlpha"/>
<feOffset/>
<feGaussianBlur stdDeviation="0.833333"/>
<feColorMatrix type="matrix" values="0 0 0 0 0 0 0 0 0 0 0 0 0 0 0 0 0 0 0.25 0"/>
<feBlend mode="overlay" in2="BackgroundImageFix" result="effect1_dropShadow_346_401"/>
<feBlend mode="normal" in="SourceGraphic" in2="effect1_dropShadow_346_401" result="shape"/>
</filter>
<filter id="filter1_d_346_401" x="12.5833" y="-1.11515" width="9.58333" height="23.2302" filterUnits="userSpaceOnUse" color-interpolation-filters="sRGB">
<feFlood flood-opacity="0" result="BackgroundImageFix"/>
<feColorMatrix in="SourceAlpha" type="matrix" values="0 0 0 0 0 0 0 0 0 0 0 0 0 0 0 0 0 0 127 0" result="hardAlpha"/>
<feOffset/>
<feGaussianBlur stdDeviation="0.833333"/>
<feColorMatrix type="matrix" values="0 0 0 0 0 0 0 0 0 0 0 0 0 0 0 0 0 0 0.25 0"/>
<feBlend mode="overlay" in2="BackgroundImageFix" result="effect1_dropShadow_346_401"/>
<feBlend mode="normal" in="SourceGraphic" in2="effect1_dropShadow_346_401" result="shape"/>
</filter>
<linearGradient id="paint0_linear_346_401" x1="10.4878" y1="0.551636" x2="10.4878" y2="20.4485" gradientUnits="userSpaceOnUse">
<stop stop-color="white"/>
<stop offset="1" stop-color="white" stop-opacity="0"/>
</linearGradient>
</defs>
</svg>
