<svg width="222" height="304" viewBox="0 0 222 304" fill="none" xmlns="http://www.w3.org/2000/svg">
<g filter="url(#filter0_d_438_482)">
<rect x="22" y="26" width="162" height="244" rx="12" fill="#E94649" fill-opacity="0.5" shape-rendering="crispEdges"/>
<rect x="22.5" y="26.5" width="161" height="243" rx="11.5" stroke="#E94649" stroke-opacity="0.5" shape-rendering="crispEdges"/>
<rect x="28" y="32" width="150" height="232" rx="6" fill="white" fill-opacity="0.9"/>
<path d="M52.8643 54.2031V67H50.2363V54.2031H52.8643ZM56.8018 54.2031V56.2686H46.3604V54.2031H56.8018ZM60.6422 65.9277L63.1647 57.4902H65.8805L62.0573 68.4326C61.9752 68.6729 61.8639 68.9307 61.7233 69.2061C61.5885 69.4814 61.4039 69.7422 61.1696 69.9883C60.9411 70.2402 60.651 70.4453 60.2995 70.6035C59.9537 70.7617 59.5289 70.8408 59.025 70.8408C58.7848 70.8408 58.5885 70.8262 58.4362 70.7969C58.2838 70.7676 58.1022 70.7266 57.8912 70.6738V68.8193C57.9557 68.8193 58.0231 68.8193 58.0934 68.8193C58.1637 68.8252 58.2311 68.8281 58.2955 68.8281C58.6295 68.8281 58.902 68.79 59.1129 68.7139C59.3239 68.6377 59.4938 68.5205 59.6227 68.3623C59.7516 68.21 59.8541 68.0107 59.9303 67.7646L60.6422 65.9277ZM59.5875 57.4902L61.653 64.3809L62.0133 67.0615L60.2907 67.2461L56.8717 57.4902H59.5875ZM69.7825 59.3184V70.6562H67.2512V57.4902H69.5979L69.7825 59.3184ZM75.803 62.1396V62.3242C75.803 63.0156 75.721 63.6572 75.5569 64.249C75.3987 64.8408 75.1643 65.3564 74.8538 65.7959C74.5432 66.2295 74.1565 66.5693 73.6936 66.8154C73.2366 67.0557 72.7093 67.1758 72.1116 67.1758C71.5315 67.1758 71.0276 67.0586 70.5999 66.8242C70.1721 66.5898 69.8118 66.2617 69.5188 65.8398C69.2317 65.4121 69.0003 64.917 68.8245 64.3545C68.6487 63.792 68.5139 63.1885 68.4202 62.5439V62.0605C68.5139 61.3691 68.6487 60.7363 68.8245 60.1621C69.0003 59.582 69.2317 59.0811 69.5188 58.6592C69.8118 58.2314 70.1692 57.9004 70.5911 57.666C71.0188 57.4316 71.5198 57.3145 72.094 57.3145C72.6975 57.3145 73.2278 57.4287 73.6848 57.6572C74.1477 57.8857 74.5345 58.2139 74.845 58.6416C75.1614 59.0693 75.3987 59.5791 75.5569 60.1709C75.721 60.7627 75.803 61.4189 75.803 62.1396ZM73.263 62.3242V62.1396C73.263 61.7354 73.2278 61.3633 73.1575 61.0234C73.093 60.6777 72.9876 60.376 72.8411 60.1182C72.7005 59.8604 72.513 59.6611 72.2786 59.5205C72.0501 59.374 71.7718 59.3008 71.4436 59.3008C71.0979 59.3008 70.802 59.3564 70.5559 59.4678C70.3157 59.5791 70.1194 59.7402 69.9671 59.9512C69.8147 60.1621 69.7005 60.4141 69.6243 60.707C69.5481 61 69.5012 61.3311 69.4837 61.7002V62.9219C69.513 63.3555 69.595 63.7451 69.7298 64.0908C69.8645 64.4307 70.0725 64.7002 70.3538 64.8994C70.635 65.0986 71.0042 65.1982 71.4612 65.1982C71.7952 65.1982 72.0764 65.125 72.305 64.9785C72.5335 64.8262 72.718 64.6182 72.8587 64.3545C73.0052 64.0908 73.1077 63.7861 73.1663 63.4404C73.2307 63.0947 73.263 62.7227 73.263 62.3242ZM82.1132 67.1758C81.3749 67.1758 80.7128 67.0586 80.1269 66.8242C79.5409 66.584 79.0429 66.2529 78.6327 65.8311C78.2284 65.4092 77.9179 64.9199 77.7011 64.3633C77.4843 63.8008 77.3759 63.2031 77.3759 62.5703V62.2188C77.3759 61.498 77.4784 60.8389 77.6835 60.2412C77.8886 59.6436 78.1816 59.125 78.5624 58.6855C78.9491 58.2461 79.4179 57.9092 79.9687 57.6748C80.5195 57.4346 81.1405 57.3145 81.832 57.3145C82.5058 57.3145 83.1034 57.4258 83.6249 57.6484C84.1464 57.8711 84.5829 58.1875 84.9345 58.5977C85.2919 59.0078 85.5614 59.5 85.7431 60.0742C85.9247 60.6426 86.0155 61.2754 86.0155 61.9727V63.0273H78.457V61.3398H83.5282V61.1465C83.5282 60.7949 83.4638 60.4814 83.3349 60.2061C83.2118 59.9248 83.0243 59.7021 82.7724 59.5381C82.5204 59.374 82.1982 59.292 81.8056 59.292C81.4716 59.292 81.1845 59.3652 80.9443 59.5117C80.704 59.6582 80.5077 59.8633 80.3554 60.127C80.2089 60.3906 80.0976 60.7012 80.0214 61.0586C79.9511 61.4102 79.9159 61.7969 79.9159 62.2188V62.5703C79.9159 62.9512 79.9687 63.3027 80.0741 63.625C80.1855 63.9473 80.3407 64.2256 80.54 64.46C80.745 64.6943 80.9911 64.876 81.2782 65.0049C81.5712 65.1338 81.9023 65.1982 82.2714 65.1982C82.7284 65.1982 83.1532 65.1104 83.5458 64.9346C83.9443 64.7529 84.287 64.4805 84.5741 64.1172L85.8046 65.4531C85.6054 65.7402 85.3329 66.0156 84.9872 66.2793C84.6474 66.543 84.2372 66.7598 83.7568 66.9297C83.2763 67.0938 82.7284 67.1758 82.1132 67.1758ZM91.0425 67H88.4937V56.6465C88.4937 55.9258 88.6343 55.3193 88.9156 54.8271C89.2027 54.3291 89.6041 53.9541 90.1197 53.7021C90.6412 53.4443 91.2593 53.3154 91.9742 53.3154C92.2086 53.3154 92.4341 53.333 92.6509 53.3682C92.8677 53.3975 93.0787 53.4355 93.2837 53.4824L93.2574 55.3896C93.1461 55.3604 93.0289 55.3398 92.9058 55.3281C92.7828 55.3164 92.6392 55.3105 92.4752 55.3105C92.1705 55.3105 91.9097 55.3633 91.6929 55.4688C91.482 55.5684 91.3209 55.7178 91.2095 55.917C91.0982 56.1162 91.0425 56.3594 91.0425 56.6465V67ZM92.941 57.4902V59.2832H87.0787V57.4902H92.941ZM99.7609 64.8555V60.6191C99.7609 60.3145 99.7111 60.0537 99.6115 59.8369C99.5119 59.6143 99.3566 59.4414 99.1457 59.3184C98.9406 59.1953 98.674 59.1338 98.3459 59.1338C98.0646 59.1338 97.8215 59.1836 97.6164 59.2832C97.4113 59.377 97.2531 59.5146 97.1418 59.6963C97.0305 59.8721 96.9748 60.0801 96.9748 60.3203H94.4436C94.4436 59.916 94.5373 59.5322 94.7248 59.1689C94.9123 58.8057 95.1848 58.4863 95.5422 58.2109C95.8996 57.9297 96.3244 57.71 96.8166 57.5518C97.3146 57.3936 97.8713 57.3145 98.4865 57.3145C99.2248 57.3145 99.8811 57.4375 100.455 57.6836C101.029 57.9297 101.481 58.2988 101.809 58.791C102.143 59.2832 102.31 59.8984 102.31 60.6367V64.7061C102.31 65.2275 102.342 65.6553 102.406 65.9893C102.471 66.3174 102.565 66.6045 102.688 66.8506V67H100.13C100.007 66.7422 99.9133 66.4199 99.8488 66.0332C99.7902 65.6406 99.7609 65.248 99.7609 64.8555ZM100.095 61.208L100.112 62.6406H98.6975C98.3635 62.6406 98.0734 62.6787 97.8273 62.7549C97.5812 62.8311 97.3791 62.9395 97.2209 63.0801C97.0627 63.2148 96.9455 63.373 96.8693 63.5547C96.799 63.7363 96.7639 63.9355 96.7639 64.1523C96.7639 64.3691 96.8137 64.5654 96.9133 64.7412C97.0129 64.9111 97.1564 65.0459 97.3439 65.1455C97.5314 65.2393 97.7512 65.2861 98.0031 65.2861C98.384 65.2861 98.715 65.21 98.9963 65.0576C99.2775 64.9053 99.4943 64.7178 99.6467 64.4951C99.8049 64.2725 99.8869 64.0615 99.8928 63.8623L100.561 64.9346C100.467 65.1748 100.338 65.4238 100.174 65.6816C100.016 65.9395 99.8137 66.1826 99.5676 66.4111C99.3215 66.6338 99.0256 66.8184 98.6799 66.9648C98.3342 67.1055 97.924 67.1758 97.4494 67.1758C96.8459 67.1758 96.298 67.0557 95.8059 66.8154C95.3195 66.5693 94.9328 66.2324 94.6457 65.8047C94.3645 65.3711 94.2238 64.8789 94.2238 64.3281C94.2238 63.8301 94.3176 63.3877 94.5051 63.001C94.6926 62.6143 94.968 62.2891 95.3312 62.0254C95.7004 61.7559 96.1604 61.5537 96.7111 61.4189C97.2619 61.2783 97.9006 61.208 98.6271 61.208H100.095ZM108.55 65.1982C108.86 65.1982 109.136 65.1396 109.376 65.0225C109.616 64.8994 109.804 64.7295 109.938 64.5127C110.079 64.29 110.152 64.0293 110.158 63.7305H112.54C112.534 64.3984 112.355 64.9932 112.004 65.5146C111.652 66.0303 111.181 66.4375 110.589 66.7363C109.997 67.0293 109.335 67.1758 108.602 67.1758C107.864 67.1758 107.22 67.0527 106.669 66.8066C106.124 66.5605 105.67 66.2207 105.306 65.7871C104.943 65.3477 104.671 64.8379 104.489 64.2578C104.307 63.6719 104.217 63.0449 104.217 62.377V62.1221C104.217 61.4482 104.307 60.8213 104.489 60.2412C104.671 59.6553 104.943 59.1455 105.306 58.7119C105.67 58.2725 106.124 57.9297 106.669 57.6836C107.214 57.4375 107.852 57.3145 108.585 57.3145C109.364 57.3145 110.047 57.4639 110.633 57.7627C111.224 58.0615 111.687 58.4893 112.021 59.0459C112.361 59.5967 112.534 60.25 112.54 61.0059H110.158C110.152 60.6895 110.085 60.4023 109.956 60.1445C109.833 59.8867 109.651 59.6816 109.411 59.5293C109.177 59.3711 108.887 59.292 108.541 59.292C108.172 59.292 107.87 59.3711 107.636 59.5293C107.401 59.6816 107.22 59.8926 107.091 60.1621C106.962 60.4258 106.871 60.7275 106.818 61.0674C106.771 61.4014 106.748 61.7529 106.748 62.1221V62.377C106.748 62.7461 106.771 63.1006 106.818 63.4404C106.865 63.7803 106.953 64.082 107.082 64.3457C107.217 64.6094 107.401 64.8174 107.636 64.9697C107.87 65.1221 108.175 65.1982 108.55 65.1982ZM118.745 67.1758C118.006 67.1758 117.344 67.0586 116.758 66.8242C116.172 66.584 115.674 66.2529 115.264 65.8311C114.86 65.4092 114.549 64.9199 114.332 64.3633C114.116 63.8008 114.007 63.2031 114.007 62.5703V62.2188C114.007 61.498 114.11 60.8389 114.315 60.2412C114.52 59.6436 114.813 59.125 115.194 58.6855C115.581 58.2461 116.049 57.9092 116.6 57.6748C117.151 57.4346 117.772 57.3145 118.463 57.3145C119.137 57.3145 119.735 57.4258 120.256 57.6484C120.778 57.8711 121.214 58.1875 121.566 58.5977C121.923 59.0078 122.193 59.5 122.374 60.0742C122.556 60.6426 122.647 61.2754 122.647 61.9727V63.0273H115.088V61.3398H120.16V61.1465C120.16 60.7949 120.095 60.4814 119.966 60.2061C119.843 59.9248 119.656 59.7021 119.404 59.5381C119.152 59.374 118.83 59.292 118.437 59.292C118.103 59.292 117.816 59.3652 117.576 59.5117C117.335 59.6582 117.139 59.8633 116.987 60.127C116.84 60.3906 116.729 60.7012 116.653 61.0586C116.582 61.4102 116.547 61.7969 116.547 62.2188V62.5703C116.547 62.9512 116.6 63.3027 116.706 63.625C116.817 63.9473 116.972 64.2256 117.171 64.46C117.376 64.6943 117.623 64.876 117.91 65.0049C118.203 65.1338 118.534 65.1982 118.903 65.1982C119.36 65.1982 119.785 65.1104 120.177 64.9346C120.576 64.7529 120.918 64.4805 121.206 64.1172L122.436 65.4531C122.237 65.7402 121.964 66.0156 121.619 66.2793C121.279 66.543 120.869 66.7598 120.388 66.9297C119.908 67.0938 119.36 67.1758 118.745 67.1758Z" fill="black"/>
<path d="M52.552 101H50.824V89.462H52.552V101ZM56.764 89.642H46.63V88.13H56.764V89.642ZM63.8781 92.072H65.5881L61.1421 102.422C60.8661 103.082 60.5121 103.592 60.0801 103.952C59.6601 104.312 59.0541 104.492 58.2621 104.492H57.2901V103.088H58.2261C58.5981 103.088 58.9041 102.992 59.1441 102.8C59.3961 102.62 59.6001 102.35 59.7561 101.99L60.1341 101.036L56.2821 92.072H58.0641L61.2861 100.082H60.6381L63.8781 92.072ZM69.1465 104.492H67.4725V92.072H69.1285V94.808H68.7505C68.8465 94.22 69.0685 93.698 69.4165 93.242C69.7765 92.786 70.2205 92.432 70.7485 92.18C71.2885 91.916 71.8765 91.784 72.5125 91.784C73.3765 91.784 74.1445 91.994 74.8165 92.414C75.4885 92.822 76.0165 93.386 76.4005 94.106C76.7845 94.814 76.9765 95.624 76.9765 96.536C76.9765 97.46 76.7785 98.282 76.3825 99.002C75.9985 99.71 75.4585 100.268 74.7625 100.676C74.0785 101.084 73.2985 101.288 72.4225 101.288C71.6185 101.288 70.9225 101.126 70.3345 100.802C69.7465 100.466 69.3025 100.016 69.0025 99.452C68.7025 98.876 68.5825 98.234 68.6425 97.526L68.9845 97.184C69.0325 97.7 69.2005 98.162 69.4885 98.57C69.7885 98.978 70.1665 99.296 70.6225 99.524C71.0905 99.74 71.5945 99.848 72.1345 99.848C72.7585 99.848 73.2985 99.71 73.7545 99.434C74.2105 99.146 74.5705 98.75 74.8345 98.246C75.0985 97.742 75.2305 97.172 75.2305 96.536C75.2305 95.9 75.1045 95.336 74.8525 94.844C74.6005 94.34 74.2525 93.944 73.8085 93.656C73.3645 93.368 72.8425 93.224 72.2425 93.224C71.6425 93.224 71.1085 93.374 70.6405 93.674C70.1845 93.962 69.8185 94.37 69.5425 94.898C69.2785 95.426 69.1465 96.038 69.1465 96.734V104.492ZM86.9245 98.372L87.9685 99.452C87.5005 100.028 86.9245 100.478 86.2405 100.802C85.5685 101.126 84.8065 101.288 83.9545 101.288C82.9825 101.288 82.1185 101.084 81.3625 100.676C80.6065 100.268 80.0125 99.71 79.5805 99.002C79.1605 98.282 78.9505 97.46 78.9505 96.536C78.9505 95.612 79.1545 94.796 79.5625 94.088C79.9705 93.368 80.5345 92.804 81.2545 92.396C81.9745 91.988 82.7845 91.784 83.6845 91.784C84.5605 91.784 85.3345 91.988 86.0065 92.396C86.6905 92.792 87.2245 93.344 87.6085 94.052C88.0045 94.748 88.2025 95.558 88.2025 96.482V96.59H86.5105V96.428C86.5105 95.78 86.3905 95.216 86.1505 94.736C85.9105 94.244 85.5745 93.866 85.1425 93.602C84.7225 93.326 84.2365 93.188 83.6845 93.188C83.0965 93.188 82.5745 93.326 82.1185 93.602C81.6625 93.878 81.3085 94.268 81.0565 94.772C80.8045 95.264 80.6785 95.846 80.6785 96.518C80.6785 97.19 80.8165 97.784 81.0925 98.3C81.3805 98.804 81.7765 99.194 82.2805 99.47C82.7845 99.746 83.3605 99.884 84.0085 99.884C85.1965 99.884 86.1685 99.38 86.9245 98.372ZM88.2025 97.094H80.1925V95.852H87.9145L88.2025 96.482V97.094ZM93.0083 101H91.3343V90.308C91.3343 88.796 92.0903 88.04 93.6023 88.04H95.4923V89.39H94.0703C93.6863 89.39 93.4103 89.474 93.2423 89.642C93.0863 89.81 93.0083 90.086 93.0083 90.47V101ZM95.4923 93.476H89.5703V92.072H95.4923V93.476ZM105.298 101H103.732V99.236L103.678 98.804V95.474C103.678 94.766 103.45 94.208 102.994 93.8C102.538 93.38 101.92 93.17 101.14 93.17C100.576 93.17 100.06 93.29 99.5916 93.53C99.1236 93.758 98.7156 94.076 98.3676 94.484L97.3236 93.404C97.8156 92.888 98.3796 92.492 99.0156 92.216C99.6636 91.928 100.384 91.784 101.176 91.784C101.992 91.784 102.706 91.934 103.318 92.234C103.942 92.534 104.428 92.954 104.776 93.494C105.124 94.022 105.298 94.664 105.298 95.42V101ZM100.438 101.288C99.7656 101.288 99.1716 101.168 98.6556 100.928C98.1396 100.676 97.7376 100.334 97.4496 99.902C97.1616 99.47 97.0176 98.978 97.0176 98.426C97.0176 97.802 97.1916 97.274 97.5396 96.842C97.8996 96.398 98.3916 96.062 99.0156 95.834C99.6396 95.594 100.354 95.474 101.158 95.474H103.876V96.716H101.338C100.582 96.716 99.9576 96.854 99.4656 97.13C98.9856 97.394 98.7456 97.808 98.7456 98.372C98.7456 98.852 98.9256 99.236 99.2856 99.524C99.6576 99.812 100.138 99.956 100.726 99.956C101.302 99.956 101.824 99.842 102.292 99.614C102.76 99.386 103.132 99.068 103.408 98.66C103.696 98.24 103.858 97.76 103.894 97.22L104.488 97.544C104.488 98.264 104.314 98.906 103.966 99.47C103.618 100.034 103.138 100.478 102.526 100.802C101.926 101.126 101.23 101.288 100.438 101.288ZM114.885 98.462L116.019 99.542C115.587 100.082 115.053 100.508 114.417 100.82C113.781 101.132 113.061 101.288 112.257 101.288C111.345 101.288 110.529 101.084 109.809 100.676C109.101 100.268 108.543 99.71 108.135 99.002C107.727 98.282 107.523 97.46 107.523 96.536C107.523 95.624 107.727 94.814 108.135 94.106C108.543 93.386 109.107 92.822 109.827 92.414C110.559 91.994 111.381 91.784 112.293 91.784C113.085 91.784 113.793 91.94 114.417 92.252C115.053 92.564 115.587 92.99 116.019 93.53L114.885 94.61C114.609 94.19 114.261 93.854 113.841 93.602C113.421 93.35 112.917 93.224 112.329 93.224C111.729 93.224 111.195 93.368 110.727 93.656C110.271 93.932 109.911 94.322 109.647 94.826C109.395 95.318 109.269 95.888 109.269 96.536C109.269 97.184 109.395 97.76 109.647 98.264C109.911 98.756 110.271 99.146 110.727 99.434C111.195 99.71 111.729 99.848 112.329 99.848C112.929 99.848 113.433 99.722 113.841 99.47C114.261 99.218 114.609 98.882 114.885 98.462ZM125.437 98.372L126.481 99.452C126.013 100.028 125.437 100.478 124.753 100.802C124.081 101.126 123.319 101.288 122.467 101.288C121.495 101.288 120.631 101.084 119.875 100.676C119.119 100.268 118.525 99.71 118.093 99.002C117.673 98.282 117.463 97.46 117.463 96.536C117.463 95.612 117.667 94.796 118.075 94.088C118.483 93.368 119.047 92.804 119.767 92.396C120.487 91.988 121.297 91.784 122.197 91.784C123.073 91.784 123.847 91.988 124.519 92.396C125.203 92.792 125.737 93.344 126.121 94.052C126.517 94.748 126.715 95.558 126.715 96.482V96.59H125.023V96.428C125.023 95.78 124.903 95.216 124.663 94.736C124.423 94.244 124.087 93.866 123.655 93.602C123.235 93.326 122.749 93.188 122.197 93.188C121.609 93.188 121.087 93.326 120.631 93.602C120.175 93.878 119.821 94.268 119.569 94.772C119.317 95.264 119.191 95.846 119.191 96.518C119.191 97.19 119.329 97.784 119.605 98.3C119.893 98.804 120.289 99.194 120.793 99.47C121.297 99.746 121.873 99.884 122.521 99.884C123.709 99.884 124.681 99.38 125.437 98.372ZM126.715 97.094H118.705V95.852H126.427L126.715 96.482V97.094Z" fill="black"/>
<path d="M55.072 135.054L52.12 135C50.824 135 49.75 135.048 48.898 135.144C48.838 135.072 48.808 134.97 48.808 134.838L48.826 134.694C49.654 134.562 50.2 134.394 50.464 134.19C50.728 133.974 50.902 133.626 50.986 133.146C51.154 132.258 51.238 130.77 51.238 128.682C51.238 126.594 51.214 125.136 51.166 124.308C51.118 123.48 51.058 122.964 50.986 122.76C50.686 122.7 50.32 122.67 49.888 122.67C48.88 122.67 48.094 122.802 47.53 123.066L46.738 125.046C46.462 125.046 46.258 124.998 46.126 124.902L46.414 122.112C46.414 121.98 46.516 121.914 46.72 121.914L49.888 122.04H54.298L57.754 121.914C57.97 121.914 58.078 121.98 58.078 122.112C57.886 123.168 57.79 124.134 57.79 125.01C57.694 125.058 57.574 125.082 57.43 125.082C57.286 125.082 57.172 125.058 57.088 125.01C56.872 123.822 56.752 123.174 56.728 123.066C56.128 122.802 55.306 122.67 54.262 122.67C53.794 122.67 53.416 122.7 53.128 122.76C53.092 122.868 53.044 123.366 52.984 124.254C52.936 125.142 52.912 126.282 52.912 127.674V130.896C52.912 132.228 53.008 133.386 53.2 134.37C53.752 134.454 54.376 134.496 55.072 134.496C55.108 134.592 55.126 134.7 55.126 134.82C55.126 134.928 55.108 135.006 55.072 135.054ZM59.8482 126.126L61.3962 126.072C61.4202 126.132 61.4322 126.222 61.4322 126.342L61.3962 126.63C61.0242 126.63 60.7602 126.642 60.6042 126.666C60.7122 127.398 61.0002 128.328 61.4682 129.456L63.2142 133.776L64.7802 129.762C65.3082 128.406 65.6082 127.398 65.6802 126.738C65.2482 126.69 64.8042 126.666 64.3482 126.666C64.3002 126.594 64.2762 126.51 64.2762 126.414C64.2762 126.318 64.2882 126.222 64.3122 126.126H66.0762C66.6282 126.126 67.1322 126.09 67.5882 126.018C67.6842 126.174 67.7322 126.33 67.7322 126.486C67.4322 126.618 67.2162 126.75 67.0842 126.882C66.7602 127.23 66.4062 127.848 66.0222 128.736L63.4122 135C63.2562 135.372 63.0042 136.014 62.6562 136.926C62.3082 137.85 62.0622 138.492 61.9182 138.852C61.7862 139.212 61.6602 139.548 61.5402 139.86C61.4202 140.184 61.2822 140.52 61.1262 140.868C60.8022 141.612 60.5442 141.984 60.3522 141.984C60.2922 141.984 60.1662 141.948 59.9742 141.876C59.4582 141.696 58.8762 141.534 58.2282 141.39C58.2282 141.15 58.2822 140.958 58.3902 140.814C58.8222 140.886 59.0562 140.922 59.0922 140.922C59.4402 140.922 59.8842 140.514 60.4242 139.698C60.9762 138.894 61.4022 138.096 61.7022 137.304L62.3502 135.576L59.4162 128.376C59.1162 127.62 58.8402 127.11 58.5882 126.846C58.4322 126.654 58.1982 126.51 57.8862 126.414C57.8862 126.198 57.9162 126.042 57.9762 125.946C58.7682 126.066 59.3922 126.126 59.8482 126.126ZM69.157 127.026L68.527 127.062C68.479 126.978 68.455 126.87 68.455 126.738L68.473 126.576C69.313 126.432 69.937 126.228 70.345 125.964L70.561 125.838C70.741 125.838 70.945 125.994 71.173 126.306C71.401 126.606 71.527 126.978 71.551 127.422C72.235 126.99 72.733 126.696 73.045 126.54C73.369 126.384 73.927 126.15 74.719 125.838C75.595 126.006 76.375 126.546 77.059 127.458C77.755 128.358 78.103 129.408 78.103 130.608C78.103 131.292 77.995 131.91 77.779 132.462C77.563 133.002 77.275 133.44 76.915 133.776C76.555 134.1 76.183 134.376 75.799 134.604C75.415 134.832 75.019 135 74.611 135.108C73.915 135.276 73.393 135.36 73.045 135.36C72.709 135.36 72.181 135.27 71.461 135.09V136.098C71.461 139.302 71.533 140.91 71.677 140.922C72.037 140.958 72.709 140.976 73.693 140.976C73.717 141.06 73.729 141.156 73.729 141.264C73.729 141.372 73.717 141.462 73.693 141.534L71.101 141.48C70.069 141.48 69.229 141.528 68.581 141.624C68.509 141.552 68.473 141.45 68.473 141.318L68.509 141.174C69.001 141.054 69.331 140.886 69.499 140.67C69.679 140.454 69.793 140.178 69.841 139.842C69.961 139.002 70.021 137.034 70.021 133.938V129.546C70.021 128.586 69.961 127.926 69.841 127.566C69.733 127.206 69.505 127.026 69.157 127.026ZM71.461 133.578C71.461 133.758 71.803 133.974 72.487 134.226C73.171 134.466 73.651 134.586 73.927 134.586C74.695 134.586 75.331 134.262 75.835 133.614C76.339 132.966 76.591 132.144 76.591 131.148C76.591 130.14 76.297 129.216 75.709 128.376C75.121 127.524 74.497 127.098 73.837 127.098C73.177 127.098 72.397 127.476 71.497 128.232C71.473 129.228 71.461 131.01 71.461 133.578ZM84.5777 134.064C85.5617 134.064 86.4317 133.8 87.1877 133.272C87.3557 133.332 87.4517 133.458 87.4757 133.65L85.5317 135.018C85.2437 135.246 84.6017 135.36 83.6057 135.36C82.6097 135.36 81.7637 134.916 81.0677 134.028C80.3717 133.128 80.0237 131.994 80.0237 130.626C80.0237 129.258 80.4017 128.178 81.1577 127.386C81.9137 126.594 82.8137 126.078 83.8577 125.838C84.7697 125.838 85.5737 126.144 86.2697 126.756C86.6897 127.116 86.9837 127.584 87.1517 128.16C87.1877 128.304 87.3557 128.382 87.6557 128.394C87.7277 128.478 87.7637 128.568 87.7637 128.664C87.7637 128.748 87.7517 128.838 87.7277 128.934C85.6157 129.426 83.5397 129.768 81.4997 129.96C81.4997 131.496 81.9257 132.648 82.7777 133.416C83.2577 133.848 83.8577 134.064 84.5777 134.064ZM85.7117 128.574C85.7717 128.538 85.8017 128.496 85.8017 128.448C85.8017 128.388 85.7237 128.22 85.5677 127.944C85.4237 127.656 85.1657 127.356 84.7937 127.044C84.4217 126.72 84.0317 126.558 83.6237 126.558C83.2157 126.558 82.9157 126.618 82.7237 126.738C82.0517 127.194 81.6677 128.022 81.5717 129.222C82.2197 129.222 82.9577 129.156 83.7857 129.024C84.6137 128.88 85.2557 128.73 85.7117 128.574ZM94.5785 135.054L92.0945 135C91.0985 135 90.1865 135.048 89.3585 135.144C89.2985 135.072 89.2685 134.97 89.2685 134.838L89.2865 134.694C90.0665 134.538 90.5345 134.232 90.6905 133.776C90.8825 133.236 90.9785 131.154 90.9785 127.53V126.936L89.1965 126.954C89.1125 126.906 89.0705 126.834 89.0705 126.738C89.1305 126.618 89.1965 126.414 89.2685 126.126H90.9965C91.0085 125.934 91.0445 125.394 91.1045 124.506C91.1765 123.606 91.3625 122.844 91.6625 122.22C91.9745 121.596 92.3165 121.128 92.6885 120.816C93.0605 120.492 93.4685 120.228 93.9125 120.024C94.5605 119.736 95.1605 119.592 95.7125 119.592C96.2765 119.592 97.0145 119.814 97.9265 120.258C97.8785 120.534 97.7705 120.804 97.6025 121.068C97.4465 121.32 97.2425 121.494 96.9905 121.59C95.9825 120.774 95.2145 120.366 94.6865 120.366C94.2665 120.366 93.8405 120.708 93.4085 121.392C92.9765 122.076 92.7185 122.826 92.6345 123.642C92.5505 124.446 92.5025 125.274 92.4905 126.126C93.4025 126.126 94.1945 126.084 94.8665 126C94.9385 126.048 94.9745 126.126 94.9745 126.234C94.9265 126.33 94.8845 126.456 94.8485 126.612C94.8245 126.756 94.8065 126.846 94.7945 126.882L92.4545 126.918V129.618C92.4545 132.81 92.5265 134.412 92.6705 134.424C93.1625 134.472 93.7985 134.496 94.5785 134.496C94.6265 134.592 94.6505 134.688 94.6505 134.784C94.6505 134.868 94.6265 134.958 94.5785 135.054ZM102.635 128.448L102.581 132.84C102.581 133.716 102.863 134.154 103.427 134.154L104.075 134.136C104.123 134.196 104.147 134.292 104.147 134.424L104.111 134.622C103.187 134.79 102.527 135.036 102.131 135.36C101.867 135.288 101.639 135.126 101.447 134.874C101.267 134.61 101.165 134.334 101.141 134.046C100.181 134.634 99.2266 135.072 98.2786 135.36C97.8706 135.36 97.4506 135.132 97.0186 134.676C96.5866 134.208 96.3706 133.626 96.3706 132.93C96.3706 132.582 96.4486 132.27 96.6046 131.994C96.7606 131.706 96.9466 131.508 97.1626 131.4C98.0506 130.956 99.3706 130.566 101.123 130.23V128.52C101.123 127.86 101.015 127.368 100.799 127.044C100.595 126.72 100.343 126.558 100.043 126.558C99.7546 126.558 99.4426 126.612 99.1066 126.72C98.7706 126.816 98.5306 127.008 98.3866 127.296C98.2546 127.584 98.1886 127.992 98.1886 128.52C98.1886 128.568 98.1046 128.622 97.9366 128.682C97.7806 128.73 97.5766 128.754 97.3246 128.754C97.0846 128.754 96.9166 128.7 96.8206 128.592C96.7366 128.472 96.6946 128.298 96.6946 128.07C96.6946 127.638 97.0066 127.17 97.6306 126.666C97.7746 126.57 98.1946 126.408 98.8906 126.18C99.5986 125.952 100.007 125.838 100.115 125.838C100.979 125.838 101.615 126.09 102.023 126.594C102.431 127.098 102.635 127.716 102.635 128.448ZM97.9726 132.84C97.9726 133.128 98.0866 133.44 98.3146 133.776C98.5426 134.112 98.8006 134.28 99.0886 134.28C99.3886 134.28 99.7306 134.178 100.115 133.974C100.499 133.77 100.817 133.554 101.069 133.326C101.105 132.618 101.123 131.802 101.123 130.878C100.115 131.01 99.2266 131.298 98.4586 131.742C98.1346 131.898 97.9726 132.264 97.9726 132.84ZM109.946 125.838C111.11 125.838 112.07 126.186 112.826 126.882C112.79 127.086 112.664 127.302 112.448 127.53C112.244 127.758 112.01 127.902 111.746 127.962C111.362 127.506 110.978 127.158 110.594 126.918C110.21 126.678 109.736 126.558 109.172 126.558C108.62 126.558 108.116 126.924 107.66 127.656C107.204 128.376 106.976 129.126 106.976 129.906C106.976 130.674 107.072 131.364 107.264 131.976C107.468 132.588 107.81 133.104 108.29 133.524C108.77 133.944 109.352 134.154 110.036 134.154C110.732 134.154 111.614 133.926 112.682 133.47C112.79 133.53 112.844 133.65 112.844 133.83L111.098 135.018C110.978 135.09 110.756 135.162 110.432 135.234C110.108 135.318 109.844 135.36 109.64 135.36C108.284 135.36 107.252 134.916 106.544 134.028C105.836 133.14 105.482 132.024 105.482 130.68C105.482 129.888 105.626 129.186 105.914 128.574C106.202 127.95 106.538 127.476 106.922 127.152C107.306 126.816 107.726 126.54 108.182 126.324C108.914 126 109.502 125.838 109.946 125.838ZM118.731 134.064C119.715 134.064 120.585 133.8 121.341 133.272C121.509 133.332 121.605 133.458 121.629 133.65L119.685 135.018C119.397 135.246 118.755 135.36 117.759 135.36C116.763 135.36 115.917 134.916 115.221 134.028C114.525 133.128 114.177 131.994 114.177 130.626C114.177 129.258 114.555 128.178 115.311 127.386C116.067 126.594 116.967 126.078 118.011 125.838C118.923 125.838 119.727 126.144 120.423 126.756C120.843 127.116 121.137 127.584 121.305 128.16C121.341 128.304 121.509 128.382 121.809 128.394C121.881 128.478 121.917 128.568 121.917 128.664C121.917 128.748 121.905 128.838 121.881 128.934C119.769 129.426 117.693 129.768 115.653 129.96C115.653 131.496 116.079 132.648 116.931 133.416C117.411 133.848 118.011 134.064 118.731 134.064ZM119.865 128.574C119.925 128.538 119.955 128.496 119.955 128.448C119.955 128.388 119.877 128.22 119.721 127.944C119.577 127.656 119.319 127.356 118.947 127.044C118.575 126.72 118.185 126.558 117.777 126.558C117.369 126.558 117.069 126.618 116.877 126.738C116.205 127.194 115.821 128.022 115.725 129.222C116.373 129.222 117.111 129.156 117.939 129.024C118.767 128.88 119.409 128.73 119.865 128.574Z" fill="black"/>
<path d="M52.894 172H50.968V161.686H46.216V159.94H57.628V161.686H52.894V172ZM60.5652 175.06H59.2872V173.296H61.0332C61.8252 173.296 62.1492 173.08 62.4192 172.468L62.6352 172L58.2252 163.054H60.4032L62.6892 167.806L63.5712 169.948H63.7152L64.5612 167.788L66.6672 163.054H68.8092L64.1472 172.972C63.4092 174.574 62.4012 175.06 60.5652 175.06ZM72.064 175.06H70.12V163.054H71.902V165.538H72.064C72.424 163.882 73.684 162.874 75.79 162.874C78.562 162.874 80.128 164.764 80.128 167.536C80.128 170.308 78.598 172.18 75.808 172.18C73.792 172.18 72.496 171.118 72.136 169.48H72.064V175.06ZM72.064 167.68C72.064 169.516 73.234 170.416 75.142 170.416C77.068 170.416 78.184 169.678 78.184 167.536C78.184 165.376 77.05 164.656 75.178 164.656C73.18 164.656 72.064 165.592 72.064 167.518V167.68ZM86.3355 172.18C83.4015 172.18 81.4755 170.524 81.4755 167.536C81.4755 164.746 83.3835 162.874 86.2995 162.874C89.0715 162.874 90.9615 164.404 90.9615 167.122C90.9615 167.446 90.9435 167.698 90.8895 167.968H83.2935C83.3655 169.696 84.2115 170.614 86.2815 170.614C88.1535 170.614 88.9275 170.002 88.9275 168.94V168.796H90.8715V168.958C90.8715 170.866 88.9995 172.18 86.3355 172.18ZM86.2635 164.404C84.2835 164.404 83.4195 165.286 83.3115 166.888H89.1255V166.852C89.1255 165.196 88.1715 164.404 86.2635 164.404ZM95.4055 172H93.4615V164.674H92.1115V163.054H93.4795C93.6955 161.092 95.1895 159.94 97.7275 159.94H98.6095V161.38H97.4215C95.9995 161.38 95.2615 161.758 95.3695 163.054H98.6095V164.674H95.4055V172ZM102.674 172.18C100.82 172.18 99.6497 171.316 99.6497 169.84C99.6497 168.454 100.766 167.734 102.53 167.536L106.598 167.104V166.582C106.598 165.106 105.95 164.584 104.24 164.584C102.584 164.584 101.774 165.124 101.774 166.438V166.51H99.8477V166.438C99.8477 164.404 101.54 162.874 104.384 162.874C107.228 162.874 108.506 164.422 108.506 166.564V172H106.724V169.768H106.598C106.13 171.28 104.708 172.18 102.674 172.18ZM101.594 169.714C101.594 170.434 102.08 170.776 103.196 170.776C105.23 170.776 106.598 170.02 106.598 168.256L103.088 168.652C102.08 168.778 101.594 169.012 101.594 169.714ZM115.119 172.18C112.167 172.18 110.241 170.29 110.241 167.536C110.241 164.746 112.167 162.874 115.119 162.874C117.801 162.874 119.763 164.386 119.763 166.618V166.798H117.837V166.69C117.837 165.304 116.829 164.62 115.083 164.62C113.067 164.62 112.167 165.574 112.167 167.536C112.167 169.462 113.067 170.434 115.083 170.434C116.829 170.434 117.837 169.75 117.837 168.364V168.238H119.763V168.436C119.763 170.668 117.801 172.18 115.119 172.18ZM126.061 172.18C123.127 172.18 121.201 170.524 121.201 167.536C121.201 164.746 123.109 162.874 126.025 162.874C128.797 162.874 130.687 164.404 130.687 167.122C130.687 167.446 130.669 167.698 130.615 167.968H123.019C123.091 169.696 123.937 170.614 126.007 170.614C127.879 170.614 128.653 170.002 128.653 168.94V168.796H130.597V168.958C130.597 170.866 128.725 172.18 126.061 172.18ZM125.989 164.404C124.009 164.404 123.145 165.286 123.037 166.888H128.851V166.852C128.851 165.196 127.897 164.404 125.989 164.404Z" fill="black"/>
<path d="M48.124 207C47.944 207 47.854 206.934 47.854 206.802C47.854 206.67 47.932 206.598 48.088 206.586L48.898 206.46C49.138 206.424 49.3 206.364 49.384 206.28C49.468 206.184 49.51 206.01 49.51 205.758V194.958C49.51 194.79 49.474 194.67 49.402 194.598C49.33 194.526 49.18 194.49 48.952 194.49C48.508 194.49 48.07 194.682 47.638 195.066C47.206 195.45 46.924 196.068 46.792 196.92L46.702 197.514C46.678 197.67 46.594 197.748 46.45 197.748C46.27 197.748 46.192 197.646 46.216 197.442L46.378 194.184C46.402 193.908 46.51 193.77 46.702 193.77C46.786 193.77 46.864 193.794 46.936 193.842C47.008 193.878 47.128 193.92 47.296 193.968C47.476 194.016 47.758 194.04 48.142 194.04H52.156C52.54 194.04 52.816 194.016 52.984 193.968C53.164 193.92 53.29 193.878 53.362 193.842C53.446 193.794 53.524 193.77 53.596 193.77C53.788 193.77 53.896 193.908 53.92 194.184L54.082 197.442C54.106 197.646 54.028 197.748 53.848 197.748C53.704 197.748 53.62 197.67 53.596 197.514L53.506 196.92C53.386 196.068 53.11 195.45 52.678 195.066C52.246 194.682 51.802 194.49 51.346 194.49C51.118 194.49 50.968 194.526 50.896 194.598C50.824 194.67 50.788 194.79 50.788 194.958V205.758C50.788 206.01 50.83 206.184 50.914 206.28C51.01 206.364 51.172 206.424 51.4 206.46L52.21 206.586C52.366 206.598 52.444 206.67 52.444 206.802C52.444 206.934 52.354 207 52.174 207H48.124ZM55.7114 210.69C55.3874 210.69 55.1294 210.576 54.9374 210.348C54.7454 210.132 54.6494 209.88 54.6494 209.592C54.6494 209.364 54.7154 209.172 54.8474 209.016C54.9794 208.86 55.1594 208.782 55.3874 208.782C55.5794 208.782 55.7174 208.824 55.8014 208.908C55.8854 208.992 55.9454 209.088 55.9814 209.196C56.0174 209.304 56.0534 209.4 56.0894 209.484C56.1254 209.568 56.1974 209.61 56.3054 209.61C56.4374 209.61 56.5574 209.514 56.6654 209.322C56.7734 209.142 56.9234 208.752 57.1154 208.152C57.2354 207.792 57.3074 207.48 57.3314 207.216C57.3674 206.952 57.3614 206.67 57.3134 206.37C57.2774 206.07 57.1874 205.704 57.0434 205.272L55.0814 199.026C54.9974 198.738 54.9134 198.552 54.8294 198.468C54.7574 198.384 54.6374 198.324 54.4694 198.288L54.1994 198.234C54.0434 198.198 53.9654 198.12 53.9654 198C53.9654 197.88 54.0494 197.82 54.2174 197.82H57.1874C57.3554 197.82 57.4394 197.88 57.4394 198C57.4394 198.132 57.3614 198.21 57.2054 198.234L56.9174 198.27C56.6294 198.306 56.4434 198.378 56.3594 198.486C56.2874 198.582 56.2934 198.762 56.3774 199.026L57.9614 204.3C57.9974 204.42 58.0514 204.48 58.1234 204.48C58.2074 204.48 58.2674 204.42 58.3034 204.3L59.8334 199.35C59.9294 199.026 59.9534 198.786 59.9054 198.63C59.8694 198.462 59.7014 198.354 59.4014 198.306L59.0234 198.234C58.8674 198.198 58.7894 198.12 58.7894 198C58.7894 197.88 58.8734 197.82 59.0414 197.82H61.3274C61.4954 197.82 61.5794 197.886 61.5794 198.018C61.5794 198.138 61.5074 198.222 61.3634 198.27L61.2014 198.324C61.0214 198.384 60.8714 198.492 60.7514 198.648C60.6314 198.804 60.5054 199.074 60.3734 199.458L57.6914 207.828C57.4274 208.668 57.1874 209.292 56.9714 209.7C56.7674 210.108 56.5694 210.372 56.3774 210.492C56.1854 210.624 55.9634 210.69 55.7114 210.69ZM62.0419 210.69C61.8619 210.69 61.7719 210.624 61.7719 210.492C61.7719 210.36 61.8499 210.288 62.0059 210.276L62.2579 210.24C62.5099 210.204 62.6719 210.132 62.7439 210.024C62.8279 209.916 62.8699 209.736 62.8699 209.484V199.746C62.8699 199.53 62.8339 199.386 62.7619 199.314C62.7019 199.23 62.5879 199.176 62.4199 199.152L62.0419 199.098C61.8859 199.086 61.8079 199.02 61.8079 198.9C61.8079 198.804 61.9039 198.738 62.0959 198.702C62.4679 198.642 62.7499 198.546 62.9419 198.414C63.1459 198.282 63.3559 198.12 63.5719 197.928C63.6799 197.82 63.7699 197.766 63.8419 197.766C63.9499 197.766 64.0039 197.838 64.0039 197.982V198.54C64.0039 198.624 64.0399 198.684 64.1119 198.72C64.1839 198.744 64.2679 198.708 64.3639 198.612L64.5619 198.414C64.8019 198.174 65.0479 198 65.2999 197.892C65.5519 197.772 65.8399 197.712 66.1639 197.712C66.7159 197.712 67.2019 197.898 67.6219 198.27C68.0539 198.63 68.3899 199.134 68.6299 199.782C68.8819 200.43 69.0079 201.192 69.0079 202.068C69.0079 203.064 68.8519 203.946 68.5399 204.714C68.2279 205.482 67.7959 206.082 67.2439 206.514C66.7039 206.946 66.0799 207.162 65.3719 207.162C65.0119 207.162 64.6939 207.096 64.4179 206.964C64.2019 206.868 64.0939 206.934 64.0939 207.162V209.484C64.0939 209.736 64.1299 209.904 64.2019 209.988C64.2859 210.084 64.4539 210.15 64.7059 210.186L65.3719 210.276C65.5039 210.3 65.5699 210.366 65.5699 210.474C65.5699 210.618 65.4799 210.69 65.2999 210.69H62.0419ZM65.4259 206.712C66.0979 206.712 66.6379 206.316 67.0459 205.524C67.4659 204.732 67.6759 203.664 67.6759 202.32C67.6759 201.084 67.4959 200.142 67.1359 199.494C66.7759 198.846 66.2659 198.522 65.6059 198.522C65.1979 198.522 64.8439 198.69 64.5439 199.026C64.2439 199.362 64.0939 199.83 64.0939 200.43V204.966C64.0939 205.506 64.2139 205.932 64.4539 206.244C64.7059 206.556 65.0299 206.712 65.4259 206.712ZM73.37 207.162C72.794 207.162 72.278 206.97 71.822 206.586C71.366 206.202 71 205.662 70.724 204.966C70.46 204.258 70.328 203.442 70.328 202.518C70.328 201.57 70.466 200.736 70.742 200.016C71.018 199.296 71.396 198.732 71.876 198.324C72.356 197.916 72.89 197.712 73.478 197.712C74.186 197.712 74.756 198.006 75.188 198.594C75.632 199.17 75.854 200.112 75.854 201.42C75.854 201.816 75.704 202.014 75.404 202.014H71.984C71.744 202.014 71.624 202.152 71.624 202.428C71.624 203.7 71.81 204.654 72.182 205.29C72.554 205.926 73.028 206.244 73.604 206.244C74.06 206.244 74.432 206.082 74.72 205.758C75.008 205.434 75.242 204.888 75.422 204.12C75.458 203.988 75.536 203.922 75.656 203.922C75.8 203.922 75.854 204.042 75.818 204.282C75.626 205.35 75.32 206.1 74.9 206.532C74.48 206.952 73.97 207.162 73.37 207.162ZM71.93 201.564H73.748C74.324 201.564 74.612 201.264 74.612 200.664C74.612 199.884 74.516 199.272 74.324 198.828C74.132 198.384 73.844 198.162 73.46 198.162C72.992 198.162 72.596 198.432 72.272 198.972C71.96 199.512 71.756 200.28 71.66 201.276C71.636 201.468 71.726 201.564 71.93 201.564ZM78.2024 205.794V198.756C78.2024 198.468 78.0584 198.324 77.7704 198.324H77.3564C77.2124 198.324 77.1404 198.264 77.1404 198.144C77.1404 198.024 77.2124 197.958 77.3564 197.946C77.9204 197.886 78.2024 197.64 78.2024 197.208V197.1C78.2024 196.476 78.2924 195.894 78.4724 195.354C78.6644 194.814 78.9344 194.376 79.2824 194.04C79.6424 193.704 80.0804 193.536 80.5964 193.536C81.0764 193.536 81.4784 193.674 81.8024 193.95C82.1264 194.226 82.2884 194.556 82.2884 194.94C82.2884 195.168 82.2284 195.342 82.1084 195.462C82.0004 195.57 81.8504 195.624 81.6584 195.624C81.4184 195.624 81.2444 195.546 81.1364 195.39C81.0404 195.234 80.9624 195.06 80.9024 194.868C80.8424 194.664 80.7644 194.484 80.6684 194.328C80.5844 194.172 80.4284 194.094 80.2004 194.094C79.9604 194.094 79.7684 194.232 79.6244 194.508C79.4924 194.772 79.4264 195.276 79.4264 196.02V197.604C79.4264 197.748 79.4984 197.82 79.6424 197.82H81.1904C81.3704 197.82 81.4604 197.904 81.4604 198.072C81.4604 198.24 81.3704 198.324 81.1904 198.324H79.6424C79.4984 198.324 79.4264 198.396 79.4264 198.54V205.794C79.4264 206.046 79.4624 206.22 79.5344 206.316C79.6184 206.412 79.7864 206.472 80.0384 206.496L80.9924 206.586C81.1244 206.61 81.1904 206.676 81.1904 206.784C81.1904 206.928 81.1004 207 80.9204 207H77.1764C76.9964 207 76.9064 206.934 76.9064 206.802C76.9064 206.67 76.9844 206.598 77.1404 206.586L77.5904 206.55C77.8424 206.526 78.0044 206.46 78.0764 206.352C78.1604 206.232 78.2024 206.046 78.2024 205.794ZM83.9385 207.162C83.4345 207.162 83.0205 207.006 82.6965 206.694C82.3725 206.37 82.2105 205.944 82.2105 205.416C82.2105 204.9 82.3725 204.414 82.6965 203.958C83.0205 203.49 83.4645 203.07 84.0285 202.698C84.5925 202.326 85.2345 202.026 85.9545 201.798C86.1105 201.75 86.1885 201.648 86.1885 201.492V199.854C86.1885 199.278 86.0985 198.87 85.9185 198.63C85.7385 198.378 85.4925 198.252 85.1805 198.252C84.8805 198.252 84.6045 198.39 84.3525 198.666C84.1125 198.93 83.9385 199.38 83.8305 200.016C83.7705 200.4 83.6385 200.682 83.4345 200.862C83.2425 201.03 83.0445 201.114 82.8405 201.114C82.5045 201.114 82.3365 200.946 82.3365 200.61C82.3365 200.262 82.4325 199.92 82.6245 199.584C82.8285 199.236 83.0925 198.924 83.4165 198.648C83.7405 198.36 84.0945 198.132 84.4785 197.964C84.8625 197.796 85.2465 197.712 85.6305 197.712C86.8185 197.712 87.4125 198.402 87.4125 199.782V205.29C87.4125 205.794 87.5385 206.046 87.7905 206.046C87.9465 206.046 88.0905 205.944 88.2225 205.74C88.3545 205.524 88.4205 205.164 88.4205 204.66C88.4205 204.468 88.4985 204.372 88.6545 204.372C88.7985 204.372 88.8705 204.474 88.8705 204.678C88.8705 205.554 88.7145 206.19 88.4025 206.586C88.1025 206.97 87.7605 207.162 87.3765 207.162C87.0885 207.162 86.8605 207.048 86.6925 206.82C86.5245 206.58 86.4105 206.298 86.3505 205.974C86.3385 205.854 86.2845 205.794 86.1885 205.794C86.1045 205.782 86.0205 205.836 85.9365 205.956C85.6485 206.352 85.3545 206.652 85.0545 206.856C84.7545 207.06 84.3825 207.162 83.9385 207.162ZM84.4245 206.334C84.7365 206.334 85.0245 206.226 85.2885 206.01C85.5525 205.782 85.7685 205.482 85.9365 205.11C86.1045 204.738 86.1885 204.318 86.1885 203.85V202.536C86.1885 202.308 86.0625 202.242 85.8105 202.338C85.0785 202.602 84.5085 202.968 84.1005 203.436C83.7045 203.892 83.5065 204.444 83.5065 205.092C83.5065 205.92 83.8125 206.334 84.4245 206.334ZM92.568 207.162C92.04 207.162 91.56 206.988 91.128 206.64C90.708 206.28 90.372 205.77 90.12 205.11C89.868 204.45 89.742 203.664 89.742 202.752C89.742 201.732 89.892 200.844 90.192 200.088C90.504 199.332 90.924 198.75 91.452 198.342C91.98 197.922 92.568 197.712 93.216 197.712C93.768 197.712 94.2 197.82 94.512 198.036C94.632 198.12 94.692 198.252 94.692 198.432L94.728 200.628C94.728 200.808 94.656 200.898 94.512 200.898C94.38 200.898 94.296 200.82 94.26 200.664C94.092 200.004 93.93 199.494 93.774 199.134C93.618 198.774 93.456 198.528 93.288 198.396C93.12 198.252 92.934 198.18 92.73 198.18C92.49 198.18 92.238 198.318 91.974 198.594C91.722 198.87 91.506 199.32 91.326 199.944C91.158 200.556 91.074 201.366 91.074 202.374C91.074 203.658 91.236 204.624 91.56 205.272C91.896 205.92 92.328 206.244 92.856 206.244C93.276 206.244 93.624 206.07 93.9 205.722C94.188 205.374 94.434 204.744 94.638 203.832C94.674 203.7 94.746 203.634 94.854 203.634C94.998 203.634 95.052 203.754 95.016 203.994C94.884 204.834 94.698 205.488 94.458 205.956C94.23 206.412 93.954 206.73 93.63 206.91C93.318 207.078 92.964 207.162 92.568 207.162ZM99.2436 207.162C98.6676 207.162 98.1516 206.97 97.6956 206.586C97.2396 206.202 96.8736 205.662 96.5976 204.966C96.3336 204.258 96.2016 203.442 96.2016 202.518C96.2016 201.57 96.3396 200.736 96.6156 200.016C96.8916 199.296 97.2696 198.732 97.7496 198.324C98.2296 197.916 98.7636 197.712 99.3516 197.712C100.06 197.712 100.63 198.006 101.062 198.594C101.506 199.17 101.728 200.112 101.728 201.42C101.728 201.816 101.578 202.014 101.278 202.014H97.8576C97.6176 202.014 97.4976 202.152 97.4976 202.428C97.4976 203.7 97.6836 204.654 98.0556 205.29C98.4276 205.926 98.9016 206.244 99.4776 206.244C99.9336 206.244 100.306 206.082 100.594 205.758C100.882 205.434 101.116 204.888 101.296 204.12C101.332 203.988 101.41 203.922 101.53 203.922C101.674 203.922 101.728 204.042 101.692 204.282C101.5 205.35 101.194 206.1 100.774 206.532C100.354 206.952 99.8436 207.162 99.2436 207.162ZM97.8036 201.564H99.6216C100.198 201.564 100.486 201.264 100.486 200.664C100.486 199.884 100.39 199.272 100.198 198.828C100.006 198.384 99.7176 198.162 99.3336 198.162C98.8656 198.162 98.4696 198.432 98.1456 198.972C97.8336 199.512 97.6296 200.28 97.5336 201.276C97.5096 201.468 97.5996 201.564 97.8036 201.564Z" fill="black"/>
<path d="M50.32 230.138H46.432V228.896H55.972V230.138H52.03V242H50.32V230.138ZM56.6159 233.054C56.8799 233.798 57.1379 234.542 57.3899 235.286C57.6539 236.03 57.9179 236.792 58.1819 237.572C58.3139 237.98 58.4459 238.394 58.5779 238.814C58.7219 239.222 58.8599 239.63 58.9919 240.038C59.1239 239.618 59.2559 239.204 59.3879 238.796C59.5319 238.388 59.6699 237.98 59.8019 237.572C60.0659 236.792 60.3239 236.03 60.5759 235.286C60.8399 234.542 61.1039 233.798 61.3679 233.054H62.7719L59.6039 242.036C59.4719 242.408 59.3039 242.816 59.0999 243.26C58.8959 243.716 58.6559 244.142 58.3799 244.538C58.1039 244.934 57.7799 245.258 57.4079 245.51C57.0359 245.774 56.6159 245.906 56.1479 245.906H55.4639V244.7C55.4999 244.7 55.5299 244.7 55.5539 244.7C55.5899 244.7 55.6259 244.7 55.6619 244.7C56.1659 244.7 56.5799 244.55 56.9039 244.25C57.2399 243.95 57.5159 243.584 57.7319 243.152C57.9479 242.732 58.1279 242.324 58.2719 241.928L54.9959 233.054H56.6159ZM65.8329 232.928C65.9289 233.12 66.0009 233.324 66.0489 233.54C66.1089 233.744 66.1509 233.948 66.1749 234.152C66.4869 233.756 66.8709 233.444 67.3269 233.216C67.7949 232.976 68.2869 232.856 68.8029 232.856C69.4389 232.856 69.9909 232.988 70.4589 233.252C70.9269 233.516 71.3109 233.876 71.6109 234.332C71.9229 234.776 72.1509 235.274 72.2949 235.826C72.4509 236.366 72.5289 236.918 72.5289 237.482C72.5289 238.094 72.4449 238.688 72.2769 239.264C72.1089 239.828 71.8569 240.338 71.5209 240.794C71.1969 241.238 70.7829 241.592 70.2789 241.856C69.7749 242.108 69.1869 242.234 68.5149 242.234C68.1069 242.234 67.6989 242.168 67.2909 242.036C66.8949 241.904 66.5469 241.7 66.2469 241.424C66.2709 241.592 66.2829 241.76 66.2829 241.928C66.2829 242.096 66.2829 242.228 66.2829 242.324V244.826L66.5349 245.888H64.8069V235.664C64.8069 235.412 64.7889 235.13 64.7529 234.818C64.7169 234.506 64.6569 234.2 64.5729 233.9C64.5009 233.6 64.3929 233.342 64.2489 233.126L65.8329 232.928ZM68.3529 234.17C67.9449 234.17 67.5609 234.296 67.2009 234.548C66.8409 234.788 66.5349 235.058 66.2829 235.358V238.382C66.2829 238.85 66.3549 239.288 66.4989 239.696C66.6549 240.092 66.8949 240.41 67.2189 240.65C67.5429 240.89 67.9629 241.01 68.4789 241.01C68.9469 241.01 69.3369 240.908 69.6489 240.704C69.9729 240.5 70.2309 240.23 70.4229 239.894C70.6149 239.558 70.7469 239.192 70.8189 238.796C70.9029 238.388 70.9449 237.986 70.9449 237.59C70.9449 237.17 70.8969 236.762 70.8009 236.366C70.7169 235.958 70.5729 235.592 70.3689 235.268C70.1649 234.932 69.8949 234.668 69.5589 234.476C69.2349 234.272 68.8329 234.17 68.3529 234.17ZM78.5709 232.838C79.2909 232.838 79.8969 232.988 80.3889 233.288C80.8809 233.576 81.2469 233.984 81.4869 234.512C81.7389 235.028 81.8649 235.634 81.8649 236.33C81.8649 236.498 81.8529 236.672 81.8289 236.852C81.8169 237.02 81.7989 237.2 81.7749 237.392H76.0869C76.0869 238.532 76.3389 239.414 76.8429 240.038C77.3469 240.662 78.0189 240.974 78.8589 240.974C79.2069 240.974 79.5669 240.92 79.9389 240.812C80.3229 240.704 80.7189 240.542 81.1269 240.326L81.6849 241.226C81.2649 241.562 80.7909 241.814 80.2629 241.982C79.7349 242.15 79.2009 242.234 78.6609 242.234C77.9529 242.234 77.3349 242.108 76.8069 241.856C76.2909 241.592 75.8589 241.244 75.5109 240.812C75.1749 240.368 74.9229 239.87 74.7549 239.318C74.5869 238.766 74.5029 238.202 74.5029 237.626C74.5029 237.026 74.5869 236.444 74.7549 235.88C74.9229 235.316 75.1749 234.806 75.5109 234.35C75.8589 233.882 76.2849 233.516 76.7889 233.252C77.2929 232.976 77.8869 232.838 78.5709 232.838ZM78.4269 233.972C78.0189 233.972 77.6589 234.086 77.3469 234.314C77.0349 234.542 76.7829 234.836 76.5909 235.196C76.3989 235.544 76.2669 235.904 76.1949 236.276H80.2989C80.3109 235.772 80.2389 235.352 80.0829 235.016C79.9389 234.668 79.7229 234.41 79.4349 234.242C79.1589 234.062 78.8229 233.972 78.4269 233.972ZM88.4194 228.14C88.7554 228.14 89.0554 228.176 89.3194 228.248C89.5954 228.308 89.8774 228.422 90.1654 228.59L89.7514 229.706C89.5954 229.562 89.3914 229.454 89.1394 229.382C88.8994 229.298 88.6714 229.256 88.4554 229.256C88.0354 229.256 87.6814 229.34 87.3934 229.508C87.1174 229.664 86.8954 229.874 86.7274 230.138C86.5594 230.402 86.4334 230.702 86.3494 231.038C86.2654 231.362 86.2114 231.704 86.1874 232.064C86.1634 232.412 86.1514 232.742 86.1514 233.054H88.7254L88.4014 234.17H86.1514V242H84.6754V234.17H83.3254V233.234C83.5174 233.21 83.7094 233.192 83.9014 233.18C84.1054 233.156 84.2794 233.096 84.4234 233C84.5674 232.904 84.6634 232.742 84.7114 232.514C84.8314 231.962 84.9214 231.518 84.9814 231.182C85.0414 230.834 85.1254 230.528 85.2334 230.264C85.3414 230 85.5154 229.712 85.7554 229.4C86.0554 229.016 86.4274 228.71 86.8714 228.482C87.3154 228.254 87.8314 228.14 88.4194 228.14ZM93.0649 232.838C94.0129 232.838 94.7269 233.096 95.2069 233.612C95.6869 234.128 95.9269 234.854 95.9269 235.79V240.272C95.9269 240.524 95.9749 240.698 96.0709 240.794C96.1669 240.878 96.2809 240.92 96.4129 240.92C96.5209 240.92 96.6349 240.908 96.7549 240.884C96.8749 240.848 96.9889 240.806 97.0969 240.758L97.4209 241.73C97.2289 241.838 96.9829 241.934 96.6829 242.018C96.3949 242.114 96.0949 242.162 95.7829 242.162C95.4709 242.162 95.1889 242.078 94.9369 241.91C94.6849 241.73 94.5289 241.406 94.4689 240.938C94.1209 241.31 93.7129 241.616 93.2449 241.856C92.7769 242.084 92.2849 242.198 91.7689 242.198C91.0609 242.198 90.4729 241.988 90.0049 241.568C89.5369 241.148 89.3029 240.572 89.3029 239.84C89.3029 239.156 89.4649 238.61 89.7889 238.202C90.1249 237.794 90.5569 237.488 91.0849 237.284C91.6129 237.08 92.1709 236.942 92.7589 236.87C93.3589 236.798 93.9169 236.762 94.4329 236.762V235.808C94.4329 235.472 94.3909 235.172 94.3069 234.908C94.2229 234.632 94.0729 234.416 93.8569 234.26C93.6409 234.092 93.3349 234.008 92.9389 234.008C92.4829 234.008 92.0449 234.098 91.6249 234.278C91.2049 234.458 90.7849 234.722 90.3649 235.07L89.6269 234.008C90.1189 233.612 90.6589 233.318 91.2469 233.126C91.8349 232.934 92.4409 232.838 93.0649 232.838ZM94.4329 237.932C94.1089 237.932 93.7429 237.95 93.3349 237.986C92.9269 238.01 92.5309 238.082 92.1469 238.202C91.7629 238.31 91.4449 238.49 91.1929 238.742C90.9529 238.994 90.8329 239.342 90.8329 239.786C90.8329 240.182 90.9649 240.476 91.2289 240.668C91.5049 240.848 91.8469 240.938 92.2549 240.938C92.6869 240.938 93.0649 240.818 93.3889 240.578C93.7129 240.338 93.9649 240.032 94.1449 239.66C94.3369 239.288 94.4329 238.904 94.4329 238.508V237.932ZM102.697 232.838C103.153 232.838 103.609 232.916 104.065 233.072C104.533 233.216 104.989 233.444 105.433 233.756L104.623 234.8C104.287 234.524 103.957 234.326 103.633 234.206C103.309 234.074 102.997 234.008 102.697 234.008C102.337 234.008 102.001 234.092 101.689 234.26C101.389 234.428 101.119 234.668 100.879 234.98C100.651 235.28 100.471 235.646 100.339 236.078C100.219 236.51 100.159 236.99 100.159 237.518C100.159 238.646 100.411 239.51 100.915 240.11C101.431 240.71 102.079 241.01 102.859 241.01C103.207 241.01 103.543 240.956 103.867 240.848C104.203 240.74 104.551 240.584 104.911 240.38L105.397 241.334C104.917 241.634 104.455 241.856 104.011 242C103.567 242.156 103.069 242.234 102.517 242.234C101.749 242.234 101.065 242.042 100.465 241.658C99.8775 241.262 99.4095 240.704 99.0615 239.984C98.7255 239.264 98.5575 238.418 98.5575 237.446C98.5575 236.51 98.7435 235.7 99.1155 235.016C99.4995 234.32 100.003 233.786 100.627 233.414C101.263 233.03 101.953 232.838 102.697 232.838ZM111.089 232.838C111.809 232.838 112.415 232.988 112.907 233.288C113.399 233.576 113.765 233.984 114.005 234.512C114.257 235.028 114.383 235.634 114.383 236.33C114.383 236.498 114.371 236.672 114.347 236.852C114.335 237.02 114.317 237.2 114.293 237.392H108.605C108.605 238.532 108.857 239.414 109.361 240.038C109.865 240.662 110.537 240.974 111.377 240.974C111.725 240.974 112.085 240.92 112.457 240.812C112.841 240.704 113.237 240.542 113.645 240.326L114.203 241.226C113.783 241.562 113.309 241.814 112.781 241.982C112.253 242.15 111.719 242.234 111.179 242.234C110.471 242.234 109.853 242.108 109.325 241.856C108.809 241.592 108.377 241.244 108.029 240.812C107.693 240.368 107.441 239.87 107.273 239.318C107.105 238.766 107.021 238.202 107.021 237.626C107.021 237.026 107.105 236.444 107.273 235.88C107.441 235.316 107.693 234.806 108.029 234.35C108.377 233.882 108.803 233.516 109.307 233.252C109.811 232.976 110.405 232.838 111.089 232.838ZM110.945 233.972C110.537 233.972 110.177 234.086 109.865 234.314C109.553 234.542 109.301 234.836 109.109 235.196C108.917 235.544 108.785 235.904 108.713 236.276H112.817C112.829 235.772 112.757 235.352 112.601 235.016C112.457 234.668 112.241 234.41 111.953 234.242C111.677 234.062 111.341 233.972 110.945 233.972Z" fill="black"/>
</g>
<defs>
<filter id="filter0_d_438_482" x="0" y="0" width="222" height="304" filterUnits="userSpaceOnUse" color-interpolation-filters="sRGB">
<feFlood flood-opacity="0" result="BackgroundImageFix"/>
<feColorMatrix in="SourceAlpha" type="matrix" values="0 0 0 0 0 0 0 0 0 0 0 0 0 0 0 0 0 0 127 0" result="hardAlpha"/>
<feOffset dx="8" dy="4"/>
<feGaussianBlur stdDeviation="15"/>
<feComposite in2="hardAlpha" operator="out"/>
<feColorMatrix type="matrix" values="0 0 0 0 1 0 0 0 0 0.563846 0 0 0 0 0.515385 0 0 0 0.5 0"/>
<feBlend mode="normal" in2="BackgroundImageFix" result="effect1_dropShadow_438_482"/>
<feBlend mode="normal" in="SourceGraphic" in2="effect1_dropShadow_438_482" result="shape"/>
</filter>
</defs>
</svg>
