<svg width="600" height="600" viewBox="0 0 600 600" fill="none" xmlns="http://www.w3.org/2000/svg">
<path d="M300 0C300 0 300.966 26.9797 312.021 37.9792C323.022 48.926 350 50 350 50C350 50 323.022 51.074 312.021 62.0208C300.966 73.0203 300 100 300 100C300 100 299.034 73.0203 287.979 62.0208C276.978 51.074 250 50 250 50C250 50 276.978 48.926 287.979 37.9792C299.034 26.9797 300 0 300 0Z" fill="#B70404" fill-opacity="0.5"/>
<path d="M512.132 87.868C512.132 87.868 493.738 107.629 493.777 123.223C493.815 138.743 512.132 158.579 512.132 158.579C512.132 158.579 492.296 140.262 476.777 140.223C461.182 140.184 441.421 158.579 441.421 158.579C441.421 158.579 459.815 138.818 459.777 123.223C459.738 107.704 441.421 87.868 441.421 87.868C441.421 87.868 461.257 106.185 476.777 106.223C492.371 106.262 512.132 87.868 512.132 87.868Z" fill="#B70404" fill-opacity="0.5"/>
<path d="M600 300C600 300 573.02 300.966 562.021 312.021C551.074 323.022 550 350 550 350C550 350 548.926 323.022 537.979 312.021C526.98 300.966 500 300 500 300C500 300 526.98 299.034 537.979 287.979C548.926 276.978 550 250 550 250C550 250 551.074 276.978 562.021 287.979C573.02 299.034 600 300 600 300Z" fill="#B70404" fill-opacity="0.5"/>
<path d="M512.132 512.132C512.132 512.132 492.371 493.738 476.777 493.777C461.257 493.815 441.421 512.132 441.421 512.132C441.421 512.132 459.738 492.297 459.777 476.777C459.815 461.182 441.421 441.421 441.421 441.421C441.421 441.421 461.182 459.816 476.777 459.777C492.296 459.738 512.132 441.421 512.132 441.421C512.132 441.421 493.815 461.257 493.777 476.777C493.738 492.371 512.132 512.132 512.132 512.132Z" fill="#B70404" fill-opacity="0.5"/>
<path d="M300 600C300 600 299.034 573.02 287.979 562.021C276.978 551.074 250 550 250 550C250 550 276.978 548.926 287.979 537.979C299.034 526.98 300 500 300 500C300 500 300.966 526.98 312.021 537.979C323.022 548.926 350 550 350 550C350 550 323.022 551.074 312.021 562.021C300.966 573.02 300 600 300 600Z" fill="#B70404" fill-opacity="0.5"/>
<path d="M87.8678 512.132C87.8678 512.132 106.262 492.371 106.223 476.777C106.185 461.257 87.8678 441.421 87.8678 441.421C87.8678 441.421 107.703 459.738 123.223 459.777C138.818 459.816 158.578 441.421 158.578 441.421C158.578 441.421 140.184 461.182 140.223 476.777C140.262 492.296 158.578 512.132 158.578 512.132C158.578 512.132 138.743 493.815 123.223 493.777C107.629 493.738 87.8678 512.132 87.8678 512.132Z" fill="#B70404" fill-opacity="0.5"/>
<path d="M5.96244e-07 300C5.96244e-07 300 26.9797 299.034 37.9792 287.979C48.926 276.978 50 250 50 250C50 250 51.074 276.978 62.0208 287.979C73.0203 299.034 100 300 100 300C100 300 73.0203 300.966 62.0208 312.021C51.074 323.022 50 350 50 350C50 350 48.926 323.022 37.9792 312.021C26.9797 300.966 5.96244e-07 300 5.96244e-07 300Z" fill="#B70404" fill-opacity="0.5"/>
<path d="M87.868 87.8679C87.868 87.8679 107.629 106.262 123.223 106.223C138.743 106.185 158.579 87.8679 158.579 87.8679C158.579 87.8679 140.262 107.703 140.223 123.223C140.185 138.818 158.579 158.579 158.579 158.579C158.579 158.579 138.818 140.184 123.223 140.223C107.704 140.262 87.868 158.579 87.868 158.579C87.868 158.579 106.185 138.743 106.223 123.223C106.262 107.629 87.868 87.8679 87.868 87.8679Z" fill="#B70404" fill-opacity="0.5"/>
</svg>
