<svg width="327" height="232" viewBox="0 0 327 232" fill="none" xmlns="http://www.w3.org/2000/svg">
<g filter="url(#filter0_d_426_444)">
<rect x="30" y="24" width="266.625" height="171.75" rx="24" fill="#FF9083" fill-opacity="0.5" shape-rendering="crispEdges"/>
<rect x="30.75" y="24.75" width="265.125" height="170.25" rx="23.25" stroke="#E94649" stroke-opacity="0.2" stroke-width="1.5" shape-rendering="crispEdges"/>
<rect x="42" y="36" width="242.625" height="147.75" rx="13.5" fill="white" fill-opacity="0.9"/>
<path d="M71.0654 62.7031V75.5H68.877V62.7031H71.0654ZM75.082 62.7031V64.4609H64.8955V62.7031H75.082ZM74.9238 70.8506V70.6484C74.9238 69.9629 75.0234 69.3271 75.2227 68.7412C75.4219 68.1494 75.709 67.6367 76.084 67.2031C76.4648 66.7637 76.9277 66.4238 77.4727 66.1836C78.0234 65.9375 78.6445 65.8145 79.3359 65.8145C80.0332 65.8145 80.6543 65.9375 81.1992 66.1836C81.75 66.4238 82.2158 66.7637 82.5967 67.2031C82.9775 67.6367 83.2676 68.1494 83.4668 68.7412C83.666 69.3271 83.7656 69.9629 83.7656 70.6484V70.8506C83.7656 71.5361 83.666 72.1719 83.4668 72.7578C83.2676 73.3438 82.9775 73.8564 82.5967 74.2959C82.2158 74.7295 81.7529 75.0693 81.208 75.3154C80.6631 75.5557 80.0449 75.6758 79.3535 75.6758C78.6562 75.6758 78.0322 75.5557 77.4814 75.3154C76.9365 75.0693 76.4736 74.7295 76.0928 74.2959C75.7119 73.8564 75.4219 73.3438 75.2227 72.7578C75.0234 72.1719 74.9238 71.5361 74.9238 70.8506ZM77.042 70.6484V70.8506C77.042 71.2783 77.0859 71.6826 77.1738 72.0635C77.2617 72.4443 77.3994 72.7783 77.5869 73.0654C77.7744 73.3525 78.0146 73.5781 78.3076 73.7422C78.6006 73.9062 78.9492 73.9883 79.3535 73.9883C79.7461 73.9883 80.0859 73.9062 80.373 73.7422C80.666 73.5781 80.9062 73.3525 81.0938 73.0654C81.2812 72.7783 81.4189 72.4443 81.5068 72.0635C81.6006 71.6826 81.6475 71.2783 81.6475 70.8506V70.6484C81.6475 70.2266 81.6006 69.8281 81.5068 69.4531C81.4189 69.0723 81.2783 68.7354 81.085 68.4424C80.8975 68.1494 80.6572 67.9209 80.3643 67.7568C80.0771 67.5869 79.7344 67.502 79.3359 67.502C78.9375 67.502 78.5918 67.5869 78.2988 67.7568C78.0117 67.9209 77.7744 68.1494 77.5869 68.4424C77.3994 68.7354 77.2617 69.0723 77.1738 69.4531C77.0859 69.8281 77.042 70.2266 77.042 70.6484ZM95.8242 73.5312V62H97.9512V75.5H96.0264L95.8242 73.5312ZM89.6367 70.8506V70.666C89.6367 69.9453 89.7217 69.2891 89.8916 68.6973C90.0615 68.0996 90.3076 67.5869 90.6299 67.1592C90.9521 66.7256 91.3447 66.3945 91.8076 66.166C92.2705 65.9316 92.792 65.8145 93.3721 65.8145C93.9463 65.8145 94.4502 65.9258 94.8838 66.1484C95.3174 66.3711 95.6865 66.6904 95.9912 67.1064C96.2959 67.5166 96.5391 68.0088 96.7207 68.583C96.9023 69.1514 97.0312 69.7842 97.1074 70.4814V71.0703C97.0312 71.75 96.9023 72.3711 96.7207 72.9336C96.5391 73.4961 96.2959 73.9824 95.9912 74.3926C95.6865 74.8027 95.3145 75.1191 94.875 75.3418C94.4414 75.5645 93.9346 75.6758 93.3545 75.6758C92.7803 75.6758 92.2617 75.5557 91.7988 75.3154C91.3418 75.0752 90.9521 74.7383 90.6299 74.3047C90.3076 73.8711 90.0615 73.3613 89.8916 72.7754C89.7217 72.1836 89.6367 71.542 89.6367 70.8506ZM91.7549 70.666V70.8506C91.7549 71.2842 91.793 71.6885 91.8691 72.0635C91.9512 72.4385 92.0771 72.7695 92.2471 73.0566C92.417 73.3379 92.6367 73.5605 92.9062 73.7246C93.1816 73.8828 93.5098 73.9619 93.8906 73.9619C94.3711 73.9619 94.7666 73.8564 95.0771 73.6455C95.3877 73.4346 95.6309 73.1504 95.8066 72.793C95.9883 72.4297 96.1113 72.0254 96.1758 71.5801V69.9893C96.1406 69.6436 96.0674 69.3213 95.9561 69.0225C95.8506 68.7236 95.707 68.4629 95.5254 68.2402C95.3438 68.0117 95.1182 67.8359 94.8486 67.7129C94.585 67.584 94.2715 67.5195 93.9082 67.5195C93.5215 67.5195 93.1934 67.6016 92.9238 67.7656C92.6543 67.9297 92.4316 68.1553 92.2559 68.4424C92.0859 68.7295 91.96 69.0635 91.8779 69.4443C91.7959 69.8252 91.7549 70.2324 91.7549 70.666ZM99.7617 70.8506V70.6484C99.7617 69.9629 99.8613 69.3271 100.061 68.7412C100.26 68.1494 100.547 67.6367 100.922 67.2031C101.303 66.7637 101.766 66.4238 102.311 66.1836C102.861 65.9375 103.482 65.8145 104.174 65.8145C104.871 65.8145 105.492 65.9375 106.037 66.1836C106.588 66.4238 107.054 66.7637 107.435 67.2031C107.815 67.6367 108.105 68.1494 108.305 68.7412C108.504 69.3271 108.604 69.9629 108.604 70.6484V70.8506C108.604 71.5361 108.504 72.1719 108.305 72.7578C108.105 73.3438 107.815 73.8564 107.435 74.2959C107.054 74.7295 106.591 75.0693 106.046 75.3154C105.501 75.5557 104.883 75.6758 104.191 75.6758C103.494 75.6758 102.87 75.5557 102.319 75.3154C101.774 75.0693 101.312 74.7295 100.931 74.2959C100.55 73.8564 100.26 73.3438 100.061 72.7578C99.8613 72.1719 99.7617 71.5361 99.7617 70.8506ZM101.88 70.6484V70.8506C101.88 71.2783 101.924 71.6826 102.012 72.0635C102.1 72.4443 102.237 72.7783 102.425 73.0654C102.612 73.3525 102.853 73.5781 103.146 73.7422C103.438 73.9062 103.787 73.9883 104.191 73.9883C104.584 73.9883 104.924 73.9062 105.211 73.7422C105.504 73.5781 105.744 73.3525 105.932 73.0654C106.119 72.7783 106.257 72.4443 106.345 72.0635C106.438 71.6826 106.485 71.2783 106.485 70.8506V70.6484C106.485 70.2266 106.438 69.8281 106.345 69.4531C106.257 69.0723 106.116 68.7354 105.923 68.4424C105.735 68.1494 105.495 67.9209 105.202 67.7568C104.915 67.5869 104.572 67.502 104.174 67.502C103.775 67.502 103.43 67.5869 103.137 67.7568C102.85 67.9209 102.612 68.1494 102.425 68.4424C102.237 68.7354 102.1 69.0723 102.012 69.4531C101.924 69.8281 101.88 70.2266 101.88 70.6484ZM117.129 62V75.5H115.002V62H117.129ZM121.717 65.9902V75.5H119.59V65.9902H121.717ZM119.449 63.4941C119.449 63.1719 119.555 62.9053 119.766 62.6943C119.982 62.4775 120.281 62.3691 120.662 62.3691C121.037 62.3691 121.333 62.4775 121.55 62.6943C121.767 62.9053 121.875 63.1719 121.875 63.4941C121.875 63.8105 121.767 64.0742 121.55 64.2852C121.333 64.4961 121.037 64.6016 120.662 64.6016C120.281 64.6016 119.982 64.4961 119.766 64.2852C119.555 64.0742 119.449 63.8105 119.449 63.4941ZM129.372 72.9248C129.372 72.7139 129.319 72.5234 129.214 72.3535C129.108 72.1777 128.906 72.0195 128.607 71.8789C128.314 71.7383 127.881 71.6094 127.307 71.4922C126.803 71.3809 126.34 71.249 125.918 71.0967C125.502 70.9385 125.145 70.748 124.846 70.5254C124.547 70.3027 124.315 70.0391 124.151 69.7344C123.987 69.4297 123.905 69.0781 123.905 68.6797C123.905 68.293 123.99 67.9268 124.16 67.5811C124.33 67.2354 124.573 66.9307 124.89 66.667C125.206 66.4033 125.59 66.1953 126.041 66.043C126.498 65.8906 127.008 65.8145 127.57 65.8145C128.367 65.8145 129.05 65.9492 129.618 66.2188C130.192 66.4824 130.632 66.8428 130.937 67.2998C131.241 67.751 131.394 68.2607 131.394 68.8291H129.275C129.275 68.5771 129.211 68.3428 129.082 68.126C128.959 67.9033 128.771 67.7246 128.52 67.5898C128.268 67.4492 127.951 67.3789 127.57 67.3789C127.207 67.3789 126.905 67.4375 126.665 67.5547C126.431 67.666 126.255 67.8125 126.138 67.9941C126.026 68.1758 125.971 68.375 125.971 68.5918C125.971 68.75 126 68.8936 126.059 69.0225C126.123 69.1455 126.229 69.2598 126.375 69.3652C126.521 69.4648 126.721 69.5586 126.973 69.6465C127.23 69.7344 127.553 69.8193 127.939 69.9014C128.666 70.0537 129.29 70.25 129.812 70.4902C130.339 70.7246 130.743 71.0293 131.024 71.4043C131.306 71.7734 131.446 72.2422 131.446 72.8105C131.446 73.2324 131.355 73.6191 131.174 73.9707C130.998 74.3164 130.74 74.6182 130.4 74.876C130.061 75.1279 129.653 75.3242 129.179 75.4648C128.71 75.6055 128.183 75.6758 127.597 75.6758C126.735 75.6758 126.006 75.5234 125.408 75.2188C124.811 74.9082 124.356 74.5127 124.046 74.0322C123.741 73.5459 123.589 73.042 123.589 72.5205H125.637C125.66 72.9131 125.769 73.2266 125.962 73.4609C126.161 73.6895 126.407 73.8564 126.7 73.9619C126.999 74.0615 127.307 74.1113 127.623 74.1113C128.004 74.1113 128.323 74.0615 128.581 73.9619C128.839 73.8564 129.035 73.7158 129.17 73.54C129.305 73.3584 129.372 73.1533 129.372 72.9248ZM137.66 65.9902V67.5371H132.299V65.9902H137.66ZM133.846 63.6611H135.964V72.8721C135.964 73.165 136.005 73.3906 136.087 73.5488C136.175 73.7012 136.295 73.8037 136.447 73.8564C136.6 73.9092 136.778 73.9355 136.983 73.9355C137.13 73.9355 137.271 73.9268 137.405 73.9092C137.54 73.8916 137.648 73.874 137.73 73.8564L137.739 75.4736C137.563 75.5264 137.358 75.5732 137.124 75.6143C136.896 75.6553 136.632 75.6758 136.333 75.6758C135.847 75.6758 135.416 75.5908 135.041 75.4209C134.666 75.2451 134.373 74.9609 134.162 74.5684C133.951 74.1758 133.846 73.6543 133.846 73.0039V63.6611Z" fill="black"/>
<circle cx="71.25" cy="98" r="6.1875" fill="#FF9083" stroke="#B70404" stroke-width="1.125"/>
<path d="M89.6719 103.5H86.1371V92.0455H89.8285C90.9396 92.0455 91.8904 92.2748 92.6809 92.7334C93.4714 93.1883 94.0773 93.8427 94.4987 94.6966C94.92 95.5467 95.1307 96.5646 95.1307 97.7504C95.1307 98.9435 94.9181 99.9708 94.4931 100.832C94.068 101.69 93.449 102.35 92.6362 102.812C91.8233 103.271 90.8352 103.5 89.6719 103.5ZM87.5241 102.27H89.5824C90.5295 102.27 91.3144 102.087 91.9371 101.721C92.5597 101.356 93.024 100.836 93.3297 100.161C93.6355 99.4861 93.7884 98.6825 93.7884 97.7504C93.7884 96.8256 93.6373 96.0296 93.3353 95.3621C93.0333 94.691 92.5821 94.1764 91.9818 93.8184C91.3815 93.4568 90.6339 93.2759 89.739 93.2759H87.5241V102.27ZM100.88 103.679C100.053 103.679 99.3385 103.496 98.7382 103.131C98.1416 102.762 97.6811 102.247 97.3567 101.587C97.036 100.923 96.8757 100.152 96.8757 99.2717C96.8757 98.3917 97.036 97.6161 97.3567 96.945C97.6811 96.2701 98.1323 95.7443 98.7102 95.3677C99.2919 94.9874 99.9705 94.7972 100.746 94.7972C101.194 94.7972 101.635 94.8718 102.072 95.021C102.508 95.1701 102.905 95.4125 103.263 95.748C103.621 96.0799 103.906 96.5199 104.119 97.068C104.331 97.6161 104.438 98.291 104.438 99.0927V99.652H97.8153V98.511H103.095C103.095 98.0263 102.998 97.5937 102.804 97.2134C102.614 96.8331 102.342 96.5329 101.988 96.3129C101.637 96.093 101.223 95.983 100.746 95.983C100.22 95.983 99.7654 96.1135 99.3814 96.3745C99.0011 96.6317 98.7084 96.9673 98.5033 97.3812C98.2982 97.7951 98.1957 98.2388 98.1957 98.7124V99.473C98.1957 100.122 98.3075 100.672 98.5312 101.123C98.7587 101.57 99.0738 101.912 99.4765 102.146C99.8792 102.378 100.347 102.493 100.88 102.493C101.227 102.493 101.54 102.445 101.82 102.348C102.103 102.247 102.348 102.098 102.553 101.9C102.758 101.699 102.916 101.449 103.028 101.151L104.303 101.509C104.169 101.941 103.943 102.322 103.627 102.65C103.31 102.974 102.918 103.228 102.452 103.411C101.986 103.589 101.462 103.679 100.88 103.679ZM110.271 94.9091V96.0277H105.64V94.9091H110.271ZM107.027 103.5V93.7234C107.027 93.2312 107.143 92.821 107.374 92.4929C107.605 92.1648 107.905 91.9187 108.274 91.7546C108.643 91.5906 109.033 91.5085 109.443 91.5085C109.768 91.5085 110.032 91.5346 110.237 91.5868C110.443 91.639 110.595 91.6875 110.696 91.7322L110.316 92.8732C110.249 92.8509 110.155 92.8229 110.036 92.7893C109.921 92.7558 109.768 92.739 109.578 92.739C109.141 92.739 108.826 92.849 108.632 93.069C108.442 93.289 108.347 93.6115 108.347 94.0366V103.5H107.027ZM112.121 103.5V94.9091H113.441V103.5H112.121ZM112.792 93.4773C112.535 93.4773 112.313 93.3896 112.127 93.2144C111.944 93.0392 111.852 92.8285 111.852 92.5824C111.852 92.3363 111.944 92.1256 112.127 91.9504C112.313 91.7751 112.535 91.6875 112.792 91.6875C113.049 91.6875 113.269 91.7751 113.452 91.9504C113.639 92.1256 113.732 92.3363 113.732 92.5824C113.732 92.8285 113.639 93.0392 113.452 93.2144C113.269 93.3896 113.049 93.4773 112.792 93.4773ZM117.178 98.332V103.5H115.858V94.9091H117.134V96.2514H117.246C117.447 95.8152 117.753 95.4647 118.163 95.1999C118.573 94.9315 119.102 94.7972 119.751 94.7972C120.333 94.7972 120.842 94.9165 121.278 95.1552C121.714 95.3901 122.054 95.748 122.296 96.229C122.538 96.7063 122.66 97.3104 122.66 98.0412V103.5H121.34V98.1307C121.34 97.4558 121.164 96.93 120.814 96.5534C120.463 96.1731 119.982 95.983 119.371 95.983C118.95 95.983 118.573 96.0743 118.241 96.257C117.913 96.4397 117.654 96.7063 117.464 97.0568C117.274 97.4073 117.178 97.8324 117.178 98.332ZM128.674 103.679C127.846 103.679 127.132 103.496 126.531 103.131C125.935 102.762 125.474 102.247 125.15 101.587C124.829 100.923 124.669 100.152 124.669 99.2717C124.669 98.3917 124.829 97.6161 125.15 96.945C125.474 96.2701 125.925 95.7443 126.503 95.3677C127.085 94.9874 127.764 94.7972 128.539 94.7972C128.987 94.7972 129.429 94.8718 129.865 95.021C130.301 95.1701 130.698 95.4125 131.056 95.748C131.414 96.0799 131.699 96.5199 131.912 97.068C132.124 97.6161 132.231 98.291 132.231 99.0927V99.652H125.609V98.511H130.888C130.888 98.0263 130.791 97.5937 130.598 97.2134C130.407 96.8331 130.135 96.5329 129.781 96.3129C129.43 96.093 129.017 95.983 128.539 95.983C128.014 95.983 127.559 96.1135 127.175 96.3745C126.794 96.6317 126.502 96.9673 126.296 97.3812C126.091 97.7951 125.989 98.2388 125.989 98.7124V99.473C125.989 100.122 126.101 100.672 126.324 101.123C126.552 101.57 126.867 101.912 127.27 102.146C127.672 102.378 128.14 102.493 128.674 102.493C129.02 102.493 129.334 102.445 129.613 102.348C129.897 102.247 130.141 102.098 130.346 101.9C130.551 101.699 130.709 101.449 130.821 101.151L132.096 101.509C131.962 101.941 131.737 102.322 131.42 102.65C131.103 102.974 130.711 103.228 130.245 103.411C129.779 103.589 129.255 103.679 128.674 103.679ZM142.494 94.9091V96.0277H137.863V94.9091H142.494ZM139.25 103.5V93.7234C139.25 93.2312 139.366 92.821 139.597 92.4929C139.828 92.1648 140.128 91.9187 140.497 91.7546C140.866 91.5906 141.256 91.5085 141.666 91.5085C141.991 91.5085 142.255 91.5346 142.46 91.5868C142.665 91.639 142.818 91.6875 142.919 91.7322L142.539 92.8732C142.472 92.8509 142.378 92.8229 142.259 92.7893C142.143 92.7558 141.991 92.739 141.8 92.739C141.364 92.739 141.049 92.849 140.855 93.069C140.665 93.289 140.57 93.6115 140.57 94.0366V103.5H139.25ZM149.758 99.9876V94.9091H151.078V103.5H149.758V102.046H149.668C149.467 102.482 149.154 102.853 148.729 103.159C148.304 103.461 147.767 103.612 147.118 103.612C146.581 103.612 146.104 103.494 145.686 103.259C145.269 103.021 144.94 102.663 144.702 102.186C144.463 101.705 144.344 101.099 144.344 100.368V94.9091H145.664V100.278C145.664 100.905 145.839 101.404 146.19 101.777C146.544 102.15 146.995 102.337 147.543 102.337C147.871 102.337 148.205 102.253 148.544 102.085C148.887 101.917 149.174 101.66 149.406 101.313C149.64 100.966 149.758 100.525 149.758 99.9876ZM154.815 98.332V103.5H153.495V94.9091H154.771V96.2514H154.883C155.084 95.8152 155.39 95.4647 155.8 95.1999C156.21 94.9315 156.739 94.7972 157.388 94.7972C157.97 94.7972 158.479 94.9165 158.915 95.1552C159.351 95.3901 159.691 95.748 159.933 96.229C160.175 96.7063 160.297 97.3104 160.297 98.0412V103.5H158.977V98.1307C158.977 97.4558 158.801 96.93 158.451 96.5534C158.1 96.1731 157.619 95.983 157.008 95.983C156.587 95.983 156.21 96.0743 155.878 96.257C155.55 96.4397 155.291 96.7063 155.101 97.0568C154.91 97.4073 154.815 97.8324 154.815 98.332ZM166.199 103.679C165.393 103.679 164.7 103.489 164.118 103.108C163.536 102.728 163.089 102.204 162.776 101.537C162.462 100.869 162.306 100.107 162.306 99.2493C162.306 98.3768 162.466 97.6068 162.787 96.9394C163.111 96.2682 163.562 95.7443 164.14 95.3677C164.722 94.9874 165.401 94.7972 166.176 94.7972C166.78 94.7972 167.325 94.9091 167.809 95.1328C168.294 95.3565 168.691 95.6697 169.001 96.0724C169.31 96.4751 169.502 96.945 169.577 97.4819H168.257C168.156 97.0904 167.932 96.7436 167.586 96.4416C167.243 96.1358 166.78 95.983 166.199 95.983C165.684 95.983 165.233 96.1172 164.845 96.3857C164.461 96.6504 164.161 97.0251 163.945 97.5099C163.732 97.9909 163.626 98.5558 163.626 99.2045C163.626 99.8683 163.73 100.446 163.939 100.938C164.152 101.431 164.45 101.813 164.834 102.085C165.222 102.357 165.677 102.493 166.199 102.493C166.542 102.493 166.853 102.434 167.133 102.314C167.412 102.195 167.649 102.023 167.843 101.8C168.037 101.576 168.175 101.308 168.257 100.994H169.577C169.502 101.501 169.318 101.958 169.023 102.365C168.732 102.767 168.346 103.088 167.865 103.327C167.388 103.562 166.833 103.679 166.199 103.679ZM175.243 94.9091V96.0277H170.791V94.9091H175.243ZM172.088 92.8509H173.408V101.039C173.408 101.412 173.462 101.692 173.57 101.878C173.682 102.061 173.824 102.184 173.995 102.247C174.171 102.307 174.355 102.337 174.549 102.337C174.694 102.337 174.814 102.329 174.907 102.314C175 102.296 175.075 102.281 175.131 102.27L175.399 103.455C175.31 103.489 175.185 103.522 175.024 103.556C174.864 103.593 174.661 103.612 174.415 103.612C174.042 103.612 173.677 103.532 173.319 103.371C172.964 103.211 172.67 102.967 172.435 102.639C172.204 102.311 172.088 101.897 172.088 101.397V92.8509ZM177.228 103.5V94.9091H178.548V103.5H177.228ZM177.899 93.4773C177.642 93.4773 177.42 93.3896 177.234 93.2144C177.051 93.0392 176.96 92.8285 176.96 92.5824C176.96 92.3363 177.051 92.1256 177.234 91.9504C177.42 91.7751 177.642 91.6875 177.899 91.6875C178.157 91.6875 178.377 91.7751 178.559 91.9504C178.746 92.1256 178.839 92.3363 178.839 92.5824C178.839 92.8285 178.746 93.0392 178.559 93.2144C178.377 93.3896 178.157 93.4773 177.899 93.4773ZM184.456 103.679C183.68 103.679 183 103.494 182.414 103.125C181.833 102.756 181.378 102.24 181.05 101.576C180.725 100.912 180.563 100.137 180.563 99.2493C180.563 98.3544 180.725 97.5732 181.05 96.9058C181.378 96.2384 181.833 95.7201 182.414 95.3509C183 94.9818 183.68 94.7972 184.456 94.7972C185.231 94.7972 185.91 94.9818 186.492 95.3509C187.077 95.7201 187.532 96.2384 187.856 96.9058C188.184 97.5732 188.348 98.3544 188.348 99.2493C188.348 100.137 188.184 100.912 187.856 101.576C187.532 102.24 187.077 102.756 186.492 103.125C185.91 103.494 185.231 103.679 184.456 103.679ZM184.456 102.493C185.045 102.493 185.53 102.342 185.91 102.04C186.29 101.738 186.572 101.341 186.754 100.849C186.937 100.357 187.029 99.8235 187.029 99.2493C187.029 98.6751 186.937 98.14 186.754 97.6441C186.572 97.1482 186.29 96.7473 185.91 96.4416C185.53 96.1358 185.045 95.983 184.456 95.983C183.867 95.983 183.382 96.1358 183.002 96.4416C182.621 96.7473 182.34 97.1482 182.157 97.6441C181.974 98.14 181.883 98.6751 181.883 99.2493C181.883 99.8235 181.974 100.357 182.157 100.849C182.34 101.341 182.621 101.738 183.002 102.04C183.382 102.342 183.867 102.493 184.456 102.493ZM191.683 98.332V103.5H190.363V94.9091H191.639V96.2514H191.75C191.952 95.8152 192.258 95.4647 192.668 95.1999C193.078 94.9315 193.607 94.7972 194.256 94.7972C194.838 94.7972 195.347 94.9165 195.783 95.1552C196.219 95.3901 196.559 95.748 196.801 96.229C197.043 96.7063 197.165 97.3104 197.165 98.0412V103.5H195.845V98.1307C195.845 97.4558 195.669 96.93 195.319 96.5534C194.968 96.1731 194.487 95.983 193.876 95.983C193.454 95.983 193.078 96.0743 192.746 96.257C192.418 96.4397 192.159 96.7063 191.969 97.0568C191.778 97.4073 191.683 97.8324 191.683 98.332ZM202.105 103.701C201.56 103.701 201.066 103.599 200.622 103.394C200.179 103.185 199.826 102.885 199.565 102.493C199.304 102.098 199.174 101.621 199.174 101.061C199.174 100.569 199.271 100.17 199.465 99.8645C199.659 99.555 199.918 99.3127 200.242 99.1374C200.566 98.9622 200.924 98.8317 201.316 98.7459C201.711 98.6564 202.108 98.5856 202.507 98.5334C203.029 98.4663 203.452 98.4159 203.777 98.3824C204.105 98.3451 204.344 98.2836 204.493 98.1978C204.646 98.112 204.722 97.9629 204.722 97.7504V97.7056C204.722 97.1538 204.571 96.725 204.269 96.4192C203.971 96.1135 203.518 95.9606 202.91 95.9606C202.28 95.9606 201.786 96.0985 201.428 96.3745C201.07 96.6504 200.818 96.945 200.673 97.2582L199.42 96.8107C199.644 96.2887 199.942 95.8823 200.315 95.5914C200.691 95.2969 201.102 95.0918 201.545 94.9762C201.993 94.8569 202.433 94.7972 202.865 94.7972C203.141 94.7972 203.458 94.8308 203.816 94.8979C204.178 94.9613 204.526 95.0937 204.862 95.295C205.201 95.4964 205.483 95.8002 205.706 96.2067C205.93 96.6131 206.042 97.1575 206.042 97.8398V103.5H204.722V102.337H204.655C204.565 102.523 204.416 102.723 204.208 102.935C203.999 103.148 203.721 103.328 203.374 103.478C203.027 103.627 202.604 103.701 202.105 103.701ZM202.306 102.516C202.828 102.516 203.268 102.413 203.626 102.208C203.988 102.003 204.26 101.738 204.442 101.414C204.629 101.089 204.722 100.748 204.722 100.39V99.1822C204.666 99.2493 204.543 99.3108 204.353 99.3667C204.167 99.4189 203.95 99.4656 203.704 99.5066C203.462 99.5439 203.225 99.5774 202.994 99.6072C202.766 99.6333 202.582 99.6557 202.44 99.6744C202.097 99.7191 201.776 99.7918 201.478 99.8925C201.184 99.9894 200.945 100.137 200.762 100.334C200.583 100.528 200.494 100.793 200.494 101.129C200.494 101.587 200.663 101.934 201.003 102.169C201.346 102.4 201.78 102.516 202.306 102.516ZM209.771 92.0455V103.5H208.451V92.0455H209.771ZM212.189 103.5V94.9091H213.509V103.5H212.189ZM212.86 93.4773C212.603 93.4773 212.381 93.3896 212.194 93.2144C212.012 93.0392 211.92 92.8285 211.92 92.5824C211.92 92.3363 212.012 92.1256 212.194 91.9504C212.381 91.7751 212.603 91.6875 212.86 91.6875C213.117 91.6875 213.337 91.7751 213.52 91.9504C213.706 92.1256 213.8 92.3363 213.8 92.5824C213.8 92.8285 213.706 93.0392 213.52 93.2144C213.337 93.3896 213.117 93.4773 212.86 93.4773ZM219.663 94.9091V96.0277H215.21V94.9091H219.663ZM216.508 92.8509H217.828V101.039C217.828 101.412 217.882 101.692 217.99 101.878C218.102 102.061 218.244 102.184 218.415 102.247C218.591 102.307 218.775 102.337 218.969 102.337C219.114 102.337 219.234 102.329 219.327 102.314C219.42 102.296 219.495 102.281 219.551 102.27L219.819 103.455C219.73 103.489 219.605 103.522 219.444 103.556C219.284 103.593 219.081 103.612 218.835 103.612C218.462 103.612 218.096 103.532 217.739 103.371C217.384 103.211 217.09 102.967 216.855 102.639C216.624 102.311 216.508 101.897 216.508 101.397V92.8509ZM221.648 103.5V94.9091H222.968V103.5H221.648ZM222.319 93.4773C222.062 93.4773 221.84 93.3896 221.654 93.2144C221.471 93.0392 221.38 92.8285 221.38 92.5824C221.38 92.3363 221.471 92.1256 221.654 91.9504C221.84 91.7751 222.062 91.6875 222.319 91.6875C222.576 91.6875 222.796 91.7751 222.979 91.9504C223.166 92.1256 223.259 92.3363 223.259 92.5824C223.259 92.8285 223.166 93.0392 222.979 93.2144C222.796 93.3896 222.576 93.4773 222.319 93.4773ZM228.988 103.679C228.16 103.679 227.446 103.496 226.845 103.131C226.249 102.762 225.788 102.247 225.464 101.587C225.143 100.923 224.983 100.152 224.983 99.2717C224.983 98.3917 225.143 97.6161 225.464 96.945C225.788 96.2701 226.239 95.7443 226.817 95.3677C227.399 94.9874 228.078 94.7972 228.853 94.7972C229.301 94.7972 229.743 94.8718 230.179 95.021C230.615 95.1701 231.012 95.4125 231.37 95.748C231.728 96.0799 232.013 96.5199 232.226 97.068C232.438 97.6161 232.545 98.291 232.545 99.0927V99.652H225.923V98.511H231.202C231.202 98.0263 231.105 97.5937 230.912 97.2134C230.721 96.8331 230.449 96.5329 230.095 96.3129C229.744 96.093 229.331 95.983 228.853 95.983C228.328 95.983 227.873 96.1135 227.489 96.3745C227.108 96.6317 226.816 96.9673 226.61 97.3812C226.405 97.7951 226.303 98.2388 226.303 98.7124V99.473C226.303 100.122 226.415 100.672 226.638 101.123C226.866 101.57 227.181 101.912 227.584 102.146C227.986 102.378 228.454 102.493 228.988 102.493C229.334 102.493 229.647 102.445 229.927 102.348C230.211 102.247 230.455 102.098 230.66 101.9C230.865 101.699 231.023 101.449 231.135 101.151L232.41 101.509C232.276 101.941 232.051 102.322 231.734 102.65C231.417 102.974 231.025 103.228 230.559 103.411C230.093 103.589 229.569 103.679 228.988 103.679ZM240.638 96.8331L239.452 97.1687C239.378 96.9711 239.268 96.779 239.122 96.5926C238.98 96.4024 238.787 96.2458 238.54 96.1228C238.294 95.9997 237.979 95.9382 237.595 95.9382C237.069 95.9382 236.631 96.0594 236.281 96.3018C235.934 96.5404 235.761 96.8443 235.761 97.2134C235.761 97.5415 235.88 97.8007 236.119 97.9909C236.357 98.181 236.73 98.3395 237.237 98.4663L238.512 98.7795C239.281 98.9659 239.853 99.2512 240.23 99.6352C240.606 100.016 240.794 100.506 240.794 101.106C240.794 101.598 240.653 102.038 240.369 102.426C240.09 102.814 239.698 103.12 239.195 103.343C238.691 103.567 238.106 103.679 237.439 103.679C236.562 103.679 235.837 103.489 235.263 103.108C234.689 102.728 234.325 102.173 234.172 101.442L235.425 101.129C235.544 101.591 235.77 101.938 236.102 102.169C236.437 102.4 236.876 102.516 237.416 102.516C238.031 102.516 238.52 102.385 238.882 102.124C239.247 101.859 239.43 101.542 239.43 101.173C239.43 100.875 239.325 100.625 239.116 100.424C238.908 100.219 238.587 100.066 238.154 99.9652L236.723 99.6296C235.936 99.4432 235.358 99.1542 234.989 98.7627C234.623 98.3675 234.441 97.8734 234.441 97.2805C234.441 96.7958 234.577 96.367 234.849 95.9941C235.125 95.6213 235.5 95.3286 235.973 95.116C236.45 94.9035 236.991 94.7972 237.595 94.7972C238.445 94.7972 239.113 94.9837 239.598 95.3565C240.086 95.7294 240.433 96.2216 240.638 96.8331Z" fill="black"/>
<circle cx="71.25" cy="124.875" r="6.1875" stroke="#AAAAAA" stroke-width="1.125"/>
<path d="M89.6719 130.375H86.1371V118.92H89.8285C90.9396 118.92 91.8904 119.15 92.6809 119.608C93.4714 120.063 94.0773 120.718 94.4987 121.572C94.92 122.422 95.1307 123.44 95.1307 124.625C95.1307 125.819 94.9181 126.846 94.4931 127.707C94.068 128.565 93.449 129.225 92.6362 129.687C91.8233 130.146 90.8352 130.375 89.6719 130.375ZM87.5241 129.145H89.5824C90.5295 129.145 91.3144 128.962 91.9371 128.596C92.5597 128.231 93.024 127.711 93.3297 127.036C93.6355 126.361 93.7884 125.558 93.7884 124.625C93.7884 123.701 93.6373 122.905 93.3353 122.237C93.0333 121.566 92.5821 121.051 91.9818 120.693C91.3815 120.332 90.6339 120.151 89.739 120.151H87.5241V129.145ZM97.2784 130.375V121.784H98.5536V123.082H98.6431C98.7997 122.657 99.0831 122.312 99.4933 122.047C99.9034 121.782 100.366 121.65 100.88 121.65C100.977 121.65 101.098 121.652 101.244 121.655C101.389 121.659 101.499 121.665 101.574 121.672V123.015C101.529 123.003 101.427 122.987 101.266 122.964C101.11 122.938 100.944 122.925 100.768 122.925C100.351 122.925 99.978 123.013 99.6499 123.188C99.3255 123.359 99.0682 123.598 98.878 123.904C98.6916 124.206 98.5984 124.551 98.5984 124.939V130.375H97.2784ZM105.667 130.576C105.122 130.576 104.628 130.474 104.184 130.269C103.741 130.06 103.388 129.76 103.127 129.368C102.866 128.973 102.736 128.496 102.736 127.936C102.736 127.444 102.833 127.045 103.027 126.74C103.221 126.43 103.48 126.188 103.804 126.012C104.128 125.837 104.486 125.707 104.878 125.621C105.273 125.531 105.67 125.461 106.069 125.408C106.591 125.341 107.014 125.291 107.339 125.257C107.667 125.22 107.906 125.159 108.055 125.073C108.208 124.987 108.284 124.838 108.284 124.625V124.581C108.284 124.029 108.133 123.6 107.831 123.294C107.533 122.988 107.08 122.836 106.472 122.836C105.842 122.836 105.348 122.974 104.99 123.249C104.632 123.525 104.38 123.82 104.235 124.133L102.982 123.686C103.206 123.164 103.504 122.757 103.877 122.466C104.253 122.172 104.664 121.967 105.107 121.851C105.555 121.732 105.995 121.672 106.427 121.672C106.703 121.672 107.02 121.706 107.378 121.773C107.74 121.836 108.088 121.969 108.424 122.17C108.763 122.371 109.045 122.675 109.268 123.082C109.492 123.488 109.604 124.032 109.604 124.715V130.375H108.284V129.212H108.217C108.128 129.398 107.978 129.598 107.77 129.81C107.561 130.023 107.283 130.203 106.936 130.353C106.589 130.502 106.166 130.576 105.667 130.576ZM105.868 129.391C106.39 129.391 106.83 129.288 107.188 129.083C107.55 128.878 107.822 128.613 108.004 128.289C108.191 127.964 108.284 127.623 108.284 127.265V126.057C108.228 126.124 108.105 126.186 107.915 126.242C107.729 126.294 107.512 126.341 107.266 126.382C107.024 126.419 106.787 126.452 106.556 126.482C106.328 126.508 106.144 126.531 106.002 126.549C105.659 126.594 105.338 126.667 105.04 126.767C104.746 126.864 104.507 127.012 104.324 127.209C104.145 127.403 104.056 127.668 104.056 128.004C104.056 128.462 104.225 128.809 104.565 129.044C104.908 129.275 105.342 129.391 105.868 129.391ZM115.839 121.784V122.903H111.208V121.784H115.839ZM112.595 130.375V120.598C112.595 120.106 112.711 119.696 112.942 119.368C113.173 119.04 113.473 118.794 113.842 118.63C114.211 118.466 114.601 118.384 115.011 118.384C115.336 118.384 115.6 118.41 115.805 118.462C116.01 118.514 116.163 118.562 116.264 118.607L115.884 119.748C115.817 119.726 115.723 119.698 115.604 119.664C115.488 119.631 115.336 119.614 115.145 119.614C114.709 119.614 114.394 119.724 114.2 119.944C114.01 120.164 113.915 120.487 113.915 120.912V130.375H112.595ZM121.425 121.784V122.903H116.973V121.784H121.425ZM118.27 119.726H119.59V127.914C119.59 128.287 119.645 128.567 119.753 128.753C119.865 128.936 120.006 129.059 120.178 129.122C120.353 129.182 120.538 129.212 120.731 129.212C120.877 129.212 120.996 129.204 121.089 129.189C121.183 129.171 121.257 129.156 121.313 129.145L121.582 130.33C121.492 130.364 121.367 130.397 121.207 130.431C121.046 130.468 120.843 130.487 120.597 130.487C120.224 130.487 119.859 130.407 119.501 130.246C119.147 130.086 118.852 129.842 118.617 129.514C118.386 129.186 118.27 128.772 118.27 128.272V119.726ZM133.925 123.708L132.74 124.044C132.665 123.846 132.555 123.654 132.41 123.468C132.268 123.277 132.074 123.121 131.828 122.998C131.582 122.875 131.267 122.813 130.883 122.813C130.357 122.813 129.919 122.934 129.568 123.177C129.222 123.415 129.048 123.719 129.048 124.088C129.048 124.417 129.168 124.676 129.406 124.866C129.645 125.056 130.018 125.214 130.525 125.341L131.8 125.654C132.568 125.841 133.141 126.126 133.517 126.51C133.894 126.891 134.082 127.381 134.082 127.981C134.082 128.473 133.94 128.913 133.657 129.301C133.377 129.689 132.986 129.995 132.482 130.218C131.979 130.442 131.394 130.554 130.726 130.554C129.85 130.554 129.125 130.364 128.55 129.983C127.976 129.603 127.613 129.048 127.46 128.317L128.713 128.004C128.832 128.466 129.058 128.813 129.389 129.044C129.725 129.275 130.163 129.391 130.704 129.391C131.319 129.391 131.808 129.26 132.169 128.999C132.535 128.734 132.717 128.417 132.717 128.048C132.717 127.75 132.613 127.5 132.404 127.299C132.195 127.094 131.875 126.941 131.442 126.84L130.01 126.505C129.224 126.318 128.646 126.029 128.276 125.638C127.911 125.242 127.728 124.748 127.728 124.156C127.728 123.671 127.864 123.242 128.137 122.869C128.413 122.496 128.787 122.204 129.261 121.991C129.738 121.778 130.279 121.672 130.883 121.672C131.733 121.672 132.4 121.859 132.885 122.232C133.374 122.604 133.72 123.097 133.925 123.708ZM136.069 133.597V121.784H137.344V123.149H137.501C137.598 123 137.732 122.809 137.903 122.578C138.079 122.343 138.329 122.135 138.653 121.952C138.981 121.765 139.425 121.672 139.984 121.672C140.707 121.672 141.345 121.853 141.897 122.215C142.449 122.576 142.879 123.089 143.189 123.753C143.498 124.417 143.653 125.2 143.653 126.102C143.653 127.012 143.498 127.8 143.189 128.468C142.879 129.131 142.451 129.646 141.902 130.011C141.354 130.373 140.722 130.554 140.006 130.554C139.455 130.554 139.013 130.463 138.681 130.28C138.349 130.093 138.094 129.883 137.915 129.648C137.736 129.409 137.598 129.212 137.501 129.055H137.389V133.597H136.069ZM137.367 126.08C137.367 126.728 137.462 127.301 137.652 127.797C137.842 128.289 138.12 128.675 138.485 128.954C138.851 129.23 139.298 129.368 139.827 129.368C140.379 129.368 140.84 129.223 141.209 128.932C141.582 128.637 141.861 128.242 142.048 127.746C142.238 127.247 142.333 126.691 142.333 126.08C142.333 125.475 142.24 124.931 142.053 124.446C141.871 123.958 141.593 123.572 141.22 123.289C140.851 123.002 140.387 122.858 139.827 122.858C139.291 122.858 138.839 122.994 138.474 123.266C138.109 123.535 137.833 123.911 137.646 124.396C137.46 124.877 137.367 125.438 137.367 126.08ZM149.269 130.554C148.441 130.554 147.727 130.371 147.126 130.006C146.53 129.637 146.069 129.122 145.745 128.462C145.424 127.798 145.264 127.027 145.264 126.147C145.264 125.267 145.424 124.491 145.745 123.82C146.069 123.145 146.52 122.619 147.098 122.243C147.68 121.862 148.359 121.672 149.134 121.672C149.582 121.672 150.024 121.747 150.46 121.896C150.896 122.045 151.293 122.287 151.651 122.623C152.009 122.955 152.294 123.395 152.507 123.943C152.719 124.491 152.826 125.166 152.826 125.968V126.527H146.204V125.386H151.483C151.483 124.901 151.386 124.469 151.193 124.088C151.002 123.708 150.73 123.408 150.376 123.188C150.025 122.968 149.612 122.858 149.134 122.858C148.609 122.858 148.154 122.988 147.77 123.249C147.389 123.507 147.097 123.842 146.891 124.256C146.686 124.67 146.584 125.114 146.584 125.587V126.348C146.584 126.997 146.696 127.547 146.919 127.998C147.147 128.445 147.462 128.787 147.865 129.021C148.267 129.253 148.735 129.368 149.269 129.368C149.615 129.368 149.928 129.32 150.208 129.223C150.492 129.122 150.736 128.973 150.941 128.775C151.146 128.574 151.304 128.324 151.416 128.026L152.691 128.384C152.557 128.816 152.332 129.197 152.015 129.525C151.698 129.849 151.306 130.103 150.84 130.286C150.374 130.464 149.85 130.554 149.269 130.554ZM158.324 130.554C157.518 130.554 156.825 130.364 156.243 129.983C155.661 129.603 155.214 129.079 154.901 128.412C154.587 127.744 154.431 126.982 154.431 126.124C154.431 125.252 154.591 124.482 154.912 123.814C155.236 123.143 155.687 122.619 156.265 122.243C156.847 121.862 157.526 121.672 158.301 121.672C158.905 121.672 159.45 121.784 159.934 122.008C160.419 122.232 160.816 122.545 161.126 122.947C161.435 123.35 161.627 123.82 161.702 124.357H160.382C160.281 123.965 160.057 123.619 159.711 123.317C159.368 123.011 158.905 122.858 158.324 122.858C157.809 122.858 157.358 122.992 156.97 123.261C156.586 123.525 156.286 123.9 156.07 124.385C155.857 124.866 155.751 125.431 155.751 126.08C155.751 126.743 155.855 127.321 156.064 127.813C156.277 128.306 156.575 128.688 156.959 128.96C157.347 129.232 157.802 129.368 158.324 129.368C158.667 129.368 158.978 129.309 159.258 129.189C159.537 129.07 159.774 128.898 159.968 128.675C160.162 128.451 160.3 128.183 160.382 127.869H161.702C161.627 128.376 161.443 128.833 161.148 129.24C160.857 129.642 160.471 129.963 159.99 130.202C159.513 130.437 158.958 130.554 158.324 130.554ZM163.631 130.375V121.784H164.951V130.375H163.631ZM164.303 120.352C164.045 120.352 163.823 120.265 163.637 120.089C163.454 119.914 163.363 119.703 163.363 119.457C163.363 119.211 163.454 119.001 163.637 118.825C163.823 118.65 164.045 118.562 164.303 118.562C164.56 118.562 164.78 118.65 164.963 118.825C165.149 119.001 165.242 119.211 165.242 119.457C165.242 119.703 165.149 119.914 164.963 120.089C164.78 120.265 164.56 120.352 164.303 120.352ZM171.195 121.784V122.903H166.564V121.784H171.195ZM167.951 130.375V120.598C167.951 120.106 168.066 119.696 168.297 119.368C168.529 119.04 168.829 118.794 169.198 118.63C169.567 118.466 169.957 118.384 170.367 118.384C170.691 118.384 170.956 118.41 171.161 118.462C171.366 118.514 171.519 118.562 171.62 118.607L171.239 119.748C171.172 119.726 171.079 119.698 170.96 119.664C170.844 119.631 170.691 119.614 170.501 119.614C170.065 119.614 169.75 119.724 169.556 119.944C169.366 120.164 169.271 120.487 169.271 120.912V130.375H167.951ZM173.045 130.375V121.784H174.364V130.375H173.045ZM173.716 120.352C173.458 120.352 173.237 120.265 173.05 120.089C172.867 119.914 172.776 119.703 172.776 119.457C172.776 119.211 172.867 119.001 173.05 118.825C173.237 118.65 173.458 118.562 173.716 118.562C173.973 118.562 174.193 118.65 174.376 118.825C174.562 119.001 174.655 119.211 174.655 119.457C174.655 119.703 174.562 119.914 174.376 120.089C174.193 120.265 173.973 120.352 173.716 120.352ZM180.272 130.554C179.467 130.554 178.773 130.364 178.192 129.983C177.61 129.603 177.162 129.079 176.849 128.412C176.536 127.744 176.379 126.982 176.379 126.124C176.379 125.252 176.54 124.482 176.86 123.814C177.185 123.143 177.636 122.619 178.214 122.243C178.796 121.862 179.474 121.672 180.25 121.672C180.854 121.672 181.398 121.784 181.883 122.008C182.368 122.232 182.765 122.545 183.074 122.947C183.384 123.35 183.576 123.82 183.65 124.357H182.33C182.23 123.965 182.006 123.619 181.659 123.317C181.316 123.011 180.854 122.858 180.272 122.858C179.758 122.858 179.306 122.992 178.919 123.261C178.535 123.525 178.234 123.9 178.018 124.385C177.806 124.866 177.699 125.431 177.699 126.08C177.699 126.743 177.804 127.321 178.013 127.813C178.225 128.306 178.523 128.688 178.907 128.96C179.295 129.232 179.75 129.368 180.272 129.368C180.615 129.368 180.927 129.309 181.206 129.189C181.486 129.07 181.723 128.898 181.916 128.675C182.11 128.451 182.248 128.183 182.33 127.869H183.65C183.576 128.376 183.391 128.833 183.097 129.24C182.806 129.642 182.42 129.963 181.939 130.202C181.462 130.437 180.906 130.554 180.272 130.554ZM188.108 130.576C187.564 130.576 187.07 130.474 186.626 130.269C186.182 130.06 185.83 129.76 185.569 129.368C185.308 128.973 185.177 128.496 185.177 127.936C185.177 127.444 185.274 127.045 185.468 126.74C185.662 126.43 185.921 126.188 186.245 126.012C186.57 125.837 186.928 125.707 187.319 125.621C187.715 125.531 188.112 125.461 188.511 125.408C189.033 125.341 189.456 125.291 189.78 125.257C190.108 125.22 190.347 125.159 190.496 125.073C190.649 124.987 190.726 124.838 190.726 124.625V124.581C190.726 124.029 190.575 123.6 190.272 123.294C189.974 122.988 189.521 122.836 188.913 122.836C188.283 122.836 187.789 122.974 187.431 123.249C187.073 123.525 186.822 123.82 186.676 124.133L185.423 123.686C185.647 123.164 185.945 122.757 186.318 122.466C186.695 122.172 187.105 121.967 187.549 121.851C187.996 121.732 188.436 121.672 188.869 121.672C189.145 121.672 189.461 121.706 189.819 121.773C190.181 121.836 190.53 121.969 190.865 122.17C191.205 122.371 191.486 122.675 191.71 123.082C191.934 123.488 192.045 124.032 192.045 124.715V130.375H190.726V129.212H190.658C190.569 129.398 190.42 129.598 190.211 129.81C190.002 130.023 189.724 130.203 189.378 130.353C189.031 130.502 188.608 130.576 188.108 130.576ZM188.309 129.391C188.831 129.391 189.271 129.288 189.629 129.083C189.991 128.878 190.263 128.613 190.446 128.289C190.632 127.964 190.726 127.623 190.726 127.265V126.057C190.67 126.124 190.547 126.186 190.356 126.242C190.17 126.294 189.954 126.341 189.708 126.382C189.465 126.419 189.228 126.452 188.997 126.482C188.77 126.508 188.585 126.531 188.444 126.549C188.101 126.594 187.78 126.667 187.482 126.767C187.187 126.864 186.948 127.012 186.766 127.209C186.587 127.403 186.497 127.668 186.497 128.004C186.497 128.462 186.667 128.809 187.006 129.044C187.349 129.275 187.784 129.391 188.309 129.391ZM198.191 121.784V122.903H193.739V121.784H198.191ZM195.036 119.726H196.356V127.914C196.356 128.287 196.41 128.567 196.519 128.753C196.63 128.936 196.772 129.059 196.944 129.122C197.119 129.182 197.303 129.212 197.497 129.212C197.643 129.212 197.762 129.204 197.855 129.189C197.948 129.171 198.023 129.156 198.079 129.145L198.347 130.33C198.258 130.364 198.133 130.397 197.973 130.431C197.812 130.468 197.609 130.487 197.363 130.487C196.99 130.487 196.625 130.407 196.267 130.246C195.913 130.086 195.618 129.842 195.383 129.514C195.152 129.186 195.036 128.772 195.036 128.272V119.726ZM200.176 130.375V121.784H201.496V130.375H200.176ZM200.848 120.352C200.59 120.352 200.368 120.265 200.182 120.089C199.999 119.914 199.908 119.703 199.908 119.457C199.908 119.211 199.999 119.001 200.182 118.825C200.368 118.65 200.59 118.562 200.848 118.562C201.105 118.562 201.325 118.65 201.508 118.825C201.694 119.001 201.787 119.211 201.787 119.457C201.787 119.703 201.694 119.914 201.508 120.089C201.325 120.265 201.105 120.352 200.848 120.352ZM207.404 130.554C206.628 130.554 205.948 130.369 205.363 130C204.781 129.631 204.326 129.115 203.998 128.451C203.673 127.787 203.511 127.012 203.511 126.124C203.511 125.229 203.673 124.448 203.998 123.781C204.326 123.113 204.781 122.595 205.363 122.226C205.948 121.857 206.628 121.672 207.404 121.672C208.18 121.672 208.858 121.857 209.44 122.226C210.025 122.595 210.48 123.113 210.805 123.781C211.133 124.448 211.297 125.229 211.297 126.124C211.297 127.012 211.133 127.787 210.805 128.451C210.48 129.115 210.025 129.631 209.44 130C208.858 130.369 208.18 130.554 207.404 130.554ZM207.404 129.368C207.993 129.368 208.478 129.217 208.858 128.915C209.238 128.613 209.52 128.216 209.703 127.724C209.885 127.232 209.977 126.699 209.977 126.124C209.977 125.55 209.885 125.015 209.703 124.519C209.52 124.023 209.238 123.622 208.858 123.317C208.478 123.011 207.993 122.858 207.404 122.858C206.815 122.858 206.33 123.011 205.95 123.317C205.569 123.622 205.288 124.023 205.105 124.519C204.923 125.015 204.831 125.55 204.831 126.124C204.831 126.699 204.923 127.232 205.105 127.724C205.288 128.216 205.569 128.613 205.95 128.915C206.33 129.217 206.815 129.368 207.404 129.368ZM214.632 125.207V130.375H213.312V121.784H214.587V123.126H214.699C214.9 122.69 215.206 122.34 215.616 122.075C216.026 121.806 216.556 121.672 217.204 121.672C217.786 121.672 218.295 121.792 218.731 122.03C219.168 122.265 219.507 122.623 219.749 123.104C219.992 123.581 220.113 124.185 220.113 124.916V130.375H218.793V125.006C218.793 124.331 218.618 123.805 218.267 123.428C217.917 123.048 217.436 122.858 216.824 122.858C216.403 122.858 216.026 122.949 215.694 123.132C215.366 123.315 215.107 123.581 214.917 123.932C214.727 124.282 214.632 124.707 214.632 125.207ZM228.61 123.708L227.424 124.044C227.35 123.846 227.24 123.654 227.094 123.468C226.953 123.277 226.759 123.121 226.513 122.998C226.266 122.875 225.951 122.813 225.567 122.813C225.042 122.813 224.603 122.934 224.253 123.177C223.906 123.415 223.733 123.719 223.733 124.088C223.733 124.417 223.852 124.676 224.091 124.866C224.329 125.056 224.702 125.214 225.209 125.341L226.485 125.654C227.253 125.841 227.825 126.126 228.202 126.51C228.578 126.891 228.767 127.381 228.767 127.981C228.767 128.473 228.625 128.913 228.342 129.301C228.062 129.689 227.67 129.995 227.167 130.218C226.664 130.442 226.078 130.554 225.411 130.554C224.535 130.554 223.809 130.364 223.235 129.983C222.661 129.603 222.297 129.048 222.144 128.317L223.397 128.004C223.517 128.466 223.742 128.813 224.074 129.044C224.41 129.275 224.848 129.391 225.388 129.391C226.004 129.391 226.492 129.26 226.854 128.999C227.219 128.734 227.402 128.417 227.402 128.048C227.402 127.75 227.297 127.5 227.089 127.299C226.88 127.094 226.559 126.941 226.127 126.84L224.695 126.505C223.908 126.318 223.33 126.029 222.961 125.638C222.596 125.242 222.413 124.748 222.413 124.156C222.413 123.671 222.549 123.242 222.821 122.869C223.097 122.496 223.472 122.204 223.945 121.991C224.423 121.778 224.963 121.672 225.567 121.672C226.418 121.672 227.085 121.859 227.57 122.232C228.058 122.604 228.405 123.097 228.61 123.708Z" fill="#AAAAAA"/>
<circle cx="71.25" cy="151.75" r="6.1875" stroke="#AAAAAA" stroke-width="1.125"/>
<path d="M95.3544 149.375H93.9673C93.8853 148.976 93.7417 148.626 93.5367 148.324C93.3353 148.021 93.0892 147.768 92.7984 147.563C92.5113 147.354 92.1925 147.197 91.842 147.093C91.4915 146.989 91.1261 146.936 90.7457 146.936C90.0522 146.936 89.4239 147.112 88.8609 147.462C88.3016 147.813 87.856 148.329 87.5241 149.011C87.196 149.694 87.032 150.531 87.032 151.523C87.032 152.515 87.196 153.352 87.5241 154.034C87.856 154.716 88.3016 155.233 88.8609 155.583C89.4239 155.934 90.0522 156.109 90.7457 156.109C91.1261 156.109 91.4915 156.057 91.842 155.952C92.1925 155.848 92.5113 155.693 92.7984 155.488C93.0892 155.279 93.3353 155.024 93.5367 154.722C93.7417 154.416 93.8853 154.066 93.9673 153.67H95.3544C95.25 154.256 95.0598 154.78 94.7839 155.242C94.508 155.704 94.165 156.098 93.7548 156.422C93.3446 156.743 92.8841 156.987 92.3733 157.155C91.8662 157.323 91.3237 157.407 90.7457 157.407C89.7688 157.407 88.9 157.168 88.1394 156.691C87.3787 156.213 86.7803 155.535 86.344 154.655C85.9078 153.775 85.6896 152.731 85.6896 151.523C85.6896 150.315 85.9078 149.271 86.344 148.391C86.7803 147.511 87.3787 146.832 88.1394 146.355C88.9 145.877 89.7688 145.639 90.7457 145.639C91.3237 145.639 91.8662 145.723 92.3733 145.891C92.8841 146.058 93.3446 146.304 93.7548 146.629C94.165 146.949 94.508 147.341 94.7839 147.803C95.0598 148.262 95.25 148.786 95.3544 149.375ZM97.4168 157.25V148.659H98.692V149.957H98.7815C98.9381 149.532 99.2215 149.187 99.6317 148.922C100.042 148.657 100.504 148.525 101.019 148.525C101.116 148.525 101.237 148.527 101.382 148.53C101.528 148.534 101.638 148.54 101.712 148.547V149.89C101.668 149.878 101.565 149.862 101.405 149.839C101.248 149.813 101.082 149.8 100.907 149.8C100.489 149.8 100.116 149.888 99.7883 150.063C99.4639 150.234 99.2066 150.473 99.0164 150.779C98.83 151.081 98.7368 151.426 98.7368 151.814V157.25H97.4168ZM106.617 157.429C105.79 157.429 105.076 157.246 104.475 156.881C103.879 156.512 103.418 155.997 103.094 155.337C102.773 154.673 102.613 153.902 102.613 153.022C102.613 152.142 102.773 151.366 103.094 150.695C103.418 150.02 103.869 149.494 104.447 149.118C105.029 148.737 105.708 148.547 106.483 148.547C106.931 148.547 107.372 148.622 107.809 148.771C108.245 148.92 108.642 149.162 109 149.498C109.358 149.83 109.643 150.27 109.856 150.818C110.068 151.366 110.175 152.041 110.175 152.843V153.402H103.552V152.261H108.832C108.832 151.776 108.735 151.344 108.541 150.963C108.351 150.583 108.079 150.283 107.725 150.063C107.374 149.843 106.96 149.733 106.483 149.733C105.957 149.733 105.503 149.863 105.118 150.124C104.738 150.382 104.445 150.717 104.24 151.131C104.035 151.545 103.933 151.989 103.933 152.462V153.223C103.933 153.872 104.045 154.422 104.268 154.873C104.496 155.32 104.811 155.662 105.214 155.896C105.616 156.128 106.084 156.243 106.617 156.243C106.964 156.243 107.277 156.195 107.557 156.098C107.84 155.997 108.085 155.848 108.29 155.65C108.495 155.449 108.653 155.199 108.765 154.901L110.04 155.259C109.906 155.691 109.681 156.072 109.364 156.4C109.047 156.724 108.655 156.978 108.189 157.161C107.723 157.339 107.199 157.429 106.617 157.429ZM114.711 157.451C114.166 157.451 113.672 157.349 113.228 157.144C112.785 156.935 112.432 156.635 112.171 156.243C111.91 155.848 111.78 155.371 111.78 154.811C111.78 154.319 111.877 153.92 112.071 153.615C112.264 153.305 112.524 153.063 112.848 152.887C113.172 152.712 113.53 152.582 113.922 152.496C114.317 152.406 114.714 152.336 115.113 152.283C115.635 152.216 116.058 152.166 116.383 152.132C116.711 152.095 116.95 152.034 117.099 151.948C117.252 151.862 117.328 151.713 117.328 151.5V151.456C117.328 150.904 117.177 150.475 116.875 150.169C116.577 149.863 116.124 149.711 115.516 149.711C114.886 149.711 114.392 149.849 114.034 150.124C113.676 150.4 113.424 150.695 113.279 151.008L112.026 150.561C112.25 150.039 112.548 149.632 112.921 149.341C113.297 149.047 113.707 148.842 114.151 148.726C114.599 148.607 115.039 148.547 115.471 148.547C115.747 148.547 116.064 148.581 116.422 148.648C116.784 148.711 117.132 148.844 117.468 149.045C117.807 149.246 118.089 149.55 118.312 149.957C118.536 150.363 118.648 150.907 118.648 151.59V157.25H117.328V156.087H117.261C117.171 156.273 117.022 156.473 116.813 156.685C116.605 156.898 116.327 157.078 115.98 157.228C115.633 157.377 115.21 157.451 114.711 157.451ZM114.912 156.266C115.434 156.266 115.874 156.163 116.232 155.958C116.594 155.753 116.866 155.488 117.048 155.164C117.235 154.839 117.328 154.498 117.328 154.14V152.932C117.272 152.999 117.149 153.061 116.959 153.117C116.772 153.169 116.556 153.216 116.31 153.257C116.068 153.294 115.831 153.327 115.6 153.357C115.372 153.383 115.188 153.406 115.046 153.424C114.703 153.469 114.382 153.542 114.084 153.642C113.79 153.739 113.551 153.887 113.368 154.084C113.189 154.278 113.1 154.543 113.1 154.879C113.1 155.337 113.269 155.684 113.609 155.919C113.952 156.15 114.386 156.266 114.912 156.266ZM124.793 148.659V149.778H120.341V148.659H124.793ZM121.639 146.601H122.959V154.789C122.959 155.162 123.013 155.442 123.121 155.628C123.233 155.811 123.375 155.934 123.546 155.997C123.721 156.057 123.906 156.087 124.1 156.087C124.245 156.087 124.365 156.079 124.458 156.064C124.551 156.046 124.626 156.031 124.682 156.02L124.95 157.205C124.86 157.239 124.736 157.272 124.575 157.306C124.415 157.343 124.212 157.362 123.966 157.362C123.593 157.362 123.227 157.282 122.869 157.121C122.515 156.961 122.221 156.717 121.986 156.389C121.754 156.061 121.639 155.647 121.639 155.147V146.601ZM130.289 157.429C129.461 157.429 128.747 157.246 128.146 156.881C127.55 156.512 127.089 155.997 126.765 155.337C126.444 154.673 126.284 153.902 126.284 153.022C126.284 152.142 126.444 151.366 126.765 150.695C127.089 150.02 127.54 149.494 128.118 149.118C128.7 148.737 129.379 148.547 130.154 148.547C130.602 148.547 131.044 148.622 131.48 148.771C131.916 148.92 132.313 149.162 132.671 149.498C133.029 149.83 133.314 150.27 133.527 150.818C133.739 151.366 133.846 152.041 133.846 152.843V153.402H127.224V152.261H132.503C132.503 151.776 132.406 151.344 132.213 150.963C132.022 150.583 131.75 150.283 131.396 150.063C131.045 149.843 130.632 149.733 130.154 149.733C129.629 149.733 129.174 149.863 128.79 150.124C128.409 150.382 128.117 150.717 127.911 151.131C127.706 151.545 127.604 151.989 127.604 152.462V153.223C127.604 153.872 127.716 154.422 127.939 154.873C128.167 155.32 128.482 155.662 128.885 155.896C129.287 156.128 129.755 156.243 130.289 156.243C130.635 156.243 130.949 156.195 131.228 156.098C131.512 155.997 131.756 155.848 131.961 155.65C132.166 155.449 132.324 155.199 132.436 154.901L133.711 155.259C133.577 155.691 133.352 156.072 133.035 156.4C132.718 156.724 132.326 156.978 131.86 157.161C131.394 157.339 130.87 157.429 130.289 157.429ZM142.811 157.451C142.267 157.451 141.773 157.349 141.329 157.144C140.885 156.935 140.533 156.635 140.272 156.243C140.011 155.848 139.881 155.371 139.881 154.811C139.881 154.319 139.978 153.92 140.171 153.615C140.365 153.305 140.624 153.063 140.949 152.887C141.273 152.712 141.631 152.582 142.023 152.496C142.418 152.406 142.815 152.336 143.214 152.283C143.736 152.216 144.159 152.166 144.484 152.132C144.812 152.095 145.05 152.034 145.2 151.948C145.352 151.862 145.429 151.713 145.429 151.5V151.456C145.429 150.904 145.278 150.475 144.976 150.169C144.678 149.863 144.225 149.711 143.617 149.711C142.987 149.711 142.493 149.849 142.135 150.124C141.777 150.4 141.525 150.695 141.38 151.008L140.127 150.561C140.35 150.039 140.649 149.632 141.022 149.341C141.398 149.047 141.808 148.842 142.252 148.726C142.699 148.607 143.139 148.547 143.572 148.547C143.848 148.547 144.165 148.581 144.523 148.648C144.884 148.711 145.233 148.844 145.569 149.045C145.908 149.246 146.19 149.55 146.413 149.957C146.637 150.363 146.749 150.907 146.749 151.59V157.25H145.429V156.087H145.362C145.272 156.273 145.123 156.473 144.914 156.685C144.706 156.898 144.428 157.078 144.081 157.228C143.734 157.377 143.311 157.451 142.811 157.451ZM143.013 156.266C143.535 156.266 143.975 156.163 144.333 155.958C144.694 155.753 144.967 155.488 145.149 155.164C145.336 154.839 145.429 154.498 145.429 154.14V152.932C145.373 152.999 145.25 153.061 145.06 153.117C144.873 153.169 144.657 153.216 144.411 153.257C144.169 153.294 143.932 153.327 143.701 153.357C143.473 153.383 143.289 153.406 143.147 153.424C142.804 153.469 142.483 153.542 142.185 153.642C141.89 153.739 141.652 153.887 141.469 154.084C141.29 154.278 141.201 154.543 141.201 154.879C141.201 155.337 141.37 155.684 141.71 155.919C142.053 156.15 142.487 156.266 143.013 156.266ZM159.002 153.738V148.659H160.322V157.25H159.002V155.796H158.912C158.711 156.232 158.398 156.603 157.973 156.909C157.548 157.211 157.011 157.362 156.362 157.362C155.825 157.362 155.348 157.244 154.93 157.009C154.512 156.771 154.184 156.413 153.946 155.936C153.707 155.455 153.588 154.849 153.588 154.118V148.659H154.908V154.028C154.908 154.655 155.083 155.154 155.433 155.527C155.788 155.9 156.239 156.087 156.787 156.087C157.115 156.087 157.449 156.003 157.788 155.835C158.131 155.667 158.418 155.41 158.649 155.063C158.884 154.716 159.002 154.275 159.002 153.738ZM168.825 150.583L167.639 150.919C167.564 150.721 167.454 150.529 167.309 150.343C167.167 150.152 166.973 149.996 166.727 149.873C166.481 149.75 166.166 149.688 165.782 149.688C165.256 149.688 164.818 149.809 164.468 150.052C164.121 150.29 163.947 150.594 163.947 150.963C163.947 151.292 164.067 151.551 164.305 151.741C164.544 151.931 164.917 152.089 165.424 152.216L166.699 152.529C167.467 152.716 168.04 153.001 168.416 153.385C168.793 153.766 168.981 154.256 168.981 154.856C168.981 155.348 168.839 155.788 168.556 156.176C168.276 156.564 167.885 156.87 167.382 157.093C166.878 157.317 166.293 157.429 165.625 157.429C164.749 157.429 164.024 157.239 163.45 156.858C162.875 156.478 162.512 155.923 162.359 155.192L163.612 154.879C163.731 155.341 163.957 155.688 164.289 155.919C164.624 156.15 165.062 156.266 165.603 156.266C166.218 156.266 166.707 156.135 167.068 155.874C167.434 155.609 167.616 155.292 167.616 154.923C167.616 154.625 167.512 154.375 167.303 154.174C167.094 153.969 166.774 153.816 166.341 153.715L164.909 153.38C164.123 153.193 163.545 152.904 163.176 152.513C162.81 152.117 162.627 151.623 162.627 151.031C162.627 150.546 162.764 150.117 163.036 149.744C163.312 149.371 163.686 149.079 164.16 148.866C164.637 148.653 165.178 148.547 165.782 148.547C166.632 148.547 167.3 148.734 167.784 149.107C168.273 149.479 168.619 149.972 168.825 150.583ZM174.57 157.429C173.742 157.429 173.028 157.246 172.428 156.881C171.831 156.512 171.371 155.997 171.046 155.337C170.726 154.673 170.565 153.902 170.565 153.022C170.565 152.142 170.726 151.366 171.046 150.695C171.371 150.02 171.822 149.494 172.4 149.118C172.982 148.737 173.66 148.547 174.436 148.547C174.883 148.547 175.325 148.622 175.761 148.771C176.198 148.92 176.595 149.162 176.953 149.498C177.311 149.83 177.596 150.27 177.808 150.818C178.021 151.366 178.127 152.041 178.127 152.843V153.402H171.505V152.261H176.785C176.785 151.776 176.688 151.344 176.494 150.963C176.304 150.583 176.032 150.283 175.677 150.063C175.327 149.843 174.913 149.733 174.436 149.733C173.91 149.733 173.455 149.863 173.071 150.124C172.691 150.382 172.398 150.717 172.193 151.131C171.988 151.545 171.885 151.989 171.885 152.462V153.223C171.885 153.872 171.997 154.422 172.221 154.873C172.448 155.32 172.763 155.662 173.166 155.896C173.569 156.128 174.037 156.243 174.57 156.243C174.917 156.243 175.23 156.195 175.51 156.098C175.793 155.997 176.037 155.848 176.242 155.65C176.447 155.449 176.606 155.199 176.718 154.901L177.993 155.259C177.859 155.691 177.633 156.072 177.316 156.4C176.999 156.724 176.608 156.978 176.142 157.161C175.676 157.339 175.152 157.429 174.57 157.429ZM180.135 157.25V148.659H181.41V149.957H181.5C181.656 149.532 181.94 149.187 182.35 148.922C182.76 148.657 183.222 148.525 183.737 148.525C183.834 148.525 183.955 148.527 184.101 148.53C184.246 148.534 184.356 148.54 184.431 148.547V149.89C184.386 149.878 184.283 149.862 184.123 149.839C183.966 149.813 183.8 149.8 183.625 149.8C183.208 149.8 182.835 149.888 182.507 150.063C182.182 150.234 181.925 150.473 181.735 150.779C181.548 151.081 181.455 151.426 181.455 151.814V157.25H180.135ZM190.425 148.659H191.745V157.876C191.745 158.406 191.653 158.865 191.471 159.252C191.292 159.64 191.02 159.94 190.654 160.153C190.293 160.365 189.836 160.472 189.284 160.472C189.239 160.472 189.194 160.472 189.15 160.472C189.105 160.472 189.06 160.472 189.015 160.472V159.241C189.06 159.241 189.101 159.241 189.138 159.241C189.176 159.241 189.217 159.241 189.262 159.241C189.664 159.241 189.959 159.122 190.145 158.883C190.332 158.648 190.425 158.313 190.425 157.876V148.659ZM191.074 147.227C190.816 147.227 190.595 147.14 190.408 146.964C190.225 146.789 190.134 146.578 190.134 146.332C190.134 146.086 190.225 145.876 190.408 145.7C190.595 145.525 190.816 145.438 191.074 145.438C191.331 145.438 191.551 145.525 191.734 145.7C191.92 145.876 192.013 146.086 192.013 146.332C192.013 146.578 191.92 146.789 191.734 146.964C191.551 147.14 191.331 147.227 191.074 147.227ZM197.652 157.429C196.877 157.429 196.196 157.244 195.611 156.875C195.029 156.506 194.574 155.99 194.246 155.326C193.922 154.662 193.76 153.887 193.76 152.999C193.76 152.104 193.922 151.323 194.246 150.656C194.574 149.988 195.029 149.47 195.611 149.101C196.196 148.732 196.877 148.547 197.652 148.547C198.428 148.547 199.107 148.732 199.688 149.101C200.274 149.47 200.729 149.988 201.053 150.656C201.381 151.323 201.545 152.104 201.545 152.999C201.545 153.887 201.381 154.662 201.053 155.326C200.729 155.99 200.274 156.506 199.688 156.875C199.107 157.244 198.428 157.429 197.652 157.429ZM197.652 156.243C198.242 156.243 198.726 156.092 199.107 155.79C199.487 155.488 199.769 155.091 199.951 154.599C200.134 154.107 200.225 153.574 200.225 152.999C200.225 152.425 200.134 151.89 199.951 151.394C199.769 150.898 199.487 150.497 199.107 150.192C198.726 149.886 198.242 149.733 197.652 149.733C197.063 149.733 196.579 149.886 196.198 150.192C195.818 150.497 195.536 150.898 195.354 151.394C195.171 151.89 195.08 152.425 195.08 152.999C195.08 153.574 195.171 154.107 195.354 154.599C195.536 155.091 195.818 155.488 196.198 155.79C196.579 156.092 197.063 156.243 197.652 156.243ZM208.974 153.738V148.659H210.294V157.25H208.974V155.796H208.885C208.683 156.232 208.37 156.603 207.945 156.909C207.52 157.211 206.983 157.362 206.334 157.362C205.797 157.362 205.32 157.244 204.902 157.009C204.485 156.771 204.157 156.413 203.918 155.936C203.679 155.455 203.56 154.849 203.56 154.118V148.659H204.88V154.028C204.88 154.655 205.055 155.154 205.406 155.527C205.76 155.9 206.211 156.087 206.759 156.087C207.087 156.087 207.421 156.003 207.761 155.835C208.104 155.667 208.391 155.41 208.622 155.063C208.857 154.716 208.974 154.275 208.974 153.738ZM212.712 157.25V148.659H213.987V149.957H214.076C214.233 149.532 214.516 149.187 214.927 148.922C215.337 148.657 215.799 148.525 216.314 148.525C216.411 148.525 216.532 148.527 216.677 148.53C216.823 148.534 216.933 148.54 217.007 148.547V149.89C216.962 149.878 216.86 149.862 216.7 149.839C216.543 149.813 216.377 149.8 216.202 149.8C215.784 149.8 215.411 149.888 215.083 150.063C214.759 150.234 214.502 150.473 214.311 150.779C214.125 151.081 214.032 151.426 214.032 151.814V157.25H212.712ZM219.892 152.082V157.25H218.572V148.659H219.847V150.001H219.959C220.16 149.565 220.466 149.215 220.876 148.95C221.286 148.681 221.816 148.547 222.465 148.547C223.046 148.547 223.555 148.667 223.992 148.905C224.428 149.14 224.767 149.498 225.009 149.979C225.252 150.456 225.373 151.06 225.373 151.791V157.25H224.053V151.881C224.053 151.206 223.878 150.68 223.527 150.303C223.177 149.923 222.696 149.733 222.084 149.733C221.663 149.733 221.286 149.824 220.955 150.007C220.626 150.19 220.367 150.456 220.177 150.807C219.987 151.157 219.892 151.582 219.892 152.082ZM231.387 157.429C230.559 157.429 229.845 157.246 229.245 156.881C228.648 156.512 228.188 155.997 227.863 155.337C227.543 154.673 227.382 153.902 227.382 153.022C227.382 152.142 227.543 151.366 227.863 150.695C228.188 150.02 228.639 149.494 229.217 149.118C229.798 148.737 230.477 148.547 231.253 148.547C231.7 148.547 232.142 148.622 232.578 148.771C233.014 148.92 233.412 149.162 233.77 149.498C234.128 149.83 234.413 150.27 234.625 150.818C234.838 151.366 234.944 152.041 234.944 152.843V153.402H228.322V152.261H233.602C233.602 151.776 233.505 151.344 233.311 150.963C233.121 150.583 232.849 150.283 232.494 150.063C232.144 149.843 231.73 149.733 231.253 149.733C230.727 149.733 230.272 149.863 229.888 150.124C229.508 150.382 229.215 150.717 229.01 151.131C228.805 151.545 228.702 151.989 228.702 152.462V153.223C228.702 153.872 228.814 154.422 229.038 154.873C229.265 155.32 229.58 155.662 229.983 155.896C230.386 156.128 230.854 156.243 231.387 156.243C231.734 156.243 232.047 156.195 232.327 156.098C232.61 155.997 232.854 155.848 233.059 155.65C233.264 155.449 233.423 155.199 233.535 154.901L234.81 155.259C234.676 155.691 234.45 156.072 234.133 156.4C233.816 156.724 233.425 156.978 232.959 157.161C232.492 157.339 231.969 157.429 231.387 157.429ZM237.541 160.472C237.317 160.472 237.117 160.453 236.942 160.416C236.767 160.382 236.646 160.349 236.579 160.315L236.914 159.152C237.235 159.234 237.518 159.263 237.764 159.241C238.01 159.219 238.229 159.109 238.419 158.911C238.613 158.717 238.79 158.402 238.95 157.966L239.196 157.295L236.019 148.659H237.451L239.823 155.505H239.912L242.284 148.659H243.715L240.069 158.503C239.905 158.947 239.701 159.314 239.459 159.605C239.217 159.899 238.935 160.117 238.615 160.259C238.298 160.401 237.94 160.472 237.541 160.472ZM249.887 157.25V148.659H251.163V150.001H251.274C251.453 149.543 251.742 149.187 252.141 148.933C252.54 148.676 253.019 148.547 253.579 148.547C254.145 148.547 254.617 148.676 254.994 148.933C255.374 149.187 255.67 149.543 255.883 150.001H255.973C256.193 149.558 256.523 149.205 256.962 148.944C257.402 148.68 257.93 148.547 258.545 148.547C259.313 148.547 259.942 148.788 260.43 149.269C260.919 149.746 261.163 150.49 261.163 151.5V157.25H259.843V151.5C259.843 150.866 259.67 150.413 259.323 150.141C258.976 149.869 258.568 149.733 258.098 149.733C257.494 149.733 257.026 149.916 256.694 150.281C256.362 150.643 256.196 151.101 256.196 151.657V157.25H254.854V151.366C254.854 150.878 254.695 150.484 254.379 150.186C254.062 149.884 253.653 149.733 253.154 149.733C252.811 149.733 252.49 149.824 252.192 150.007C251.897 150.19 251.658 150.443 251.476 150.768C251.297 151.088 251.207 151.459 251.207 151.881V157.25H249.887ZM266.104 157.451C265.56 157.451 265.066 157.349 264.622 157.144C264.178 156.935 263.826 156.635 263.565 156.243C263.304 155.848 263.174 155.371 263.174 154.811C263.174 154.319 263.271 153.92 263.464 153.615C263.658 153.305 263.917 153.063 264.242 152.887C264.566 152.712 264.924 152.582 265.316 152.496C265.711 152.406 266.108 152.336 266.507 152.283C267.029 152.216 267.452 152.166 267.777 152.132C268.105 152.095 268.343 152.034 268.493 151.948C268.645 151.862 268.722 151.713 268.722 151.5V151.456C268.722 150.904 268.571 150.475 268.269 150.169C267.971 149.863 267.517 149.711 266.91 149.711C266.28 149.711 265.786 149.849 265.428 150.124C265.07 150.4 264.818 150.695 264.672 151.008L263.42 150.561C263.643 150.039 263.942 149.632 264.315 149.341C264.691 149.047 265.101 148.842 265.545 148.726C265.992 148.607 266.432 148.547 266.865 148.547C267.141 148.547 267.458 148.581 267.816 148.648C268.177 148.711 268.526 148.844 268.862 149.045C269.201 149.246 269.483 149.55 269.706 149.957C269.93 150.363 270.042 150.907 270.042 151.59V157.25H268.722V156.087H268.655C268.565 156.273 268.416 156.473 268.207 156.685C267.998 156.898 267.721 157.078 267.374 157.228C267.027 157.377 266.604 157.451 266.104 157.451ZM266.306 156.266C266.828 156.266 267.268 156.163 267.626 155.958C267.987 155.753 268.259 155.488 268.442 155.164C268.629 154.839 268.722 154.498 268.722 154.14V152.932C268.666 152.999 268.543 153.061 268.353 153.117C268.166 153.169 267.95 153.216 267.704 153.257C267.462 153.294 267.225 153.327 266.994 153.357C266.766 153.383 266.582 153.406 266.44 153.424C266.097 153.469 265.776 153.542 265.478 153.642C265.183 153.739 264.945 153.887 264.762 154.084C264.583 154.278 264.494 154.543 264.494 154.879C264.494 155.337 264.663 155.684 265.002 155.919C265.346 156.15 265.78 156.266 266.306 156.266ZM272.451 160.472V148.659H273.726V150.024H273.883C273.98 149.875 274.114 149.684 274.286 149.453C274.461 149.218 274.711 149.01 275.035 148.827C275.363 148.64 275.807 148.547 276.366 148.547C277.09 148.547 277.727 148.728 278.279 149.09C278.831 149.451 279.261 149.964 279.571 150.628C279.88 151.292 280.035 152.075 280.035 152.977C280.035 153.887 279.88 154.675 279.571 155.343C279.261 156.006 278.833 156.521 278.285 156.886C277.736 157.248 277.104 157.429 276.389 157.429C275.837 157.429 275.395 157.338 275.063 157.155C274.731 156.968 274.476 156.758 274.297 156.523C274.118 156.284 273.98 156.087 273.883 155.93H273.771V160.472H272.451ZM273.749 152.955C273.749 153.603 273.844 154.176 274.034 154.672C274.224 155.164 274.502 155.55 274.867 155.829C275.233 156.105 275.68 156.243 276.21 156.243C276.761 156.243 277.222 156.098 277.591 155.807C277.964 155.512 278.244 155.117 278.43 154.621C278.62 154.122 278.715 153.566 278.715 152.955C278.715 152.35 278.622 151.806 278.436 151.321C278.253 150.833 277.975 150.447 277.602 150.164C277.233 149.877 276.769 149.733 276.21 149.733C275.673 149.733 275.221 149.869 274.856 150.141C274.491 150.41 274.215 150.786 274.028 151.271C273.842 151.752 273.749 152.313 273.749 152.955Z" fill="#AAAAAA"/>
</g>
<defs>
<filter id="filter0_d_426_444" x="0" y="0" width="326.625" height="231.75" filterUnits="userSpaceOnUse" color-interpolation-filters="sRGB">
<feFlood flood-opacity="0" result="BackgroundImageFix"/>
<feColorMatrix in="SourceAlpha" type="matrix" values="0 0 0 0 0 0 0 0 0 0 0 0 0 0 0 0 0 0 127 0" result="hardAlpha"/>
<feOffset dy="6"/>
<feGaussianBlur stdDeviation="15"/>
<feComposite in2="hardAlpha" operator="out"/>
<feColorMatrix type="matrix" values="0 0 0 0 1 0 0 0 0 0.563846 0 0 0 0 0.515385 0 0 0 0.5 0"/>
<feBlend mode="normal" in2="BackgroundImageFix" result="effect1_dropShadow_426_444"/>
<feBlend mode="normal" in="SourceGraphic" in2="effect1_dropShadow_426_444" result="shape"/>
</filter>
</defs>
</svg>
