<svg width="286" height="192" viewBox="0 0 286 192" fill="none" xmlns="http://www.w3.org/2000/svg">
<g filter="url(#filter0_d_432_447)">
<rect x="23" y="20" width="240" height="146" rx="20" fill="#FF9083" fill-opacity="0.5" shape-rendering="crispEdges"/>
<rect x="23.375" y="20.375" width="239.25" height="145.25" rx="19.625" stroke="#E94649" stroke-opacity="0.5" stroke-width="0.75" shape-rendering="crispEdges"/>
<rect x="31" y="28" width="224" height="108" rx="12" fill="white" fill-opacity="0.9"/>
<path d="M48.7866 58.5H45.4206V49.248H48.5706V50.652H48.7326C49.2366 49.626 50.2986 49.068 51.5766 49.068C53.0886 49.068 54.0066 49.698 54.4746 50.652H54.6366C55.2666 49.608 56.3106 49.068 57.6606 49.068C60.0546 49.068 60.9546 50.67 60.9546 52.578V58.5H57.5706V53.28C57.5706 52.29 57.3546 51.966 56.2566 51.966C55.1946 51.966 54.8706 52.236 54.8706 53.226V58.5H51.4866V53.28C51.4866 52.29 51.2706 51.966 50.1726 51.966C49.1106 51.966 48.7866 52.236 48.7866 53.226V58.5ZM65.6876 58.5H62.3216V49.248H65.4716V50.652H65.6336C66.1376 49.608 67.2896 49.068 68.6576 49.068C71.0516 49.068 71.9516 50.67 71.9516 52.578V58.5H68.5676V53.28C68.5676 52.29 68.3336 51.966 67.1456 51.966C66.0296 51.966 65.6876 52.236 65.6876 53.226V58.5ZM79.9681 58.5H75.6481L72.1921 49.248H75.9721L77.7361 55.134H77.9701L79.7341 49.248H83.4421L79.9681 58.5ZM87.3607 58.5H83.9947V49.248H87.1447V50.652H87.3067C87.8287 49.752 88.7107 49.068 89.9347 49.068C91.7167 49.068 92.3467 50.22 92.3467 52.038V53.712H88.9627V52.794C88.9627 52.11 88.8367 51.912 88.2067 51.912C87.6487 51.912 87.3607 51.984 87.3607 52.65V58.5ZM95.5762 58.5H91.5442V54.774H95.5762V58.5Z" fill="#B70404"/>
<path fill-rule="evenodd" clip-rule="evenodd" d="M234.75 51.5225L238.132 48.1406L239.109 49.1181L235.727 52.5L239.109 55.8819L238.132 56.8594L234.75 53.4775L231.368 56.8594L230.391 55.8819L233.773 52.5L230.391 49.1181L231.368 48.1406L234.75 51.5225Z" fill="#555555"/>
<line x1="44.5" y1="69.125" x2="241.5" y2="69.125" stroke="#AAAAAA" stroke-width="0.75"/>
<path d="M49.2131 80.1812L46.3457 88.5H44.6121L48.2244 78.9023H49.3318L49.2131 80.1812ZM51.6125 88.5L48.7385 80.1812L48.6133 78.9023H49.7273L53.3528 88.5H51.6125ZM51.4741 84.9404V86.2522H46.2534V84.9404H51.4741ZM58.5403 86.5686C58.5403 86.4104 58.5007 86.2676 58.4216 86.1401C58.3425 86.0083 58.1909 85.8896 57.9668 85.7842C57.7471 85.6787 57.4219 85.582 56.9912 85.4941C56.6133 85.4106 56.2661 85.3118 55.9497 85.1975C55.6377 85.0789 55.3696 84.936 55.1455 84.769C54.9214 84.6021 54.7478 84.4043 54.6247 84.1758C54.5017 83.9473 54.4402 83.6836 54.4402 83.3848C54.4402 83.0947 54.5039 82.8201 54.6313 82.5608C54.7588 82.3015 54.9411 82.073 55.1784 81.8752C55.4158 81.6775 55.7036 81.5215 56.042 81.4072C56.3847 81.293 56.7671 81.2358 57.1889 81.2358C57.7866 81.2358 58.2986 81.3369 58.7248 81.5391C59.1555 81.7368 59.4851 82.0071 59.7136 82.3499C59.9421 82.6882 60.0564 83.0706 60.0564 83.4968H58.4678C58.4678 83.3079 58.4194 83.1321 58.3227 82.9695C58.2304 82.8025 58.0898 82.6685 57.9009 82.5674C57.7119 82.4619 57.4746 82.4092 57.1889 82.4092C56.9165 82.4092 56.6902 82.4531 56.51 82.541C56.3342 82.6245 56.2024 82.7344 56.1145 82.8706C56.031 83.0068 55.9892 83.1562 55.9892 83.3188C55.9892 83.4375 56.0112 83.5452 56.0552 83.6418C56.1035 83.7341 56.1826 83.8198 56.2925 83.8989C56.4023 83.9736 56.5517 84.0439 56.7407 84.1099C56.9341 84.1758 57.1758 84.2395 57.4658 84.301C58.0107 84.4153 58.4787 84.5625 58.8699 84.7427C59.2654 84.9185 59.5686 85.147 59.7795 85.4282C59.9905 85.7051 60.0959 86.0566 60.0959 86.4829C60.0959 86.7993 60.0278 87.0894 59.8916 87.353C59.7597 87.6123 59.5664 87.8386 59.3115 88.032C59.0566 88.2209 58.7512 88.3682 58.3952 88.4736C58.0437 88.5791 57.6482 88.6318 57.2087 88.6318C56.5627 88.6318 56.0156 88.5176 55.5674 88.2891C55.1191 88.0562 54.7785 87.7595 54.5456 87.3992C54.3171 87.0344 54.2029 86.6565 54.2029 86.2654H55.7388C55.7563 86.5598 55.8376 86.7949 55.9826 86.9707C56.1321 87.1421 56.3166 87.2673 56.5364 87.3464C56.7605 87.4211 56.9912 87.4585 57.2285 87.4585C57.5141 87.4585 57.7536 87.4211 57.947 87.3464C58.1404 87.2673 58.2876 87.1619 58.3887 87.03C58.4897 86.8938 58.5403 86.74 58.5403 86.5686ZM63.3256 78.375V88.5H61.7436V78.375H63.3256ZM63.0488 84.6702L62.5346 84.6636C62.539 84.1714 62.6071 83.7166 62.739 83.2991C62.8752 82.8816 63.0642 82.519 63.3059 82.2114C63.552 81.8994 63.8464 81.6599 64.1892 81.4929C64.5319 81.3215 64.9121 81.2358 65.3296 81.2358C65.6811 81.2358 65.9975 81.2842 66.2788 81.3809C66.5644 81.4775 66.8105 81.6335 67.0171 81.8489C67.2236 82.0598 67.3796 82.3367 67.4851 82.6794C67.5949 83.0178 67.6499 83.4309 67.6499 83.9187V88.5H66.0546V83.9055C66.0546 83.5627 66.0041 83.2903 65.903 83.0881C65.8064 82.886 65.6635 82.741 65.4746 82.6531C65.2856 82.5608 65.0549 82.5146 64.7824 82.5146C64.4968 82.5146 64.2441 82.5718 64.0244 82.686C63.809 82.8003 63.6289 82.9563 63.4838 83.1541C63.3388 83.3518 63.229 83.5803 63.1543 83.8396C63.0839 84.0989 63.0488 84.3757 63.0488 84.6702Z" fill="black"/>
<path d="M51.7949 101.252V104.375C51.6895 104.531 51.5215 104.707 51.291 104.902C51.0605 105.094 50.7422 105.262 50.3359 105.406C49.9336 105.547 49.4141 105.617 48.7773 105.617C48.2578 105.617 47.7793 105.527 47.3418 105.348C46.9082 105.164 46.5312 104.898 46.2109 104.551C45.8945 104.199 45.6484 103.773 45.4727 103.273C45.3008 102.77 45.2148 102.199 45.2148 101.562V100.9C45.2148 100.264 45.2891 99.6953 45.4375 99.1953C45.5898 98.6953 45.8125 98.2715 46.1055 97.9238C46.3984 97.5723 46.7578 97.3066 47.1836 97.127C47.6094 96.9434 48.0977 96.8516 48.6484 96.8516C49.3008 96.8516 49.8457 96.9648 50.2832 97.1914C50.7246 97.4141 51.0684 97.7227 51.3145 98.1172C51.5645 98.5117 51.7246 98.9609 51.7949 99.4648H50.6641C50.6133 99.1562 50.5117 98.875 50.3594 98.6211C50.2109 98.3672 49.998 98.1641 49.7207 98.0117C49.4434 97.8555 49.0859 97.7773 48.6484 97.7773C48.2539 97.7773 47.9121 97.8496 47.623 97.9941C47.334 98.1387 47.0957 98.3457 46.9082 98.6152C46.7207 98.8848 46.5801 99.2109 46.4863 99.5938C46.3965 99.9766 46.3516 100.408 46.3516 100.889V101.562C46.3516 102.055 46.4082 102.494 46.5215 102.881C46.6387 103.268 46.8047 103.598 47.0195 103.871C47.2344 104.141 47.4902 104.346 47.7871 104.486C48.0879 104.627 48.4199 104.697 48.7832 104.697C49.1855 104.697 49.5117 104.664 49.7617 104.598C50.0117 104.527 50.207 104.445 50.3477 104.352C50.4883 104.254 50.5957 104.162 50.6699 104.076V102.166H48.6953V101.252H51.7949ZM57.6248 104.035V99.1602H58.7146V105.5H57.6775L57.6248 104.035ZM57.8298 102.699L58.281 102.688C58.281 103.109 58.2361 103.5 58.1462 103.859C58.0603 104.215 57.9197 104.523 57.7244 104.785C57.5291 105.047 57.2732 105.252 56.9568 105.4C56.6404 105.545 56.2556 105.617 55.8025 105.617C55.4939 105.617 55.2107 105.572 54.9529 105.482C54.699 105.393 54.4802 105.254 54.2966 105.066C54.113 104.879 53.9705 104.635 53.8689 104.334C53.7712 104.033 53.7224 103.672 53.7224 103.25V99.1602H54.8064V103.262C54.8064 103.547 54.8377 103.783 54.9002 103.971C54.9666 104.154 55.0545 104.301 55.1638 104.41C55.2771 104.516 55.4021 104.59 55.5388 104.633C55.6795 104.676 55.824 104.697 55.9724 104.697C56.4334 104.697 56.7986 104.609 57.0681 104.434C57.3377 104.254 57.531 104.014 57.6482 103.713C57.7693 103.408 57.8298 103.07 57.8298 102.699ZM62.3882 104.844L64.1519 99.1602H65.312L62.7691 106.479C62.7105 106.635 62.6323 106.803 62.5347 106.982C62.4409 107.166 62.3198 107.34 62.1714 107.504C62.023 107.668 61.8433 107.801 61.6323 107.902C61.4253 108.008 61.1773 108.061 60.8882 108.061C60.8023 108.061 60.6929 108.049 60.5601 108.025C60.4273 108.002 60.3335 107.982 60.2788 107.967L60.273 107.088C60.3042 107.092 60.353 107.096 60.4195 107.1C60.4898 107.107 60.5386 107.111 60.5659 107.111C60.812 107.111 61.021 107.078 61.1929 107.012C61.3648 106.949 61.5093 106.842 61.6265 106.689C61.7476 106.541 61.8511 106.336 61.937 106.074L62.3882 104.844ZM61.0933 99.1602L62.7398 104.082L63.021 105.225L62.2417 105.623L59.9097 99.1602H61.0933ZM70.222 103.818C70.222 103.662 70.1868 103.518 70.1165 103.385C70.0501 103.248 69.9114 103.125 69.7005 103.016C69.4934 102.902 69.1809 102.805 68.763 102.723C68.4114 102.648 68.093 102.561 67.8079 102.459C67.5266 102.357 67.2864 102.234 67.0872 102.09C66.8919 101.945 66.7415 101.775 66.636 101.58C66.5305 101.385 66.4778 101.156 66.4778 100.895C66.4778 100.645 66.5325 100.408 66.6419 100.186C66.7552 99.9629 66.9134 99.7656 67.1165 99.5938C67.3235 99.4219 67.5716 99.2871 67.8606 99.1895C68.1497 99.0918 68.472 99.043 68.8274 99.043C69.3352 99.043 69.7688 99.1328 70.1282 99.3125C70.4876 99.4922 70.763 99.7324 70.9544 100.033C71.1458 100.33 71.2415 100.66 71.2415 101.023H70.1575C70.1575 100.848 70.1048 100.678 69.9993 100.514C69.8977 100.346 69.7473 100.207 69.5481 100.098C69.3528 99.9883 69.1126 99.9336 68.8274 99.9336C68.5266 99.9336 68.2825 99.9805 68.095 100.074C67.9114 100.164 67.7766 100.279 67.6907 100.42C67.6087 100.561 67.5677 100.709 67.5677 100.865C67.5677 100.982 67.5872 101.088 67.6262 101.182C67.6692 101.271 67.7434 101.355 67.8489 101.434C67.9544 101.508 68.1028 101.578 68.2942 101.645C68.4856 101.711 68.7298 101.777 69.0266 101.844C69.5462 101.961 69.9739 102.102 70.3098 102.266C70.6458 102.43 70.8958 102.631 71.0598 102.869C71.2239 103.107 71.3059 103.396 71.3059 103.736C71.3059 104.014 71.2473 104.268 71.1302 104.498C71.0169 104.729 70.8509 104.928 70.6321 105.096C70.4173 105.26 70.1595 105.389 69.8587 105.482C69.5618 105.572 69.2278 105.617 68.8567 105.617C68.2981 105.617 67.8255 105.518 67.4387 105.318C67.052 105.119 66.7591 104.861 66.5598 104.545C66.3606 104.229 66.261 103.895 66.261 103.543H67.3509C67.3665 103.84 67.4524 104.076 67.6087 104.252C67.7649 104.424 67.9563 104.547 68.1829 104.621C68.4095 104.691 68.6341 104.727 68.8567 104.727C69.1536 104.727 69.4016 104.688 69.6009 104.609C69.804 104.531 69.9583 104.424 70.0637 104.287C70.1692 104.15 70.222 103.994 70.222 103.818ZM77.2703 100.514V105.5H76.1863V99.1602H77.2117L77.2703 100.514ZM77.0125 102.09L76.5613 102.072C76.5652 101.639 76.6297 101.238 76.7547 100.871C76.8797 100.5 77.0555 100.178 77.282 99.9043C77.5086 99.6309 77.7781 99.4199 78.0906 99.2715C78.407 99.1191 78.7566 99.043 79.1395 99.043C79.452 99.043 79.7332 99.0859 79.9832 99.1719C80.2332 99.2539 80.4461 99.3867 80.6219 99.5703C80.8016 99.7539 80.9383 99.9922 81.032 100.285C81.1258 100.574 81.1727 100.928 81.1727 101.346V105.5H80.0828V101.334C80.0828 101.002 80.034 100.736 79.9363 100.537C79.8387 100.334 79.6961 100.188 79.5086 100.098C79.3211 100.004 79.0906 99.957 78.8172 99.957C78.5477 99.957 78.3016 100.014 78.0789 100.127C77.8602 100.24 77.6707 100.396 77.5105 100.596C77.3543 100.795 77.2313 101.023 77.1414 101.281C77.0555 101.535 77.0125 101.805 77.0125 102.09ZM85.69 105.617C85.2486 105.617 84.8482 105.543 84.4888 105.395C84.1334 105.242 83.8267 105.029 83.5689 104.756C83.315 104.482 83.1197 104.158 82.983 103.783C82.8462 103.408 82.7779 102.998 82.7779 102.553V102.307C82.7779 101.791 82.8541 101.332 83.0064 100.93C83.1587 100.523 83.3658 100.18 83.6275 99.8984C83.8892 99.6172 84.1861 99.4043 84.5181 99.2598C84.8502 99.1152 85.1939 99.043 85.5494 99.043C86.0025 99.043 86.3931 99.1211 86.7212 99.2773C87.0533 99.4336 87.3248 99.6523 87.5357 99.9336C87.7466 100.211 87.9029 100.539 88.0045 100.918C88.106 101.293 88.1568 101.703 88.1568 102.148V102.635H83.4224V101.75H87.0728V101.668C87.0572 101.387 86.9986 101.113 86.897 100.848C86.7994 100.582 86.6431 100.363 86.4283 100.191C86.2134 100.02 85.9205 99.9336 85.5494 99.9336C85.3033 99.9336 85.0767 99.9863 84.8697 100.092C84.6627 100.193 84.4849 100.346 84.3365 100.549C84.188 100.752 84.0728 101 83.9908 101.293C83.9087 101.586 83.8677 101.924 83.8677 102.307V102.553C83.8677 102.854 83.9087 103.137 83.9908 103.402C84.0767 103.664 84.1998 103.895 84.3599 104.094C84.524 104.293 84.7212 104.449 84.9517 104.562C85.1861 104.676 85.4517 104.732 85.7486 104.732C86.1314 104.732 86.4556 104.654 86.7212 104.498C86.9869 104.342 87.2193 104.133 87.4185 103.871L88.0748 104.393C87.938 104.6 87.7642 104.797 87.5533 104.984C87.3423 105.172 87.0826 105.324 86.774 105.441C86.4693 105.559 86.108 105.617 85.69 105.617ZM92.2933 105.617C91.8519 105.617 91.4515 105.543 91.0921 105.395C90.7366 105.242 90.43 105.029 90.1722 104.756C89.9183 104.482 89.723 104.158 89.5863 103.783C89.4495 103.408 89.3812 102.998 89.3812 102.553V102.307C89.3812 101.791 89.4573 101.332 89.6097 100.93C89.762 100.523 89.9691 100.18 90.2308 99.8984C90.4925 99.6172 90.7894 99.4043 91.1214 99.2598C91.4534 99.1152 91.7972 99.043 92.1527 99.043C92.6058 99.043 92.9964 99.1211 93.3245 99.2773C93.6566 99.4336 93.928 99.6523 94.139 99.9336C94.3499 100.211 94.5062 100.539 94.6077 100.918C94.7093 101.293 94.7601 101.703 94.7601 102.148V102.635H90.0257V101.75H93.6761V101.668C93.6605 101.387 93.6019 101.113 93.5003 100.848C93.4027 100.582 93.2464 100.363 93.0316 100.191C92.8167 100.02 92.5238 99.9336 92.1527 99.9336C91.9066 99.9336 91.68 99.9863 91.473 100.092C91.2659 100.193 91.0882 100.346 90.9398 100.549C90.7913 100.752 90.6761 101 90.5941 101.293C90.512 101.586 90.471 101.924 90.471 102.307V102.553C90.471 102.854 90.512 103.137 90.5941 103.402C90.68 103.664 90.803 103.895 90.9632 104.094C91.1273 104.293 91.3245 104.449 91.555 104.562C91.7894 104.676 92.055 104.732 92.3519 104.732C92.7347 104.732 93.0589 104.654 93.3245 104.498C93.5902 104.342 93.8226 104.133 94.0218 103.871L94.678 104.393C94.5413 104.6 94.3675 104.797 94.1566 104.984C93.9456 105.172 93.6859 105.324 93.3773 105.441C93.0726 105.559 92.7113 105.617 92.2933 105.617ZM100.262 104.27V96.5H101.352V105.5H100.356L100.262 104.27ZM95.9962 102.4V102.277C95.9962 101.793 96.0548 101.354 96.172 100.959C96.293 100.561 96.463 100.219 96.6817 99.9336C96.9044 99.6484 97.168 99.4297 97.4727 99.2773C97.7813 99.1211 98.1251 99.043 98.504 99.043C98.9024 99.043 99.2501 99.1133 99.547 99.2539C99.8477 99.3906 100.102 99.5918 100.309 99.8574C100.52 100.119 100.686 100.436 100.807 100.807C100.928 101.178 101.012 101.598 101.059 102.066V102.605C101.016 103.07 100.932 103.488 100.807 103.859C100.686 104.23 100.52 104.547 100.309 104.809C100.102 105.07 99.8477 105.271 99.547 105.412C99.2462 105.549 98.8946 105.617 98.4923 105.617C98.1212 105.617 97.7813 105.537 97.4727 105.377C97.168 105.217 96.9044 104.992 96.6817 104.703C96.463 104.414 96.293 104.074 96.172 103.684C96.0548 103.289 95.9962 102.861 95.9962 102.4ZM97.086 102.277V102.4C97.086 102.717 97.1173 103.014 97.1798 103.291C97.2462 103.568 97.3477 103.812 97.4845 104.023C97.6212 104.234 97.795 104.4 98.0059 104.521C98.2169 104.639 98.4688 104.697 98.7618 104.697C99.1212 104.697 99.4161 104.621 99.6466 104.469C99.8809 104.316 100.068 104.115 100.209 103.865C100.35 103.615 100.459 103.344 100.537 103.051V101.639C100.49 101.424 100.422 101.217 100.332 101.018C100.246 100.814 100.133 100.635 99.9923 100.479C99.8555 100.318 99.6856 100.191 99.4825 100.098C99.2833 100.004 99.047 99.957 98.7735 99.957C98.4766 99.957 98.2208 100.02 98.0059 100.145C97.795 100.266 97.6212 100.434 97.4845 100.648C97.3477 100.859 97.2462 101.105 97.1798 101.387C97.1173 101.664 97.086 101.961 97.086 102.277ZM107.574 100.42V105.5H106.484V99.1602H107.515L107.574 100.42ZM107.351 102.09L106.847 102.072C106.851 101.639 106.908 101.238 107.017 100.871C107.127 100.5 107.289 100.178 107.504 99.9043C107.718 99.6309 107.986 99.4199 108.306 99.2715C108.627 99.1191 108.998 99.043 109.42 99.043C109.716 99.043 109.99 99.0859 110.24 99.1719C110.49 99.2539 110.707 99.3848 110.89 99.5645C111.074 99.7441 111.216 99.9746 111.318 100.256C111.42 100.537 111.47 100.877 111.47 101.275V105.5H110.386V101.328C110.386 100.996 110.33 100.73 110.216 100.531C110.107 100.332 109.951 100.188 109.748 100.098C109.545 100.004 109.306 99.957 109.033 99.957C108.713 99.957 108.445 100.014 108.23 100.127C108.015 100.24 107.843 100.396 107.714 100.596C107.586 100.795 107.492 101.023 107.433 101.281C107.379 101.535 107.351 101.805 107.351 102.09ZM111.459 101.492L110.732 101.715C110.736 101.367 110.793 101.033 110.902 100.713C111.015 100.393 111.177 100.107 111.388 99.8574C111.603 99.6074 111.867 99.4102 112.179 99.2656C112.492 99.1172 112.849 99.043 113.252 99.043C113.591 99.043 113.892 99.0879 114.154 99.1777C114.42 99.2676 114.642 99.4062 114.822 99.5938C115.005 99.7773 115.144 100.014 115.238 100.303C115.332 100.592 115.379 100.936 115.379 101.334V105.5H114.289V101.322C114.289 100.967 114.232 100.691 114.119 100.496C114.009 100.297 113.853 100.158 113.65 100.08C113.451 99.998 113.213 99.957 112.935 99.957C112.697 99.957 112.486 99.998 112.302 100.08C112.119 100.162 111.964 100.275 111.839 100.42C111.714 100.561 111.619 100.723 111.552 100.906C111.49 101.09 111.459 101.285 111.459 101.492ZM116.972 102.4V102.266C116.972 101.809 117.038 101.385 117.171 100.994C117.304 100.6 117.495 100.258 117.745 99.9688C117.995 99.6758 118.298 99.4492 118.654 99.2891C119.009 99.125 119.408 99.043 119.849 99.043C120.294 99.043 120.695 99.125 121.05 99.2891C121.41 99.4492 121.714 99.6758 121.964 99.9688C122.218 100.258 122.411 100.6 122.544 100.994C122.677 101.385 122.744 101.809 122.744 102.266V102.4C122.744 102.857 122.677 103.281 122.544 103.672C122.411 104.062 122.218 104.404 121.964 104.697C121.714 104.986 121.411 105.213 121.056 105.377C120.704 105.537 120.306 105.617 119.861 105.617C119.415 105.617 119.015 105.537 118.66 105.377C118.304 105.213 117.999 104.986 117.745 104.697C117.495 104.404 117.304 104.062 117.171 103.672C117.038 103.281 116.972 102.857 116.972 102.4ZM118.056 102.266V102.4C118.056 102.717 118.093 103.016 118.167 103.297C118.242 103.574 118.353 103.82 118.501 104.035C118.654 104.25 118.843 104.42 119.07 104.545C119.296 104.666 119.56 104.727 119.861 104.727C120.158 104.727 120.417 104.666 120.64 104.545C120.867 104.42 121.054 104.25 121.202 104.035C121.351 103.82 121.462 103.574 121.536 103.297C121.615 103.016 121.654 102.717 121.654 102.4V102.266C121.654 101.953 121.615 101.658 121.536 101.381C121.462 101.1 121.349 100.852 121.197 100.637C121.048 100.418 120.861 100.246 120.634 100.121C120.411 99.9961 120.15 99.9336 119.849 99.9336C119.552 99.9336 119.29 99.9961 119.064 100.121C118.841 100.246 118.654 100.418 118.501 100.637C118.353 100.852 118.242 101.1 118.167 101.381C118.093 101.658 118.056 101.953 118.056 102.266ZM125.427 100.156V105.5H124.343V99.1602H125.398L125.427 100.156ZM127.407 99.125L127.401 100.133C127.312 100.113 127.226 100.102 127.144 100.098C127.066 100.09 126.976 100.086 126.874 100.086C126.624 100.086 126.403 100.125 126.212 100.203C126.021 100.281 125.859 100.391 125.726 100.531C125.593 100.672 125.487 100.84 125.409 101.035C125.335 101.227 125.286 101.438 125.263 101.668L124.958 101.844C124.958 101.461 124.995 101.102 125.069 100.766C125.148 100.43 125.267 100.133 125.427 99.875C125.587 99.6133 125.79 99.4102 126.036 99.2656C126.286 99.1172 126.583 99.043 126.927 99.043C127.005 99.043 127.095 99.0527 127.196 99.0723C127.298 99.0879 127.368 99.1055 127.407 99.125ZM131.163 105.617C130.722 105.617 130.321 105.543 129.962 105.395C129.606 105.242 129.3 105.029 129.042 104.756C128.788 104.482 128.593 104.158 128.456 103.783C128.319 103.408 128.251 102.998 128.251 102.553V102.307C128.251 101.791 128.327 101.332 128.479 100.93C128.632 100.523 128.839 100.18 129.1 99.8984C129.362 99.6172 129.659 99.4043 129.991 99.2598C130.323 99.1152 130.667 99.043 131.022 99.043C131.475 99.043 131.866 99.1211 132.194 99.2773C132.526 99.4336 132.798 99.6523 133.009 99.9336C133.22 100.211 133.376 100.539 133.477 100.918C133.579 101.293 133.63 101.703 133.63 102.148V102.635H128.895V101.75H132.546V101.668C132.53 101.387 132.472 101.113 132.37 100.848C132.272 100.582 132.116 100.363 131.901 100.191C131.686 100.02 131.393 99.9336 131.022 99.9336C130.776 99.9336 130.55 99.9863 130.343 100.092C130.136 100.193 129.958 100.346 129.809 100.549C129.661 100.752 129.546 101 129.464 101.293C129.382 101.586 129.341 101.924 129.341 102.307V102.553C129.341 102.854 129.382 103.137 129.464 103.402C129.55 103.664 129.673 103.895 129.833 104.094C129.997 104.293 130.194 104.449 130.425 104.562C130.659 104.676 130.925 104.732 131.222 104.732C131.604 104.732 131.929 104.654 132.194 104.498C132.46 104.342 132.692 104.133 132.891 103.871L133.548 104.393C133.411 104.6 133.237 104.797 133.026 104.984C132.815 105.172 132.556 105.324 132.247 105.441C131.942 105.559 131.581 105.617 131.163 105.617ZM139.53 99.1602V105.5H138.44V99.1602H139.53ZM138.358 97.4785C138.358 97.3027 138.411 97.1543 138.516 97.0332C138.625 96.9121 138.786 96.8516 138.996 96.8516C139.204 96.8516 139.362 96.9121 139.471 97.0332C139.584 97.1543 139.641 97.3027 139.641 97.4785C139.641 97.6465 139.584 97.791 139.471 97.9121C139.362 98.0293 139.204 98.0879 138.996 98.0879C138.786 98.0879 138.625 98.0293 138.516 97.9121C138.411 97.791 138.358 97.6465 138.358 97.4785ZM145.506 104.27V96.5H146.596V105.5H145.6L145.506 104.27ZM141.24 102.4V102.277C141.24 101.793 141.299 101.354 141.416 100.959C141.537 100.561 141.707 100.219 141.926 99.9336C142.149 99.6484 142.412 99.4297 142.717 99.2773C143.026 99.1211 143.369 99.043 143.748 99.043C144.147 99.043 144.494 99.1133 144.791 99.2539C145.092 99.3906 145.346 99.5918 145.553 99.8574C145.764 100.119 145.93 100.436 146.051 100.807C146.172 101.178 146.256 101.598 146.303 102.066V102.605C146.26 103.07 146.176 103.488 146.051 103.859C145.93 104.23 145.764 104.547 145.553 104.809C145.346 105.07 145.092 105.271 144.791 105.412C144.49 105.549 144.139 105.617 143.736 105.617C143.365 105.617 143.026 105.537 142.717 105.377C142.412 105.217 142.149 104.992 141.926 104.703C141.707 104.414 141.537 104.074 141.416 103.684C141.299 103.289 141.24 102.861 141.24 102.4ZM142.33 102.277V102.4C142.33 102.717 142.361 103.014 142.424 103.291C142.49 103.568 142.592 103.812 142.729 104.023C142.865 104.234 143.039 104.4 143.25 104.521C143.461 104.639 143.713 104.697 144.006 104.697C144.365 104.697 144.66 104.621 144.891 104.469C145.125 104.316 145.313 104.115 145.453 103.865C145.594 103.615 145.703 103.344 145.781 103.051V101.639C145.735 101.424 145.666 101.217 145.576 101.018C145.49 100.814 145.377 100.635 145.236 100.479C145.1 100.318 144.93 100.191 144.727 100.098C144.527 100.004 144.291 99.957 144.018 99.957C143.721 99.957 143.465 100.02 143.25 100.145C143.039 100.266 142.865 100.434 142.729 100.648C142.592 100.859 142.49 101.105 142.424 101.387C142.361 101.664 142.33 101.961 142.33 102.277ZM151.154 105.617C150.713 105.617 150.312 105.543 149.953 105.395C149.598 105.242 149.291 105.029 149.033 104.756C148.779 104.482 148.584 104.158 148.447 103.783C148.31 103.408 148.242 102.998 148.242 102.553V102.307C148.242 101.791 148.318 101.332 148.471 100.93C148.623 100.523 148.83 100.18 149.092 99.8984C149.353 99.6172 149.65 99.4043 149.982 99.2598C150.314 99.1152 150.658 99.043 151.014 99.043C151.467 99.043 151.857 99.1211 152.185 99.2773C152.518 99.4336 152.789 99.6523 153 99.9336C153.211 100.211 153.367 100.539 153.469 100.918C153.57 101.293 153.621 101.703 153.621 102.148V102.635H148.887V101.75H152.537V101.668C152.521 101.387 152.463 101.113 152.361 100.848C152.264 100.582 152.107 100.363 151.893 100.191C151.678 100.02 151.385 99.9336 151.014 99.9336C150.768 99.9336 150.541 99.9863 150.334 100.092C150.127 100.193 149.949 100.346 149.801 100.549C149.652 100.752 149.537 101 149.455 101.293C149.373 101.586 149.332 101.924 149.332 102.307V102.553C149.332 102.854 149.373 103.137 149.455 103.402C149.541 103.664 149.664 103.895 149.824 104.094C149.988 104.293 150.185 104.449 150.416 104.562C150.65 104.676 150.916 104.732 151.213 104.732C151.596 104.732 151.92 104.654 152.185 104.498C152.451 104.342 152.684 104.133 152.883 103.871L153.539 104.393C153.402 104.6 153.228 104.797 153.018 104.984C152.807 105.172 152.547 105.324 152.238 105.441C151.934 105.559 151.572 105.617 151.154 105.617ZM158.865 104.416V101.152C158.865 100.902 158.814 100.686 158.713 100.502C158.615 100.314 158.466 100.17 158.267 100.068C158.068 99.9668 157.822 99.916 157.529 99.916C157.256 99.916 157.015 99.9629 156.808 100.057C156.605 100.15 156.445 100.273 156.328 100.426C156.215 100.578 156.158 100.742 156.158 100.918H155.074C155.074 100.691 155.132 100.467 155.25 100.244C155.367 100.021 155.535 99.8203 155.754 99.6406C155.976 99.457 156.242 99.3125 156.55 99.207C156.863 99.0977 157.211 99.043 157.593 99.043C158.054 99.043 158.461 99.1211 158.812 99.2773C159.168 99.4336 159.445 99.6699 159.644 99.9863C159.847 100.299 159.949 100.691 159.949 101.164V104.117C159.949 104.328 159.966 104.553 160.002 104.791C160.041 105.029 160.097 105.234 160.172 105.406V105.5H159.041C158.986 105.375 158.943 105.209 158.912 105.002C158.881 104.791 158.865 104.596 158.865 104.416ZM159.052 101.656L159.064 102.418H157.968C157.66 102.418 157.384 102.443 157.142 102.494C156.9 102.541 156.697 102.613 156.533 102.711C156.369 102.809 156.244 102.932 156.158 103.08C156.072 103.225 156.029 103.395 156.029 103.59C156.029 103.789 156.074 103.971 156.164 104.135C156.254 104.299 156.388 104.43 156.568 104.527C156.752 104.621 156.976 104.668 157.242 104.668C157.574 104.668 157.867 104.598 158.121 104.457C158.375 104.316 158.576 104.145 158.724 103.941C158.877 103.738 158.959 103.541 158.97 103.35L159.433 103.871C159.406 104.035 159.332 104.217 159.211 104.416C159.09 104.615 158.927 104.807 158.724 104.99C158.525 105.17 158.287 105.32 158.009 105.441C157.736 105.559 157.427 105.617 157.084 105.617C156.654 105.617 156.277 105.533 155.953 105.365C155.632 105.197 155.382 104.973 155.203 104.691C155.027 104.406 154.939 104.088 154.939 103.736C154.939 103.396 155.006 103.098 155.138 102.84C155.271 102.578 155.463 102.361 155.713 102.189C155.963 102.014 156.263 101.881 156.615 101.791C156.966 101.701 157.359 101.656 157.793 101.656H159.052ZM165.585 103.818C165.585 103.662 165.55 103.518 165.48 103.385C165.414 103.248 165.275 103.125 165.064 103.016C164.857 102.902 164.544 102.805 164.126 102.723C163.775 102.648 163.456 102.561 163.171 102.459C162.89 102.357 162.65 102.234 162.451 102.09C162.255 101.945 162.105 101.775 161.999 101.58C161.894 101.385 161.841 101.156 161.841 100.895C161.841 100.645 161.896 100.408 162.005 100.186C162.119 99.9629 162.277 99.7656 162.48 99.5938C162.687 99.4219 162.935 99.2871 163.224 99.1895C163.513 99.0918 163.835 99.043 164.191 99.043C164.699 99.043 165.132 99.1328 165.492 99.3125C165.851 99.4922 166.126 99.7324 166.318 100.033C166.509 100.33 166.605 100.66 166.605 101.023H165.521C165.521 100.848 165.468 100.678 165.363 100.514C165.261 100.346 165.111 100.207 164.912 100.098C164.716 99.9883 164.476 99.9336 164.191 99.9336C163.89 99.9336 163.646 99.9805 163.458 100.074C163.275 100.164 163.14 100.279 163.054 100.42C162.972 100.561 162.931 100.709 162.931 100.865C162.931 100.982 162.951 101.088 162.99 101.182C163.033 101.271 163.107 101.355 163.212 101.434C163.318 101.508 163.466 101.578 163.658 101.645C163.849 101.711 164.093 101.777 164.39 101.844C164.91 101.961 165.337 102.102 165.673 102.266C166.009 102.43 166.259 102.631 166.423 102.869C166.587 103.107 166.669 103.396 166.669 103.736C166.669 104.014 166.611 104.268 166.494 104.498C166.38 104.729 166.214 104.928 165.996 105.096C165.781 105.26 165.523 105.389 165.222 105.482C164.925 105.572 164.591 105.617 164.22 105.617C163.662 105.617 163.189 105.518 162.802 105.318C162.415 105.119 162.122 104.861 161.923 104.545C161.724 104.229 161.624 103.895 161.624 103.543H162.714C162.73 103.84 162.816 104.076 162.972 104.252C163.128 104.424 163.32 104.547 163.546 104.621C163.773 104.691 163.997 104.727 164.22 104.727C164.517 104.727 164.765 104.688 164.964 104.609C165.167 104.531 165.322 104.424 165.427 104.287C165.533 104.15 165.585 103.994 165.585 103.818ZM173.167 105.5H172.083V98.4922C172.083 98.0352 172.165 97.6504 172.329 97.3379C172.497 97.0215 172.737 96.7832 173.05 96.623C173.362 96.459 173.733 96.377 174.163 96.377C174.288 96.377 174.413 96.3848 174.538 96.4004C174.667 96.416 174.792 96.4395 174.913 96.4707L174.854 97.3555C174.772 97.3359 174.679 97.3223 174.573 97.3145C174.472 97.3066 174.37 97.3027 174.269 97.3027C174.038 97.3027 173.839 97.3496 173.671 97.4434C173.507 97.5332 173.382 97.666 173.296 97.8418C173.21 98.0176 173.167 98.2344 173.167 98.4922V105.5ZM174.515 99.1602V99.9922H171.081V99.1602H174.515ZM175.675 102.4V102.266C175.675 101.809 175.741 101.385 175.874 100.994C176.007 100.6 176.198 100.258 176.448 99.9688C176.698 99.6758 177.001 99.4492 177.356 99.2891C177.712 99.125 178.11 99.043 178.551 99.043C178.997 99.043 179.397 99.125 179.753 99.2891C180.112 99.4492 180.417 99.6758 180.667 99.9688C180.921 100.258 181.114 100.6 181.247 100.994C181.38 101.385 181.446 101.809 181.446 102.266V102.4C181.446 102.857 181.38 103.281 181.247 103.672C181.114 104.062 180.921 104.404 180.667 104.697C180.417 104.986 180.114 105.213 179.759 105.377C179.407 105.537 179.009 105.617 178.563 105.617C178.118 105.617 177.717 105.537 177.362 105.377C177.007 105.213 176.702 104.986 176.448 104.697C176.198 104.404 176.007 104.062 175.874 103.672C175.741 103.281 175.675 102.857 175.675 102.4ZM176.759 102.266V102.4C176.759 102.717 176.796 103.016 176.87 103.297C176.944 103.574 177.055 103.82 177.204 104.035C177.356 104.25 177.546 104.42 177.772 104.545C177.999 104.666 178.262 104.727 178.563 104.727C178.86 104.727 179.12 104.666 179.342 104.545C179.569 104.42 179.757 104.25 179.905 104.035C180.053 103.82 180.165 103.574 180.239 103.297C180.317 103.016 180.356 102.717 180.356 102.4V102.266C180.356 101.953 180.317 101.658 180.239 101.381C180.165 101.1 180.051 100.852 179.899 100.637C179.751 100.418 179.563 100.246 179.337 100.121C179.114 99.9961 178.852 99.9336 178.551 99.9336C178.255 99.9336 177.993 99.9961 177.766 100.121C177.544 100.246 177.356 100.418 177.204 100.637C177.055 100.852 176.944 101.1 176.87 101.381C176.796 101.658 176.759 101.953 176.759 102.266ZM184.129 100.156V105.5H183.045V99.1602H184.1L184.129 100.156ZM186.11 99.125L186.104 100.133C186.014 100.113 185.928 100.102 185.846 100.098C185.768 100.09 185.678 100.086 185.577 100.086C185.327 100.086 185.106 100.125 184.915 100.203C184.723 100.281 184.561 100.391 184.428 100.531C184.295 100.672 184.19 100.84 184.112 101.035C184.038 101.227 183.989 101.438 183.965 101.668L183.661 101.844C183.661 101.461 183.698 101.102 183.772 100.766C183.85 100.43 183.969 100.133 184.129 99.875C184.29 99.6133 184.493 99.4102 184.739 99.2656C184.989 99.1172 185.286 99.043 185.629 99.043C185.708 99.043 185.797 99.0527 185.899 99.0723C186 99.0879 186.071 99.1055 186.11 99.125ZM193.223 99.1602V99.9922H189.795V99.1602H193.223ZM190.955 97.6191H192.039V103.93C192.039 104.145 192.072 104.307 192.139 104.416C192.205 104.525 192.291 104.598 192.396 104.633C192.502 104.668 192.615 104.686 192.736 104.686C192.826 104.686 192.92 104.678 193.018 104.662C193.119 104.643 193.195 104.627 193.246 104.615L193.252 105.5C193.166 105.527 193.053 105.553 192.912 105.576C192.775 105.604 192.609 105.617 192.414 105.617C192.148 105.617 191.904 105.564 191.682 105.459C191.459 105.354 191.281 105.178 191.148 104.932C191.02 104.682 190.955 104.346 190.955 103.924V97.6191ZM195.818 96.5V105.5H194.734V96.5H195.818ZM195.56 102.09L195.109 102.072C195.113 101.639 195.178 101.238 195.303 100.871C195.428 100.5 195.603 100.178 195.83 99.9043C196.056 99.6309 196.326 99.4199 196.638 99.2715C196.955 99.1191 197.304 99.043 197.687 99.043C198 99.043 198.281 99.0859 198.531 99.1719C198.781 99.2539 198.994 99.3867 199.17 99.5703C199.349 99.7539 199.486 99.9922 199.58 100.285C199.674 100.574 199.72 100.928 199.72 101.346V105.5H198.631V101.334C198.631 101.002 198.582 100.736 198.484 100.537C198.386 100.334 198.244 100.188 198.056 100.098C197.869 100.004 197.638 99.957 197.365 99.957C197.095 99.957 196.849 100.014 196.627 100.127C196.408 100.24 196.219 100.396 196.058 100.596C195.902 100.795 195.779 101.023 195.689 101.281C195.603 101.535 195.56 101.805 195.56 102.09ZM204.214 105.617C203.773 105.617 203.373 105.543 203.013 105.395C202.658 105.242 202.351 105.029 202.093 104.756C201.839 104.482 201.644 104.158 201.507 103.783C201.371 103.408 201.302 102.998 201.302 102.553V102.307C201.302 101.791 201.378 101.332 201.531 100.93C201.683 100.523 201.89 100.18 202.152 99.8984C202.414 99.6172 202.71 99.4043 203.042 99.2598C203.375 99.1152 203.718 99.043 204.074 99.043C204.527 99.043 204.917 99.1211 205.246 99.2773C205.578 99.4336 205.849 99.6523 206.06 99.9336C206.271 100.211 206.427 100.539 206.529 100.918C206.63 101.293 206.681 101.703 206.681 102.148V102.635H201.947V101.75H205.597V101.668C205.582 101.387 205.523 101.113 205.421 100.848C205.324 100.582 205.167 100.363 204.953 100.191C204.738 100.02 204.445 99.9336 204.074 99.9336C203.828 99.9336 203.601 99.9863 203.394 100.092C203.187 100.193 203.009 100.346 202.861 100.549C202.712 100.752 202.597 101 202.515 101.293C202.433 101.586 202.392 101.924 202.392 102.307V102.553C202.392 102.854 202.433 103.137 202.515 103.402C202.601 103.664 202.724 103.895 202.884 104.094C203.048 104.293 203.246 104.449 203.476 104.562C203.71 104.676 203.976 104.732 204.273 104.732C204.656 104.732 204.98 104.654 205.246 104.498C205.511 104.342 205.744 104.133 205.943 103.871L206.599 104.393C206.462 104.6 206.289 104.797 206.078 104.984C205.867 105.172 205.607 105.324 205.298 105.441C204.994 105.559 204.632 105.617 204.214 105.617ZM46.5039 110.5V119.5H45.4141V110.5H46.5039ZM52.2224 118.416V115.152C52.2224 114.902 52.1716 114.686 52.0701 114.502C51.9724 114.314 51.824 114.17 51.6248 114.068C51.4255 113.967 51.1795 113.916 50.8865 113.916C50.613 113.916 50.3728 113.963 50.1658 114.057C49.9627 114.15 49.8025 114.273 49.6853 114.426C49.572 114.578 49.5154 114.742 49.5154 114.918H48.4314C48.4314 114.691 48.49 114.467 48.6072 114.244C48.7244 114.021 48.8923 113.82 49.1111 113.641C49.3338 113.457 49.5994 113.312 49.908 113.207C50.2205 113.098 50.5681 113.043 50.9509 113.043C51.4119 113.043 51.8181 113.121 52.1697 113.277C52.5252 113.434 52.8025 113.67 53.0017 113.986C53.2048 114.299 53.3064 114.691 53.3064 115.164V118.117C53.3064 118.328 53.324 118.553 53.3591 118.791C53.3982 119.029 53.4548 119.234 53.5291 119.406V119.5H52.3982C52.3435 119.375 52.3005 119.209 52.2693 119.002C52.238 118.791 52.2224 118.596 52.2224 118.416ZM52.4099 115.656L52.4216 116.418H51.3259C51.0173 116.418 50.742 116.443 50.4998 116.494C50.2576 116.541 50.0545 116.613 49.8904 116.711C49.7263 116.809 49.6013 116.932 49.5154 117.08C49.4295 117.225 49.3865 117.395 49.3865 117.59C49.3865 117.789 49.4314 117.971 49.5213 118.135C49.6111 118.299 49.7459 118.43 49.9255 118.527C50.1091 118.621 50.3338 118.668 50.5994 118.668C50.9314 118.668 51.2244 118.598 51.4783 118.457C51.7322 118.316 51.9334 118.145 52.0818 117.941C52.2341 117.738 52.3162 117.541 52.3279 117.35L52.7908 117.871C52.7634 118.035 52.6892 118.217 52.5681 118.416C52.447 118.615 52.2849 118.807 52.0818 118.99C51.8826 119.17 51.6443 119.32 51.367 119.441C51.0935 119.559 50.7849 119.617 50.4412 119.617C50.0115 119.617 49.6345 119.533 49.3103 119.365C48.99 119.197 48.74 118.973 48.5603 118.691C48.3845 118.406 48.2966 118.088 48.2966 117.736C48.2966 117.396 48.363 117.098 48.4959 116.84C48.6287 116.578 48.8201 116.361 49.0701 116.189C49.3201 116.014 49.6209 115.881 49.9724 115.791C50.324 115.701 50.7166 115.656 51.1502 115.656H52.4099ZM56.3355 114.514V119.5H55.2515V113.16H56.2769L56.3355 114.514ZM56.0777 116.09L55.6265 116.072C55.6304 115.639 55.6948 115.238 55.8198 114.871C55.9448 114.5 56.1206 114.178 56.3472 113.904C56.5737 113.631 56.8433 113.42 57.1558 113.271C57.4722 113.119 57.8218 113.043 58.2046 113.043C58.5171 113.043 58.7984 113.086 59.0484 113.172C59.2984 113.254 59.5112 113.387 59.687 113.57C59.8667 113.754 60.0034 113.992 60.0972 114.285C60.1909 114.574 60.2378 114.928 60.2378 115.346V119.5H59.148V115.334C59.148 115.002 59.0991 114.736 59.0015 114.537C58.9038 114.334 58.7612 114.188 58.5737 114.098C58.3862 114.004 58.1558 113.957 57.8823 113.957C57.6128 113.957 57.3667 114.014 57.1441 114.127C56.9253 114.24 56.7359 114.396 56.5757 114.596C56.4195 114.795 56.2964 115.023 56.2066 115.281C56.1206 115.535 56.0777 115.805 56.0777 116.09ZM66.1204 118.27V110.5H67.2102V119.5H66.2141L66.1204 118.27ZM61.8548 116.4V116.277C61.8548 115.793 61.9134 115.354 62.0305 114.959C62.1516 114.561 62.3216 114.219 62.5403 113.934C62.763 113.648 63.0266 113.43 63.3313 113.277C63.6399 113.121 63.9837 113.043 64.3626 113.043C64.761 113.043 65.1087 113.113 65.4055 113.254C65.7063 113.391 65.9602 113.592 66.1673 113.857C66.3782 114.119 66.5442 114.436 66.6653 114.807C66.7864 115.178 66.8704 115.598 66.9173 116.066V116.605C66.8743 117.07 66.7903 117.488 66.6653 117.859C66.5442 118.23 66.3782 118.547 66.1673 118.809C65.9602 119.07 65.7063 119.271 65.4055 119.412C65.1048 119.549 64.7532 119.617 64.3509 119.617C63.9798 119.617 63.6399 119.537 63.3313 119.377C63.0266 119.217 62.763 118.992 62.5403 118.703C62.3216 118.414 62.1516 118.074 62.0305 117.684C61.9134 117.289 61.8548 116.861 61.8548 116.4ZM62.9446 116.277V116.4C62.9446 116.717 62.9759 117.014 63.0384 117.291C63.1048 117.568 63.2063 117.812 63.343 118.023C63.4798 118.234 63.6536 118.4 63.8645 118.521C64.0755 118.639 64.3274 118.697 64.6204 118.697C64.9798 118.697 65.2747 118.621 65.5052 118.469C65.7395 118.316 65.927 118.115 66.0677 117.865C66.2083 117.615 66.3177 117.344 66.3958 117.051V115.639C66.3489 115.424 66.2805 115.217 66.1907 115.018C66.1048 114.814 65.9915 114.635 65.8509 114.479C65.7141 114.318 65.5442 114.191 65.3411 114.098C65.1419 114.004 64.9055 113.957 64.6321 113.957C64.3352 113.957 64.0794 114.02 63.8645 114.145C63.6536 114.266 63.4798 114.434 63.343 114.648C63.2063 114.859 63.1048 115.105 63.0384 115.387C62.9759 115.664 62.9446 115.961 62.9446 116.277ZM70.3155 113.16V119.5H69.2256V113.16H70.3155ZM69.1436 111.479C69.1436 111.303 69.1963 111.154 69.3018 111.033C69.4112 110.912 69.5713 110.852 69.7823 110.852C69.9893 110.852 70.1475 110.912 70.2569 111.033C70.3702 111.154 70.4268 111.303 70.4268 111.479C70.4268 111.646 70.3702 111.791 70.2569 111.912C70.1475 112.029 69.9893 112.088 69.7823 112.088C69.5713 112.088 69.4112 112.029 69.3018 111.912C69.1963 111.791 69.1436 111.646 69.1436 111.479ZM73.3797 114.514V119.5H72.2957V113.16H73.3211L73.3797 114.514ZM73.1219 116.09L72.6707 116.072C72.6746 115.639 72.7391 115.238 72.8641 114.871C72.9891 114.5 73.1648 114.178 73.3914 113.904C73.618 113.631 73.8875 113.42 74.2 113.271C74.5164 113.119 74.866 113.043 75.2488 113.043C75.5613 113.043 75.8426 113.086 76.0926 113.172C76.3426 113.254 76.5555 113.387 76.7313 113.57C76.9109 113.754 77.0477 113.992 77.1414 114.285C77.2352 114.574 77.282 114.928 77.282 115.346V119.5H76.1922V115.334C76.1922 115.002 76.1434 114.736 76.0457 114.537C75.948 114.334 75.8055 114.188 75.618 114.098C75.4305 114.004 75.2 113.957 74.9266 113.957C74.657 113.957 74.4109 114.014 74.1883 114.127C73.9695 114.24 73.7801 114.396 73.6199 114.596C73.4637 114.795 73.3406 115.023 73.2508 115.281C73.1648 115.535 73.1219 115.805 73.1219 116.09ZM83.2759 113.16H84.2603V119.365C84.2603 119.924 84.147 120.4 83.9205 120.795C83.6939 121.189 83.3775 121.488 82.9712 121.691C82.5689 121.898 82.1041 122.002 81.5767 122.002C81.358 122.002 81.1002 121.967 80.8033 121.896C80.5103 121.83 80.2212 121.715 79.9361 121.551C79.6548 121.391 79.4185 121.174 79.2271 120.9L79.7955 120.256C80.0611 120.576 80.3384 120.799 80.6275 120.924C80.9205 121.049 81.2095 121.111 81.4947 121.111C81.8384 121.111 82.1353 121.047 82.3853 120.918C82.6353 120.789 82.8287 120.598 82.9654 120.344C83.106 120.094 83.1763 119.785 83.1763 119.418V114.555L83.2759 113.16ZM78.9107 116.4V116.277C78.9107 115.793 78.9673 115.354 79.0806 114.959C79.1978 114.561 79.3638 114.219 79.5787 113.934C79.7974 113.648 80.0611 113.43 80.3697 113.277C80.6783 113.121 81.0259 113.043 81.4127 113.043C81.8111 113.043 82.1587 113.113 82.4556 113.254C82.7564 113.391 83.0103 113.592 83.2173 113.857C83.4283 114.119 83.5943 114.436 83.7154 114.807C83.8365 115.178 83.9205 115.598 83.9673 116.066V116.605C83.9244 117.07 83.8404 117.488 83.7154 117.859C83.5943 118.23 83.4283 118.547 83.2173 118.809C83.0103 119.07 82.7564 119.271 82.4556 119.412C82.1548 119.549 81.8033 119.617 81.4009 119.617C81.022 119.617 80.6783 119.537 80.3697 119.377C80.065 119.217 79.8033 118.992 79.5845 118.703C79.3658 118.414 79.1978 118.074 79.0806 117.684C78.9673 117.289 78.9107 116.861 78.9107 116.4ZM79.9947 116.277V116.4C79.9947 116.717 80.0259 117.014 80.0884 117.291C80.1548 117.568 80.2545 117.812 80.3873 118.023C80.524 118.234 80.6978 118.4 80.9087 118.521C81.1197 118.639 81.3716 118.697 81.6646 118.697C82.024 118.697 82.3209 118.621 82.5552 118.469C82.7896 118.316 82.9752 118.115 83.1119 117.865C83.2525 117.615 83.3619 117.344 83.44 117.051V115.639C83.397 115.424 83.3306 115.217 83.2408 115.018C83.1548 114.814 83.0416 114.635 82.9009 114.479C82.7642 114.318 82.5943 114.191 82.3912 114.098C82.188 114.004 81.9498 113.957 81.6763 113.957C81.3795 113.957 81.1236 114.02 80.9087 114.145C80.6978 114.266 80.524 114.434 80.3873 114.648C80.2545 114.859 80.1548 115.105 80.0884 115.387C80.0259 115.664 79.9947 115.961 79.9947 116.277ZM90.4473 114.379V121.938H89.3575V113.16H90.3536L90.4473 114.379ZM94.7188 116.277V116.4C94.7188 116.861 94.6641 117.289 94.5548 117.684C94.4454 118.074 94.2852 118.414 94.0743 118.703C93.8673 118.992 93.6114 119.217 93.3067 119.377C93.002 119.537 92.6524 119.617 92.2579 119.617C91.8555 119.617 91.5001 119.551 91.1915 119.418C90.8829 119.285 90.6212 119.092 90.4063 118.838C90.1915 118.584 90.0196 118.279 89.8907 117.924C89.7657 117.568 89.6798 117.168 89.6329 116.723V116.066C89.6798 115.598 89.7677 115.178 89.8966 114.807C90.0255 114.436 90.1954 114.119 90.4063 113.857C90.6212 113.592 90.8809 113.391 91.1856 113.254C91.4903 113.113 91.8419 113.043 92.2403 113.043C92.6387 113.043 92.9923 113.121 93.3009 113.277C93.6095 113.43 93.8692 113.648 94.0802 113.934C94.2911 114.219 94.4493 114.561 94.5548 114.959C94.6641 115.354 94.7188 115.793 94.7188 116.277ZM93.629 116.4V116.277C93.629 115.961 93.5958 115.664 93.5294 115.387C93.463 115.105 93.3595 114.859 93.2188 114.648C93.0821 114.434 92.9063 114.266 92.6915 114.145C92.4766 114.02 92.2208 113.957 91.9239 113.957C91.6505 113.957 91.4122 114.004 91.2091 114.098C91.0098 114.191 90.8399 114.318 90.6993 114.479C90.5587 114.635 90.4434 114.814 90.3536 115.018C90.2677 115.217 90.2032 115.424 90.1602 115.639V117.156C90.2384 117.43 90.3477 117.688 90.4884 117.93C90.629 118.168 90.8165 118.361 91.0509 118.51C91.2852 118.654 91.5802 118.727 91.9356 118.727C92.2286 118.727 92.4805 118.666 92.6915 118.545C92.9063 118.42 93.0821 118.25 93.2188 118.035C93.3595 117.82 93.463 117.574 93.5294 117.297C93.5958 117.016 93.629 116.717 93.629 116.4ZM100.08 118.416V115.152C100.08 114.902 100.029 114.686 99.9276 114.502C99.8299 114.314 99.6815 114.17 99.4823 114.068C99.283 113.967 99.037 113.916 98.744 113.916C98.4705 113.916 98.2303 113.963 98.0233 114.057C97.8202 114.15 97.66 114.273 97.5428 114.426C97.4295 114.578 97.3729 114.742 97.3729 114.918H96.2889C96.2889 114.691 96.3475 114.467 96.4647 114.244C96.5819 114.021 96.7498 113.82 96.9686 113.641C97.1912 113.457 97.4569 113.312 97.7655 113.207C98.078 113.098 98.4256 113.043 98.8084 113.043C99.2694 113.043 99.6756 113.121 100.027 113.277C100.383 113.434 100.66 113.67 100.859 113.986C101.062 114.299 101.164 114.691 101.164 115.164V118.117C101.164 118.328 101.181 118.553 101.217 118.791C101.256 119.029 101.312 119.234 101.387 119.406V119.5H100.256C100.201 119.375 100.158 119.209 100.127 119.002C100.096 118.791 100.08 118.596 100.08 118.416ZM100.267 115.656L100.279 116.418H99.1834C98.8748 116.418 98.5995 116.443 98.3573 116.494C98.1151 116.541 97.912 116.613 97.7479 116.711C97.5838 116.809 97.4588 116.932 97.3729 117.08C97.287 117.225 97.244 117.395 97.244 117.59C97.244 117.789 97.2889 117.971 97.3787 118.135C97.4686 118.299 97.6034 118.43 97.783 118.527C97.9666 118.621 98.1912 118.668 98.4569 118.668C98.7889 118.668 99.0819 118.598 99.3358 118.457C99.5897 118.316 99.7909 118.145 99.9393 117.941C100.092 117.738 100.174 117.541 100.185 117.35L100.648 117.871C100.621 118.035 100.547 118.217 100.426 118.416C100.305 118.615 100.142 118.807 99.9393 118.99C99.7401 119.17 99.5018 119.32 99.2245 119.441C98.951 119.559 98.6424 119.617 98.2987 119.617C97.869 119.617 97.492 119.533 97.1678 119.365C96.8475 119.197 96.5975 118.973 96.4178 118.691C96.242 118.406 96.1541 118.088 96.1541 117.736C96.1541 117.396 96.2205 117.098 96.3534 116.84C96.4862 116.578 96.6776 116.361 96.9276 116.189C97.1776 116.014 97.4784 115.881 97.8299 115.791C98.1815 115.701 98.5741 115.656 99.0077 115.656H100.267ZM107.216 113.16H108.201V119.365C108.201 119.924 108.088 120.4 107.861 120.795C107.634 121.189 107.318 121.488 106.912 121.691C106.509 121.898 106.045 122.002 105.517 122.002C105.298 122.002 105.041 121.967 104.744 121.896C104.451 121.83 104.162 121.715 103.877 121.551C103.595 121.391 103.359 121.174 103.168 120.9L103.736 120.256C104.002 120.576 104.279 120.799 104.568 120.924C104.861 121.049 105.15 121.111 105.435 121.111C105.779 121.111 106.076 121.047 106.326 120.918C106.576 120.789 106.769 120.598 106.906 120.344C107.046 120.094 107.117 119.785 107.117 119.418V114.555L107.216 113.16ZM102.851 116.4V116.277C102.851 115.793 102.908 115.354 103.021 114.959C103.138 114.561 103.304 114.219 103.519 113.934C103.738 113.648 104.002 113.43 104.31 113.277C104.619 113.121 104.966 113.043 105.353 113.043C105.752 113.043 106.099 113.113 106.396 113.254C106.697 113.391 106.951 113.592 107.158 113.857C107.369 114.119 107.535 114.436 107.656 114.807C107.777 115.178 107.861 115.598 107.908 116.066V116.605C107.865 117.07 107.781 117.488 107.656 117.859C107.535 118.23 107.369 118.547 107.158 118.809C106.951 119.07 106.697 119.271 106.396 119.412C106.095 119.549 105.744 119.617 105.341 119.617C104.963 119.617 104.619 119.537 104.31 119.377C104.005 119.217 103.744 118.992 103.525 118.703C103.306 118.414 103.138 118.074 103.021 117.684C102.908 117.289 102.851 116.861 102.851 116.4ZM103.935 116.277V116.4C103.935 116.717 103.966 117.014 104.029 117.291C104.095 117.568 104.195 117.812 104.328 118.023C104.464 118.234 104.638 118.4 104.849 118.521C105.06 118.639 105.312 118.697 105.605 118.697C105.964 118.697 106.261 118.621 106.496 118.469C106.73 118.316 106.916 118.115 107.052 117.865C107.193 117.615 107.302 117.344 107.38 117.051V115.639C107.338 115.424 107.271 115.217 107.181 115.018C107.095 114.814 106.982 114.635 106.841 114.479C106.705 114.318 106.535 114.191 106.332 114.098C106.129 114.004 105.89 113.957 105.617 113.957C105.32 113.957 105.064 114.02 104.849 114.145C104.638 114.266 104.464 114.434 104.328 114.648C104.195 114.859 104.095 115.105 104.029 115.387C103.966 115.664 103.935 115.961 103.935 116.277ZM112.718 119.617C112.277 119.617 111.876 119.543 111.517 119.395C111.161 119.242 110.855 119.029 110.597 118.756C110.343 118.482 110.148 118.158 110.011 117.783C109.874 117.408 109.806 116.998 109.806 116.553V116.307C109.806 115.791 109.882 115.332 110.035 114.93C110.187 114.523 110.394 114.18 110.656 113.898C110.917 113.617 111.214 113.404 111.546 113.26C111.878 113.115 112.222 113.043 112.577 113.043C113.031 113.043 113.421 113.121 113.749 113.277C114.081 113.434 114.353 113.652 114.564 113.934C114.775 114.211 114.931 114.539 115.033 114.918C115.134 115.293 115.185 115.703 115.185 116.148V116.635H110.451V115.75H114.101V115.668C114.085 115.387 114.027 115.113 113.925 114.848C113.827 114.582 113.671 114.363 113.456 114.191C113.242 114.02 112.949 113.934 112.577 113.934C112.331 113.934 112.105 113.986 111.898 114.092C111.691 114.193 111.513 114.346 111.365 114.549C111.216 114.752 111.101 115 111.019 115.293C110.937 115.586 110.896 115.924 110.896 116.307V116.553C110.896 116.854 110.937 117.137 111.019 117.402C111.105 117.664 111.228 117.895 111.388 118.094C111.552 118.293 111.749 118.449 111.98 118.562C112.214 118.676 112.48 118.732 112.777 118.732C113.16 118.732 113.484 118.654 113.749 118.498C114.015 118.342 114.247 118.133 114.447 117.871L115.103 118.393C114.966 118.6 114.792 118.797 114.581 118.984C114.37 119.172 114.111 119.324 113.802 119.441C113.497 119.559 113.136 119.617 112.718 119.617ZM119.725 113.752C119.725 113.568 119.782 113.414 119.895 113.289C120.013 113.16 120.181 113.096 120.399 113.096C120.618 113.096 120.784 113.16 120.897 113.289C121.015 113.414 121.073 113.568 121.073 113.752C121.073 113.932 121.015 114.084 120.897 114.209C120.784 114.334 120.618 114.396 120.399 114.396C120.181 114.396 120.013 114.334 119.895 114.209C119.782 114.084 119.725 113.932 119.725 113.752ZM120.962 118.211V119.084C120.962 119.439 120.872 119.814 120.692 120.209C120.513 120.607 120.261 120.939 119.936 121.205L119.321 120.777C119.446 120.605 119.552 120.43 119.638 120.25C119.724 120.074 119.788 119.891 119.831 119.699C119.878 119.512 119.901 119.312 119.901 119.102V118.211H120.962ZM125.186 116.031V116.09C125.186 116.945 125.09 117.719 124.899 118.41C124.708 119.102 124.464 119.705 124.167 120.221C123.87 120.74 123.557 121.17 123.229 121.51C122.901 121.854 122.598 122.102 122.321 122.254L122.092 121.598C122.323 121.422 122.555 121.176 122.79 120.859C123.024 120.547 123.241 120.16 123.44 119.699C123.639 119.242 123.799 118.715 123.921 118.117C124.042 117.516 124.102 116.844 124.102 116.102V116.02C124.102 115.277 124.038 114.607 123.909 114.01C123.78 113.408 123.612 112.879 123.405 112.422C123.202 111.965 122.983 111.58 122.749 111.268C122.518 110.951 122.299 110.707 122.092 110.535L122.321 109.873C122.598 110.025 122.901 110.273 123.229 110.617C123.557 110.957 123.87 111.387 124.167 111.906C124.464 112.426 124.708 113.031 124.899 113.723C125.09 114.41 125.186 115.18 125.186 116.031Z" fill="#AAAAAA"/>
<path d="M95.6367 151.654H93.3574V150.734H95.6367C96.0781 150.734 96.4355 150.664 96.709 150.523C96.9824 150.383 97.1816 150.188 97.3066 149.938C97.4355 149.688 97.5 149.402 97.5 149.082C97.5 148.789 97.4355 148.514 97.3066 148.256C97.1816 147.998 96.9824 147.791 96.709 147.635C96.4355 147.475 96.0781 147.395 95.6367 147.395H93.6211V155H92.4902V146.469H95.6367C96.2812 146.469 96.8262 146.58 97.2715 146.803C97.7168 147.025 98.0547 147.334 98.2852 147.729C98.5156 148.119 98.6309 148.566 98.6309 149.07C98.6309 149.617 98.5156 150.084 98.2852 150.471C98.0547 150.857 97.7168 151.152 97.2715 151.355C96.8262 151.555 96.2812 151.654 95.6367 151.654ZM99.7673 151.9V151.766C99.7673 151.309 99.8337 150.885 99.9666 150.494C100.099 150.1 100.291 149.758 100.541 149.469C100.791 149.176 101.094 148.949 101.449 148.789C101.804 148.625 102.203 148.543 102.644 148.543C103.09 148.543 103.49 148.625 103.845 148.789C104.205 148.949 104.51 149.176 104.76 149.469C105.013 149.758 105.207 150.1 105.34 150.494C105.472 150.885 105.539 151.309 105.539 151.766V151.9C105.539 152.357 105.472 152.781 105.34 153.172C105.207 153.562 105.013 153.904 104.76 154.197C104.51 154.486 104.207 154.713 103.851 154.877C103.5 155.037 103.101 155.117 102.656 155.117C102.211 155.117 101.81 155.037 101.455 154.877C101.099 154.713 100.795 154.486 100.541 154.197C100.291 153.904 100.099 153.562 99.9666 153.172C99.8337 152.781 99.7673 152.357 99.7673 151.9ZM100.851 151.766V151.9C100.851 152.217 100.888 152.516 100.963 152.797C101.037 153.074 101.148 153.32 101.297 153.535C101.449 153.75 101.638 153.92 101.865 154.045C102.092 154.166 102.355 154.227 102.656 154.227C102.953 154.227 103.213 154.166 103.435 154.045C103.662 153.92 103.849 153.75 103.998 153.535C104.146 153.32 104.258 153.074 104.332 152.797C104.41 152.516 104.449 152.217 104.449 151.9V151.766C104.449 151.453 104.41 151.158 104.332 150.881C104.258 150.6 104.144 150.352 103.992 150.137C103.844 149.918 103.656 149.746 103.429 149.621C103.207 149.496 102.945 149.434 102.644 149.434C102.347 149.434 102.086 149.496 101.859 149.621C101.636 149.746 101.449 149.918 101.297 150.137C101.148 150.352 101.037 150.6 100.963 150.881C100.888 151.158 100.851 151.453 100.851 151.766ZM110.83 153.318C110.83 153.162 110.794 153.018 110.724 152.885C110.658 152.748 110.519 152.625 110.308 152.516C110.101 152.402 109.789 152.305 109.371 152.223C109.019 152.148 108.701 152.061 108.416 151.959C108.134 151.857 107.894 151.734 107.695 151.59C107.5 151.445 107.349 151.275 107.244 151.08C107.138 150.885 107.085 150.656 107.085 150.395C107.085 150.145 107.14 149.908 107.25 149.686C107.363 149.463 107.521 149.266 107.724 149.094C107.931 148.922 108.179 148.787 108.468 148.689C108.757 148.592 109.08 148.543 109.435 148.543C109.943 148.543 110.376 148.633 110.736 148.812C111.095 148.992 111.371 149.232 111.562 149.533C111.753 149.83 111.849 150.16 111.849 150.523H110.765C110.765 150.348 110.712 150.178 110.607 150.014C110.505 149.846 110.355 149.707 110.156 149.598C109.96 149.488 109.72 149.434 109.435 149.434C109.134 149.434 108.89 149.48 108.703 149.574C108.519 149.664 108.384 149.779 108.298 149.92C108.216 150.061 108.175 150.209 108.175 150.365C108.175 150.482 108.195 150.588 108.234 150.682C108.277 150.771 108.351 150.855 108.457 150.934C108.562 151.008 108.71 151.078 108.902 151.145C109.093 151.211 109.337 151.277 109.634 151.344C110.154 151.461 110.582 151.602 110.917 151.766C111.253 151.93 111.503 152.131 111.667 152.369C111.832 152.607 111.914 152.896 111.914 153.236C111.914 153.514 111.855 153.768 111.738 153.998C111.625 154.229 111.459 154.428 111.24 154.596C111.025 154.76 110.767 154.889 110.466 154.982C110.169 155.072 109.835 155.117 109.464 155.117C108.906 155.117 108.433 155.018 108.046 154.818C107.66 154.619 107.367 154.361 107.167 154.045C106.968 153.729 106.869 153.395 106.869 153.043H107.959C107.974 153.34 108.06 153.576 108.216 153.752C108.373 153.924 108.564 154.047 108.791 154.121C109.017 154.191 109.242 154.227 109.464 154.227C109.761 154.227 110.009 154.188 110.209 154.109C110.412 154.031 110.566 153.924 110.671 153.787C110.777 153.65 110.83 153.494 110.83 153.318ZM116.232 148.66V149.492H112.804V148.66H116.232ZM113.964 147.119H115.048V153.43C115.048 153.645 115.081 153.807 115.148 153.916C115.214 154.025 115.3 154.098 115.406 154.133C115.511 154.168 115.624 154.186 115.745 154.186C115.835 154.186 115.929 154.178 116.027 154.162C116.128 154.143 116.204 154.127 116.255 154.115L116.261 155C116.175 155.027 116.062 155.053 115.921 155.076C115.784 155.104 115.618 155.117 115.423 155.117C115.157 155.117 114.913 155.064 114.691 154.959C114.468 154.854 114.29 154.678 114.157 154.432C114.029 154.182 113.964 153.846 113.964 153.424V147.119ZM120.374 155.117C119.933 155.117 119.532 155.043 119.173 154.895C118.817 154.742 118.511 154.529 118.253 154.256C117.999 153.982 117.804 153.658 117.667 153.283C117.53 152.908 117.462 152.498 117.462 152.053V151.807C117.462 151.291 117.538 150.832 117.69 150.43C117.843 150.023 118.05 149.68 118.312 149.398C118.573 149.117 118.87 148.904 119.202 148.76C119.534 148.615 119.878 148.543 120.233 148.543C120.687 148.543 121.077 148.621 121.405 148.777C121.737 148.934 122.009 149.152 122.22 149.434C122.431 149.711 122.587 150.039 122.689 150.418C122.79 150.793 122.841 151.203 122.841 151.648V152.135H118.106V151.25H121.757V151.168C121.741 150.887 121.683 150.613 121.581 150.348C121.483 150.082 121.327 149.863 121.112 149.691C120.897 149.52 120.605 149.434 120.233 149.434C119.987 149.434 119.761 149.486 119.554 149.592C119.347 149.693 119.169 149.846 119.021 150.049C118.872 150.252 118.757 150.5 118.675 150.793C118.593 151.086 118.552 151.424 118.552 151.807V152.053C118.552 152.354 118.593 152.637 118.675 152.902C118.761 153.164 118.884 153.395 119.044 153.594C119.208 153.793 119.405 153.949 119.636 154.062C119.87 154.176 120.136 154.232 120.433 154.232C120.815 154.232 121.14 154.154 121.405 153.998C121.671 153.842 121.903 153.633 122.103 153.371L122.759 153.893C122.622 154.1 122.448 154.297 122.237 154.484C122.026 154.672 121.767 154.824 121.458 154.941C121.153 155.059 120.792 155.117 120.374 155.117ZM128.343 153.77V146H129.432V155H128.436L128.343 153.77ZM124.077 151.9V151.777C124.077 151.293 124.136 150.854 124.253 150.459C124.374 150.061 124.544 149.719 124.763 149.434C124.985 149.148 125.249 148.93 125.554 148.777C125.862 148.621 126.206 148.543 126.585 148.543C126.983 148.543 127.331 148.613 127.628 148.754C127.929 148.891 128.182 149.092 128.389 149.357C128.6 149.619 128.766 149.936 128.888 150.307C129.009 150.678 129.093 151.098 129.139 151.566V152.105C129.096 152.57 129.013 152.988 128.888 153.359C128.766 153.73 128.6 154.047 128.389 154.309C128.182 154.57 127.929 154.771 127.628 154.912C127.327 155.049 126.975 155.117 126.573 155.117C126.202 155.117 125.862 155.037 125.554 154.877C125.249 154.717 124.985 154.492 124.763 154.203C124.544 153.914 124.374 153.574 124.253 153.184C124.136 152.789 124.077 152.361 124.077 151.9ZM125.167 151.777V151.9C125.167 152.217 125.198 152.514 125.261 152.791C125.327 153.068 125.429 153.312 125.565 153.523C125.702 153.734 125.876 153.9 126.087 154.021C126.298 154.139 126.55 154.197 126.843 154.197C127.202 154.197 127.497 154.121 127.727 153.969C127.962 153.816 128.149 153.615 128.29 153.365C128.43 153.115 128.54 152.844 128.618 152.551V151.139C128.571 150.924 128.503 150.717 128.413 150.518C128.327 150.314 128.214 150.135 128.073 149.979C127.936 149.818 127.766 149.691 127.563 149.598C127.364 149.504 127.128 149.457 126.854 149.457C126.557 149.457 126.302 149.52 126.087 149.645C125.876 149.766 125.702 149.934 125.565 150.148C125.429 150.359 125.327 150.605 125.261 150.887C125.198 151.164 125.167 151.461 125.167 151.777ZM136.041 150.201H136.815C137.194 150.201 137.506 150.139 137.752 150.014C138.002 149.885 138.188 149.711 138.309 149.492C138.434 149.27 138.496 149.02 138.496 148.742C138.496 148.414 138.442 148.139 138.332 147.916C138.223 147.693 138.059 147.525 137.84 147.412C137.621 147.299 137.344 147.242 137.008 147.242C136.703 147.242 136.434 147.303 136.2 147.424C135.969 147.541 135.787 147.709 135.655 147.928C135.526 148.146 135.461 148.404 135.461 148.701H134.377C134.377 148.268 134.487 147.873 134.705 147.518C134.924 147.162 135.231 146.879 135.625 146.668C136.024 146.457 136.485 146.352 137.008 146.352C137.524 146.352 137.975 146.443 138.362 146.627C138.748 146.807 139.049 147.076 139.264 147.436C139.479 147.791 139.586 148.234 139.586 148.766C139.586 148.98 139.535 149.211 139.434 149.457C139.336 149.699 139.182 149.926 138.971 150.137C138.764 150.348 138.494 150.521 138.162 150.658C137.83 150.791 137.432 150.857 136.967 150.857H136.041V150.201ZM136.041 151.092V150.441H136.967C137.51 150.441 137.959 150.506 138.315 150.635C138.67 150.764 138.95 150.936 139.153 151.15C139.36 151.365 139.504 151.602 139.586 151.859C139.672 152.113 139.715 152.367 139.715 152.621C139.715 153.02 139.647 153.373 139.51 153.682C139.377 153.99 139.188 154.252 138.942 154.467C138.7 154.682 138.414 154.844 138.086 154.953C137.758 155.062 137.401 155.117 137.014 155.117C136.643 155.117 136.293 155.064 135.965 154.959C135.641 154.854 135.354 154.701 135.104 154.502C134.854 154.299 134.659 154.051 134.518 153.758C134.377 153.461 134.307 153.123 134.307 152.744H135.391C135.391 153.041 135.455 153.301 135.584 153.523C135.717 153.746 135.905 153.92 136.147 154.045C136.393 154.166 136.682 154.227 137.014 154.227C137.346 154.227 137.631 154.17 137.869 154.057C138.112 153.939 138.297 153.764 138.426 153.529C138.559 153.295 138.625 153 138.625 152.645C138.625 152.289 138.551 151.998 138.403 151.771C138.254 151.541 138.043 151.371 137.77 151.262C137.5 151.148 137.182 151.092 136.815 151.092H136.041ZM148.779 153.77V146H149.869V155H148.873L148.779 153.77ZM144.514 151.9V151.777C144.514 151.293 144.572 150.854 144.689 150.459C144.81 150.061 144.98 149.719 145.199 149.434C145.422 149.148 145.685 148.93 145.99 148.777C146.299 148.621 146.642 148.543 147.021 148.543C147.42 148.543 147.767 148.613 148.064 148.754C148.365 148.891 148.619 149.092 148.826 149.357C149.037 149.619 149.203 149.936 149.324 150.307C149.445 150.678 149.529 151.098 149.576 151.566V152.105C149.533 152.57 149.449 152.988 149.324 153.359C149.203 153.73 149.037 154.047 148.826 154.309C148.619 154.57 148.365 154.771 148.064 154.912C147.764 155.049 147.412 155.117 147.01 155.117C146.639 155.117 146.299 155.037 145.99 154.877C145.685 154.717 145.422 154.492 145.199 154.203C144.98 153.914 144.81 153.574 144.689 153.184C144.572 152.789 144.514 152.361 144.514 151.9ZM145.603 151.777V151.9C145.603 152.217 145.635 152.514 145.697 152.791C145.764 153.068 145.865 153.312 146.002 153.523C146.139 153.734 146.312 153.9 146.523 154.021C146.734 154.139 146.986 154.197 147.279 154.197C147.639 154.197 147.933 154.121 148.164 153.969C148.398 153.816 148.586 153.615 148.726 153.365C148.867 153.115 148.976 152.844 149.055 152.551V151.139C149.008 150.924 148.939 150.717 148.849 150.518C148.764 150.314 148.65 150.135 148.51 149.979C148.373 149.818 148.203 149.691 148 149.598C147.801 149.504 147.564 149.457 147.291 149.457C146.994 149.457 146.738 149.52 146.523 149.645C146.312 149.766 146.139 149.934 146.002 150.148C145.865 150.359 145.764 150.605 145.697 150.887C145.635 151.164 145.603 151.461 145.603 151.777ZM155.535 153.916V150.652C155.535 150.402 155.484 150.186 155.382 150.002C155.285 149.814 155.136 149.67 154.937 149.568C154.738 149.467 154.492 149.416 154.199 149.416C153.925 149.416 153.685 149.463 153.478 149.557C153.275 149.65 153.115 149.773 152.998 149.926C152.884 150.078 152.828 150.242 152.828 150.418H151.744C151.744 150.191 151.802 149.967 151.92 149.744C152.037 149.521 152.205 149.32 152.423 149.141C152.646 148.957 152.912 148.812 153.22 148.707C153.533 148.598 153.88 148.543 154.263 148.543C154.724 148.543 155.13 148.621 155.482 148.777C155.838 148.934 156.115 149.17 156.314 149.486C156.517 149.799 156.619 150.191 156.619 150.664V153.617C156.619 153.828 156.636 154.053 156.671 154.291C156.711 154.529 156.767 154.734 156.841 154.906V155H155.711C155.656 154.875 155.613 154.709 155.582 154.502C155.55 154.291 155.535 154.096 155.535 153.916ZM155.722 151.156L155.734 151.918H154.638C154.33 151.918 154.054 151.943 153.812 151.994C153.57 152.041 153.367 152.113 153.203 152.211C153.039 152.309 152.914 152.432 152.828 152.58C152.742 152.725 152.699 152.895 152.699 153.09C152.699 153.289 152.744 153.471 152.834 153.635C152.923 153.799 153.058 153.93 153.238 154.027C153.421 154.121 153.646 154.168 153.912 154.168C154.244 154.168 154.537 154.098 154.791 153.957C155.045 153.816 155.246 153.645 155.394 153.441C155.546 153.238 155.629 153.041 155.64 152.85L156.103 153.371C156.076 153.535 156.002 153.717 155.88 153.916C155.759 154.115 155.597 154.307 155.394 154.49C155.195 154.67 154.957 154.82 154.679 154.941C154.406 155.059 154.097 155.117 153.754 155.117C153.324 155.117 152.947 155.033 152.623 154.865C152.302 154.697 152.052 154.473 151.873 154.191C151.697 153.906 151.609 153.588 151.609 153.236C151.609 152.896 151.675 152.598 151.808 152.34C151.941 152.078 152.132 151.861 152.382 151.689C152.632 151.514 152.933 151.381 153.285 151.291C153.636 151.201 154.029 151.156 154.463 151.156H155.722ZM160.251 154.344L162.015 148.66H163.175L160.632 155.979C160.574 156.135 160.495 156.303 160.398 156.482C160.304 156.666 160.183 156.84 160.035 157.004C159.886 157.168 159.706 157.301 159.495 157.402C159.288 157.508 159.04 157.561 158.751 157.561C158.665 157.561 158.556 157.549 158.423 157.525C158.29 157.502 158.197 157.482 158.142 157.467L158.136 156.588C158.167 156.592 158.216 156.596 158.283 156.6C158.353 156.607 158.402 156.611 158.429 156.611C158.675 156.611 158.884 156.578 159.056 156.512C159.228 156.449 159.372 156.342 159.49 156.189C159.611 156.041 159.714 155.836 159.8 155.574L160.251 154.344ZM158.956 148.66L160.603 153.582L160.884 154.725L160.105 155.123L157.773 148.66H158.956ZM168.085 153.318C168.085 153.162 168.05 153.018 167.98 152.885C167.913 152.748 167.775 152.625 167.564 152.516C167.357 152.402 167.044 152.305 166.626 152.223C166.275 152.148 165.956 152.061 165.671 151.959C165.39 151.857 165.15 151.734 164.95 151.59C164.755 151.445 164.605 151.275 164.499 151.08C164.394 150.885 164.341 150.656 164.341 150.395C164.341 150.145 164.396 149.908 164.505 149.686C164.618 149.463 164.776 149.266 164.98 149.094C165.187 148.922 165.435 148.787 165.724 148.689C166.013 148.592 166.335 148.543 166.691 148.543C167.198 148.543 167.632 148.633 167.991 148.812C168.351 148.992 168.626 149.232 168.817 149.533C169.009 149.83 169.105 150.16 169.105 150.523H168.021C168.021 150.348 167.968 150.178 167.862 150.014C167.761 149.846 167.61 149.707 167.411 149.598C167.216 149.488 166.976 149.434 166.691 149.434C166.39 149.434 166.146 149.48 165.958 149.574C165.775 149.664 165.64 149.779 165.554 149.92C165.472 150.061 165.431 150.209 165.431 150.365C165.431 150.482 165.45 150.588 165.489 150.682C165.532 150.771 165.607 150.855 165.712 150.934C165.817 151.008 165.966 151.078 166.157 151.145C166.349 151.211 166.593 151.277 166.89 151.344C167.409 151.461 167.837 151.602 168.173 151.766C168.509 151.93 168.759 152.131 168.923 152.369C169.087 152.607 169.169 152.896 169.169 153.236C169.169 153.514 169.11 153.768 168.993 153.998C168.88 154.229 168.714 154.428 168.495 154.596C168.28 154.76 168.023 154.889 167.722 154.982C167.425 155.072 167.091 155.117 166.72 155.117C166.161 155.117 165.689 155.018 165.302 154.818C164.915 154.619 164.622 154.361 164.423 154.045C164.224 153.729 164.124 153.395 164.124 153.043H165.214C165.23 153.34 165.316 153.576 165.472 153.752C165.628 153.924 165.819 154.047 166.046 154.121C166.273 154.191 166.497 154.227 166.72 154.227C167.017 154.227 167.265 154.188 167.464 154.109C167.667 154.031 167.821 153.924 167.927 153.787C168.032 153.65 168.085 153.494 168.085 153.318ZM177.788 153.916V150.652C177.788 150.402 177.737 150.186 177.635 150.002C177.538 149.814 177.389 149.67 177.19 149.568C176.991 149.467 176.745 149.416 176.452 149.416C176.178 149.416 175.938 149.463 175.731 149.557C175.528 149.65 175.368 149.773 175.251 149.926C175.137 150.078 175.081 150.242 175.081 150.418H173.997C173.997 150.191 174.055 149.967 174.173 149.744C174.29 149.521 174.458 149.32 174.676 149.141C174.899 148.957 175.165 148.812 175.473 148.707C175.786 148.598 176.133 148.543 176.516 148.543C176.977 148.543 177.383 148.621 177.735 148.777C178.09 148.934 178.368 149.17 178.567 149.486C178.77 149.799 178.872 150.191 178.872 150.664V153.617C178.872 153.828 178.889 154.053 178.924 154.291C178.964 154.529 179.02 154.734 179.094 154.906V155H177.964C177.909 154.875 177.866 154.709 177.835 154.502C177.803 154.291 177.788 154.096 177.788 153.916ZM177.975 151.156L177.987 151.918H176.891C176.583 151.918 176.307 151.943 176.065 151.994C175.823 152.041 175.62 152.113 175.456 152.211C175.292 152.309 175.167 152.432 175.081 152.58C174.995 152.725 174.952 152.895 174.952 153.09C174.952 153.289 174.997 153.471 175.087 153.635C175.176 153.799 175.311 153.93 175.491 154.027C175.674 154.121 175.899 154.168 176.165 154.168C176.497 154.168 176.79 154.098 177.044 153.957C177.298 153.816 177.499 153.645 177.647 153.441C177.799 153.238 177.881 153.041 177.893 152.85L178.356 153.371C178.329 153.535 178.255 153.717 178.133 153.916C178.012 154.115 177.85 154.307 177.647 154.49C177.448 154.67 177.21 154.82 176.932 154.941C176.659 155.059 176.35 155.117 176.006 155.117C175.577 155.117 175.2 155.033 174.876 154.865C174.555 154.697 174.305 154.473 174.126 154.191C173.95 153.906 173.862 153.588 173.862 153.236C173.862 152.896 173.928 152.598 174.061 152.34C174.194 152.078 174.385 151.861 174.635 151.689C174.885 151.514 175.186 151.381 175.538 151.291C175.889 151.201 176.282 151.156 176.715 151.156H177.975ZM184.924 148.66H185.909V154.865C185.909 155.424 185.795 155.9 185.569 156.295C185.342 156.689 185.026 156.988 184.62 157.191C184.217 157.398 183.752 157.502 183.225 157.502C183.006 157.502 182.748 157.467 182.452 157.396C182.159 157.33 181.87 157.215 181.584 157.051C181.303 156.891 181.067 156.674 180.875 156.4L181.444 155.756C181.709 156.076 181.987 156.299 182.276 156.424C182.569 156.549 182.858 156.611 183.143 156.611C183.487 156.611 183.784 156.547 184.034 156.418C184.284 156.289 184.477 156.098 184.614 155.844C184.754 155.594 184.825 155.285 184.825 154.918V150.055L184.924 148.66ZM180.559 151.9V151.777C180.559 151.293 180.616 150.854 180.729 150.459C180.846 150.061 181.012 149.719 181.227 149.434C181.446 149.148 181.709 148.93 182.018 148.777C182.327 148.621 182.674 148.543 183.061 148.543C183.459 148.543 183.807 148.613 184.104 148.754C184.405 148.891 184.659 149.092 184.866 149.357C185.077 149.619 185.243 149.936 185.364 150.307C185.485 150.678 185.569 151.098 185.616 151.566V152.105C185.573 152.57 185.489 152.988 185.364 153.359C185.243 153.73 185.077 154.047 184.866 154.309C184.659 154.57 184.405 154.771 184.104 154.912C183.803 155.049 183.452 155.117 183.049 155.117C182.67 155.117 182.327 155.037 182.018 154.877C181.713 154.717 181.452 154.492 181.233 154.203C181.014 153.914 180.846 153.574 180.729 153.184C180.616 152.789 180.559 152.361 180.559 151.9ZM181.643 151.777V151.9C181.643 152.217 181.674 152.514 181.737 152.791C181.803 153.068 181.903 153.312 182.036 153.523C182.172 153.734 182.346 153.9 182.557 154.021C182.768 154.139 183.02 154.197 183.313 154.197C183.672 154.197 183.969 154.121 184.204 153.969C184.438 153.816 184.623 153.615 184.76 153.365C184.901 153.115 185.01 152.844 185.088 152.551V151.139C185.045 150.924 184.979 150.717 184.889 150.518C184.803 150.314 184.69 150.135 184.549 149.979C184.412 149.818 184.243 149.691 184.039 149.598C183.836 149.504 183.598 149.457 183.325 149.457C183.028 149.457 182.772 149.52 182.557 149.645C182.346 149.766 182.172 149.934 182.036 150.148C181.903 150.359 181.803 150.605 181.737 150.887C181.674 151.164 181.643 151.461 181.643 151.777ZM187.508 151.9V151.766C187.508 151.309 187.574 150.885 187.707 150.494C187.84 150.1 188.031 149.758 188.281 149.469C188.531 149.176 188.834 148.949 189.19 148.789C189.545 148.625 189.944 148.543 190.385 148.543C190.83 148.543 191.231 148.625 191.586 148.789C191.945 148.949 192.25 149.176 192.5 149.469C192.754 149.758 192.947 150.1 193.08 150.494C193.213 150.885 193.279 151.309 193.279 151.766V151.9C193.279 152.357 193.213 152.781 193.08 153.172C192.947 153.562 192.754 153.904 192.5 154.197C192.25 154.486 191.947 154.713 191.592 154.877C191.24 155.037 190.842 155.117 190.397 155.117C189.951 155.117 189.551 155.037 189.195 154.877C188.84 154.713 188.535 154.486 188.281 154.197C188.031 153.904 187.84 153.562 187.707 153.172C187.574 152.781 187.508 152.357 187.508 151.9ZM188.592 151.766V151.9C188.592 152.217 188.629 152.516 188.703 152.797C188.777 153.074 188.889 153.32 189.037 153.535C189.19 153.75 189.379 153.92 189.606 154.045C189.832 154.166 190.096 154.227 190.397 154.227C190.694 154.227 190.953 154.166 191.176 154.045C191.402 153.92 191.59 153.75 191.738 153.535C191.887 153.32 191.998 153.074 192.072 152.797C192.151 152.516 192.19 152.217 192.19 151.9V151.766C192.19 151.453 192.151 151.158 192.072 150.881C191.998 150.6 191.885 150.352 191.733 150.137C191.584 149.918 191.397 149.746 191.17 149.621C190.947 149.496 190.686 149.434 190.385 149.434C190.088 149.434 189.826 149.496 189.6 149.621C189.377 149.746 189.19 149.918 189.037 150.137C188.889 150.352 188.777 150.6 188.703 150.881C188.629 151.158 188.592 151.453 188.592 151.766Z" fill="#B70404"/>
</g>
<defs>
<filter id="filter0_d_432_447" x="0.5" y="0.5" width="285" height="191" filterUnits="userSpaceOnUse" color-interpolation-filters="sRGB">
<feFlood flood-opacity="0" result="BackgroundImageFix"/>
<feColorMatrix in="SourceAlpha" type="matrix" values="0 0 0 0 0 0 0 0 0 0 0 0 0 0 0 0 0 0 127 0" result="hardAlpha"/>
<feOffset dy="3"/>
<feGaussianBlur stdDeviation="11.25"/>
<feComposite in2="hardAlpha" operator="out"/>
<feColorMatrix type="matrix" values="0 0 0 0 1 0 0 0 0 0.563846 0 0 0 0 0.515385 0 0 0 0.5 0"/>
<feBlend mode="normal" in2="BackgroundImageFix" result="effect1_dropShadow_432_447"/>
<feBlend mode="normal" in="SourceGraphic" in2="effect1_dropShadow_432_447" result="shape"/>
</filter>
</defs>
</svg>
