<svg width="100" height="100" viewBox="0 0 100 100" fill="none" xmlns="http://www.w3.org/2000/svg">
<rect width="100" height="100" rx="50" fill="#B70404"/>
<path d="M30.4263 65H19.2063V34.16H29.7063V38.84H30.2463C31.9263 35.42 35.4663 33.56 39.7263 33.56C44.7663 33.56 47.8263 35.66 49.3863 38.84H49.9263C52.0263 35.36 55.5063 33.56 60.0063 33.56C67.9863 33.56 70.9863 38.9 70.9863 45.26V65H59.7063V47.6C59.7063 44.3 58.9863 43.22 55.3263 43.22C51.7863 43.22 50.7063 44.12 50.7063 47.42V65H39.4263V47.6C39.4263 44.3 38.7063 43.22 35.0462 43.22C31.5063 43.22 30.4263 44.12 30.4263 47.42V65ZM87.783 65H74.343V52.58H87.783V65Z" fill="#F9F0DE"/>
</svg>
