<svg width="32" height="21" viewBox="0 0 32 21" fill="none" xmlns="http://www.w3.org/2000/svg">
<path d="M0.783447 1.96196V7.49861C0.783447 7.56367 0.836188 7.61642 0.901248 7.61642H2.43266C2.49772 7.61642 2.55046 7.56367 2.55046 7.49861V2.31537C2.55046 2.31537 2.55046 1.66746 3.13947 1.66746C3.78737 1.66746 3.78737 2.31537 3.78737 2.31537V7.49861C3.78737 7.56367 3.84012 7.61642 3.90517 7.61642H5.49549C5.56055 7.61642 5.61329 7.56367 5.61329 7.49861V1.97291C5.61329 1.96563 5.61285 1.95949 5.61134 1.95237C5.58067 1.80775 5.17129 0.0771484 3.13947 0.0771484C1.01905 0.0771484 0.783447 1.96196 0.783447 1.96196Z" fill="white"/>
<path d="M13.9182 10.6793V16.2159C13.9182 16.281 13.971 16.3337 14.036 16.3337H15.5674C15.6325 16.3337 15.6852 16.281 15.6852 16.2159V11.0327C15.6852 11.0327 15.6852 10.3847 16.2742 10.3847C16.9221 10.3847 16.9221 11.0327 16.9221 11.0327V16.2159C16.9221 16.281 16.9749 16.3337 17.0399 16.3337H18.6303C18.6953 16.3337 18.7481 16.281 18.7481 16.2159V10.6902C18.7481 10.6829 18.7476 10.6768 18.7461 10.6697C18.7154 10.525 18.3061 8.79443 16.2742 8.79443C14.1538 8.79443 13.9182 10.6793 13.9182 10.6793Z" fill="white"/>
<path d="M0.724548 16.2159V10.6793C0.724548 10.6793 0.96015 8.79443 3.08057 8.79443C3.83047 8.79443 4.35937 9.03017 4.72978 9.33491C4.72978 9.33491 5.43659 8.79443 6.1434 8.79443C8.17522 8.79443 8.5846 10.525 8.61526 10.6697C8.61678 10.6768 8.61722 10.6829 8.61722 10.6902V16.2159C8.61722 16.281 8.56448 16.3337 8.49942 16.3337H6.9091C6.84404 16.3337 6.7913 16.281 6.7913 16.2159V11.0327C6.7913 11.0327 6.7913 10.3847 6.1434 10.3847C5.64501 10.3847 5.56485 10.7681 5.55439 10.9451V11.0327V16.2159C5.55439 16.281 5.50165 16.3337 5.43659 16.3337H3.84628C3.78122 16.3337 3.72848 16.281 3.72848 16.2159V11.0327C3.72848 11.0327 3.72848 10.3847 3.08057 10.3847C2.49156 10.3847 2.49156 11.0327 2.49156 11.0327V16.2159C2.49156 16.281 2.43882 16.3337 2.37376 16.3337H0.842349C0.77729 16.3337 0.724548 16.281 0.724548 16.2159Z" fill="white"/>
<path fill-rule="evenodd" clip-rule="evenodd" d="M5.85151 5.92412C5.84951 5.91282 5.84888 5.90254 5.84888 5.89107V1.96196C5.84888 1.96196 6.08448 0.0771484 8.2049 0.0771484C10.1921 0.0771484 10.6274 1.73263 10.6742 1.94059C10.6774 1.9548 10.6787 1.9693 10.6787 1.98386V5.94945C10.6787 5.96127 10.678 5.97206 10.6759 5.98368C10.6415 6.17199 10.2694 7.91092 8.2638 7.91092C6.25414 7.91092 5.88463 6.11205 5.85151 5.92412ZM7.61588 5.67274V2.19761C7.61588 2.19761 7.61587 1.6675 8.23433 1.6675C8.85279 1.6675 8.85279 2.19761 8.85279 2.19761V5.67274C8.85279 5.67274 8.85279 6.26175 8.23433 6.26175C7.61587 6.26175 7.61588 5.67274 7.61588 5.67274Z" fill="white"/>
<path fill-rule="evenodd" clip-rule="evenodd" d="M18.9837 8.83285C18.9837 8.77802 19.021 8.73086 19.075 8.72119C19.3521 8.67156 20.2359 8.54864 21.3986 8.7392C22.8122 8.97087 22.6355 10.2667 22.6355 10.2667V14.8609C22.6355 14.8609 22.6355 15.9715 21.4127 16.275C21.4036 16.2773 21.3939 16.2785 21.3844 16.2784C20.4279 16.2753 19.4359 16.2773 19.1016 16.2781C19.0364 16.2783 18.9837 16.2255 18.9837 16.1603V14.6292V12.6266V8.83285ZM20.4562 14.9828C20.3912 14.9828 20.3384 14.93 20.3384 14.865V9.97622C20.3384 9.97622 20.3384 9.91339 20.7507 9.91732C21.1203 9.92083 21.2532 10.2934 21.2768 10.3707C21.2797 10.38 21.2808 10.3895 21.2808 10.3993V14.5116C21.2808 14.5116 21.2219 14.9828 20.8096 14.9828H20.4562Z" fill="white"/>
<path fill-rule="evenodd" clip-rule="evenodd" d="M8.85547 17.9398C8.85348 17.9285 8.85284 17.9183 8.85284 17.9068V10.6793C8.85284 10.6793 9.08845 8.79443 11.2089 8.79443C13.1961 8.79443 13.6313 10.4499 13.6782 10.6579C13.6814 10.6721 13.6827 10.6866 13.6827 10.7011V17.9652C13.6827 17.977 13.682 17.9878 13.6799 17.9994C13.6454 18.1877 13.2734 19.9266 11.2678 19.9266C9.25811 19.9266 8.88859 18.1278 8.85547 17.9398ZM10.6198 17.924V10.9148C10.6198 10.9148 10.6198 10.3847 11.2383 10.3847C11.8567 10.3847 11.8567 10.9148 11.8567 10.9148V17.924C11.8567 17.924 11.8567 18.513 11.2383 18.513C10.6198 18.513 10.6198 17.924 10.6198 17.924Z" fill="white"/>
<path d="M24.7562 8.61768C26.4641 8.61781 26.5814 10.0317 26.5814 10.0317V16.2163H25.2269V15.3911H24.2845V16.2163H22.9301V10.0317C22.9301 10.0317 23.0481 8.61768 24.7562 8.61768ZM24.7562 9.85498C24.285 9.85498 24.2845 10.2671 24.2845 10.2671V14.1538H25.2269V10.2671C25.2269 10.2671 25.2271 9.85516 24.7562 9.85498Z" fill="white"/>
<path d="M28.1722 8.73535H26.8175V13.7419C26.8175 13.7419 26.7537 14.1476 27.2298 14.6843C27.5243 15.0163 27.9366 15.1555 27.9366 15.1555V16.1568H29.3502V15.1555C29.3502 15.1555 29.7625 15.0353 30.057 14.6843C30.4523 14.2131 30.4104 13.7419 30.4104 13.7419V8.73535H29.1146V13.683C29.1146 13.683 29.0335 14.0364 28.6434 14.0364C28.2533 14.0364 28.1722 13.683 28.1722 13.683V8.73535Z" fill="white"/>
<path d="M17.6893 19.3856C17.6893 19.5052 17.6594 19.6074 17.5996 19.6921C17.5407 19.7758 17.4578 19.8398 17.3511 19.884C17.2443 19.9281 17.1187 19.9502 16.9742 19.9502C16.8978 19.9502 16.8256 19.9465 16.7575 19.9392C16.6894 19.9318 16.6268 19.9212 16.5697 19.9074C16.5127 19.8936 16.4625 19.8766 16.4192 19.8563V19.6313C16.4883 19.6599 16.5725 19.6865 16.6719 19.7114C16.7713 19.7353 16.8753 19.7473 16.9839 19.7473C17.0851 19.7473 17.1707 19.7339 17.2406 19.7073C17.3106 19.6796 17.3635 19.6405 17.3994 19.5899C17.4362 19.5384 17.4546 19.4767 17.4546 19.4049C17.4546 19.3359 17.4394 19.2784 17.409 19.2324C17.3787 19.1854 17.3281 19.1431 17.2572 19.1054C17.1873 19.0667 17.0915 19.0258 16.9701 18.9825C16.8845 18.9521 16.809 18.919 16.7437 18.8831C16.6783 18.8463 16.6236 18.8049 16.5794 18.7589C16.5352 18.7128 16.5016 18.6595 16.4786 18.5987C16.4565 18.538 16.4455 18.4685 16.4455 18.3903C16.4455 18.2826 16.4726 18.1906 16.5269 18.1142C16.5821 18.0369 16.6581 17.978 16.7547 17.9375C16.8523 17.8961 16.9641 17.8754 17.0902 17.8754C17.1978 17.8754 17.2972 17.8855 17.3883 17.9057C17.4804 17.926 17.5646 17.9531 17.641 17.9872L17.5678 18.1887C17.4951 18.1584 17.4178 18.133 17.3359 18.1128C17.2549 18.0925 17.1711 18.0824 17.0846 18.0824C16.9981 18.0824 16.925 18.0953 16.8651 18.1211C16.8062 18.1459 16.7611 18.1814 16.7299 18.2274C16.6986 18.2734 16.6829 18.3282 16.6829 18.3917C16.6829 18.4625 16.6976 18.5214 16.7271 18.5684C16.7575 18.6153 16.8053 18.6572 16.8707 18.694C16.9369 18.7299 17.0244 18.7676 17.133 18.8072C17.2517 18.8504 17.3524 18.8964 17.4353 18.9452C17.5181 18.9931 17.5811 19.052 17.6244 19.1219C17.6677 19.191 17.6893 19.2788 17.6893 19.3856ZM19.146 19.9226H18.9099V18.1114H18.2749V17.9043H19.7782V18.1114H19.146V19.9226ZM22.0342 17.9043V19.2103C22.0342 19.3529 22.0052 19.4799 21.9472 19.5913C21.8902 19.7027 21.8037 19.7905 21.6877 19.855C21.5717 19.9185 21.4263 19.9502 21.2515 19.9502C21.0021 19.9502 20.812 19.8826 20.6813 19.7473C20.5516 19.612 20.4867 19.4312 20.4867 19.2048V17.9043H20.7228V19.2117C20.7228 19.3828 20.7678 19.5149 20.858 19.6079C20.9492 19.7008 21.0849 19.7473 21.2653 19.7473C21.3886 19.7473 21.4894 19.7252 21.5676 19.681C21.6468 19.6359 21.7052 19.5733 21.7429 19.4933C21.7816 19.4123 21.8009 19.3189 21.8009 19.213V17.9043H22.0342ZM24.5967 18.8941C24.5967 19.1215 24.5552 19.3115 24.4724 19.4643C24.3896 19.6161 24.2695 19.7307 24.1121 19.808C23.9557 19.8844 23.7656 19.9226 23.542 19.9226H22.9939V17.9043H23.6027C23.8079 17.9043 23.9846 17.9421 24.1328 18.0175C24.281 18.0921 24.3951 18.203 24.4752 18.3502C24.5562 18.4966 24.5967 18.6779 24.5967 18.8941ZM24.3496 18.9024C24.3496 18.7211 24.3192 18.5716 24.2584 18.4538C24.1986 18.336 24.1103 18.2485 23.9934 18.1915C23.8774 18.1335 23.7352 18.1045 23.5668 18.1045H23.2286V19.7211H23.5144C23.7923 19.7211 24.0008 19.6525 24.1397 19.5154C24.2796 19.3782 24.3496 19.1739 24.3496 18.9024ZM25.4694 19.9226V17.9043H25.7041V19.9226H25.4694ZM28.4336 18.9107C28.4336 19.0662 28.4138 19.208 28.3742 19.3359C28.3346 19.4629 28.2757 19.5724 28.1975 19.6645C28.1202 19.7556 28.024 19.826 27.909 19.8757C27.7939 19.9254 27.6605 19.9502 27.5086 19.9502C27.3522 19.9502 27.2155 19.9254 27.0986 19.8757C26.9827 19.826 26.886 19.7551 26.8087 19.6631C26.7324 19.571 26.6748 19.4611 26.6362 19.3331C26.5984 19.2052 26.5796 19.0635 26.5796 18.908C26.5796 18.7018 26.6136 18.521 26.6817 18.3654C26.7498 18.2099 26.8529 18.0889 26.991 18.0024C27.1299 17.9158 27.3039 17.8726 27.5128 17.8726C27.7125 17.8726 27.8805 17.9154 28.0167 18.001C28.1538 18.0866 28.2573 18.2071 28.3273 18.3627C28.3981 18.5173 28.4336 18.7 28.4336 18.9107ZM26.8267 18.9107C26.8267 19.0819 26.8511 19.2301 26.8999 19.3552C26.9486 19.4804 27.0232 19.577 27.1235 19.6451C27.2247 19.7132 27.3531 19.7473 27.5086 19.7473C27.6651 19.7473 27.793 19.7132 27.8924 19.6451C27.9927 19.577 28.0668 19.4804 28.1147 19.3552C28.1625 19.2301 28.1865 19.0819 28.1865 18.9107C28.1865 18.6503 28.1317 18.4469 28.0222 18.3005C27.9136 18.1533 27.7438 18.0797 27.5128 18.0797C27.3563 18.0797 27.2275 18.1133 27.1263 18.1804C27.025 18.2476 26.9496 18.3433 26.8999 18.4676C26.8511 18.5909 26.8267 18.7386 26.8267 18.9107ZM30.4466 19.3856C30.4466 19.5052 30.4167 19.6074 30.3569 19.6921C30.298 19.7758 30.2151 19.8398 30.1084 19.884C30.0016 19.9281 29.876 19.9502 29.7315 19.9502C29.6551 19.9502 29.5829 19.9465 29.5148 19.9392C29.4467 19.9318 29.3841 19.9212 29.327 19.9074C29.27 19.8936 29.2198 19.8766 29.1765 19.8563V19.6313C29.2456 19.6599 29.3298 19.6865 29.4292 19.7114C29.5286 19.7353 29.6326 19.7473 29.7412 19.7473C29.8424 19.7473 29.928 19.7339 29.9979 19.7073C30.0679 19.6796 30.1208 19.6405 30.1567 19.5899C30.1935 19.5384 30.2119 19.4767 30.2119 19.4049C30.2119 19.3359 30.1967 19.2784 30.1663 19.2324C30.136 19.1854 30.0854 19.1431 30.0145 19.1054C29.9446 19.0667 29.8488 19.0258 29.7274 18.9825C29.6418 18.9521 29.5663 18.919 29.501 18.8831C29.4356 18.8463 29.3809 18.8049 29.3367 18.7589C29.2925 18.7128 29.2589 18.6595 29.2359 18.5987C29.2138 18.538 29.2028 18.4685 29.2028 18.3903C29.2028 18.2826 29.2299 18.1906 29.2842 18.1142C29.3394 18.0369 29.4154 17.978 29.512 17.9375C29.6096 17.8961 29.7214 17.8754 29.8475 17.8754C29.9551 17.8754 30.0545 17.8855 30.1456 17.9057C30.2377 17.926 30.3219 17.9531 30.3983 17.9872L30.3251 18.1887C30.2524 18.1584 30.1751 18.133 30.0932 18.1128C30.0122 18.0925 29.9284 18.0824 29.8419 18.0824C29.7554 18.0824 29.6823 18.0953 29.6224 18.1211C29.5635 18.1459 29.5184 18.1814 29.4872 18.2274C29.4559 18.2734 29.4402 18.3282 29.4402 18.3917C29.4402 18.4625 29.4549 18.5214 29.4844 18.5684C29.5148 18.6153 29.5626 18.6572 29.628 18.694C29.6942 18.7299 29.7817 18.7676 29.8903 18.8072C30.009 18.8504 30.1097 18.8964 30.1926 18.9452C30.2754 18.9931 30.3384 19.052 30.3817 19.1219C30.425 19.191 30.4466 19.2788 30.4466 19.3856Z" fill="white"/>
</svg>
